M48
;Layer_Color=6321
;FILE_FORMAT=2:5
INCH,LZ
;TYPE=PLATED
T1F00S00C0.01968
T2F00S00C0.02500
T3F00S00C0.02756
T4F00S00C0.02800
T5F00S00C0.02953
T6F00S00C0.03000
T7F00S00C0.03150
T8F00S00C0.03200
T9F00S00C0.03346
T10F00S00C0.03543
T11F00S00C0.03937
T13F00S00C0.04000
T14F00S00C0.04200
T15F00S00C0.04331
T16F00S00C0.04528
T17F00S00C0.05118
T18F00S00C0.06000
T19F00S00C0.12598
%
T01
X0857563Y0735
X0865437
T02
X08135Y0691
X08535
X08965Y0728
Y0768
X09285Y072
X09585
T03
X0814657Y0833
X0834343
X08265Y0872
Y0891685
X08765Y0809
X0896185
X0686981Y0910999
X0687001Y0916
X0686981Y0920999
X0564942Y0894763
X0564961Y0889763
X0564942Y0884763
X0466517
X0466536Y0889763
X0466517Y0894763
X0368091
X0368111Y0889763
X0368091Y0884763
X0269666
X0269685Y0889763
X0269666Y0894763
X0171241
X017126Y0889763
X0171241Y0884763
T04
X06952Y07138
X06979Y07265
X06999Y07614
X06606Y07905
X06554Y0920999
X05005Y08702
X0738Y09511
T05
X0684Y0837
Y0877
X0600709Y0856299
X0560709
X0502283
Y092126
X0560709
X0600709
X0462283
X0403858
X0363858
Y0856299
X0403858
X0462283
X0305433
X0265433
X0207008
X0167008
Y092126
X0207008
X0265433
X0305433
X01235Y0891
X00835
T06
X081311Y0738
X082689
X0995Y07425
X1015
X0959343Y0821
X0939657
X09035Y0910579
Y0920422
T07
X0992Y0793
Y0798
Y0803
T08
X064311Y0818898
Y0838583
X059311
Y0818898
X0544685
Y0838583
X0494685
Y0818898
X044626
Y0838583
X039626
Y0818898
X0347835
Y0838583
X0297835
Y0818898
X0249409
Y0838583
X0199409
Y0818898
X0150984
Y0838583
X0100984
Y0818898
T09
X0991783Y0694
X1027216
T10
X0939Y07515
X0949
X0959
X0969
Y07815
X0959
X0949
X0939
X0614567Y0887795
X0604331
X0594095
X0516142
X0505906
X0495669
X0417717
X040748
X0397244
X0319291
X0309055
X0298819
X0220866
X021063
X0200394
X0123236Y08625
X0113
X0102764
T11
X06785Y07065
Y07165
Y07265
Y07365
Y07465
Y07565
Y07665
Y07765
X07085
Y07665
Y07565
Y07465
Y07365
Y07265
Y07165
Y07065
X0942586Y0877759
X0974082
X1005578
X1037074
Y0957759
X1005578
X0974082
X0942586
T13
X1022Y07705
Y08105
X08875Y08608
Y08742
X08721Y08675
Y08541
Y08809
X07865Y08765
Y08865
Y08965
Y09065
Y09165
Y09265
Y09365
Y08665
Y08565
Y08465
Y08365
Y08265
Y08165
Y08065
Y07965
X07265
Y08065
Y08165
Y08265
Y08365
Y08465
Y08565
Y08665
Y08765
Y08865
Y08965
Y09065
Y09165
Y09265
Y09365
X0635827Y0926772
Y0852756
X0537402
Y0926772
X0438976
Y0852756
X0340551
Y0926772
X0242126
Y0852756
X0143701
Y0926772
T14
X0972Y0856
X0932
T15
X08255Y07935
X08355
X08455
T16
X0992783Y0719
X1028217
T17
X0106299Y0716536
X0122047Y0712599
X0137795Y0716536
X0144685Y0730315
Y0748032
Y0765748
X0137795Y0779528
X0106299
X0099409Y0765748
Y0748032
Y0730315
X0197835
Y0748032
Y0765748
X0204724Y0779528
X023622
X024311Y0765748
Y0748032
Y0730315
X023622Y0716536
X0220472Y0712599
X0204724Y0716536
X030315
X029626Y0730315
Y0748032
Y0765748
X030315Y0779528
X0334646
X0341535Y0765748
Y0748032
Y0730315
X0334646Y0716536
X0318898Y0712599
X0401575Y0716536
X0417323Y0712599
X0433071Y0716536
X0439961Y0730315
Y0748032
Y0765748
X0433071Y0779528
X0401575
X0394685Y0765748
Y0748032
Y0730315
X049311
Y0748032
Y0765748
X05Y0779528
X0531496
X0538386Y0765748
Y0748032
Y0730315
X0531496Y0716536
X0515748Y0712599
X05Y0716536
X0598425
X0614173Y0712599
X0591535Y0730315
Y0748032
Y0765748
X0598425Y0779528
X0629921
X0636811Y0765748
Y0748032
Y0730315
X0629921Y0716536
X0614173Y0783465
X0515748
X0417323
X0318898
X0220472
X0122047
T18
X0811Y09265
X0866
T19
X0057087Y0688976
X0915354
X0057087Y0956693
X0915354
M30
