G04 Layer_Physical_Order=2*
G04 Layer_Color=11436288*
%FSLAX25Y25*%
%MOIN*%
G70*
G01*
G75*
%ADD10C,0.01969*%
%ADD11C,0.03937*%
%ADD12C,0.08000*%
%ADD13C,0.04921*%
%ADD14R,0.04921X0.04921*%
%ADD15C,0.06000*%
%ADD16C,0.06693*%
%ADD17C,0.05512*%
%ADD18C,0.07874*%
%ADD19R,0.06000X0.06000*%
G04:AMPARAMS|DCode=20|XSize=102.36mil|YSize=62.99mil|CornerRadius=31.5mil|HoleSize=0mil|Usage=FLASHONLY|Rotation=0.000|XOffset=0mil|YOffset=0mil|HoleType=Round|Shape=RoundedRectangle|*
%AMROUNDEDRECTD20*
21,1,0.10236,0.00000,0,0,0.0*
21,1,0.03937,0.06299,0,0,0.0*
1,1,0.06299,0.01969,0.00000*
1,1,0.06299,-0.01969,0.00000*
1,1,0.06299,-0.01969,0.00000*
1,1,0.06299,0.01969,0.00000*
%
%ADD20ROUNDEDRECTD20*%
%ADD21O,0.10236X0.06299*%
%ADD22R,0.10236X0.06299*%
%ADD23R,0.07000X0.07000*%
%ADD24C,0.07000*%
%ADD25R,0.06500X0.04000*%
%ADD26O,0.06500X0.04000*%
%ADD27C,0.08400*%
%ADD28R,0.08400X0.08400*%
%ADD29C,0.04134*%
%ADD30R,0.04134X0.04134*%
%ADD31R,0.06693X0.06693*%
%ADD32C,0.06496*%
%ADD33C,0.04724*%
%ADD34C,0.05315*%
%ADD35R,0.06000X0.06000*%
%ADD36C,0.05906*%
%ADD37R,0.05906X0.05906*%
%ADD38R,0.07874X0.07874*%
%ADD39R,0.09843X0.05906*%
%ADD40O,0.09843X0.05906*%
%ADD41R,0.09000X0.09000*%
%ADD42C,0.09000*%
%ADD43R,0.15748X0.07874*%
%ADD44R,0.07874X0.15748*%
%ADD45O,0.07874X0.17716*%
%ADD46C,0.05000*%
G36*
X1055000Y680000D02*
X47500D01*
Y967500D01*
X1055000D01*
Y680000D01*
D02*
G37*
%LPC*%
G36*
X786500Y821039D02*
X785325Y820884D01*
X784231Y820431D01*
X783291Y819709D01*
X782569Y818769D01*
X782116Y817675D01*
X781961Y816500D01*
X782116Y815325D01*
X782569Y814231D01*
X783291Y813291D01*
X784231Y812569D01*
X785325Y812116D01*
X786500Y811961D01*
X787675Y812116D01*
X788769Y812569D01*
X789709Y813291D01*
X790431Y814231D01*
X790884Y815325D01*
X791039Y816500D01*
X790884Y817675D01*
X790431Y818769D01*
X789709Y819709D01*
X788769Y820431D01*
X787675Y820884D01*
X786500Y821039D01*
D02*
G37*
G36*
X100984Y822932D02*
X99940Y822795D01*
X98967Y822392D01*
X98131Y821750D01*
X97490Y820915D01*
X97087Y819942D01*
X96950Y818898D01*
X97087Y817853D01*
X97490Y816880D01*
X98131Y816045D01*
X98967Y815404D01*
X99940Y815001D01*
X100984Y814863D01*
X102028Y815001D01*
X103001Y815404D01*
X103837Y816045D01*
X104478Y816880D01*
X104881Y817853D01*
X105019Y818898D01*
X104881Y819942D01*
X104478Y820915D01*
X103837Y821750D01*
X103001Y822392D01*
X102028Y822795D01*
X100984Y822932D01*
D02*
G37*
G36*
X991500Y806028D02*
X991199Y805988D01*
X990453Y805679D01*
X989813Y805187D01*
X989321Y804547D01*
X989012Y803801D01*
X988972Y803500D01*
X991500D01*
Y806028D01*
D02*
G37*
G36*
X726500Y821039D02*
X725325Y820884D01*
X724231Y820431D01*
X723291Y819709D01*
X722569Y818769D01*
X722116Y817675D01*
X721961Y816500D01*
X722116Y815325D01*
X722569Y814231D01*
X723291Y813291D01*
X724231Y812569D01*
X725325Y812116D01*
X726500Y811961D01*
X727675Y812116D01*
X728769Y812569D01*
X729709Y813291D01*
X730431Y814231D01*
X730884Y815325D01*
X731039Y816500D01*
X730884Y817675D01*
X730431Y818769D01*
X729709Y819709D01*
X728769Y820431D01*
X727675Y820884D01*
X726500Y821039D01*
D02*
G37*
G36*
X150984Y822932D02*
X149940Y822795D01*
X148967Y822392D01*
X148131Y821750D01*
X147490Y820915D01*
X147087Y819942D01*
X146950Y818898D01*
X147087Y817853D01*
X147490Y816880D01*
X148131Y816045D01*
X148967Y815404D01*
X149940Y815001D01*
X150984Y814863D01*
X152028Y815001D01*
X153001Y815404D01*
X153837Y816045D01*
X154478Y816880D01*
X154881Y817853D01*
X155019Y818898D01*
X154881Y819942D01*
X154478Y820915D01*
X153837Y821750D01*
X153001Y822392D01*
X152028Y822795D01*
X150984Y822932D01*
D02*
G37*
G36*
X297835D02*
X296790Y822795D01*
X295817Y822392D01*
X294982Y821750D01*
X294341Y820915D01*
X293938Y819942D01*
X293800Y818898D01*
X293938Y817853D01*
X294341Y816880D01*
X294982Y816045D01*
X295817Y815404D01*
X296790Y815001D01*
X297835Y814863D01*
X298879Y815001D01*
X299852Y815404D01*
X300687Y816045D01*
X301329Y816880D01*
X301732Y817853D01*
X301869Y818898D01*
X301732Y819942D01*
X301329Y820915D01*
X300687Y821750D01*
X299852Y822392D01*
X298879Y822795D01*
X297835Y822932D01*
D02*
G37*
G36*
X958843Y820500D02*
X955374D01*
X955446Y819956D01*
X955849Y818983D01*
X956490Y818147D01*
X957325Y817506D01*
X958298Y817103D01*
X958843Y817031D01*
Y820500D01*
D02*
G37*
G36*
X199409Y822932D02*
X198365Y822795D01*
X197392Y822392D01*
X196557Y821750D01*
X195915Y820915D01*
X195512Y819942D01*
X195375Y818898D01*
X195512Y817853D01*
X195915Y816880D01*
X196557Y816045D01*
X197392Y815404D01*
X198365Y815001D01*
X199409Y814863D01*
X200454Y815001D01*
X201427Y815404D01*
X202262Y816045D01*
X202903Y816880D01*
X203306Y817853D01*
X203444Y818898D01*
X203306Y819942D01*
X202903Y820915D01*
X202262Y821750D01*
X201427Y822392D01*
X200454Y822795D01*
X199409Y822932D01*
D02*
G37*
G36*
X249409D02*
X248365Y822795D01*
X247392Y822392D01*
X246557Y821750D01*
X245915Y820915D01*
X245512Y819942D01*
X245375Y818898D01*
X245512Y817853D01*
X245915Y816880D01*
X246557Y816045D01*
X247392Y815404D01*
X248365Y815001D01*
X249409Y814863D01*
X250454Y815001D01*
X251427Y815404D01*
X252262Y816045D01*
X252903Y816880D01*
X253306Y817853D01*
X253444Y818898D01*
X253306Y819942D01*
X252903Y820915D01*
X252262Y821750D01*
X251427Y822392D01*
X250454Y822795D01*
X249409Y822932D01*
D02*
G37*
G36*
X786500Y811039D02*
X785325Y810884D01*
X784231Y810431D01*
X783291Y809709D01*
X782569Y808769D01*
X782116Y807675D01*
X781961Y806500D01*
X782116Y805325D01*
X782569Y804231D01*
X783291Y803291D01*
X784231Y802569D01*
X785325Y802116D01*
X786500Y801961D01*
X787675Y802116D01*
X788769Y802569D01*
X789709Y803291D01*
X790431Y804231D01*
X790884Y805325D01*
X791039Y806500D01*
X790884Y807675D01*
X790431Y808769D01*
X789709Y809709D01*
X788769Y810431D01*
X787675Y810884D01*
X786500Y811039D01*
D02*
G37*
G36*
X614173Y787253D02*
X613193Y787124D01*
X612279Y786745D01*
X611494Y786143D01*
X610892Y785359D01*
X610514Y784445D01*
X610385Y783465D01*
X610514Y782484D01*
X610892Y781570D01*
X611494Y780786D01*
X612279Y780184D01*
X613193Y779805D01*
X614173Y779676D01*
X615154Y779805D01*
X616067Y780184D01*
X616852Y780786D01*
X617454Y781570D01*
X617832Y782484D01*
X617962Y783465D01*
X617832Y784445D01*
X617454Y785359D01*
X616852Y786143D01*
X616067Y786745D01*
X615154Y787124D01*
X614173Y787253D01*
D02*
G37*
G36*
X835500Y797884D02*
X834365Y797735D01*
X833308Y797297D01*
X832400Y796600D01*
X831703Y795692D01*
X831265Y794635D01*
X831116Y793500D01*
X831265Y792365D01*
X831703Y791308D01*
X832400Y790400D01*
X833308Y789703D01*
X834365Y789265D01*
X835500Y789116D01*
X836635Y789265D01*
X837692Y789703D01*
X838600Y790400D01*
X839297Y791308D01*
X839735Y792365D01*
X839884Y793500D01*
X839735Y794635D01*
X839297Y795692D01*
X838600Y796600D01*
X837692Y797297D01*
X836635Y797735D01*
X835500Y797884D01*
D02*
G37*
G36*
X220472Y787253D02*
X219492Y787124D01*
X218578Y786745D01*
X217794Y786143D01*
X217192Y785359D01*
X216813Y784445D01*
X216684Y783465D01*
X216813Y782484D01*
X217192Y781570D01*
X217794Y780786D01*
X218578Y780184D01*
X219492Y779805D01*
X220472Y779676D01*
X221453Y779805D01*
X222367Y780184D01*
X223151Y780786D01*
X223753Y781570D01*
X224132Y782484D01*
X224261Y783465D01*
X224132Y784445D01*
X223753Y785359D01*
X223151Y786143D01*
X222367Y786745D01*
X221453Y787124D01*
X220472Y787253D01*
D02*
G37*
G36*
X318898D02*
X317917Y787124D01*
X317003Y786745D01*
X316219Y786143D01*
X315617Y785359D01*
X315238Y784445D01*
X315109Y783465D01*
X315238Y782484D01*
X315617Y781570D01*
X316219Y780786D01*
X317003Y780184D01*
X317917Y779805D01*
X318898Y779676D01*
X319878Y779805D01*
X320792Y780184D01*
X321576Y780786D01*
X322178Y781570D01*
X322557Y782484D01*
X322686Y783465D01*
X322557Y784445D01*
X322178Y785359D01*
X321576Y786143D01*
X320792Y786745D01*
X319878Y787124D01*
X318898Y787253D01*
D02*
G37*
G36*
X825000Y793000D02*
X821154D01*
Y789153D01*
X825000D01*
Y793000D01*
D02*
G37*
G36*
X829846Y797847D02*
X826000D01*
Y794000D01*
X829846D01*
Y797847D01*
D02*
G37*
G36*
X305433Y925644D02*
X304298Y925494D01*
X303241Y925056D01*
X302333Y924360D01*
X301636Y923452D01*
X301198Y922394D01*
X301049Y921260D01*
X301198Y920125D01*
X301636Y919068D01*
X302333Y918160D01*
X303241Y917463D01*
X303410Y917393D01*
Y910271D01*
X256569Y863431D01*
X256131Y862774D01*
X255977Y862000D01*
Y846000D01*
X256131Y845226D01*
X256569Y844569D01*
X269069Y832069D01*
X269726Y831631D01*
X270500Y831477D01*
X297362D01*
X317169Y811669D01*
X317826Y811231D01*
X318600Y811077D01*
X719062D01*
X722218Y807921D01*
X722116Y807675D01*
X721961Y806500D01*
X722116Y805325D01*
X722569Y804231D01*
X723291Y803291D01*
X724231Y802569D01*
X725325Y802116D01*
X726500Y801961D01*
X727675Y802116D01*
X728769Y802569D01*
X729709Y803291D01*
X730431Y804231D01*
X730884Y805325D01*
X731039Y806500D01*
X730884Y807675D01*
X730431Y808769D01*
X729709Y809709D01*
X728769Y810431D01*
X727675Y810884D01*
X726500Y811039D01*
X725325Y810884D01*
X725079Y810782D01*
X721331Y814531D01*
X720674Y814969D01*
X719900Y815123D01*
X645583D01*
X645414Y815623D01*
X645963Y816045D01*
X646604Y816880D01*
X647007Y817853D01*
X647145Y818898D01*
X647007Y819942D01*
X646604Y820915D01*
X645963Y821750D01*
X645127Y822392D01*
X644154Y822795D01*
X643110Y822932D01*
X642066Y822795D01*
X641093Y822392D01*
X640257Y821750D01*
X639616Y820915D01*
X639213Y819942D01*
X639076Y818898D01*
X639213Y817853D01*
X639616Y816880D01*
X640257Y816045D01*
X640807Y815623D01*
X640637Y815123D01*
X595583D01*
X595414Y815623D01*
X595963Y816045D01*
X596604Y816880D01*
X597007Y817853D01*
X597145Y818898D01*
X597007Y819942D01*
X596604Y820915D01*
X595963Y821750D01*
X595127Y822392D01*
X594154Y822795D01*
X593110Y822932D01*
X592066Y822795D01*
X591093Y822392D01*
X590257Y821750D01*
X589616Y820915D01*
X589213Y819942D01*
X589076Y818898D01*
X589213Y817853D01*
X589616Y816880D01*
X590257Y816045D01*
X590807Y815623D01*
X590637Y815123D01*
X547158D01*
X546988Y815623D01*
X547538Y816045D01*
X548179Y816880D01*
X548582Y817853D01*
X548720Y818898D01*
X548582Y819942D01*
X548179Y820915D01*
X547538Y821750D01*
X546702Y822392D01*
X545729Y822795D01*
X544685Y822932D01*
X543641Y822795D01*
X542668Y822392D01*
X541832Y821750D01*
X541191Y820915D01*
X540788Y819942D01*
X540651Y818898D01*
X540788Y817853D01*
X541191Y816880D01*
X541832Y816045D01*
X542382Y815623D01*
X542212Y815123D01*
X497158D01*
X496988Y815623D01*
X497538Y816045D01*
X498179Y816880D01*
X498582Y817853D01*
X498720Y818898D01*
X498582Y819942D01*
X498179Y820915D01*
X497538Y821750D01*
X496702Y822392D01*
X495729Y822795D01*
X494685Y822932D01*
X493641Y822795D01*
X492668Y822392D01*
X491832Y821750D01*
X491191Y820915D01*
X490788Y819942D01*
X490651Y818898D01*
X490788Y817853D01*
X491191Y816880D01*
X491832Y816045D01*
X492382Y815623D01*
X492212Y815123D01*
X448733D01*
X448563Y815623D01*
X449113Y816045D01*
X449754Y816880D01*
X450157Y817853D01*
X450294Y818898D01*
X450157Y819942D01*
X449754Y820915D01*
X449113Y821750D01*
X448277Y822392D01*
X447304Y822795D01*
X446260Y822932D01*
X445216Y822795D01*
X444242Y822392D01*
X443407Y821750D01*
X442766Y820915D01*
X442363Y819942D01*
X442225Y818898D01*
X442363Y817853D01*
X442766Y816880D01*
X443407Y816045D01*
X443957Y815623D01*
X443787Y815123D01*
X398733D01*
X398563Y815623D01*
X399113Y816045D01*
X399754Y816880D01*
X400157Y817853D01*
X400294Y818898D01*
X400157Y819942D01*
X399754Y820915D01*
X399113Y821750D01*
X398277Y822392D01*
X397304Y822795D01*
X396260Y822932D01*
X395216Y822795D01*
X394243Y822392D01*
X393407Y821750D01*
X392766Y820915D01*
X392363Y819942D01*
X392225Y818898D01*
X392363Y817853D01*
X392766Y816880D01*
X393407Y816045D01*
X393956Y815623D01*
X393787Y815123D01*
X350308D01*
X350138Y815623D01*
X350687Y816045D01*
X351329Y816880D01*
X351732Y817853D01*
X351869Y818898D01*
X351732Y819942D01*
X351329Y820915D01*
X350687Y821750D01*
X349852Y822392D01*
X348879Y822795D01*
X347835Y822932D01*
X346790Y822795D01*
X345817Y822392D01*
X344982Y821750D01*
X344341Y820915D01*
X343938Y819942D01*
X343800Y818898D01*
X343938Y817853D01*
X344341Y816880D01*
X344982Y816045D01*
X345531Y815623D01*
X345361Y815123D01*
X319438D01*
X299966Y834595D01*
X299942Y834699D01*
X300037Y835231D01*
X300687Y835730D01*
X301329Y836565D01*
X301732Y837538D01*
X301869Y838583D01*
X301732Y839627D01*
X301329Y840600D01*
X300687Y841435D01*
X299852Y842077D01*
X298879Y842480D01*
X297835Y842617D01*
X296790Y842480D01*
X295817Y842077D01*
X294982Y841435D01*
X294341Y840600D01*
X293938Y839627D01*
X293800Y838583D01*
X293938Y837538D01*
X294341Y836565D01*
X294757Y836023D01*
X294510Y835523D01*
X271338D01*
X260023Y846838D01*
Y861162D01*
X306864Y908002D01*
X307302Y908659D01*
X307456Y909433D01*
Y917393D01*
X307625Y917463D01*
X308533Y918160D01*
X309230Y919068D01*
X309668Y920125D01*
X309817Y921260D01*
X309668Y922394D01*
X309230Y923452D01*
X308533Y924360D01*
X307625Y925056D01*
X306568Y925494D01*
X305433Y925644D01*
D02*
G37*
G36*
X829846Y793000D02*
X826000D01*
Y789153D01*
X829846D01*
Y793000D01*
D02*
G37*
G36*
X825000Y797847D02*
X821154D01*
Y794000D01*
X825000D01*
Y797847D01*
D02*
G37*
G36*
X963311Y820500D02*
X959843D01*
Y817031D01*
X960387Y817103D01*
X961360Y817506D01*
X962195Y818147D01*
X962837Y818983D01*
X963240Y819956D01*
X963311Y820500D01*
D02*
G37*
G36*
X347835Y842617D02*
X346790Y842480D01*
X345817Y842077D01*
X344982Y841435D01*
X344341Y840600D01*
X343938Y839627D01*
X343800Y838583D01*
X343938Y837538D01*
X344341Y836565D01*
X344982Y835730D01*
X345817Y835089D01*
X346790Y834686D01*
X347835Y834548D01*
X348879Y834686D01*
X349852Y835089D01*
X350687Y835730D01*
X351329Y836565D01*
X351732Y837538D01*
X351869Y838583D01*
X351732Y839627D01*
X351329Y840600D01*
X350687Y841435D01*
X349852Y842077D01*
X348879Y842480D01*
X347835Y842617D01*
D02*
G37*
G36*
X396260D02*
X395216Y842480D01*
X394243Y842077D01*
X393407Y841435D01*
X392766Y840600D01*
X392363Y839627D01*
X392225Y838583D01*
X392363Y837538D01*
X392766Y836565D01*
X393407Y835730D01*
X394243Y835089D01*
X395216Y834686D01*
X396260Y834548D01*
X397304Y834686D01*
X398277Y835089D01*
X399113Y835730D01*
X399754Y836565D01*
X400157Y837538D01*
X400294Y838583D01*
X400157Y839627D01*
X399754Y840600D01*
X399113Y841435D01*
X398277Y842077D01*
X397304Y842480D01*
X396260Y842617D01*
D02*
G37*
G36*
X199409D02*
X198365Y842480D01*
X197392Y842077D01*
X196557Y841435D01*
X195915Y840600D01*
X195512Y839627D01*
X195375Y838583D01*
X195512Y837538D01*
X195915Y836565D01*
X196557Y835730D01*
X197392Y835089D01*
X198365Y834686D01*
X199409Y834548D01*
X200454Y834686D01*
X201427Y835089D01*
X202262Y835730D01*
X202903Y836565D01*
X203306Y837538D01*
X203444Y838583D01*
X203306Y839627D01*
X202903Y840600D01*
X202262Y841435D01*
X201427Y842077D01*
X200454Y842480D01*
X199409Y842617D01*
D02*
G37*
G36*
X249409D02*
X248365Y842480D01*
X247392Y842077D01*
X246557Y841435D01*
X245915Y840600D01*
X245512Y839627D01*
X245375Y838583D01*
X245512Y837538D01*
X245915Y836565D01*
X246557Y835730D01*
X247392Y835089D01*
X248365Y834686D01*
X249409Y834548D01*
X250454Y834686D01*
X251427Y835089D01*
X252262Y835730D01*
X252903Y836565D01*
X253306Y837538D01*
X253444Y838583D01*
X253306Y839627D01*
X252903Y840600D01*
X252262Y841435D01*
X251427Y842077D01*
X250454Y842480D01*
X249409Y842617D01*
D02*
G37*
G36*
X446260D02*
X445216Y842480D01*
X444242Y842077D01*
X443407Y841435D01*
X442766Y840600D01*
X442363Y839627D01*
X442225Y838583D01*
X442363Y837538D01*
X442766Y836565D01*
X443407Y835730D01*
X444242Y835089D01*
X445216Y834686D01*
X446260Y834548D01*
X447304Y834686D01*
X448277Y835089D01*
X449113Y835730D01*
X449754Y836565D01*
X450157Y837538D01*
X450294Y838583D01*
X450157Y839627D01*
X449754Y840600D01*
X449113Y841435D01*
X448277Y842077D01*
X447304Y842480D01*
X446260Y842617D01*
D02*
G37*
G36*
X593110D02*
X592066Y842480D01*
X591093Y842077D01*
X590257Y841435D01*
X589616Y840600D01*
X589213Y839627D01*
X589076Y838583D01*
X589213Y837538D01*
X589616Y836565D01*
X590257Y835730D01*
X591093Y835089D01*
X592066Y834686D01*
X593110Y834548D01*
X594154Y834686D01*
X595127Y835089D01*
X595963Y835730D01*
X596604Y836565D01*
X597007Y837538D01*
X597145Y838583D01*
X597007Y839627D01*
X596604Y840600D01*
X595963Y841435D01*
X595127Y842077D01*
X594154Y842480D01*
X593110Y842617D01*
D02*
G37*
G36*
X643110D02*
X642066Y842480D01*
X641093Y842077D01*
X640257Y841435D01*
X639616Y840600D01*
X639213Y839627D01*
X639076Y838583D01*
X639213Y837538D01*
X639616Y836565D01*
X640257Y835730D01*
X641093Y835089D01*
X642066Y834686D01*
X643110Y834548D01*
X644154Y834686D01*
X645127Y835089D01*
X645963Y835730D01*
X646604Y836565D01*
X647007Y837538D01*
X647145Y838583D01*
X647007Y839627D01*
X646604Y840600D01*
X645963Y841435D01*
X645127Y842077D01*
X644154Y842480D01*
X643110Y842617D01*
D02*
G37*
G36*
X494685D02*
X493641Y842480D01*
X492668Y842077D01*
X491832Y841435D01*
X491191Y840600D01*
X490788Y839627D01*
X490651Y838583D01*
X490788Y837538D01*
X491191Y836565D01*
X491832Y835730D01*
X492668Y835089D01*
X493641Y834686D01*
X494685Y834548D01*
X495729Y834686D01*
X496702Y835089D01*
X497538Y835730D01*
X498179Y836565D01*
X498582Y837538D01*
X498720Y838583D01*
X498582Y839627D01*
X498179Y840600D01*
X497538Y841435D01*
X496702Y842077D01*
X495729Y842480D01*
X494685Y842617D01*
D02*
G37*
G36*
X544685D02*
X543641Y842480D01*
X542668Y842077D01*
X541832Y841435D01*
X541191Y840600D01*
X540788Y839627D01*
X540651Y838583D01*
X540788Y837538D01*
X541191Y836565D01*
X541832Y835730D01*
X542668Y835089D01*
X543641Y834686D01*
X544685Y834548D01*
X545729Y834686D01*
X546702Y835089D01*
X547538Y835730D01*
X548179Y836565D01*
X548582Y837538D01*
X548720Y838583D01*
X548582Y839627D01*
X548179Y840600D01*
X547538Y841435D01*
X546702Y842077D01*
X545729Y842480D01*
X544685Y842617D01*
D02*
G37*
G36*
X100984D02*
X99940Y842480D01*
X98967Y842077D01*
X98131Y841435D01*
X97490Y840600D01*
X97087Y839627D01*
X96950Y838583D01*
X97087Y837538D01*
X97490Y836565D01*
X98131Y835730D01*
X98967Y835089D01*
X99940Y834686D01*
X100984Y834548D01*
X102028Y834686D01*
X103001Y835089D01*
X103837Y835730D01*
X104478Y836565D01*
X104881Y837538D01*
X105019Y838583D01*
X104881Y839627D01*
X104478Y840600D01*
X103837Y841435D01*
X103001Y842077D01*
X102028Y842480D01*
X100984Y842617D01*
D02*
G37*
G36*
X786500Y831039D02*
X785325Y830884D01*
X784231Y830431D01*
X783291Y829709D01*
X782569Y828769D01*
X782116Y827675D01*
X781961Y826500D01*
X782116Y825325D01*
X782569Y824231D01*
X783291Y823291D01*
X784231Y822569D01*
X785325Y822116D01*
X786500Y821961D01*
X787675Y822116D01*
X788769Y822569D01*
X789709Y823291D01*
X790431Y824231D01*
X790884Y825325D01*
X791039Y826500D01*
X790884Y827675D01*
X790431Y828769D01*
X789709Y829709D01*
X788769Y830431D01*
X787675Y830884D01*
X786500Y831039D01*
D02*
G37*
G36*
X834343Y837980D02*
X833054Y837810D01*
X831853Y837313D01*
X830822Y836521D01*
X830030Y835490D01*
X829533Y834289D01*
X829363Y833000D01*
X829533Y831711D01*
X830030Y830510D01*
X830822Y829479D01*
X831853Y828687D01*
X833054Y828190D01*
X834343Y828020D01*
X835631Y828190D01*
X836832Y828687D01*
X837864Y829479D01*
X838655Y830510D01*
X839153Y831711D01*
X839322Y833000D01*
X839153Y834289D01*
X838655Y835490D01*
X837864Y836521D01*
X836832Y837313D01*
X835631Y837810D01*
X834343Y837980D01*
D02*
G37*
G36*
X958843Y824969D02*
X958298Y824897D01*
X957325Y824494D01*
X956490Y823853D01*
X955849Y823017D01*
X955446Y822044D01*
X955374Y821500D01*
X958843D01*
Y824969D01*
D02*
G37*
G36*
X959843D02*
Y821500D01*
X963311D01*
X963240Y822044D01*
X962837Y823017D01*
X962195Y823853D01*
X961360Y824494D01*
X960387Y824897D01*
X959843Y824969D01*
D02*
G37*
G36*
X814157Y832500D02*
X809720D01*
Y828063D01*
X814157D01*
Y832500D01*
D02*
G37*
G36*
X786500Y841039D02*
X785325Y840884D01*
X784231Y840431D01*
X783291Y839709D01*
X782569Y838769D01*
X782116Y837675D01*
X781961Y836500D01*
X782116Y835325D01*
X782569Y834231D01*
X783291Y833291D01*
X784231Y832569D01*
X785325Y832116D01*
X786500Y831961D01*
X787675Y832116D01*
X788769Y832569D01*
X789709Y833291D01*
X790431Y834231D01*
X790884Y835325D01*
X791039Y836500D01*
X790884Y837675D01*
X790431Y838769D01*
X789709Y839709D01*
X788769Y840431D01*
X787675Y840884D01*
X786500Y841039D01*
D02*
G37*
G36*
X814157Y837937D02*
X809720D01*
Y833500D01*
X814157D01*
Y837937D01*
D02*
G37*
G36*
X819594Y832500D02*
X815157D01*
Y828063D01*
X819594D01*
Y832500D01*
D02*
G37*
G36*
X726500Y841039D02*
X725325Y840884D01*
X724231Y840431D01*
X723291Y839709D01*
X722569Y838769D01*
X722116Y837675D01*
X721961Y836500D01*
X722116Y835325D01*
X722569Y834231D01*
X723291Y833291D01*
X724231Y832569D01*
X725325Y832116D01*
X726500Y831961D01*
X727675Y832116D01*
X728769Y832569D01*
X729709Y833291D01*
X730431Y834231D01*
X730884Y835325D01*
X731039Y836500D01*
X730884Y837675D01*
X730431Y838769D01*
X729709Y839709D01*
X728769Y840431D01*
X727675Y840884D01*
X726500Y841039D01*
D02*
G37*
G36*
X122047Y787253D02*
X121067Y787124D01*
X120153Y786745D01*
X119369Y786143D01*
X118766Y785359D01*
X118388Y784445D01*
X118259Y783465D01*
X118388Y782484D01*
X118766Y781570D01*
X119369Y780786D01*
X120153Y780184D01*
X121067Y779805D01*
X122047Y779676D01*
X123028Y779805D01*
X123941Y780184D01*
X124726Y780786D01*
X125328Y781570D01*
X125706Y782484D01*
X125836Y783465D01*
X125706Y784445D01*
X125328Y785359D01*
X124726Y786143D01*
X123941Y786745D01*
X123028Y787124D01*
X122047Y787253D01*
D02*
G37*
G36*
X1028217Y723285D02*
X1027108Y723139D01*
X1026074Y722711D01*
X1025187Y722030D01*
X1024506Y721142D01*
X1024078Y720109D01*
X1023932Y719000D01*
X1024078Y717891D01*
X1024506Y716858D01*
X1025187Y715970D01*
X1026074Y715289D01*
X1027108Y714861D01*
X1028217Y714715D01*
X1029326Y714861D01*
X1030359Y715289D01*
X1031246Y715970D01*
X1031927Y716858D01*
X1032355Y717891D01*
X1032501Y719000D01*
X1032355Y720109D01*
X1031927Y721142D01*
X1031246Y722030D01*
X1030359Y722711D01*
X1029326Y723139D01*
X1028217Y723285D01*
D02*
G37*
G36*
X958500Y724035D02*
X957456Y723897D01*
X956483Y723494D01*
X955647Y722853D01*
X955006Y722017D01*
X954603Y721044D01*
X954465Y720000D01*
X954603Y718956D01*
X955006Y717983D01*
X955647Y717147D01*
X956483Y716506D01*
X957456Y716103D01*
X958500Y715966D01*
X959544Y716103D01*
X960517Y716506D01*
X961353Y717147D01*
X961994Y717983D01*
X962397Y718956D01*
X962535Y720000D01*
X962397Y721044D01*
X961994Y722017D01*
X961353Y722853D01*
X960517Y723494D01*
X959544Y723897D01*
X958500Y724035D01*
D02*
G37*
G36*
X106299Y721515D02*
X105010Y721346D01*
X103809Y720848D01*
X102778Y720057D01*
X101987Y719025D01*
X101489Y717824D01*
X101320Y716536D01*
X101489Y715247D01*
X101987Y714046D01*
X102778Y713015D01*
X103809Y712223D01*
X105010Y711726D01*
X106299Y711556D01*
X107588Y711726D01*
X108789Y712223D01*
X109820Y713015D01*
X110612Y714046D01*
X111109Y715247D01*
X111279Y716536D01*
X111109Y717824D01*
X110612Y719025D01*
X109820Y720057D01*
X108789Y720848D01*
X107588Y721346D01*
X106299Y721515D01*
D02*
G37*
G36*
X680469Y720685D02*
X676532D01*
X675448Y720543D01*
X674439Y720125D01*
X673572Y719459D01*
X672907Y718593D01*
X672489Y717583D01*
X672346Y716500D01*
X672489Y715417D01*
X672907Y714407D01*
X673572Y713541D01*
X674439Y712875D01*
X675448Y712457D01*
X676532Y712315D01*
X680469D01*
X681552Y712457D01*
X682561Y712875D01*
X683428Y713541D01*
X684093Y714407D01*
X684511Y715417D01*
X684654Y716500D01*
X684511Y717583D01*
X684093Y718593D01*
X683428Y719459D01*
X682561Y720125D01*
X681552Y720543D01*
X680469Y720685D01*
D02*
G37*
G36*
X861024Y734500D02*
X858063D01*
Y731539D01*
X861024D01*
Y734500D01*
D02*
G37*
G36*
X826390Y737500D02*
X822890D01*
Y734000D01*
X826390D01*
Y737500D01*
D02*
G37*
G36*
X708000Y740650D02*
X702382D01*
Y737000D01*
X708000D01*
Y740650D01*
D02*
G37*
G36*
X680469Y740685D02*
X676532D01*
X675448Y740543D01*
X674439Y740125D01*
X673572Y739460D01*
X672907Y738593D01*
X672489Y737583D01*
X672346Y736500D01*
X672489Y735417D01*
X672907Y734407D01*
X673572Y733540D01*
X674439Y732875D01*
X675448Y732457D01*
X676532Y732315D01*
X680469D01*
X681552Y732457D01*
X682561Y732875D01*
X683428Y733540D01*
X684093Y734407D01*
X684511Y735417D01*
X684654Y736500D01*
X684511Y737583D01*
X684093Y738593D01*
X683428Y739460D01*
X682561Y740125D01*
X681552Y740543D01*
X680469Y740685D01*
D02*
G37*
G36*
X708000Y736000D02*
X702382D01*
Y732350D01*
X708000D01*
Y736000D01*
D02*
G37*
G36*
X710468Y710685D02*
X706531D01*
X705448Y710543D01*
X704439Y710125D01*
X703572Y709459D01*
X702907Y708593D01*
X702489Y707583D01*
X702346Y706500D01*
X702489Y705417D01*
X702907Y704407D01*
X703572Y703541D01*
X704439Y702875D01*
X705448Y702457D01*
X706531Y702315D01*
X710468D01*
X711552Y702457D01*
X712561Y702875D01*
X713428Y703541D01*
X714093Y704407D01*
X714511Y705417D01*
X714654Y706500D01*
X714511Y707583D01*
X714093Y708593D01*
X713428Y709459D01*
X712561Y710125D01*
X711552Y710543D01*
X710468Y710685D01*
D02*
G37*
G36*
X853500Y695035D02*
X852456Y694897D01*
X851483Y694494D01*
X850647Y693853D01*
X850006Y693017D01*
X849603Y692044D01*
X849465Y691000D01*
X849603Y689956D01*
X850006Y688983D01*
X850647Y688147D01*
X851483Y687506D01*
X852456Y687103D01*
X853500Y686966D01*
X854544Y687103D01*
X855517Y687506D01*
X856353Y688147D01*
X856994Y688983D01*
X857397Y689956D01*
X857535Y691000D01*
X857397Y692044D01*
X856994Y693017D01*
X856353Y693853D01*
X855517Y694494D01*
X854544Y694897D01*
X853500Y695035D01*
D02*
G37*
G36*
X813000Y690500D02*
X809500D01*
Y687000D01*
X813000D01*
Y690500D01*
D02*
G37*
G36*
X57087Y696311D02*
X55656Y696170D01*
X54280Y695753D01*
X53012Y695075D01*
X51900Y694163D01*
X50988Y693051D01*
X50310Y691783D01*
X49893Y690407D01*
X49752Y688976D01*
X49893Y687545D01*
X50310Y686170D01*
X50988Y684902D01*
X51900Y683790D01*
X53012Y682878D01*
X54280Y682200D01*
X55656Y681783D01*
X57087Y681642D01*
X58517Y681783D01*
X59893Y682200D01*
X61162Y682878D01*
X62273Y683790D01*
X63185Y684902D01*
X63863Y686170D01*
X64280Y687545D01*
X64421Y688976D01*
X64280Y690407D01*
X63863Y691783D01*
X63185Y693051D01*
X62273Y694163D01*
X61162Y695075D01*
X59893Y695753D01*
X58517Y696170D01*
X57087Y696311D01*
D02*
G37*
G36*
X915354D02*
X913923Y696170D01*
X912547Y695753D01*
X911279Y695075D01*
X910168Y694163D01*
X909256Y693051D01*
X908578Y691783D01*
X908161Y690407D01*
X908020Y688976D01*
X908161Y687545D01*
X908578Y686170D01*
X909256Y684902D01*
X910168Y683790D01*
X911279Y682878D01*
X912547Y682200D01*
X913923Y681783D01*
X915354Y681642D01*
X916785Y681783D01*
X918161Y682200D01*
X919429Y682878D01*
X920541Y683790D01*
X921453Y684902D01*
X922131Y686170D01*
X922548Y687545D01*
X922689Y688976D01*
X922548Y690407D01*
X922131Y691783D01*
X921453Y693051D01*
X920541Y694163D01*
X919429Y695075D01*
X918161Y695753D01*
X916785Y696170D01*
X915354Y696311D01*
D02*
G37*
G36*
X817500Y690500D02*
X814000D01*
Y687000D01*
X817500D01*
Y690500D01*
D02*
G37*
G36*
X813000Y695000D02*
X809500D01*
Y691500D01*
X813000D01*
Y695000D01*
D02*
G37*
G36*
X817500D02*
X814000D01*
Y691500D01*
X817500D01*
Y695000D01*
D02*
G37*
G36*
X991783Y697689D02*
X990829Y697563D01*
X989939Y697195D01*
X989175Y696609D01*
X988589Y695845D01*
X988220Y694955D01*
X988094Y694000D01*
X988220Y693045D01*
X988589Y692156D01*
X989175Y691391D01*
X989939Y690805D01*
X990829Y690437D01*
X991783Y690311D01*
X992738Y690437D01*
X993628Y690805D01*
X994392Y691391D01*
X994978Y692156D01*
X995347Y693045D01*
X995472Y694000D01*
X995347Y694955D01*
X994978Y695845D01*
X994392Y696609D01*
X993628Y697195D01*
X992738Y697563D01*
X991783Y697689D01*
D02*
G37*
G36*
X1027216D02*
X1026262Y697563D01*
X1025372Y697195D01*
X1024608Y696609D01*
X1024022Y695845D01*
X1023653Y694955D01*
X1023527Y694000D01*
X1023653Y693045D01*
X1024022Y692156D01*
X1024608Y691391D01*
X1025372Y690805D01*
X1026262Y690437D01*
X1027216Y690311D01*
X1028171Y690437D01*
X1029061Y690805D01*
X1029825Y691391D01*
X1030411Y692156D01*
X1030780Y693045D01*
X1030905Y694000D01*
X1030780Y694955D01*
X1030411Y695845D01*
X1029825Y696609D01*
X1029061Y697195D01*
X1028171Y697563D01*
X1027216Y697689D01*
D02*
G37*
G36*
X857063Y738461D02*
X854102D01*
Y737023D01*
X830890D01*
Y737500D01*
X827390D01*
Y734000D01*
X828029D01*
X828459Y733569D01*
X829116Y733131D01*
X829890Y732977D01*
X854102D01*
Y731539D01*
X857063D01*
Y735000D01*
Y738461D01*
D02*
G37*
G36*
X896000Y772000D02*
X892500D01*
Y770023D01*
X890563D01*
X889789Y769869D01*
X889132Y769431D01*
X858162Y738461D01*
X858063D01*
Y735500D01*
X861024D01*
Y735600D01*
X861663Y736239D01*
X862087Y735956D01*
X862066Y735903D01*
X861946Y735000D01*
X862066Y734097D01*
X862414Y733255D01*
X862969Y732532D01*
X863692Y731977D01*
X864534Y731628D01*
X864580Y731622D01*
X870320Y725883D01*
X870940Y725407D01*
X871301Y725257D01*
X871662Y725108D01*
X872437Y725006D01*
X893831D01*
X894483Y724506D01*
X895456Y724103D01*
X896270Y723996D01*
X902383Y717883D01*
X903003Y717407D01*
X903514Y717196D01*
X903725Y717108D01*
X904500Y717006D01*
X925831D01*
X926483Y716506D01*
X927456Y716103D01*
X928500Y715966D01*
X929544Y716103D01*
X930517Y716506D01*
X931353Y717147D01*
X931994Y717983D01*
X932397Y718956D01*
X932535Y720000D01*
X932397Y721044D01*
X931994Y722017D01*
X931353Y722853D01*
X930517Y723494D01*
X929544Y723897D01*
X928500Y724035D01*
X927456Y723897D01*
X926483Y723494D01*
X925831Y722994D01*
X905740D01*
X900504Y728230D01*
X900397Y729044D01*
X899994Y730017D01*
X899353Y730853D01*
X898517Y731494D01*
X897544Y731897D01*
X896500Y732034D01*
X895456Y731897D01*
X894483Y731494D01*
X893831Y730994D01*
X873677D01*
X868815Y735857D01*
X868808Y735903D01*
X868460Y736745D01*
X867905Y737468D01*
X867182Y738023D01*
X866340Y738372D01*
X865437Y738490D01*
X864534Y738372D01*
X864481Y738350D01*
X864198Y738774D01*
X891401Y765977D01*
X892500D01*
Y764000D01*
X896000D01*
Y768000D01*
Y772000D01*
D02*
G37*
G36*
X1022000Y775543D02*
X1020695Y775371D01*
X1019478Y774867D01*
X1018434Y774066D01*
X1017995Y773494D01*
X938500D01*
X937725Y773392D01*
X937302Y773217D01*
X937003Y773093D01*
X936383Y772617D01*
X917883Y754117D01*
X917407Y753497D01*
X917196Y752986D01*
X917108Y752775D01*
X917006Y752000D01*
Y742500D01*
X917108Y741725D01*
X917196Y741514D01*
X917407Y741003D01*
X917883Y740383D01*
X925383Y732883D01*
X926003Y732407D01*
X926302Y732283D01*
X926725Y732108D01*
X927500Y732006D01*
X935260D01*
X940006Y727260D01*
Y720740D01*
X926760Y707494D01*
X847850D01*
X817114Y738230D01*
X817007Y739044D01*
X816604Y740017D01*
X815963Y740853D01*
X815897Y740903D01*
X816058Y741377D01*
X820652D01*
X822890Y739139D01*
Y738500D01*
X826390D01*
Y742000D01*
X825751D01*
X822920Y744831D01*
X822264Y745269D01*
X821490Y745423D01*
X760800D01*
X760026Y745269D01*
X759369Y744831D01*
X753062Y738523D01*
X714618D01*
Y740650D01*
X709000D01*
Y736500D01*
Y732350D01*
X714618D01*
Y734477D01*
X753900D01*
X754674Y734631D01*
X755331Y735069D01*
X761638Y741377D01*
X810163D01*
X810323Y740903D01*
X810257Y740853D01*
X809616Y740017D01*
X809213Y739044D01*
X809076Y738000D01*
X809213Y736956D01*
X809616Y735983D01*
X810257Y735147D01*
X811093Y734506D01*
X812066Y734103D01*
X812880Y733996D01*
X844493Y702383D01*
X845113Y701907D01*
X845474Y701757D01*
X845835Y701608D01*
X846610Y701506D01*
X928000D01*
X928775Y701608D01*
X928986Y701695D01*
X929497Y701907D01*
X930117Y702383D01*
X945117Y717383D01*
X945593Y718003D01*
X945717Y718302D01*
X945892Y718725D01*
X945994Y719500D01*
Y728500D01*
X945892Y729275D01*
X945805Y729486D01*
X945593Y729997D01*
X945117Y730617D01*
X938617Y737117D01*
X937997Y737593D01*
X937486Y737805D01*
X937275Y737892D01*
X936500Y737994D01*
X928740D01*
X922994Y743740D01*
Y750760D01*
X939740Y767506D01*
X1017995D01*
X1018434Y766934D01*
X1019478Y766132D01*
X1020695Y765629D01*
X1022000Y765457D01*
X1023305Y765629D01*
X1024522Y766132D01*
X1025566Y766934D01*
X1026367Y767978D01*
X1026871Y769195D01*
X1027043Y770500D01*
X1026871Y771805D01*
X1026367Y773022D01*
X1025566Y774066D01*
X1024522Y774867D01*
X1023305Y775371D01*
X1022000Y775543D01*
D02*
G37*
G36*
X680469Y760685D02*
X676532D01*
X675448Y760543D01*
X674439Y760125D01*
X673572Y759459D01*
X672907Y758593D01*
X672489Y757583D01*
X672346Y756500D01*
X672489Y755417D01*
X672907Y754407D01*
X673572Y753541D01*
X674439Y752875D01*
X675448Y752457D01*
X676532Y752315D01*
X680469D01*
X681552Y752457D01*
X682561Y752875D01*
X683428Y753541D01*
X684093Y754407D01*
X684511Y755417D01*
X684654Y756500D01*
X684511Y757583D01*
X684093Y758593D01*
X683428Y759459D01*
X682561Y760125D01*
X681552Y760543D01*
X680469Y760685D01*
D02*
G37*
G36*
X710468D02*
X706531D01*
X705448Y760543D01*
X704439Y760125D01*
X703572Y759459D01*
X702907Y758593D01*
X702489Y757583D01*
X702346Y756500D01*
X702489Y755417D01*
X702907Y754407D01*
X703572Y753541D01*
X704439Y752875D01*
X705448Y752457D01*
X706531Y752315D01*
X710468D01*
X711552Y752457D01*
X712561Y752875D01*
X713428Y753541D01*
X714093Y754407D01*
X714511Y755417D01*
X714654Y756500D01*
X714511Y757583D01*
X714093Y758593D01*
X713428Y759459D01*
X712561Y760125D01*
X711552Y760543D01*
X710468Y760685D01*
D02*
G37*
G36*
Y780685D02*
X706531D01*
X705448Y780543D01*
X704439Y780125D01*
X703572Y779459D01*
X702907Y778593D01*
X702489Y777583D01*
X702346Y776500D01*
X702489Y775417D01*
X702907Y774407D01*
X703572Y773540D01*
X704439Y772875D01*
X705448Y772457D01*
X706531Y772315D01*
X710468D01*
X711552Y772457D01*
X712561Y772875D01*
X713428Y773540D01*
X714093Y774407D01*
X714511Y775417D01*
X714654Y776500D01*
X714511Y777583D01*
X714093Y778593D01*
X713428Y779459D01*
X712561Y780125D01*
X711552Y780543D01*
X710468Y780685D01*
D02*
G37*
G36*
X303150Y784507D02*
X301861Y784338D01*
X300660Y783840D01*
X299628Y783049D01*
X298837Y782017D01*
X298340Y780816D01*
X298170Y779528D01*
X298340Y778239D01*
X298837Y777038D01*
X299628Y776007D01*
X300660Y775215D01*
X301861Y774718D01*
X303150Y774548D01*
X304438Y774718D01*
X305639Y775215D01*
X306671Y776007D01*
X307462Y777038D01*
X307960Y778239D01*
X308129Y779528D01*
X307960Y780816D01*
X307462Y782017D01*
X306671Y783049D01*
X305639Y783840D01*
X304438Y784338D01*
X303150Y784507D01*
D02*
G37*
G36*
X598425D02*
X597136Y784338D01*
X595935Y783840D01*
X594904Y783049D01*
X594113Y782017D01*
X593615Y780816D01*
X593446Y779528D01*
X593615Y778239D01*
X594113Y777038D01*
X594904Y776007D01*
X595935Y775215D01*
X597136Y774718D01*
X598425Y774548D01*
X599714Y774718D01*
X600915Y775215D01*
X601946Y776007D01*
X602738Y777038D01*
X603235Y778239D01*
X603405Y779528D01*
X603235Y780816D01*
X602738Y782017D01*
X601946Y783049D01*
X600915Y783840D01*
X599714Y784338D01*
X598425Y784507D01*
D02*
G37*
G36*
X106299D02*
X105010Y784338D01*
X103809Y783840D01*
X102778Y783049D01*
X101987Y782017D01*
X101489Y780816D01*
X101320Y779528D01*
X101489Y778239D01*
X101987Y777038D01*
X102778Y776007D01*
X103809Y775215D01*
X105010Y774718D01*
X106299Y774548D01*
X107588Y774718D01*
X108789Y775215D01*
X109820Y776007D01*
X110612Y777038D01*
X111109Y778239D01*
X111279Y779528D01*
X111109Y780816D01*
X110612Y782017D01*
X109820Y783049D01*
X108789Y783840D01*
X107588Y784338D01*
X106299Y784507D01*
D02*
G37*
G36*
X204724D02*
X203436Y784338D01*
X202235Y783840D01*
X201203Y783049D01*
X200412Y782017D01*
X199915Y780816D01*
X199745Y779528D01*
X199915Y778239D01*
X200412Y777038D01*
X201203Y776007D01*
X202235Y775215D01*
X203436Y774718D01*
X204724Y774548D01*
X206013Y774718D01*
X207214Y775215D01*
X208245Y776007D01*
X209037Y777038D01*
X209534Y778239D01*
X209704Y779528D01*
X209534Y780816D01*
X209037Y782017D01*
X208245Y783049D01*
X207214Y783840D01*
X206013Y784338D01*
X204724Y784507D01*
D02*
G37*
G36*
X968500Y755453D02*
X965047D01*
Y752000D01*
X968500D01*
Y755453D01*
D02*
G37*
G36*
X1019000Y742000D02*
X1015500D01*
Y738500D01*
X1019000D01*
Y742000D01*
D02*
G37*
G36*
X680469Y750685D02*
X676532D01*
X675448Y750543D01*
X674439Y750125D01*
X673572Y749460D01*
X672907Y748593D01*
X672489Y747583D01*
X672346Y746500D01*
X672489Y745417D01*
X672907Y744407D01*
X673572Y743540D01*
X674439Y742875D01*
X675448Y742457D01*
X676532Y742315D01*
X680469D01*
X681552Y742457D01*
X682561Y742875D01*
X683428Y743540D01*
X684093Y744407D01*
X684511Y745417D01*
X684654Y746500D01*
X684511Y747583D01*
X684093Y748593D01*
X683428Y749460D01*
X682561Y750125D01*
X681552Y750543D01*
X680469Y750685D01*
D02*
G37*
G36*
X830890Y742000D02*
X827390D01*
Y738500D01*
X830890D01*
Y742000D01*
D02*
G37*
G36*
X1014500D02*
X1011000D01*
Y738500D01*
X1014500D01*
Y742000D01*
D02*
G37*
G36*
X710468Y750685D02*
X706531D01*
X705448Y750543D01*
X704439Y750125D01*
X703572Y749460D01*
X702907Y748593D01*
X702489Y747583D01*
X702346Y746500D01*
X702489Y745417D01*
X702907Y744407D01*
X703572Y743540D01*
X704439Y742875D01*
X705448Y742457D01*
X706531Y742315D01*
X710468D01*
X711552Y742457D01*
X712561Y742875D01*
X713428Y743540D01*
X714093Y744407D01*
X714511Y745417D01*
X714654Y746500D01*
X714511Y747583D01*
X714093Y748593D01*
X713428Y749460D01*
X712561Y750125D01*
X711552Y750543D01*
X710468Y750685D01*
D02*
G37*
G36*
X939000Y755487D02*
X937968Y755351D01*
X937007Y754953D01*
X936181Y754319D01*
X935547Y753493D01*
X935149Y752532D01*
X935013Y751500D01*
X935149Y750468D01*
X935547Y749507D01*
X936181Y748681D01*
X937007Y748047D01*
X937968Y747649D01*
X939000Y747513D01*
X940032Y747649D01*
X940993Y748047D01*
X941819Y748681D01*
X942453Y749507D01*
X942851Y750468D01*
X942987Y751500D01*
X942851Y752532D01*
X942453Y753493D01*
X941819Y754319D01*
X940993Y754953D01*
X940032Y755351D01*
X939000Y755487D01*
D02*
G37*
G36*
X959000D02*
X957968Y755351D01*
X957007Y754953D01*
X956181Y754319D01*
X955547Y753493D01*
X955149Y752532D01*
X955013Y751500D01*
X955149Y750468D01*
X955273Y750168D01*
X954849Y749885D01*
X952949Y751785D01*
X952851Y752532D01*
X952453Y753493D01*
X951819Y754319D01*
X950993Y754953D01*
X950032Y755351D01*
X949000Y755487D01*
X947968Y755351D01*
X947007Y754953D01*
X946181Y754319D01*
X945547Y753493D01*
X945149Y752532D01*
X945013Y751500D01*
X945149Y750468D01*
X945547Y749507D01*
X946181Y748681D01*
X947007Y748047D01*
X947968Y747649D01*
X948715Y747551D01*
X979383Y716883D01*
X980003Y716407D01*
X980302Y716283D01*
X980725Y716108D01*
X981500Y716006D01*
X989726D01*
X989754Y715970D01*
X990641Y715289D01*
X991674Y714861D01*
X992783Y714715D01*
X993892Y714861D01*
X994926Y715289D01*
X995813Y715970D01*
X996494Y716858D01*
X996922Y717891D01*
X997068Y719000D01*
X996922Y720109D01*
X996494Y721142D01*
X995813Y722030D01*
X994926Y722711D01*
X993892Y723139D01*
X992783Y723285D01*
X991674Y723139D01*
X990641Y722711D01*
X989754Y722030D01*
X989726Y721994D01*
X982740D01*
X957385Y747349D01*
X957668Y747773D01*
X957968Y747649D01*
X958715Y747551D01*
X965883Y740383D01*
X966503Y739907D01*
X966802Y739783D01*
X967225Y739608D01*
X968000Y739506D01*
X992331D01*
X992983Y739006D01*
X993956Y738603D01*
X995000Y738465D01*
X996044Y738603D01*
X997017Y739006D01*
X997853Y739647D01*
X998494Y740483D01*
X998897Y741456D01*
X999035Y742500D01*
X998897Y743544D01*
X998494Y744517D01*
X997853Y745353D01*
X997017Y745994D01*
X996044Y746397D01*
X995000Y746534D01*
X993956Y746397D01*
X992983Y745994D01*
X992331Y745494D01*
X969240D01*
X967649Y747085D01*
X967840Y747547D01*
X968500D01*
Y751000D01*
X965047D01*
Y750340D01*
X964585Y750149D01*
X962949Y751785D01*
X962851Y752532D01*
X962453Y753493D01*
X961819Y754319D01*
X960993Y754953D01*
X960032Y755351D01*
X959000Y755487D01*
D02*
G37*
G36*
X972953Y755453D02*
X969500D01*
Y751500D01*
Y747547D01*
X972953D01*
Y749477D01*
X1005162D01*
X1011000Y743639D01*
Y743000D01*
X1014500D01*
Y746500D01*
X1013861D01*
X1007431Y752931D01*
X1006774Y753369D01*
X1006000Y753523D01*
X972953D01*
Y755453D01*
D02*
G37*
G36*
X1019000Y746500D02*
X1015500D01*
Y743000D01*
X1019000D01*
Y746500D01*
D02*
G37*
G36*
X786500Y921039D02*
X785325Y920884D01*
X784231Y920431D01*
X783291Y919709D01*
X782569Y918769D01*
X782116Y917675D01*
X781961Y916500D01*
X782116Y915325D01*
X782569Y914231D01*
X783291Y913291D01*
X784231Y912569D01*
X785325Y912116D01*
X786500Y911961D01*
X787675Y912116D01*
X788769Y912569D01*
X789709Y913291D01*
X790431Y914231D01*
X790884Y915325D01*
X791039Y916500D01*
X790884Y917675D01*
X790431Y918769D01*
X789709Y919709D01*
X788769Y920431D01*
X787675Y920884D01*
X786500Y921039D01*
D02*
G37*
G36*
X167008Y925644D02*
X165873Y925494D01*
X164816Y925056D01*
X163908Y924360D01*
X163211Y923452D01*
X162773Y922394D01*
X162624Y921260D01*
X162773Y920125D01*
X163211Y919068D01*
X163908Y918160D01*
X164816Y917463D01*
X165873Y917025D01*
X167008Y916876D01*
X168142Y917025D01*
X169200Y917463D01*
X170108Y918160D01*
X170804Y919068D01*
X171242Y920125D01*
X171392Y921260D01*
X171242Y922394D01*
X170804Y923452D01*
X170108Y924360D01*
X169200Y925056D01*
X168142Y925494D01*
X167008Y925644D01*
D02*
G37*
G36*
X726500Y921039D02*
X725325Y920884D01*
X724231Y920431D01*
X723291Y919709D01*
X722569Y918769D01*
X722116Y917675D01*
X721961Y916500D01*
X722116Y915325D01*
X722569Y914231D01*
X723291Y913291D01*
X724231Y912569D01*
X725325Y912116D01*
X726500Y911961D01*
X727675Y912116D01*
X728769Y912569D01*
X729709Y913291D01*
X730431Y914231D01*
X730884Y915325D01*
X731039Y916500D01*
X730884Y917675D01*
X730431Y918769D01*
X729709Y919709D01*
X728769Y920431D01*
X727675Y920884D01*
X726500Y921039D01*
D02*
G37*
G36*
X726000Y911000D02*
X722000D01*
Y908523D01*
X692319D01*
X691231Y909610D01*
Y910499D01*
X687481D01*
Y907638D01*
X690050Y905069D01*
X690707Y904631D01*
X691481Y904477D01*
X722000D01*
Y902000D01*
X726000D01*
Y906500D01*
Y911000D01*
D02*
G37*
G36*
X907500Y914579D02*
X904000D01*
Y911079D01*
X907500D01*
Y914579D01*
D02*
G37*
G36*
X462283Y925644D02*
X461149Y925494D01*
X460091Y925056D01*
X459184Y924360D01*
X458487Y923452D01*
X458049Y922394D01*
X457899Y921260D01*
X458049Y920125D01*
X458487Y919068D01*
X459184Y918160D01*
X460091Y917463D01*
X461149Y917025D01*
X462283Y916876D01*
X463418Y917025D01*
X464475Y917463D01*
X465383Y918160D01*
X466080Y919068D01*
X466518Y920125D01*
X466667Y921260D01*
X466518Y922394D01*
X466080Y923452D01*
X465383Y924360D01*
X464475Y925056D01*
X463418Y925494D01*
X462283Y925644D01*
D02*
G37*
G36*
X502283D02*
X501149Y925494D01*
X500091Y925056D01*
X499184Y924360D01*
X498487Y923452D01*
X498049Y922394D01*
X497899Y921260D01*
X498049Y920125D01*
X498487Y919068D01*
X499184Y918160D01*
X500091Y917463D01*
X501149Y917025D01*
X502283Y916876D01*
X503418Y917025D01*
X504475Y917463D01*
X505383Y918160D01*
X506080Y919068D01*
X506518Y920125D01*
X506667Y921260D01*
X506518Y922394D01*
X506080Y923452D01*
X505383Y924360D01*
X504475Y925056D01*
X503418Y925494D01*
X502283Y925644D01*
D02*
G37*
G36*
X363858D02*
X362723Y925494D01*
X361666Y925056D01*
X360758Y924360D01*
X360062Y923452D01*
X359624Y922394D01*
X359474Y921260D01*
X359624Y920125D01*
X360062Y919068D01*
X360758Y918160D01*
X361666Y917463D01*
X362723Y917025D01*
X363858Y916876D01*
X364993Y917025D01*
X366050Y917463D01*
X366958Y918160D01*
X367655Y919068D01*
X368093Y920125D01*
X368242Y921260D01*
X368093Y922394D01*
X367655Y923452D01*
X366958Y924360D01*
X366050Y925056D01*
X364993Y925494D01*
X363858Y925644D01*
D02*
G37*
G36*
X309500Y931523D02*
X298200D01*
X297426Y931369D01*
X296769Y930931D01*
X282162Y916323D01*
X226899D01*
X226124Y916169D01*
X225468Y915731D01*
X201213Y891476D01*
X200394Y891584D01*
X199413Y891454D01*
X198500Y891076D01*
X197715Y890474D01*
X197212Y889818D01*
X191043D01*
X179431Y901431D01*
X178774Y901869D01*
X178000Y902023D01*
X166900D01*
X166126Y901869D01*
X165469Y901431D01*
X160469Y896431D01*
X160031Y895774D01*
X159877Y895000D01*
X159977Y894497D01*
Y876500D01*
X160131Y875726D01*
X160569Y875069D01*
X172477Y863162D01*
Y859838D01*
X171282Y858644D01*
X171204Y858619D01*
X170639Y858707D01*
X170108Y859399D01*
X169200Y860096D01*
X168142Y860534D01*
X167008Y860683D01*
X165873Y860534D01*
X164816Y860096D01*
X163908Y859399D01*
X163211Y858491D01*
X163141Y858322D01*
X155039D01*
X148931Y864431D01*
X148274Y864869D01*
X147500Y865023D01*
X140500D01*
X139726Y864869D01*
X139069Y864431D01*
X133662Y859023D01*
X126338D01*
X125892Y859469D01*
X125915Y859821D01*
X126517Y860606D01*
X126896Y861520D01*
X127025Y862500D01*
X126896Y863480D01*
X126517Y864394D01*
X125915Y865179D01*
X125131Y865781D01*
X124217Y866159D01*
X123236Y866288D01*
X122256Y866159D01*
X121342Y865781D01*
X120923Y865459D01*
X120423Y865706D01*
Y875662D01*
X132231Y887469D01*
X132669Y888126D01*
X132823Y888900D01*
Y897362D01*
X162338Y926877D01*
X198530D01*
X202843Y922563D01*
X202773Y922394D01*
X202624Y921260D01*
X202773Y920125D01*
X203211Y919068D01*
X203908Y918160D01*
X204816Y917463D01*
X205873Y917025D01*
X207008Y916876D01*
X208142Y917025D01*
X209200Y917463D01*
X210108Y918160D01*
X210804Y919068D01*
X211242Y920125D01*
X211392Y921260D01*
X211242Y922394D01*
X210804Y923452D01*
X210108Y924360D01*
X209200Y925056D01*
X208142Y925494D01*
X207008Y925644D01*
X205873Y925494D01*
X205704Y925424D01*
X200798Y930331D01*
X200142Y930769D01*
X199368Y930923D01*
X161500D01*
X160726Y930769D01*
X160069Y930331D01*
X129369Y899631D01*
X128931Y898974D01*
X128777Y898200D01*
Y889738D01*
X127831Y888793D01*
X127408Y889076D01*
X127735Y889865D01*
X127884Y891000D01*
X127735Y892135D01*
X127297Y893192D01*
X126600Y894100D01*
X125692Y894797D01*
X124635Y895235D01*
X123500Y895384D01*
X122365Y895235D01*
X121308Y894797D01*
X120400Y894100D01*
X119703Y893192D01*
X119265Y892135D01*
X119116Y891000D01*
X119265Y889865D01*
X119703Y888808D01*
X120400Y887900D01*
X121308Y887203D01*
X122365Y886765D01*
X123500Y886616D01*
X124635Y886765D01*
X125424Y887092D01*
X125707Y886669D01*
X116969Y877931D01*
X116531Y877274D01*
X116377Y876500D01*
Y865090D01*
X115877Y864921D01*
X115679Y865179D01*
X114894Y865781D01*
X113981Y866159D01*
X113000Y866288D01*
X112020Y866159D01*
X111441Y865920D01*
X87665Y889697D01*
X87735Y889865D01*
X87884Y891000D01*
X87735Y892135D01*
X87297Y893192D01*
X86600Y894100D01*
X85692Y894797D01*
X84635Y895235D01*
X83500Y895384D01*
X82365Y895235D01*
X81308Y894797D01*
X80400Y894100D01*
X79703Y893192D01*
X79265Y892135D01*
X79116Y891000D01*
X79265Y889865D01*
X79703Y888808D01*
X80400Y887900D01*
X81308Y887203D01*
X82365Y886765D01*
X83500Y886616D01*
X84635Y886765D01*
X84803Y886835D01*
X109223Y862416D01*
X109341Y861520D01*
X109719Y860606D01*
X110321Y859821D01*
X111106Y859219D01*
X112020Y858841D01*
X113000Y858712D01*
X113981Y858841D01*
X114894Y859219D01*
X115679Y859821D01*
X115877Y860079D01*
X116377Y859910D01*
Y852455D01*
X115877Y852248D01*
X106445Y861681D01*
X106552Y862500D01*
X106423Y863480D01*
X106045Y864394D01*
X105443Y865179D01*
X104658Y865781D01*
X103744Y866159D01*
X102764Y866288D01*
X101784Y866159D01*
X100870Y865781D01*
X100085Y865179D01*
X99483Y864394D01*
X99105Y863480D01*
X98976Y862500D01*
X99105Y861520D01*
X99483Y860606D01*
X100085Y859821D01*
X100870Y859219D01*
X101784Y858841D01*
X102764Y858712D01*
X103583Y858819D01*
X125251Y837152D01*
X125907Y836714D01*
X126681Y836559D01*
X147495D01*
X148131Y835730D01*
X148967Y835089D01*
X149940Y834686D01*
X150984Y834548D01*
X152028Y834686D01*
X153001Y835089D01*
X153837Y835730D01*
X154478Y836565D01*
X154881Y837538D01*
X155019Y838583D01*
X154881Y839627D01*
X154478Y840600D01*
X153837Y841435D01*
X153001Y842077D01*
X152028Y842480D01*
X150984Y842617D01*
X149940Y842480D01*
X148967Y842077D01*
X148131Y841435D01*
X147495Y840606D01*
X127519D01*
X125348Y842777D01*
X125555Y843277D01*
X209162D01*
X221477Y830962D01*
Y810000D01*
X221631Y809226D01*
X222069Y808569D01*
X235569Y795069D01*
X236226Y794631D01*
X237000Y794477D01*
X660162D01*
X660195Y793977D01*
X659686Y793910D01*
X658835Y793557D01*
X658104Y792996D01*
X657543Y792265D01*
X657190Y791414D01*
X657070Y790500D01*
X657190Y789586D01*
X657543Y788735D01*
X658104Y788004D01*
X658835Y787443D01*
X659686Y787090D01*
X659567Y786626D01*
X634996D01*
X634222Y786472D01*
X633566Y786033D01*
X631677Y784144D01*
X631210Y784338D01*
X629921Y784507D01*
X628632Y784338D01*
X628166Y784144D01*
X619683Y792627D01*
X619027Y793065D01*
X618253Y793219D01*
X543164D01*
X542390Y793065D01*
X541734Y792627D01*
X533251Y784144D01*
X532785Y784338D01*
X531496Y784507D01*
X530207Y784338D01*
X529006Y783840D01*
X527975Y783049D01*
X527183Y782017D01*
X526686Y780816D01*
X526516Y779528D01*
X526573Y779099D01*
X526243Y778723D01*
X515638D01*
X515104Y779257D01*
X515338Y779730D01*
X515748Y779676D01*
X516728Y779805D01*
X517642Y780184D01*
X518427Y780786D01*
X519029Y781570D01*
X519407Y782484D01*
X519536Y783465D01*
X519407Y784445D01*
X519029Y785359D01*
X518427Y786143D01*
X517642Y786745D01*
X516728Y787124D01*
X515748Y787253D01*
X514768Y787124D01*
X513854Y786745D01*
X513069Y786143D01*
X512467Y785359D01*
X512089Y784445D01*
X511960Y783465D01*
X512014Y783055D01*
X511540Y782821D01*
X507431Y786931D01*
X506774Y787369D01*
X506000Y787523D01*
X439043D01*
X438269Y787369D01*
X437613Y786931D01*
X434826Y784144D01*
X434360Y784338D01*
X433071Y784507D01*
X431782Y784338D01*
X430581Y783840D01*
X429550Y783049D01*
X428758Y782017D01*
X428261Y780816D01*
X428249Y780723D01*
X420584D01*
X420337Y781223D01*
X420604Y781570D01*
X420982Y782484D01*
X421111Y783465D01*
X420982Y784445D01*
X420604Y785359D01*
X420002Y786143D01*
X419217Y786745D01*
X418303Y787124D01*
X417323Y787253D01*
X416342Y787124D01*
X415429Y786745D01*
X414644Y786143D01*
X414042Y785359D01*
X413910Y785039D01*
X413419Y784942D01*
X411431Y786931D01*
X410774Y787369D01*
X410000Y787523D01*
X340618D01*
X339844Y787369D01*
X339187Y786931D01*
X336401Y784144D01*
X335934Y784338D01*
X334646Y784507D01*
X333357Y784338D01*
X332890Y784144D01*
X325604Y791431D01*
X324947Y791869D01*
X324173Y792023D01*
X246693D01*
X245919Y791869D01*
X245262Y791431D01*
X237976Y784144D01*
X237509Y784338D01*
X236220Y784507D01*
X234932Y784338D01*
X234465Y784144D01*
X217479Y801131D01*
X216822Y801569D01*
X216048Y801723D01*
X157968D01*
X157193Y801569D01*
X156537Y801131D01*
X139551Y784144D01*
X139084Y784338D01*
X137795Y784507D01*
X136506Y784338D01*
X135305Y783840D01*
X134274Y783049D01*
X133483Y782017D01*
X132985Y780816D01*
X132816Y779528D01*
X132985Y778239D01*
X133483Y777038D01*
X134274Y776007D01*
X135305Y775215D01*
X136506Y774718D01*
X137795Y774548D01*
X139084Y774718D01*
X140285Y775215D01*
X141316Y776007D01*
X142108Y777038D01*
X142605Y778239D01*
X142775Y779528D01*
X142605Y780816D01*
X142412Y781283D01*
X158806Y797677D01*
X215210D01*
X231604Y781283D01*
X231411Y780816D01*
X231241Y779528D01*
X231411Y778239D01*
X231908Y777038D01*
X232699Y776007D01*
X233731Y775215D01*
X234932Y774718D01*
X236220Y774548D01*
X237509Y774718D01*
X238710Y775215D01*
X239741Y776007D01*
X240533Y777038D01*
X241030Y778239D01*
X241200Y779528D01*
X241030Y780816D01*
X240837Y781283D01*
X247531Y787977D01*
X323335D01*
X330029Y781283D01*
X329836Y780816D01*
X329666Y779528D01*
X329836Y778239D01*
X330333Y777038D01*
X331124Y776007D01*
X332156Y775215D01*
X333357Y774718D01*
X334646Y774548D01*
X335934Y774718D01*
X337135Y775215D01*
X338167Y776007D01*
X338958Y777038D01*
X339456Y778239D01*
X339625Y779528D01*
X339456Y780816D01*
X339262Y781283D01*
X341456Y783477D01*
X397871D01*
X397998Y782977D01*
X397262Y782017D01*
X396765Y780816D01*
X396595Y779528D01*
X396765Y778239D01*
X397262Y777038D01*
X398054Y776007D01*
X399085Y775215D01*
X400286Y774718D01*
X401575Y774548D01*
X402864Y774718D01*
X404065Y775215D01*
X405096Y776007D01*
X405887Y777038D01*
X406385Y778239D01*
X406554Y779528D01*
X406385Y780816D01*
X405887Y782017D01*
X405151Y782977D01*
X405278Y783477D01*
X409162D01*
X410560Y782079D01*
Y781501D01*
X410577Y781414D01*
Y778700D01*
X410731Y777926D01*
X411169Y777269D01*
X411826Y776831D01*
X412600Y776677D01*
X429035D01*
X429550Y776007D01*
X430581Y775215D01*
X431782Y774718D01*
X433071Y774548D01*
X434360Y774718D01*
X435561Y775215D01*
X436592Y776007D01*
X437383Y777038D01*
X437881Y778239D01*
X438050Y779528D01*
X437881Y780816D01*
X437687Y781283D01*
X439881Y783477D01*
X496297D01*
X496424Y782977D01*
X495687Y782017D01*
X495190Y780816D01*
X495020Y779528D01*
X495190Y778239D01*
X495687Y777038D01*
X496479Y776007D01*
X497510Y775215D01*
X498711Y774718D01*
X500000Y774548D01*
X501289Y774718D01*
X502490Y775215D01*
X503521Y776007D01*
X504313Y777038D01*
X504810Y778239D01*
X504980Y779528D01*
X504810Y780816D01*
X504313Y782017D01*
X503576Y782977D01*
X503703Y783477D01*
X505162D01*
X513369Y775269D01*
X514026Y774831D01*
X514800Y774677D01*
X528668D01*
X529443Y774831D01*
X529631Y774957D01*
X530207Y774718D01*
X531496Y774548D01*
X532785Y774718D01*
X533986Y775215D01*
X535017Y776007D01*
X535809Y777038D01*
X536306Y778239D01*
X536476Y779528D01*
X536306Y780816D01*
X536113Y781283D01*
X544002Y789173D01*
X617415D01*
X625305Y781283D01*
X625111Y780816D01*
X624942Y779528D01*
X625111Y778239D01*
X625609Y777038D01*
X626400Y776007D01*
X627431Y775215D01*
X628632Y774718D01*
X629921Y774548D01*
X631210Y774718D01*
X632411Y775215D01*
X633442Y776007D01*
X634234Y777038D01*
X634731Y778239D01*
X634901Y779528D01*
X634731Y780816D01*
X634538Y781283D01*
X635834Y782580D01*
X669087D01*
X669463Y782080D01*
X669374Y781634D01*
Y777735D01*
X653062Y761423D01*
X640106D01*
X639936Y761923D01*
X640332Y762227D01*
X641123Y763258D01*
X641621Y764459D01*
X641791Y765748D01*
X641621Y767037D01*
X641123Y768238D01*
X640332Y769269D01*
X639301Y770061D01*
X638100Y770558D01*
X636811Y770728D01*
X635522Y770558D01*
X635055Y770365D01*
X632290Y773131D01*
X631633Y773569D01*
X630859Y773723D01*
X544338D01*
X543563Y773569D01*
X542907Y773131D01*
X540141Y770365D01*
X539675Y770558D01*
X538386Y770728D01*
X537097Y770558D01*
X536630Y770365D01*
X533865Y773131D01*
X533208Y773569D01*
X532434Y773723D01*
X445912D01*
X445138Y773569D01*
X444482Y773131D01*
X441716Y770365D01*
X441249Y770558D01*
X439961Y770728D01*
X438672Y770558D01*
X438205Y770365D01*
X435439Y773131D01*
X434783Y773569D01*
X434009Y773723D01*
X347487D01*
X346713Y773569D01*
X346057Y773131D01*
X343291Y770365D01*
X342824Y770558D01*
X341535Y770728D01*
X340247Y770558D01*
X339780Y770365D01*
X337014Y773131D01*
X336358Y773569D01*
X335584Y773723D01*
X249062D01*
X248288Y773569D01*
X247631Y773131D01*
X244866Y770365D01*
X244399Y770558D01*
X243110Y770728D01*
X241821Y770558D01*
X241355Y770365D01*
X238589Y773131D01*
X237933Y773569D01*
X237158Y773723D01*
X150637D01*
X149863Y773569D01*
X149206Y773131D01*
X146440Y770365D01*
X145974Y770558D01*
X144685Y770728D01*
X143396Y770558D01*
X142195Y770061D01*
X141164Y769269D01*
X140373Y768238D01*
X139875Y767037D01*
X139705Y765748D01*
X139875Y764459D01*
X140373Y763258D01*
X141090Y762323D01*
X140940Y761823D01*
X106196D01*
X104026Y763993D01*
X104219Y764459D01*
X104389Y765748D01*
X104219Y767037D01*
X103722Y768238D01*
X102930Y769269D01*
X101899Y770061D01*
X100698Y770558D01*
X99409Y770728D01*
X98121Y770558D01*
X96920Y770061D01*
X95888Y769269D01*
X95097Y768238D01*
X94599Y767037D01*
X94430Y765748D01*
X94599Y764459D01*
X95097Y763258D01*
X95888Y762227D01*
X96920Y761436D01*
X98121Y760938D01*
X99409Y760769D01*
X100698Y760938D01*
X101165Y761132D01*
X103927Y758369D01*
X104583Y757931D01*
X105358Y757777D01*
X191886D01*
X192661Y757931D01*
X193317Y758369D01*
X196079Y761132D01*
X196546Y760938D01*
X197835Y760769D01*
X199123Y760938D01*
X199590Y761132D01*
X202352Y758369D01*
X203009Y757931D01*
X203783Y757777D01*
X290312D01*
X291086Y757931D01*
X291742Y758369D01*
X294504Y761132D01*
X294971Y760938D01*
X296260Y760769D01*
X297549Y760938D01*
X298015Y761132D01*
X300777Y758369D01*
X301434Y757931D01*
X302208Y757777D01*
X388737D01*
X389511Y757931D01*
X390167Y758369D01*
X392930Y761132D01*
X393396Y760938D01*
X394685Y760769D01*
X395974Y760938D01*
X396441Y761132D01*
X399203Y758369D01*
X399859Y757931D01*
X400633Y757777D01*
X487162D01*
X487936Y757931D01*
X488593Y758369D01*
X491355Y761132D01*
X491821Y760938D01*
X493110Y760769D01*
X494399Y760938D01*
X494866Y761132D01*
X497628Y758369D01*
X498284Y757931D01*
X499058Y757777D01*
X585587D01*
X586361Y757931D01*
X587018Y758369D01*
X589780Y761132D01*
X590247Y760938D01*
X591535Y760769D01*
X592824Y760938D01*
X593291Y761132D01*
X596453Y757969D01*
X597109Y757531D01*
X597884Y757377D01*
X652563D01*
X652754Y756915D01*
X641865Y746027D01*
X641442Y746310D01*
X641621Y746743D01*
X641791Y748032D01*
X641621Y749320D01*
X641123Y750521D01*
X640332Y751553D01*
X639301Y752344D01*
X638100Y752842D01*
X636811Y753011D01*
X635522Y752842D01*
X635055Y752648D01*
X632273Y755431D01*
X631617Y755869D01*
X630843Y756023D01*
X544354D01*
X543580Y755869D01*
X542924Y755431D01*
X540141Y752648D01*
X539675Y752842D01*
X538386Y753011D01*
X537097Y752842D01*
X536630Y752648D01*
X533848Y755431D01*
X533192Y755869D01*
X532417Y756023D01*
X445929D01*
X445155Y755869D01*
X444498Y755431D01*
X441716Y752648D01*
X441249Y752842D01*
X439961Y753011D01*
X438672Y752842D01*
X438205Y752648D01*
X435423Y755431D01*
X434766Y755869D01*
X433992Y756023D01*
X347504D01*
X346730Y755869D01*
X346073Y755431D01*
X343291Y752648D01*
X342824Y752842D01*
X341535Y753011D01*
X340247Y752842D01*
X339780Y752648D01*
X336998Y755431D01*
X336341Y755869D01*
X335567Y756023D01*
X249079D01*
X248304Y755869D01*
X247648Y755431D01*
X244866Y752648D01*
X244399Y752842D01*
X243110Y753011D01*
X241821Y752842D01*
X241355Y752648D01*
X238572Y755431D01*
X237916Y755869D01*
X237142Y756023D01*
X150653D01*
X149879Y755869D01*
X149223Y755431D01*
X146440Y752648D01*
X145974Y752842D01*
X144685Y753011D01*
X143396Y752842D01*
X142195Y752344D01*
X141164Y751553D01*
X140373Y750521D01*
X139875Y749320D01*
X139705Y748032D01*
X139875Y746743D01*
X140373Y745542D01*
X141077Y744623D01*
X140911Y744123D01*
X106179D01*
X104026Y746276D01*
X104219Y746743D01*
X104389Y748032D01*
X104219Y749320D01*
X103722Y750521D01*
X102930Y751553D01*
X101899Y752344D01*
X100698Y752842D01*
X99409Y753011D01*
X98121Y752842D01*
X96920Y752344D01*
X95888Y751553D01*
X95097Y750521D01*
X94599Y749320D01*
X94430Y748032D01*
X94599Y746743D01*
X95097Y745542D01*
X95888Y744511D01*
X96920Y743719D01*
X98121Y743222D01*
X99409Y743052D01*
X100698Y743222D01*
X101165Y743415D01*
X103910Y740669D01*
X104567Y740231D01*
X105341Y740077D01*
X191903D01*
X192677Y740231D01*
X193334Y740669D01*
X196079Y743415D01*
X196546Y743222D01*
X197835Y743052D01*
X199123Y743222D01*
X199590Y743415D01*
X202336Y740669D01*
X202992Y740231D01*
X203766Y740077D01*
X290328D01*
X291102Y740231D01*
X291759Y740669D01*
X294504Y743415D01*
X294971Y743222D01*
X296260Y743052D01*
X297549Y743222D01*
X298015Y743415D01*
X300761Y740669D01*
X301417Y740231D01*
X302191Y740077D01*
X388753D01*
X389528Y740231D01*
X390184Y740669D01*
X392930Y743415D01*
X393396Y743222D01*
X394685Y743052D01*
X395974Y743222D01*
X396441Y743415D01*
X399186Y740669D01*
X399842Y740231D01*
X400617Y740077D01*
X487179D01*
X487953Y740231D01*
X488609Y740669D01*
X491355Y743415D01*
X491821Y743222D01*
X493110Y743052D01*
X494399Y743222D01*
X494866Y743415D01*
X497611Y740669D01*
X498268Y740231D01*
X499042Y740077D01*
X585604D01*
X586378Y740231D01*
X587034Y740669D01*
X589780Y743415D01*
X590247Y743222D01*
X591535Y743052D01*
X592824Y743222D01*
X593291Y743415D01*
X597921Y738785D01*
X597729Y738323D01*
X544371D01*
X543597Y738169D01*
X542940Y737731D01*
X540141Y734932D01*
X539675Y735125D01*
X538386Y735295D01*
X537097Y735125D01*
X536630Y734932D01*
X533831Y737731D01*
X533175Y738169D01*
X532401Y738323D01*
X445946D01*
X445171Y738169D01*
X444515Y737731D01*
X441716Y734932D01*
X441249Y735125D01*
X439961Y735295D01*
X438672Y735125D01*
X438205Y734932D01*
X435406Y737731D01*
X434750Y738169D01*
X433976Y738323D01*
X347520D01*
X346746Y738169D01*
X346090Y737731D01*
X343291Y734932D01*
X342824Y735125D01*
X341535Y735295D01*
X340247Y735125D01*
X339780Y734932D01*
X336981Y737731D01*
X336325Y738169D01*
X335550Y738323D01*
X249095D01*
X248321Y738169D01*
X247665Y737731D01*
X244866Y734932D01*
X244399Y735125D01*
X243110Y735295D01*
X241821Y735125D01*
X241355Y734932D01*
X238556Y737731D01*
X237899Y738169D01*
X237125Y738323D01*
X150670D01*
X149896Y738169D01*
X149239Y737731D01*
X146440Y734932D01*
X145974Y735125D01*
X144685Y735295D01*
X143396Y735125D01*
X142195Y734627D01*
X141164Y733836D01*
X140373Y732805D01*
X139875Y731604D01*
X139705Y730315D01*
X139875Y729026D01*
X140373Y727825D01*
X141141Y726823D01*
X141108Y726630D01*
X141004Y726323D01*
X106262D01*
X104026Y728559D01*
X104219Y729026D01*
X104389Y730315D01*
X104219Y731604D01*
X103722Y732805D01*
X102930Y733836D01*
X101899Y734627D01*
X100698Y735125D01*
X99409Y735295D01*
X98121Y735125D01*
X96920Y734627D01*
X95888Y733836D01*
X95097Y732805D01*
X94599Y731604D01*
X94430Y730315D01*
X94599Y729026D01*
X95097Y727825D01*
X95888Y726794D01*
X96920Y726003D01*
X98121Y725505D01*
X99409Y725335D01*
X100698Y725505D01*
X101165Y725698D01*
X103994Y722869D01*
X104432Y722576D01*
X104650Y722431D01*
X105424Y722277D01*
X191820D01*
X192594Y722431D01*
X193250Y722869D01*
X196079Y725698D01*
X196546Y725505D01*
X197835Y725335D01*
X199123Y725505D01*
X199590Y725698D01*
X202419Y722869D01*
X202858Y722576D01*
X203075Y722431D01*
X203850Y722277D01*
X216716D01*
X216765Y721777D01*
X216726Y721769D01*
X216069Y721331D01*
X210047Y715308D01*
X209573Y715541D01*
X209704Y716536D01*
X209534Y717824D01*
X209037Y719025D01*
X208245Y720057D01*
X207214Y720848D01*
X206013Y721346D01*
X204724Y721515D01*
X203436Y721346D01*
X202235Y720848D01*
X201203Y720057D01*
X200412Y719025D01*
X199915Y717824D01*
X199745Y716536D01*
X199915Y715247D01*
X200412Y714046D01*
X201203Y713015D01*
X202235Y712223D01*
X203436Y711726D01*
X204724Y711556D01*
X205719Y711687D01*
X205952Y711213D01*
X205362Y710623D01*
X146569D01*
X142412Y714780D01*
X142605Y715247D01*
X142775Y716536D01*
X142605Y717824D01*
X142108Y719025D01*
X141316Y720057D01*
X140285Y720848D01*
X139084Y721346D01*
X137795Y721515D01*
X136506Y721346D01*
X135305Y720848D01*
X134274Y720057D01*
X133483Y719025D01*
X132985Y717824D01*
X132816Y716536D01*
X132985Y715247D01*
X133483Y714046D01*
X134274Y713015D01*
X135305Y712223D01*
X136506Y711726D01*
X137795Y711556D01*
X139084Y711726D01*
X139551Y711919D01*
X144300Y707169D01*
X144957Y706731D01*
X145731Y706577D01*
X206200D01*
X206974Y706731D01*
X207631Y707169D01*
X215668Y715206D01*
X216092Y714923D01*
X215663Y713887D01*
X215493Y712599D01*
X215663Y711310D01*
X215856Y710843D01*
X207936Y702923D01*
X134584D01*
X126664Y710843D01*
X126857Y711310D01*
X127027Y712599D01*
X126857Y713887D01*
X126360Y715088D01*
X125568Y716120D01*
X124537Y716911D01*
X123336Y717409D01*
X122047Y717578D01*
X120758Y717409D01*
X119557Y716911D01*
X118526Y716120D01*
X117735Y715088D01*
X117237Y713887D01*
X117068Y712599D01*
X117237Y711310D01*
X117735Y710109D01*
X118526Y709078D01*
X119557Y708286D01*
X120758Y707789D01*
X122047Y707619D01*
X123336Y707789D01*
X123803Y707982D01*
X132315Y699469D01*
X132972Y699031D01*
X133746Y698877D01*
X208774D01*
X209548Y699031D01*
X210204Y699469D01*
X218717Y707982D01*
X219184Y707789D01*
X220472Y707619D01*
X221761Y707789D01*
X222228Y707982D01*
X237540Y692669D01*
X238197Y692231D01*
X238971Y692077D01*
X300399D01*
X301173Y692231D01*
X301830Y692669D01*
X317142Y707982D01*
X317609Y707789D01*
X318898Y707619D01*
X320186Y707789D01*
X320653Y707982D01*
X335866Y692769D01*
X336522Y692331D01*
X337296Y692177D01*
X398924D01*
X399698Y692331D01*
X400355Y692769D01*
X415567Y707982D01*
X416034Y707789D01*
X417323Y707619D01*
X418612Y707789D01*
X419078Y707982D01*
X434291Y692769D01*
X434947Y692331D01*
X435721Y692177D01*
X497349D01*
X498124Y692331D01*
X498780Y692769D01*
X513993Y707982D01*
X514459Y707789D01*
X515748Y707619D01*
X517037Y707789D01*
X517503Y707982D01*
X519316Y706169D01*
X519972Y705731D01*
X520747Y705577D01*
X609175D01*
X609949Y705731D01*
X610605Y706169D01*
X612418Y707982D01*
X612884Y707789D01*
X614173Y707619D01*
X615462Y707789D01*
X615929Y707982D01*
X629641Y694269D01*
X630298Y693831D01*
X631072Y693677D01*
X684416D01*
X685190Y693831D01*
X685847Y694269D01*
X701431Y709853D01*
X701869Y710510D01*
X702023Y711284D01*
Y715299D01*
X702489Y715417D01*
X702907Y714407D01*
X703572Y713541D01*
X704439Y712875D01*
X705448Y712457D01*
X706531Y712315D01*
X710468D01*
X711552Y712457D01*
X712561Y712875D01*
X713428Y713541D01*
X714093Y714407D01*
X714511Y715417D01*
X714654Y716500D01*
X714511Y717583D01*
X714093Y718593D01*
X713428Y719459D01*
X712561Y720125D01*
X711552Y720543D01*
X710468Y720685D01*
X706531D01*
X705448Y720543D01*
X704439Y720125D01*
X703572Y719459D01*
X702907Y718593D01*
X702489Y717583D01*
X702023Y717701D01*
Y720905D01*
X703915Y722797D01*
X703924Y722810D01*
X704417Y722892D01*
X704439Y722875D01*
X705448Y722457D01*
X706531Y722315D01*
X710468D01*
X711552Y722457D01*
X712561Y722875D01*
X713428Y723540D01*
X714093Y724407D01*
X714511Y725417D01*
X714654Y726500D01*
X714511Y727583D01*
X714093Y728593D01*
X713428Y729459D01*
X712561Y730125D01*
X711552Y730543D01*
X710468Y730685D01*
X706531D01*
X705448Y730543D01*
X704439Y730125D01*
X703572Y729459D01*
X702907Y728593D01*
X702878Y728523D01*
X702484D01*
X701710Y728369D01*
X701368Y728140D01*
X700957Y728265D01*
X700396Y728996D01*
X699665Y729557D01*
X698814Y729910D01*
X697900Y730030D01*
X696986Y729910D01*
X696135Y729557D01*
X695404Y728996D01*
X695041Y728523D01*
X684122D01*
X684093Y728593D01*
X683428Y729459D01*
X682561Y730125D01*
X681552Y730543D01*
X680469Y730685D01*
X676532D01*
X675448Y730543D01*
X674439Y730125D01*
X673572Y729459D01*
X672907Y728593D01*
X672489Y727583D01*
X672346Y726500D01*
X672489Y725417D01*
X672907Y724407D01*
X673572Y723540D01*
X674439Y722875D01*
X675448Y722457D01*
X676532Y722315D01*
X680469D01*
X681552Y722457D01*
X682561Y722875D01*
X683428Y723540D01*
X684093Y724407D01*
X684122Y724477D01*
X695041D01*
X695404Y724004D01*
X696135Y723443D01*
X696986Y723090D01*
X697837Y722978D01*
X698128Y722603D01*
X698157Y722556D01*
X698131Y722517D01*
X697977Y721743D01*
Y716711D01*
X697477Y716465D01*
X696965Y716857D01*
X696114Y717210D01*
X695200Y717330D01*
X694286Y717210D01*
X693435Y716857D01*
X692704Y716296D01*
X692143Y715565D01*
X691790Y714714D01*
X691670Y713800D01*
X691748Y713209D01*
X685144Y706605D01*
X684616Y706785D01*
X684511Y707583D01*
X684093Y708593D01*
X683428Y709459D01*
X682561Y710125D01*
X681552Y710543D01*
X680469Y710685D01*
X676532D01*
X675448Y710543D01*
X674439Y710125D01*
X673572Y709459D01*
X672907Y708593D01*
X672489Y707583D01*
X672346Y706500D01*
X672489Y705417D01*
X672907Y704407D01*
X673572Y703541D01*
X674246Y703023D01*
X674076Y702523D01*
X658738D01*
X637331Y723931D01*
X636674Y724369D01*
X635900Y724523D01*
X604390D01*
X603615Y724369D01*
X602959Y723931D01*
X600181Y721152D01*
X599714Y721346D01*
X598425Y721515D01*
X597136Y721346D01*
X595935Y720848D01*
X594904Y720057D01*
X594113Y719025D01*
X593615Y717824D01*
X593446Y716536D01*
X593615Y715247D01*
X594113Y714046D01*
X594821Y713123D01*
X594658Y712623D01*
X538270D01*
X536113Y714780D01*
X536306Y715247D01*
X536476Y716536D01*
X536306Y717824D01*
X535809Y719025D01*
X535017Y720057D01*
X533986Y720848D01*
X532785Y721346D01*
X531496Y721515D01*
X530207Y721346D01*
X529006Y720848D01*
X528713Y720623D01*
X512500D01*
X511726Y720469D01*
X511069Y720031D01*
X504474Y713436D01*
X504098Y713766D01*
X504313Y714046D01*
X504810Y715247D01*
X504980Y716536D01*
X504810Y717824D01*
X504313Y719025D01*
X503521Y720057D01*
X502490Y720848D01*
X501289Y721346D01*
X500000Y721515D01*
X498711Y721346D01*
X497510Y720848D01*
X496479Y720057D01*
X495687Y719025D01*
X495190Y717824D01*
X495020Y716536D01*
X495190Y715247D01*
X495687Y714046D01*
X496395Y713123D01*
X496233Y712623D01*
X439844D01*
X437687Y714780D01*
X437881Y715247D01*
X438050Y716536D01*
X437881Y717824D01*
X437383Y719025D01*
X436592Y720057D01*
X435561Y720848D01*
X434360Y721346D01*
X433071Y721515D01*
X431782Y721346D01*
X430581Y720848D01*
X430288Y720623D01*
X413000D01*
X412226Y720469D01*
X411569Y720031D01*
X406905Y715366D01*
X406431Y715599D01*
X406554Y716536D01*
X406385Y717824D01*
X405887Y719025D01*
X405096Y720057D01*
X404065Y720848D01*
X402864Y721346D01*
X401575Y721515D01*
X400286Y721346D01*
X399085Y720848D01*
X398054Y720057D01*
X397262Y719025D01*
X396765Y717824D01*
X396595Y716536D01*
X396765Y715247D01*
X397262Y714046D01*
X397970Y713123D01*
X397808Y712623D01*
X341419D01*
X339262Y714780D01*
X339456Y715247D01*
X339625Y716536D01*
X339456Y717824D01*
X338958Y719025D01*
X338167Y720057D01*
X337135Y720848D01*
X335934Y721346D01*
X334646Y721515D01*
X333357Y721346D01*
X332156Y720848D01*
X331863Y720623D01*
X313000D01*
X312226Y720469D01*
X311569Y720031D01*
X311131Y719374D01*
X310977Y718600D01*
Y715338D01*
X308262Y712623D01*
X306917D01*
X306754Y713123D01*
X307462Y714046D01*
X307960Y715247D01*
X308129Y716536D01*
X307960Y717824D01*
X307462Y719025D01*
X306671Y720057D01*
X305639Y720848D01*
X304438Y721346D01*
X303150Y721515D01*
X301861Y721346D01*
X300660Y720848D01*
X299628Y720057D01*
X298837Y719025D01*
X298340Y717824D01*
X298170Y716536D01*
X298340Y715247D01*
X298837Y714046D01*
X299545Y713123D01*
X299382Y712623D01*
X242994D01*
X240837Y714780D01*
X241030Y715247D01*
X241200Y716536D01*
X241030Y717824D01*
X240533Y719025D01*
X239741Y720057D01*
X238710Y720848D01*
X237509Y721346D01*
X236220Y721515D01*
X234932Y721346D01*
X234465Y721152D01*
X234287Y721331D01*
X233630Y721769D01*
X233591Y721777D01*
X233641Y722277D01*
X290245D01*
X291019Y722431D01*
X291675Y722869D01*
X294504Y725698D01*
X294971Y725505D01*
X296260Y725335D01*
X297549Y725505D01*
X298015Y725698D01*
X300844Y722869D01*
X301283Y722576D01*
X301501Y722431D01*
X302275Y722277D01*
X388670D01*
X389444Y722431D01*
X390101Y722869D01*
X392930Y725698D01*
X393396Y725505D01*
X394685Y725335D01*
X395974Y725505D01*
X396441Y725698D01*
X399269Y722869D01*
X399708Y722576D01*
X399926Y722431D01*
X400700Y722277D01*
X487095D01*
X487869Y722431D01*
X488526Y722869D01*
X491355Y725698D01*
X491821Y725505D01*
X493110Y725335D01*
X494399Y725505D01*
X494866Y725698D01*
X497695Y722869D01*
X498133Y722576D01*
X498351Y722431D01*
X499125Y722277D01*
X585520D01*
X586295Y722431D01*
X586951Y722869D01*
X589780Y725698D01*
X590247Y725505D01*
X591535Y725335D01*
X592824Y725505D01*
X594025Y726003D01*
X595056Y726794D01*
X595848Y727825D01*
X596345Y729026D01*
X596515Y730315D01*
X596345Y731604D01*
X595848Y732805D01*
X595102Y733777D01*
X595217Y734277D01*
X629988D01*
X632194Y732070D01*
X632001Y731604D01*
X631831Y730315D01*
X632001Y729026D01*
X632499Y727825D01*
X633290Y726794D01*
X634321Y726003D01*
X635522Y725505D01*
X636811Y725335D01*
X638100Y725505D01*
X639301Y726003D01*
X640332Y726794D01*
X641123Y727825D01*
X641621Y729026D01*
X641791Y730315D01*
X641621Y731604D01*
X641123Y732805D01*
X640332Y733836D01*
X639301Y734627D01*
X638100Y735125D01*
X636811Y735295D01*
X635522Y735125D01*
X635055Y734932D01*
X632872Y737115D01*
X633064Y737577D01*
X638300D01*
X639074Y737731D01*
X639731Y738169D01*
X666038Y764477D01*
X672878D01*
X672907Y764407D01*
X673572Y763541D01*
X674439Y762875D01*
X675448Y762457D01*
X676532Y762315D01*
X680469D01*
X681552Y762457D01*
X682561Y762875D01*
X683428Y763541D01*
X684093Y764407D01*
X684511Y765417D01*
X684654Y766500D01*
X684511Y767583D01*
X684093Y768593D01*
X683428Y769459D01*
X682561Y770125D01*
X681552Y770543D01*
X680469Y770685D01*
X676532D01*
X675448Y770543D01*
X674439Y770125D01*
X673572Y769459D01*
X672907Y768593D01*
X672878Y768523D01*
X666538D01*
X666346Y768985D01*
X672255Y774894D01*
X672746Y774796D01*
X672907Y774407D01*
X673572Y773540D01*
X674439Y772875D01*
X675448Y772457D01*
X676532Y772315D01*
X680469D01*
X681552Y772457D01*
X682561Y772875D01*
X683428Y773540D01*
X684093Y774407D01*
X684511Y775417D01*
X684654Y776500D01*
X684612Y776820D01*
X685085Y777053D01*
X685977Y776162D01*
Y773300D01*
X686131Y772526D01*
X686569Y771869D01*
X696448Y761991D01*
X696370Y761400D01*
X696490Y760486D01*
X696843Y759635D01*
X697404Y758904D01*
X698135Y758343D01*
X698986Y757990D01*
X699900Y757870D01*
X700814Y757990D01*
X701665Y758343D01*
X702396Y758904D01*
X702957Y759635D01*
X703310Y760486D01*
X703430Y761400D01*
X703310Y762314D01*
X702957Y763165D01*
X702396Y763896D01*
X702315Y763958D01*
X702540Y764416D01*
X702907Y764407D01*
X702907Y764407D01*
X703572Y763541D01*
X704439Y762875D01*
X705448Y762457D01*
X706531Y762315D01*
X710468D01*
X711552Y762457D01*
X712561Y762875D01*
X713428Y763541D01*
X714093Y764407D01*
X714511Y765417D01*
X714654Y766500D01*
X714511Y767583D01*
X714093Y768593D01*
X713428Y769459D01*
X712561Y770125D01*
X711552Y770543D01*
X710468Y770685D01*
X706531D01*
X705448Y770543D01*
X704439Y770125D01*
X703572Y769459D01*
X703295Y769098D01*
X702796Y769065D01*
X701023Y770838D01*
Y775603D01*
X700869Y776377D01*
X700431Y777033D01*
X691431Y786033D01*
X690774Y786472D01*
X690000Y786626D01*
X661633D01*
X661514Y787090D01*
X662365Y787443D01*
X662447Y787506D01*
X791500D01*
X792275Y787608D01*
X792486Y787696D01*
X792997Y787907D01*
X793617Y788383D01*
X805910Y800675D01*
X882669D01*
X883444Y800777D01*
X883656Y800865D01*
X884166Y801076D01*
X884786Y801552D01*
X892345Y809111D01*
X892811Y808869D01*
X892909Y808122D01*
X893248Y807304D01*
X893787Y806602D01*
X894489Y806063D01*
X895307Y805724D01*
X896185Y805609D01*
X897063Y805724D01*
X897833Y806043D01*
X960635Y807506D01*
X1017995D01*
X1018434Y806934D01*
X1019478Y806133D01*
X1020695Y805629D01*
X1021497Y805523D01*
X1021464Y805023D01*
X994313D01*
X994187Y805187D01*
X993547Y805679D01*
X992801Y805988D01*
X992500Y806028D01*
Y803000D01*
X992000D01*
Y802500D01*
X988972D01*
X989012Y802199D01*
X989321Y801453D01*
X989813Y800813D01*
X989894Y800750D01*
Y800250D01*
X989813Y800187D01*
X989321Y799547D01*
X989012Y798801D01*
X988907Y798000D01*
X989012Y797199D01*
X989274Y796567D01*
X989054Y796067D01*
X988933D01*
Y795994D01*
X919310D01*
X848698Y796473D01*
X848600Y796600D01*
X847692Y797297D01*
X846635Y797735D01*
X845500Y797884D01*
X844365Y797735D01*
X843308Y797297D01*
X842400Y796600D01*
X841703Y795692D01*
X841265Y794635D01*
X841116Y793500D01*
X841265Y792365D01*
X841703Y791308D01*
X842400Y790400D01*
X843308Y789703D01*
X844365Y789265D01*
X845500Y789116D01*
X846635Y789265D01*
X847692Y789703D01*
X848600Y790400D01*
X848665Y790484D01*
X919280Y790006D01*
X919290Y790007D01*
X919300Y790006D01*
X928430D01*
X928582Y789506D01*
X928169Y789231D01*
X908962Y770023D01*
X900500D01*
Y772000D01*
X897000D01*
Y768000D01*
Y764000D01*
X900500D01*
Y765977D01*
X909800D01*
X910574Y766131D01*
X911231Y766569D01*
X930438Y785777D01*
X937690D01*
X937789Y785277D01*
X937007Y784953D01*
X936181Y784319D01*
X935547Y783493D01*
X935149Y782532D01*
X935013Y781500D01*
X935149Y780468D01*
X935547Y779507D01*
X936181Y778681D01*
X937007Y778047D01*
X937968Y777649D01*
X939000Y777513D01*
X940032Y777649D01*
X940993Y778047D01*
X941591Y778506D01*
X946409D01*
X947007Y778047D01*
X947968Y777649D01*
X949000Y777513D01*
X950032Y777649D01*
X950993Y778047D01*
X951819Y778681D01*
X952453Y779507D01*
X952851Y780468D01*
X952987Y781500D01*
X952851Y782532D01*
X952453Y783493D01*
X951819Y784319D01*
X950993Y784953D01*
X950211Y785277D01*
X950310Y785777D01*
X957690D01*
X957789Y785277D01*
X957007Y784953D01*
X956181Y784319D01*
X955547Y783493D01*
X955149Y782532D01*
X955013Y781500D01*
X955149Y780468D01*
X955547Y779507D01*
X956181Y778681D01*
X957007Y778047D01*
X957968Y777649D01*
X959000Y777513D01*
X960032Y777649D01*
X960993Y778047D01*
X961819Y778681D01*
X962453Y779507D01*
X962851Y780468D01*
X962987Y781500D01*
X962851Y782532D01*
X962453Y783493D01*
X961819Y784319D01*
X960993Y784953D01*
X960211Y785277D01*
X960310Y785777D01*
X967690D01*
X967789Y785277D01*
X967007Y784953D01*
X966181Y784319D01*
X965547Y783493D01*
X965149Y782532D01*
X965013Y781500D01*
X965149Y780468D01*
X965547Y779507D01*
X966181Y778681D01*
X967007Y778047D01*
X967968Y777649D01*
X969000Y777513D01*
X970032Y777649D01*
X970993Y778047D01*
X971819Y778681D01*
X972453Y779507D01*
X972851Y780468D01*
X972987Y781500D01*
X972851Y782532D01*
X972453Y783493D01*
X971819Y784319D01*
X970993Y784953D01*
X970211Y785277D01*
X970310Y785777D01*
X996100D01*
X996874Y785931D01*
X997531Y786369D01*
X997969Y787026D01*
X998123Y787800D01*
Y800977D01*
X1031909D01*
X1032684Y801131D01*
X1033340Y801569D01*
X1040340Y808569D01*
X1040633Y809008D01*
X1040779Y809226D01*
X1040932Y810000D01*
Y838126D01*
X1043846D01*
Y846500D01*
X1033972D01*
Y838126D01*
X1036886D01*
Y810838D01*
X1031071Y805023D01*
X1022536D01*
X1022503Y805523D01*
X1023305Y805629D01*
X1024522Y806133D01*
X1025566Y806934D01*
X1026367Y807978D01*
X1026871Y809195D01*
X1027043Y810500D01*
X1026871Y811805D01*
X1026367Y813022D01*
X1025566Y814066D01*
X1024522Y814867D01*
X1023305Y815371D01*
X1022000Y815543D01*
X1020695Y815371D01*
X1019478Y814867D01*
X1018434Y814066D01*
X1017995Y813494D01*
X960600D01*
X960565Y813490D01*
X960530Y813493D01*
X897658Y812029D01*
X897063Y812276D01*
X896315Y812374D01*
X896074Y812840D01*
X901240Y818006D01*
X936989D01*
X937640Y817506D01*
X938613Y817103D01*
X939657Y816965D01*
X940702Y817103D01*
X941675Y817506D01*
X942510Y818147D01*
X943151Y818983D01*
X943554Y819956D01*
X943662Y820770D01*
X948117Y825225D01*
X948593Y825846D01*
X948717Y826145D01*
X948892Y826568D01*
X948994Y827343D01*
Y853657D01*
X948892Y854432D01*
X948804Y854644D01*
X948593Y855155D01*
X948117Y855775D01*
X937475Y866417D01*
X936854Y866893D01*
X936344Y867105D01*
X936132Y867192D01*
X935357Y867294D01*
X913300D01*
X912525Y867192D01*
X912314Y867105D01*
X911803Y866893D01*
X911183Y866417D01*
X908560Y863794D01*
X892060D01*
X891462Y864253D01*
X890500Y864651D01*
X889468Y864787D01*
X885532D01*
X884500Y864651D01*
X883538Y864253D01*
X882940Y863794D01*
X878021D01*
Y867000D01*
X866179D01*
Y863794D01*
X828440D01*
X821994Y870240D01*
Y882945D01*
X827516Y888467D01*
X828196Y888748D01*
X828898Y889287D01*
X829437Y889989D01*
X829776Y890807D01*
X829891Y891685D01*
X829776Y892563D01*
X829494Y893242D01*
Y899500D01*
X829392Y900275D01*
X829243Y900636D01*
X829093Y900997D01*
X828617Y901617D01*
X821617Y908617D01*
X820997Y909093D01*
X820486Y909305D01*
X820275Y909392D01*
X819500Y909494D01*
X789875D01*
X789709Y909709D01*
X788769Y910431D01*
X787675Y910884D01*
X786500Y911039D01*
X785325Y910884D01*
X784231Y910431D01*
X783291Y909709D01*
X782569Y908769D01*
X782116Y907675D01*
X781961Y906500D01*
X782116Y905325D01*
X782569Y904231D01*
X783291Y903291D01*
X784231Y902569D01*
X785325Y902116D01*
X786500Y901961D01*
X787675Y902116D01*
X788769Y902569D01*
X789709Y903291D01*
X789875Y903506D01*
X818260D01*
X823506Y898260D01*
Y893242D01*
X823282Y892701D01*
X816883Y886302D01*
X816407Y885682D01*
X816195Y885171D01*
X816108Y884960D01*
X816006Y884185D01*
Y869000D01*
X816108Y868225D01*
X816195Y868014D01*
X816407Y867503D01*
X816883Y866883D01*
X825083Y858683D01*
X825703Y858207D01*
X826002Y858083D01*
X826425Y857908D01*
X827200Y857806D01*
X866179D01*
Y856123D01*
X835757D01*
X834983Y855969D01*
X834327Y855531D01*
X816733Y837937D01*
X815157D01*
Y833500D01*
X819594D01*
Y835076D01*
X836595Y852077D01*
X866179D01*
Y850147D01*
X871600D01*
Y854100D01*
X872600D01*
Y850147D01*
X878021D01*
Y852426D01*
X904060Y853977D01*
X926800D01*
Y850800D01*
X931500D01*
Y856000D01*
X932000D01*
Y856500D01*
X937200D01*
Y857570D01*
X937662Y857761D01*
X943006Y852417D01*
Y828583D01*
X939427Y825004D01*
X938613Y824897D01*
X937640Y824494D01*
X936989Y823994D01*
X900000D01*
X899225Y823892D01*
X899014Y823804D01*
X898503Y823593D01*
X897883Y823117D01*
X881429Y806663D01*
X879510D01*
X879289Y807112D01*
X879437Y807304D01*
X879776Y808122D01*
X879891Y809000D01*
X879776Y809878D01*
X879437Y810696D01*
X878898Y811398D01*
X878196Y811937D01*
X877378Y812276D01*
X876500Y812391D01*
X875622Y812276D01*
X874804Y811937D01*
X874102Y811398D01*
X873563Y810696D01*
X873224Y809878D01*
X873109Y809000D01*
X873224Y808122D01*
X873563Y807304D01*
X873711Y807112D01*
X873490Y806663D01*
X804669D01*
X803894Y806561D01*
X803533Y806412D01*
X803172Y806262D01*
X802552Y805786D01*
X790955Y794189D01*
X790531Y794472D01*
X790884Y795325D01*
X791039Y796500D01*
X790884Y797675D01*
X790431Y798769D01*
X789709Y799709D01*
X788769Y800431D01*
X787675Y800884D01*
X786500Y801039D01*
X785325Y800884D01*
X784231Y800431D01*
X783291Y799709D01*
X782569Y798769D01*
X782116Y797675D01*
X781961Y796500D01*
X782116Y795325D01*
X782569Y794231D01*
X782790Y793943D01*
X782569Y793494D01*
X730431D01*
X730210Y793943D01*
X730431Y794231D01*
X730884Y795325D01*
X731039Y796500D01*
X730884Y797675D01*
X730431Y798769D01*
X729709Y799709D01*
X728769Y800431D01*
X727675Y800884D01*
X726500Y801039D01*
X725325Y800884D01*
X724231Y800431D01*
X723291Y799709D01*
X722569Y798769D01*
X722467Y798523D01*
X237838D01*
X225523Y810838D01*
Y831800D01*
X225369Y832574D01*
X224931Y833231D01*
X211431Y846731D01*
X210774Y847169D01*
X210000Y847323D01*
X144088D01*
X144056Y847823D01*
X144990Y847946D01*
X146191Y848444D01*
X147222Y849235D01*
X148013Y850266D01*
X148511Y851467D01*
X148680Y852756D01*
X148511Y854045D01*
X148013Y855246D01*
X147222Y856277D01*
X146191Y857069D01*
X144990Y857566D01*
X143701Y857736D01*
X142412Y857566D01*
X141211Y857069D01*
X140180Y856277D01*
X139388Y855246D01*
X138891Y854045D01*
X138721Y852756D01*
X138891Y851467D01*
X139388Y850266D01*
X140180Y849235D01*
X141211Y848444D01*
X142412Y847946D01*
X143346Y847823D01*
X143313Y847323D01*
X125838D01*
X120423Y852738D01*
Y859169D01*
X120638Y859313D01*
X120873Y859415D01*
X121228Y859188D01*
X121367Y858489D01*
X121806Y857833D01*
X124069Y855569D01*
X124726Y855131D01*
X125500Y854977D01*
X134500D01*
X135274Y855131D01*
X135931Y855569D01*
X141338Y860977D01*
X146662D01*
X152770Y854869D01*
X153427Y854430D01*
X154201Y854276D01*
X163141D01*
X163211Y854107D01*
X163908Y853199D01*
X164816Y852503D01*
X165873Y852065D01*
X167008Y851915D01*
X168142Y852065D01*
X169200Y852503D01*
X170108Y853199D01*
X170804Y854107D01*
X170874Y854276D01*
X171799D01*
X172573Y854430D01*
X173230Y854869D01*
X175931Y857569D01*
X176369Y858226D01*
X176523Y859000D01*
Y864000D01*
X176369Y864774D01*
X175931Y865431D01*
X164023Y877338D01*
Y894262D01*
X167738Y897977D01*
X168604D01*
X168703Y897477D01*
X168478Y897384D01*
X167851Y896903D01*
X167370Y896276D01*
X167068Y895546D01*
X166965Y894763D01*
X167068Y893980D01*
X167370Y893250D01*
X167851Y892624D01*
X168005Y892506D01*
Y892006D01*
X167871Y891903D01*
X167390Y891276D01*
X167087Y890547D01*
X166984Y889763D01*
X167087Y888980D01*
X167390Y888251D01*
X167420Y888212D01*
X167198Y887763D01*
X166991D01*
Y885263D01*
X175491D01*
Y887763D01*
X175322D01*
X175101Y888212D01*
X175131Y888251D01*
X175433Y888980D01*
X175536Y889763D01*
X175433Y890547D01*
X175131Y891276D01*
X174650Y891903D01*
X174496Y892021D01*
Y892521D01*
X174631Y892624D01*
X175111Y893250D01*
X175414Y893980D01*
X175517Y894763D01*
X175414Y895546D01*
X175111Y896276D01*
X174631Y896903D01*
X174004Y897384D01*
X173779Y897477D01*
X173878Y897977D01*
X177162D01*
X188774Y886365D01*
X189431Y885926D01*
X190205Y885772D01*
X197212D01*
X197715Y885116D01*
X198500Y884514D01*
X199413Y884136D01*
X200394Y884007D01*
X201374Y884136D01*
X202288Y884514D01*
X203073Y885116D01*
X203675Y885901D01*
X204053Y886815D01*
X204182Y887795D01*
X204074Y888614D01*
X227737Y912277D01*
X283000D01*
X283774Y912431D01*
X284431Y912869D01*
X299038Y927477D01*
X308662D01*
X312477Y923662D01*
Y904314D01*
X299638Y891476D01*
X298819Y891584D01*
X297838Y891454D01*
X296925Y891076D01*
X296140Y890474D01*
X295538Y889689D01*
X295160Y888776D01*
X295031Y887795D01*
X295139Y886976D01*
X285686Y877523D01*
X284634D01*
X283860Y877369D01*
X283203Y876931D01*
X266737Y860464D01*
X266568Y860534D01*
X265433Y860683D01*
X264298Y860534D01*
X263241Y860096D01*
X262333Y859399D01*
X261636Y858491D01*
X261198Y857434D01*
X261049Y856299D01*
X261198Y855165D01*
X261636Y854107D01*
X262333Y853199D01*
X263241Y852503D01*
X263410Y852433D01*
Y847567D01*
X263564Y846793D01*
X264002Y846136D01*
X265569Y844569D01*
X266226Y844131D01*
X267000Y843977D01*
X353559D01*
X354333Y844131D01*
X354990Y844569D01*
X362555Y852135D01*
X362723Y852065D01*
X363858Y851915D01*
X364993Y852065D01*
X366050Y852503D01*
X366958Y853199D01*
X367655Y854107D01*
X368093Y855165D01*
X368242Y856299D01*
X368093Y857434D01*
X367655Y858491D01*
X366958Y859399D01*
X366050Y860096D01*
X365881Y860166D01*
Y868142D01*
X365727Y868916D01*
X365289Y869572D01*
X361523Y873338D01*
Y896662D01*
X364838Y899977D01*
X371162D01*
X384774Y886365D01*
X385431Y885926D01*
X386205Y885772D01*
X394062D01*
X394566Y885116D01*
X395350Y884514D01*
X396264Y884136D01*
X397244Y884007D01*
X398225Y884136D01*
X399138Y884514D01*
X399923Y885116D01*
X400525Y885901D01*
X400903Y886815D01*
X401032Y887795D01*
X400925Y888614D01*
X409487Y897177D01*
X462707D01*
X462954Y896677D01*
X462646Y896276D01*
X462344Y895546D01*
X462241Y894763D01*
X462344Y893980D01*
X462646Y893250D01*
X463127Y892624D01*
X463280Y892506D01*
Y892006D01*
X463146Y891903D01*
X462665Y891276D01*
X462363Y890547D01*
X462260Y889763D01*
X462363Y888980D01*
X462665Y888251D01*
X462695Y888212D01*
X462474Y887763D01*
X462267D01*
Y886786D01*
X444000D01*
X443226Y886632D01*
X442569Y886194D01*
X435199Y878823D01*
X372038D01*
X370023Y880838D01*
Y881763D01*
X372341D01*
Y884263D01*
X363841D01*
Y881763D01*
X365977D01*
Y880000D01*
X366131Y879226D01*
X366569Y878569D01*
X369769Y875369D01*
X370426Y874931D01*
X371200Y874777D01*
X436037D01*
X436811Y874931D01*
X437467Y875369D01*
X444838Y882740D01*
X462267D01*
Y881763D01*
X466017D01*
Y884763D01*
X466517D01*
Y885263D01*
X470767D01*
Y887763D01*
X470598D01*
X470376Y888212D01*
X470406Y888251D01*
X470709Y888980D01*
X470812Y889763D01*
X470709Y890547D01*
X470406Y891276D01*
X469925Y891903D01*
X469772Y892021D01*
Y892521D01*
X469906Y892624D01*
X470387Y893250D01*
X470689Y893980D01*
X470792Y894763D01*
X470689Y895546D01*
X470387Y896276D01*
X470080Y896677D01*
X470326Y897177D01*
X483427D01*
X491989Y888614D01*
X491881Y887795D01*
X492010Y886815D01*
X492389Y885901D01*
X492991Y885116D01*
X493775Y884514D01*
X494689Y884136D01*
X495669Y884007D01*
X496650Y884136D01*
X497564Y884514D01*
X498348Y885116D01*
X498950Y885901D01*
X499329Y886815D01*
X499458Y887795D01*
X499329Y888776D01*
X498950Y889689D01*
X498348Y890474D01*
X497564Y891076D01*
X496650Y891454D01*
X495669Y891584D01*
X494850Y891476D01*
X485695Y900631D01*
X485039Y901069D01*
X484265Y901223D01*
X408649D01*
X407875Y901069D01*
X407218Y900631D01*
X398063Y891476D01*
X397244Y891584D01*
X396264Y891454D01*
X395350Y891076D01*
X394566Y890474D01*
X394062Y889818D01*
X387043D01*
X373431Y903431D01*
X372774Y903869D01*
X372000Y904023D01*
X364000D01*
X363226Y903869D01*
X362569Y903431D01*
X358069Y898931D01*
X357631Y898274D01*
X357477Y897500D01*
Y872500D01*
X357631Y871726D01*
X358069Y871069D01*
X361835Y867304D01*
Y860166D01*
X361666Y860096D01*
X360758Y859399D01*
X360062Y858491D01*
X359624Y857434D01*
X359474Y856299D01*
X359624Y855165D01*
X359694Y854996D01*
X352721Y848023D01*
X343257D01*
X343145Y848523D01*
X344072Y849235D01*
X344864Y850266D01*
X345361Y851467D01*
X345531Y852756D01*
X345361Y854045D01*
X344864Y855246D01*
X344072Y856277D01*
X343041Y857069D01*
X341840Y857566D01*
X340551Y857736D01*
X339262Y857566D01*
X338061Y857069D01*
X337030Y856277D01*
X336239Y855246D01*
X335741Y854045D01*
X335572Y852756D01*
X335741Y851467D01*
X336239Y850266D01*
X337030Y849235D01*
X337958Y848523D01*
X337846Y848023D01*
X267838D01*
X267456Y848405D01*
Y852433D01*
X267625Y852503D01*
X268533Y853199D01*
X269230Y854107D01*
X269668Y855165D01*
X269817Y856299D01*
X269668Y857434D01*
X269598Y857603D01*
X285472Y873477D01*
X286524D01*
X287298Y873631D01*
X287954Y874069D01*
X298000Y884115D01*
X298819Y884007D01*
X299799Y884136D01*
X300713Y884514D01*
X301498Y885116D01*
X302100Y885901D01*
X302478Y886815D01*
X302607Y887795D01*
X302499Y888614D01*
X315931Y902046D01*
X316369Y902702D01*
X316523Y903476D01*
Y924500D01*
X316369Y925274D01*
X315931Y925931D01*
X310931Y930931D01*
X310274Y931369D01*
X309500Y931523D01*
D02*
G37*
G36*
X265433Y925644D02*
X264298Y925494D01*
X263241Y925056D01*
X262333Y924360D01*
X261636Y923452D01*
X261198Y922394D01*
X261049Y921260D01*
X261198Y920125D01*
X261636Y919068D01*
X262333Y918160D01*
X263241Y917463D01*
X264298Y917025D01*
X265433Y916876D01*
X266568Y917025D01*
X267625Y917463D01*
X268533Y918160D01*
X269230Y919068D01*
X269668Y920125D01*
X269817Y921260D01*
X269668Y922394D01*
X269230Y923452D01*
X268533Y924360D01*
X267625Y925056D01*
X266568Y925494D01*
X265433Y925644D01*
D02*
G37*
G36*
X369341Y897789D02*
X366841D01*
X366058Y897686D01*
X365329Y897384D01*
X364702Y896903D01*
X364221Y896276D01*
X363919Y895546D01*
X363815Y894763D01*
X363919Y893980D01*
X364221Y893250D01*
X364702Y892624D01*
X364855Y892506D01*
Y892006D01*
X364721Y891903D01*
X364240Y891276D01*
X363938Y890547D01*
X363835Y889763D01*
X363938Y888980D01*
X364240Y888251D01*
X364270Y888212D01*
X364049Y887763D01*
X363841D01*
Y885263D01*
X372341D01*
Y887763D01*
X372172D01*
X371951Y888212D01*
X371981Y888251D01*
X372283Y888980D01*
X372387Y889763D01*
X372283Y890547D01*
X371981Y891276D01*
X371500Y891903D01*
X371347Y892021D01*
Y892521D01*
X371481Y892624D01*
X371962Y893250D01*
X372264Y893980D01*
X372367Y894763D01*
X372264Y895546D01*
X371962Y896276D01*
X371481Y896903D01*
X370854Y897384D01*
X370125Y897686D01*
X369341Y897789D01*
D02*
G37*
G36*
X726500Y901039D02*
X725325Y900884D01*
X724231Y900431D01*
X723291Y899709D01*
X722569Y898769D01*
X722116Y897675D01*
X721961Y896500D01*
X722116Y895325D01*
X722569Y894231D01*
X723291Y893291D01*
X724231Y892569D01*
X725325Y892116D01*
X726500Y891961D01*
X727675Y892116D01*
X728769Y892569D01*
X729709Y893291D01*
X730431Y894231D01*
X730884Y895325D01*
X731039Y896500D01*
X730884Y897675D01*
X730431Y898769D01*
X729709Y899709D01*
X728769Y900431D01*
X727675Y900884D01*
X726500Y901039D01*
D02*
G37*
G36*
X614567Y891584D02*
X613587Y891454D01*
X612673Y891076D01*
X611888Y890474D01*
X611286Y889689D01*
X610908Y888776D01*
X610779Y887795D01*
X610908Y886815D01*
X611286Y885901D01*
X611888Y885116D01*
X612673Y884514D01*
X613587Y884136D01*
X614567Y884007D01*
X615548Y884136D01*
X616461Y884514D01*
X617246Y885116D01*
X617848Y885901D01*
X618226Y886815D01*
X618355Y887795D01*
X618226Y888776D01*
X617848Y889689D01*
X617246Y890474D01*
X616461Y891076D01*
X615548Y891454D01*
X614567Y891584D01*
D02*
G37*
G36*
X516142D02*
X515161Y891454D01*
X514248Y891076D01*
X513463Y890474D01*
X512861Y889689D01*
X512483Y888776D01*
X512354Y887795D01*
X512483Y886815D01*
X512861Y885901D01*
X513463Y885116D01*
X514248Y884514D01*
X515161Y884136D01*
X516142Y884007D01*
X517122Y884136D01*
X518036Y884514D01*
X518820Y885116D01*
X519423Y885901D01*
X519801Y886815D01*
X519930Y887795D01*
X519801Y888776D01*
X519423Y889689D01*
X518820Y890474D01*
X518036Y891076D01*
X517122Y891454D01*
X516142Y891584D01*
D02*
G37*
G36*
X604331D02*
X603350Y891454D01*
X602437Y891076D01*
X601652Y890474D01*
X601050Y889689D01*
X600672Y888776D01*
X600542Y887795D01*
X600672Y886815D01*
X601050Y885901D01*
X601652Y885116D01*
X602437Y884514D01*
X603350Y884136D01*
X604331Y884007D01*
X605311Y884136D01*
X606225Y884514D01*
X607010Y885116D01*
X607612Y885901D01*
X607990Y886815D01*
X608119Y887795D01*
X607990Y888776D01*
X607612Y889689D01*
X607010Y890474D01*
X606225Y891076D01*
X605311Y891454D01*
X604331Y891584D01*
D02*
G37*
G36*
X907500Y910079D02*
X904000D01*
Y906579D01*
X907500D01*
Y910079D01*
D02*
G37*
G36*
X655400Y924530D02*
X654486Y924409D01*
X653635Y924057D01*
X652904Y923496D01*
X652343Y922764D01*
X651990Y921913D01*
X651870Y920999D01*
X651990Y920086D01*
X652343Y919234D01*
X652904Y918503D01*
X653635Y917942D01*
X654486Y917589D01*
X655400Y917469D01*
X656314Y917589D01*
X657165Y917942D01*
X657896Y918503D01*
X658259Y918976D01*
X683502D01*
X683592Y918860D01*
X683745Y918742D01*
Y918242D01*
X683611Y918139D01*
X683130Y917513D01*
X682828Y916783D01*
X682725Y916000D01*
X682828Y915216D01*
X683130Y914487D01*
X683160Y914448D01*
X682939Y913999D01*
X682731D01*
Y913023D01*
X604536D01*
X603762Y912868D01*
X603106Y912430D01*
X577462Y886786D01*
X569192D01*
Y887763D01*
X569023D01*
X568802Y888212D01*
X568831Y888251D01*
X569134Y888980D01*
X569237Y889763D01*
X569134Y890547D01*
X568831Y891276D01*
X568351Y891903D01*
X568197Y892021D01*
Y892521D01*
X568331Y892624D01*
X568812Y893250D01*
X569115Y893980D01*
X569218Y894763D01*
X569115Y895546D01*
X568812Y896276D01*
X568331Y896903D01*
X567705Y897384D01*
X566975Y897686D01*
X566192Y897789D01*
X563692D01*
X562909Y897686D01*
X562179Y897384D01*
X561552Y896903D01*
X561071Y896276D01*
X560769Y895546D01*
X560666Y894763D01*
X560769Y893980D01*
X561071Y893250D01*
X561552Y892624D01*
X561705Y892506D01*
Y892006D01*
X561571Y891903D01*
X561091Y891276D01*
X560788Y890547D01*
X560685Y889763D01*
X560788Y888980D01*
X561091Y888251D01*
X561120Y888212D01*
X560899Y887763D01*
X560692D01*
Y886786D01*
X538563D01*
X537789Y886632D01*
X537133Y886194D01*
X533462Y882523D01*
X471618D01*
X470767Y883374D01*
Y884263D01*
X467017D01*
Y881402D01*
X469349Y879069D01*
X470006Y878631D01*
X470780Y878477D01*
X534300D01*
X535074Y878631D01*
X535731Y879069D01*
X539401Y882740D01*
X560692D01*
Y881763D01*
X564442D01*
Y884763D01*
X565442D01*
Y881763D01*
X569192D01*
Y882740D01*
X578300D01*
X579074Y882894D01*
X579731Y883333D01*
X605374Y908976D01*
X682731D01*
Y907999D01*
X686481D01*
Y910999D01*
X686981D01*
Y911499D01*
X691231D01*
Y913999D01*
X691062D01*
X690841Y914448D01*
X690871Y914487D01*
X691173Y915216D01*
X691277Y916000D01*
X691173Y916783D01*
X690871Y917513D01*
X690390Y918139D01*
X690237Y918257D01*
Y918757D01*
X690371Y918860D01*
X690852Y919487D01*
X691154Y920216D01*
X691257Y920999D01*
X691154Y921783D01*
X690852Y922512D01*
X690371Y923139D01*
X689744Y923620D01*
X689015Y923922D01*
X688231Y924025D01*
X685731D01*
X684948Y923922D01*
X684219Y923620D01*
X683592Y923139D01*
X683502Y923022D01*
X658259D01*
X657896Y923496D01*
X657165Y924057D01*
X656314Y924409D01*
X655400Y924530D01*
D02*
G37*
G36*
X903000Y910079D02*
X899500D01*
Y906579D01*
X903000D01*
Y910079D01*
D02*
G37*
G36*
X786500Y901039D02*
X785325Y900884D01*
X784231Y900431D01*
X783291Y899709D01*
X782569Y898769D01*
X782116Y897675D01*
X781961Y896500D01*
X782116Y895325D01*
X782569Y894231D01*
X783291Y893291D01*
X784231Y892569D01*
X785325Y892116D01*
X786500Y891961D01*
X787675Y892116D01*
X788769Y892569D01*
X789709Y893291D01*
X790431Y894231D01*
X790884Y895325D01*
X791039Y896500D01*
X790884Y897675D01*
X790431Y898769D01*
X789709Y899709D01*
X788769Y900431D01*
X787675Y900884D01*
X786500Y901039D01*
D02*
G37*
G36*
X731000Y906000D02*
X727000D01*
Y902000D01*
X731000D01*
Y906000D01*
D02*
G37*
G36*
X810500Y932000D02*
X805500D01*
Y928523D01*
X791000D01*
Y931000D01*
X787000D01*
Y926500D01*
Y922000D01*
X791000D01*
Y924477D01*
X805500D01*
Y921000D01*
X810500D01*
Y926500D01*
Y932000D01*
D02*
G37*
G36*
X726500Y941039D02*
X725325Y940884D01*
X724231Y940431D01*
X723291Y939709D01*
X722569Y938769D01*
X722116Y937675D01*
X721961Y936500D01*
X722116Y935325D01*
X722569Y934231D01*
X723291Y933291D01*
X724231Y932569D01*
X725325Y932116D01*
X726500Y931961D01*
X727675Y932116D01*
X728769Y932569D01*
X729709Y933291D01*
X730431Y934231D01*
X730884Y935325D01*
X731039Y936500D01*
X730884Y937675D01*
X730431Y938769D01*
X729709Y939709D01*
X728769Y940431D01*
X727675Y940884D01*
X726500Y941039D01*
D02*
G37*
G36*
X816500Y932000D02*
X811500D01*
Y927000D01*
X816500D01*
Y932000D01*
D02*
G37*
G36*
X726500Y931039D02*
X725325Y930884D01*
X724231Y930431D01*
X723291Y929709D01*
X722569Y928769D01*
X722116Y927675D01*
X721961Y926500D01*
X722116Y925325D01*
X722569Y924231D01*
X723291Y923291D01*
X724231Y922569D01*
X725325Y922116D01*
X726500Y921961D01*
X727675Y922116D01*
X728769Y922569D01*
X729709Y923291D01*
X730431Y924231D01*
X730884Y925325D01*
X731039Y926500D01*
X730884Y927675D01*
X730431Y928769D01*
X729709Y929709D01*
X728769Y930431D01*
X727675Y930884D01*
X726500Y931039D01*
D02*
G37*
G36*
X786000Y931000D02*
X782000D01*
Y928523D01*
X746500D01*
X745726Y928369D01*
X745069Y927931D01*
X728139Y911000D01*
X727000D01*
Y907000D01*
X731000D01*
Y908139D01*
X747338Y924477D01*
X782000D01*
Y922000D01*
X786000D01*
Y926500D01*
Y931000D01*
D02*
G37*
G36*
X915354Y964027D02*
X913923Y963887D01*
X912547Y963469D01*
X911279Y962791D01*
X910168Y961879D01*
X909256Y960768D01*
X908578Y959500D01*
X908161Y958124D01*
X908020Y956693D01*
X908161Y955262D01*
X908578Y953886D01*
X909256Y952618D01*
X910168Y951507D01*
X911279Y950595D01*
X912547Y949917D01*
X913923Y949499D01*
X915354Y949358D01*
X916785Y949499D01*
X918161Y949917D01*
X919429Y950595D01*
X920541Y951507D01*
X921453Y952618D01*
X922131Y953886D01*
X922548Y955262D01*
X922689Y956693D01*
X922548Y958124D01*
X922131Y959500D01*
X921453Y960768D01*
X920541Y961879D01*
X919429Y962791D01*
X918161Y963469D01*
X916785Y963887D01*
X915354Y964027D01*
D02*
G37*
G36*
X1037074Y961793D02*
X1036030Y961656D01*
X1035056Y961253D01*
X1034405Y960753D01*
X1008246D01*
X1007595Y961253D01*
X1006622Y961656D01*
X1005578Y961793D01*
X1004533Y961656D01*
X1003560Y961253D01*
X1002909Y960753D01*
X976750D01*
X976099Y961253D01*
X975126Y961656D01*
X974082Y961793D01*
X973037Y961656D01*
X972064Y961253D01*
X971413Y960753D01*
X945254D01*
X944603Y961253D01*
X943630Y961656D01*
X942586Y961793D01*
X941541Y961656D01*
X940568Y961253D01*
X939733Y960612D01*
X939624Y960469D01*
X939340Y960352D01*
X938720Y959876D01*
X903269Y924426D01*
X902455Y924319D01*
X901482Y923916D01*
X900647Y923274D01*
X900006Y922439D01*
X899603Y921466D01*
X899495Y920652D01*
X898133Y919290D01*
X897773Y919141D01*
X897153Y918665D01*
X895414Y916926D01*
X894938Y916306D01*
X894789Y915945D01*
X869983Y891139D01*
X869507Y890519D01*
X869296Y890008D01*
X869208Y889797D01*
X869106Y889022D01*
Y884752D01*
X869100Y884751D01*
X868138Y884353D01*
X867312Y883719D01*
X866679Y882893D01*
X866280Y881932D01*
X866145Y880900D01*
X866280Y879868D01*
X866679Y878907D01*
X867312Y878081D01*
X867816Y877694D01*
X867647Y877194D01*
X828700D01*
X827925Y877092D01*
X827714Y877005D01*
X827203Y876793D01*
X826583Y876317D01*
X825484Y875218D01*
X824804Y874937D01*
X824102Y874398D01*
X823563Y873696D01*
X823224Y872878D01*
X823109Y872000D01*
X823224Y871122D01*
X823563Y870304D01*
X824102Y869602D01*
X824804Y869063D01*
X825622Y868724D01*
X826500Y868609D01*
X827378Y868724D01*
X828196Y869063D01*
X828898Y869602D01*
X829437Y870304D01*
X829718Y870984D01*
X829940Y871206D01*
X866179D01*
Y868000D01*
X878021D01*
Y871206D01*
X882940D01*
X883538Y870747D01*
X884500Y870349D01*
X885532Y870213D01*
X889468D01*
X890500Y870349D01*
X891462Y870747D01*
X892288Y871381D01*
X892921Y872207D01*
X893320Y873168D01*
X893455Y874200D01*
X893320Y875232D01*
X892921Y876193D01*
X892288Y877019D01*
X891462Y877653D01*
X890500Y878051D01*
X889468Y878187D01*
X885532D01*
X884500Y878051D01*
X883538Y877653D01*
X882940Y877194D01*
X876553D01*
X876384Y877694D01*
X876888Y878081D01*
X877521Y878907D01*
X877919Y879868D01*
X878055Y880900D01*
X877919Y881932D01*
X877521Y882893D01*
X876888Y883719D01*
X876062Y884353D01*
X875100Y884751D01*
X875094Y884752D01*
Y887782D01*
X899038Y911725D01*
X899500Y911534D01*
Y911079D01*
X903000D01*
Y914579D01*
X902545D01*
X902353Y915041D01*
X903730Y916417D01*
X904544Y916525D01*
X905517Y916928D01*
X906352Y917569D01*
X906994Y918404D01*
X907397Y919377D01*
X907504Y920191D01*
X941282Y953969D01*
X941541Y953862D01*
X942586Y953724D01*
X943630Y953862D01*
X944603Y954265D01*
X945254Y954765D01*
X971413D01*
X972064Y954265D01*
X973037Y953862D01*
X974082Y953724D01*
X975126Y953862D01*
X976099Y954265D01*
X976750Y954765D01*
X1002909D01*
X1003560Y954265D01*
X1004533Y953862D01*
X1005578Y953724D01*
X1006622Y953862D01*
X1007595Y954265D01*
X1008246Y954765D01*
X1034405D01*
X1035056Y954265D01*
X1036030Y953862D01*
X1037074Y953724D01*
X1038118Y953862D01*
X1039091Y954265D01*
X1039927Y954906D01*
X1040568Y955742D01*
X1040971Y956715D01*
X1041108Y957759D01*
X1040971Y958803D01*
X1040568Y959776D01*
X1039927Y960612D01*
X1039091Y961253D01*
X1038118Y961656D01*
X1037074Y961793D01*
D02*
G37*
G36*
X57087Y964027D02*
X55656Y963887D01*
X54280Y963469D01*
X53012Y962791D01*
X51900Y961879D01*
X50988Y960768D01*
X50310Y959500D01*
X49893Y958124D01*
X49752Y956693D01*
X49893Y955262D01*
X50310Y953886D01*
X50988Y952618D01*
X51900Y951507D01*
X53012Y950595D01*
X54280Y949917D01*
X55656Y949499D01*
X57087Y949358D01*
X58517Y949499D01*
X59893Y949917D01*
X61162Y950595D01*
X62273Y951507D01*
X63185Y952618D01*
X63863Y953886D01*
X64280Y955262D01*
X64421Y956693D01*
X64280Y958124D01*
X63863Y959500D01*
X63185Y960768D01*
X62273Y961879D01*
X61162Y962791D01*
X59893Y963469D01*
X58517Y963887D01*
X57087Y964027D01*
D02*
G37*
G36*
X786500Y941039D02*
X785325Y940884D01*
X784231Y940431D01*
X783291Y939709D01*
X782569Y938769D01*
X782116Y937675D01*
X781961Y936500D01*
X782116Y935325D01*
X782569Y934231D01*
X783291Y933291D01*
X784231Y932569D01*
X785325Y932116D01*
X786500Y931961D01*
X787675Y932116D01*
X788769Y932569D01*
X789709Y933291D01*
X790431Y934231D01*
X790884Y935325D01*
X791039Y936500D01*
X790884Y937675D01*
X790431Y938769D01*
X789709Y939709D01*
X788769Y940431D01*
X787675Y940884D01*
X786500Y941039D01*
D02*
G37*
G36*
X738000Y954630D02*
X737086Y954510D01*
X736235Y954157D01*
X735504Y953596D01*
X735141Y953123D01*
X433698D01*
X432924Y952969D01*
X432268Y952531D01*
X405162Y925424D01*
X404993Y925494D01*
X403858Y925644D01*
X402724Y925494D01*
X401666Y925056D01*
X400758Y924360D01*
X400062Y923452D01*
X399624Y922394D01*
X399474Y921260D01*
X399624Y920125D01*
X400062Y919068D01*
X400758Y918160D01*
X401666Y917463D01*
X402724Y917025D01*
X403858Y916876D01*
X404993Y917025D01*
X406050Y917463D01*
X406958Y918160D01*
X407655Y919068D01*
X408093Y920125D01*
X408242Y921260D01*
X408093Y922394D01*
X408023Y922563D01*
X434536Y949077D01*
X735141D01*
X735504Y948604D01*
X736235Y948043D01*
X737086Y947690D01*
X738000Y947570D01*
X738914Y947690D01*
X739765Y948043D01*
X740496Y948604D01*
X741057Y949335D01*
X741410Y950186D01*
X741530Y951100D01*
X741410Y952014D01*
X741057Y952865D01*
X740496Y953596D01*
X739765Y954157D01*
X738914Y954510D01*
X738000Y954630D01*
D02*
G37*
G36*
X816500Y926000D02*
X811500D01*
Y921000D01*
X816500D01*
Y926000D01*
D02*
G37*
G36*
X143701Y931751D02*
X142412Y931581D01*
X141211Y931084D01*
X140180Y930293D01*
X139388Y929261D01*
X138891Y928060D01*
X138721Y926772D01*
X138891Y925483D01*
X139388Y924282D01*
X140180Y923250D01*
X141211Y922459D01*
X142412Y921962D01*
X143701Y921792D01*
X144990Y921962D01*
X146191Y922459D01*
X147222Y923250D01*
X148013Y924282D01*
X148511Y925483D01*
X148680Y926772D01*
X148511Y928060D01*
X148013Y929261D01*
X147222Y930293D01*
X146191Y931084D01*
X144990Y931581D01*
X143701Y931751D01*
D02*
G37*
G36*
X866000Y932047D02*
X864564Y931858D01*
X863226Y931304D01*
X862077Y930423D01*
X861196Y929274D01*
X860642Y927936D01*
X860452Y926500D01*
X860642Y925064D01*
X861196Y923726D01*
X862077Y922577D01*
X863226Y921696D01*
X864564Y921142D01*
X866000Y920953D01*
X867436Y921142D01*
X868774Y921696D01*
X869923Y922577D01*
X870804Y923726D01*
X871358Y925064D01*
X871548Y926500D01*
X871358Y927936D01*
X870804Y929274D01*
X869923Y930423D01*
X868774Y931304D01*
X867436Y931858D01*
X866000Y932047D01*
D02*
G37*
G36*
X560709Y925644D02*
X559574Y925494D01*
X558517Y925056D01*
X557609Y924360D01*
X556912Y923452D01*
X556474Y922394D01*
X556325Y921260D01*
X556474Y920125D01*
X556912Y919068D01*
X557609Y918160D01*
X558517Y917463D01*
X559574Y917025D01*
X560709Y916876D01*
X561843Y917025D01*
X562901Y917463D01*
X563808Y918160D01*
X564505Y919068D01*
X564943Y920125D01*
X565093Y921260D01*
X564943Y922394D01*
X564505Y923452D01*
X563808Y924360D01*
X562901Y925056D01*
X561843Y925494D01*
X560709Y925644D01*
D02*
G37*
G36*
X600709D02*
X599574Y925494D01*
X598517Y925056D01*
X597609Y924360D01*
X596912Y923452D01*
X596474Y922394D01*
X596325Y921260D01*
X596474Y920125D01*
X596912Y919068D01*
X597609Y918160D01*
X598517Y917463D01*
X599574Y917025D01*
X600709Y916876D01*
X601843Y917025D01*
X602901Y917463D01*
X603808Y918160D01*
X604505Y919068D01*
X604943Y920125D01*
X605093Y921260D01*
X604943Y922394D01*
X604505Y923452D01*
X603808Y924360D01*
X602901Y925056D01*
X601843Y925494D01*
X600709Y925644D01*
D02*
G37*
G36*
X537402Y931751D02*
X536113Y931581D01*
X534912Y931084D01*
X533881Y930293D01*
X533089Y929261D01*
X532592Y928060D01*
X532422Y926772D01*
X532592Y925483D01*
X533089Y924282D01*
X533881Y923250D01*
X534912Y922459D01*
X536113Y921962D01*
X537402Y921792D01*
X538690Y921962D01*
X539891Y922459D01*
X540923Y923250D01*
X541714Y924282D01*
X542211Y925483D01*
X542381Y926772D01*
X542211Y928060D01*
X541714Y929261D01*
X540923Y930293D01*
X539891Y931084D01*
X538690Y931581D01*
X537402Y931751D01*
D02*
G37*
G36*
X635827D02*
X634538Y931581D01*
X633337Y931084D01*
X632306Y930293D01*
X631514Y929261D01*
X631017Y928060D01*
X630847Y926772D01*
X631017Y925483D01*
X631514Y924282D01*
X632306Y923250D01*
X633337Y922459D01*
X634538Y921962D01*
X635827Y921792D01*
X637116Y921962D01*
X638317Y922459D01*
X639348Y923250D01*
X640139Y924282D01*
X640637Y925483D01*
X640806Y926772D01*
X640637Y928060D01*
X640139Y929261D01*
X639348Y930293D01*
X638317Y931084D01*
X637116Y931581D01*
X635827Y931751D01*
D02*
G37*
G36*
X438976D02*
X437688Y931581D01*
X436487Y931084D01*
X435455Y930293D01*
X434664Y929261D01*
X434166Y928060D01*
X433997Y926772D01*
X434166Y925483D01*
X434664Y924282D01*
X435455Y923250D01*
X436487Y922459D01*
X437688Y921962D01*
X438976Y921792D01*
X440265Y921962D01*
X441466Y922459D01*
X442497Y923250D01*
X443289Y924282D01*
X443786Y925483D01*
X443956Y926772D01*
X443786Y928060D01*
X443289Y929261D01*
X442497Y930293D01*
X441466Y931084D01*
X440265Y931581D01*
X438976Y931751D01*
D02*
G37*
G36*
X242126D02*
X240837Y931581D01*
X239636Y931084D01*
X238605Y930293D01*
X237813Y929261D01*
X237316Y928060D01*
X237146Y926772D01*
X237316Y925483D01*
X237813Y924282D01*
X238605Y923250D01*
X239636Y922459D01*
X240837Y921962D01*
X242126Y921792D01*
X243415Y921962D01*
X244616Y922459D01*
X245647Y923250D01*
X246439Y924282D01*
X246936Y925483D01*
X247106Y926772D01*
X246936Y928060D01*
X246439Y929261D01*
X245647Y930293D01*
X244616Y931084D01*
X243415Y931581D01*
X242126Y931751D01*
D02*
G37*
G36*
X340551D02*
X339262Y931581D01*
X338061Y931084D01*
X337030Y930293D01*
X336239Y929261D01*
X335741Y928060D01*
X335572Y926772D01*
X335741Y925483D01*
X336239Y924282D01*
X337030Y923250D01*
X338061Y922459D01*
X339262Y921962D01*
X340551Y921792D01*
X341840Y921962D01*
X343041Y922459D01*
X344072Y923250D01*
X344864Y924282D01*
X345361Y925483D01*
X345531Y926772D01*
X345361Y928060D01*
X344864Y929261D01*
X344072Y930293D01*
X343041Y931084D01*
X341840Y931581D01*
X340551Y931751D01*
D02*
G37*
G36*
X403858Y860683D02*
X402724Y860534D01*
X401666Y860096D01*
X400758Y859399D01*
X400062Y858491D01*
X399624Y857434D01*
X399474Y856299D01*
X399624Y855165D01*
X400062Y854107D01*
X400758Y853199D01*
X401666Y852503D01*
X402724Y852065D01*
X403858Y851915D01*
X404993Y852065D01*
X406050Y852503D01*
X406958Y853199D01*
X407655Y854107D01*
X408093Y855165D01*
X408242Y856299D01*
X408093Y857434D01*
X407655Y858491D01*
X406958Y859399D01*
X406050Y860096D01*
X404993Y860534D01*
X403858Y860683D01*
D02*
G37*
G36*
X502283D02*
X501149Y860534D01*
X500091Y860096D01*
X499184Y859399D01*
X498487Y858491D01*
X498049Y857434D01*
X497899Y856299D01*
X498049Y855165D01*
X498487Y854107D01*
X499184Y853199D01*
X500091Y852503D01*
X501149Y852065D01*
X502283Y851915D01*
X503418Y852065D01*
X504475Y852503D01*
X505383Y853199D01*
X506080Y854107D01*
X506518Y855165D01*
X506667Y856299D01*
X506518Y857434D01*
X506080Y858491D01*
X505383Y859399D01*
X504475Y860096D01*
X503418Y860534D01*
X502283Y860683D01*
D02*
G37*
G36*
X305433D02*
X304298Y860534D01*
X303241Y860096D01*
X302333Y859399D01*
X301636Y858491D01*
X301198Y857434D01*
X301049Y856299D01*
X301198Y855165D01*
X301636Y854107D01*
X302333Y853199D01*
X303241Y852503D01*
X304298Y852065D01*
X305433Y851915D01*
X306568Y852065D01*
X307625Y852503D01*
X308533Y853199D01*
X309230Y854107D01*
X309668Y855165D01*
X309817Y856299D01*
X309668Y857434D01*
X309230Y858491D01*
X308533Y859399D01*
X307625Y860096D01*
X306568Y860534D01*
X305433Y860683D01*
D02*
G37*
G36*
X937200Y855500D02*
X932500D01*
Y850800D01*
X937200D01*
Y855500D01*
D02*
G37*
G36*
X207008Y860683D02*
X205873Y860534D01*
X204816Y860096D01*
X203908Y859399D01*
X203211Y858491D01*
X202773Y857434D01*
X202624Y856299D01*
X202773Y855165D01*
X203211Y854107D01*
X203908Y853199D01*
X204816Y852503D01*
X205873Y852065D01*
X207008Y851915D01*
X208142Y852065D01*
X209200Y852503D01*
X210108Y853199D01*
X210804Y854107D01*
X211242Y855165D01*
X211392Y856299D01*
X211242Y857434D01*
X210804Y858491D01*
X210108Y859399D01*
X209200Y860096D01*
X208142Y860534D01*
X207008Y860683D01*
D02*
G37*
G36*
X594095Y891584D02*
X593114Y891454D01*
X592200Y891076D01*
X591416Y890474D01*
X590814Y889689D01*
X590435Y888776D01*
X590306Y887795D01*
X590435Y886815D01*
X590814Y885901D01*
X591416Y885116D01*
X592071Y884613D01*
Y868433D01*
X581961Y858322D01*
X564575D01*
X564505Y858491D01*
X563808Y859399D01*
X562901Y860096D01*
X561843Y860534D01*
X560709Y860683D01*
X559574Y860534D01*
X559405Y860464D01*
X543754Y876115D01*
X543098Y876553D01*
X542323Y876707D01*
X480668D01*
X479894Y876553D01*
X479238Y876115D01*
X463587Y860464D01*
X463418Y860534D01*
X462283Y860683D01*
X461149Y860534D01*
X460091Y860096D01*
X459184Y859399D01*
X458487Y858491D01*
X458049Y857434D01*
X457899Y856299D01*
X458049Y855165D01*
X458487Y854107D01*
X459184Y853199D01*
X460091Y852503D01*
X461149Y852065D01*
X462283Y851915D01*
X463418Y852065D01*
X464475Y852503D01*
X465383Y853199D01*
X466080Y854107D01*
X466518Y855165D01*
X466667Y856299D01*
X466518Y857434D01*
X466448Y857603D01*
X481506Y872661D01*
X497412D01*
X497633Y872213D01*
X497443Y871965D01*
X497090Y871114D01*
X496970Y870200D01*
X497090Y869286D01*
X497443Y868435D01*
X498004Y867704D01*
X498735Y867143D01*
X499586Y866790D01*
X500500Y866670D01*
X501091Y866748D01*
X542769Y825069D01*
X543426Y824631D01*
X544200Y824477D01*
X722467D01*
X722569Y824231D01*
X723291Y823291D01*
X724231Y822569D01*
X725325Y822116D01*
X726500Y821961D01*
X727675Y822116D01*
X728769Y822569D01*
X729709Y823291D01*
X730431Y824231D01*
X730884Y825325D01*
X731039Y826500D01*
X730884Y827675D01*
X730431Y828769D01*
X729709Y829709D01*
X728769Y830431D01*
X727675Y830884D01*
X726500Y831039D01*
X725325Y830884D01*
X724231Y830431D01*
X723291Y829709D01*
X722569Y828769D01*
X722467Y828523D01*
X545038D01*
X503952Y869609D01*
X504030Y870200D01*
X503910Y871114D01*
X503557Y871965D01*
X503367Y872213D01*
X503588Y872661D01*
X541486D01*
X556544Y857603D01*
X556474Y857434D01*
X556325Y856299D01*
X556474Y855165D01*
X556912Y854107D01*
X557609Y853199D01*
X558517Y852503D01*
X559574Y852065D01*
X560709Y851915D01*
X561843Y852065D01*
X562901Y852503D01*
X563808Y853199D01*
X564505Y854107D01*
X564575Y854276D01*
X582799D01*
X583573Y854430D01*
X584230Y854869D01*
X595525Y866164D01*
X595964Y866820D01*
X596118Y867595D01*
Y884613D01*
X596773Y885116D01*
X597375Y885901D01*
X597754Y886815D01*
X597883Y887795D01*
X597754Y888776D01*
X597375Y889689D01*
X596773Y890474D01*
X595989Y891076D01*
X595075Y891454D01*
X594095Y891584D01*
D02*
G37*
G36*
X1026598Y866185D02*
X1018224D01*
Y861748D01*
X1026598D01*
Y866185D01*
D02*
G37*
G36*
X786500Y861039D02*
X785325Y860884D01*
X784231Y860431D01*
X783291Y859709D01*
X782569Y858769D01*
X782116Y857675D01*
X781961Y856500D01*
X782116Y855325D01*
X782569Y854231D01*
X783291Y853291D01*
X784231Y852569D01*
X785325Y852116D01*
X786500Y851961D01*
X787675Y852116D01*
X788769Y852569D01*
X789709Y853291D01*
X790431Y854231D01*
X790884Y855325D01*
X791039Y856500D01*
X790884Y857675D01*
X790431Y858769D01*
X789709Y859709D01*
X788769Y860431D01*
X787675Y860884D01*
X786500Y861039D01*
D02*
G37*
G36*
X600709Y860683D02*
X599574Y860534D01*
X598517Y860096D01*
X597609Y859399D01*
X596912Y858491D01*
X596474Y857434D01*
X596325Y856299D01*
X596474Y855165D01*
X596912Y854107D01*
X597609Y853199D01*
X598517Y852503D01*
X599574Y852065D01*
X600709Y851915D01*
X601843Y852065D01*
X602901Y852503D01*
X603808Y853199D01*
X604505Y854107D01*
X604943Y855165D01*
X605093Y856299D01*
X604943Y857434D01*
X604505Y858491D01*
X603808Y859399D01*
X602901Y860096D01*
X601843Y860534D01*
X600709Y860683D01*
D02*
G37*
G36*
X726500Y861039D02*
X725325Y860884D01*
X724231Y860431D01*
X723291Y859709D01*
X722569Y858769D01*
X722116Y857675D01*
X721961Y856500D01*
X722116Y855325D01*
X722569Y854231D01*
X723291Y853291D01*
X724231Y852569D01*
X725325Y852116D01*
X726500Y851961D01*
X727675Y852116D01*
X728769Y852569D01*
X729709Y853291D01*
X730431Y854231D01*
X730884Y855325D01*
X731039Y856500D01*
X730884Y857675D01*
X730431Y858769D01*
X729709Y859709D01*
X728769Y860431D01*
X727675Y860884D01*
X726500Y861039D01*
D02*
G37*
G36*
X1038409Y855874D02*
X1033972D01*
Y847500D01*
X1038409D01*
Y855874D01*
D02*
G37*
G36*
X1043846D02*
X1039409D01*
Y847500D01*
X1043846D01*
Y855874D01*
D02*
G37*
G36*
X786500Y851039D02*
X785325Y850884D01*
X784231Y850431D01*
X783291Y849709D01*
X782569Y848769D01*
X782116Y847675D01*
X781961Y846500D01*
X782116Y845325D01*
X782569Y844231D01*
X783291Y843291D01*
X784231Y842569D01*
X785325Y842116D01*
X786500Y841961D01*
X787675Y842116D01*
X788769Y842569D01*
X789709Y843291D01*
X790431Y844231D01*
X790884Y845325D01*
X791039Y846500D01*
X790884Y847675D01*
X790431Y848769D01*
X789709Y849709D01*
X788769Y850431D01*
X787675Y850884D01*
X786500Y851039D01*
D02*
G37*
G36*
X1014500Y856901D02*
X1013211Y856731D01*
X1012010Y856234D01*
X1010979Y855442D01*
X1010188Y854411D01*
X1009690Y853210D01*
X1009520Y851921D01*
Y842079D01*
X1009690Y840790D01*
X1010188Y839589D01*
X1010979Y838558D01*
X1012010Y837766D01*
X1013211Y837269D01*
X1014500Y837099D01*
X1015789Y837269D01*
X1016990Y837766D01*
X1018021Y838558D01*
X1018812Y839589D01*
X1019310Y840790D01*
X1019480Y842079D01*
Y851921D01*
X1019310Y853210D01*
X1018812Y854411D01*
X1018021Y855442D01*
X1016990Y856234D01*
X1015789Y856731D01*
X1014500Y856901D01*
D02*
G37*
G36*
X726500Y851039D02*
X725325Y850884D01*
X724231Y850431D01*
X723291Y849709D01*
X722569Y848769D01*
X722467Y848523D01*
X693500D01*
X692726Y848369D01*
X692069Y847931D01*
X685303Y841165D01*
X685135Y841235D01*
X684000Y841384D01*
X682865Y841235D01*
X681808Y840797D01*
X680900Y840100D01*
X680203Y839192D01*
X679765Y838135D01*
X679616Y837000D01*
X679765Y835865D01*
X680203Y834808D01*
X680900Y833900D01*
X681808Y833203D01*
X682865Y832765D01*
X684000Y832616D01*
X685135Y832765D01*
X686192Y833203D01*
X687100Y833900D01*
X687797Y834808D01*
X688235Y835865D01*
X688384Y837000D01*
X688235Y838135D01*
X688165Y838303D01*
X694338Y844477D01*
X722467D01*
X722569Y844231D01*
X723291Y843291D01*
X724231Y842569D01*
X725325Y842116D01*
X726500Y841961D01*
X727675Y842116D01*
X728769Y842569D01*
X729709Y843291D01*
X730431Y844231D01*
X730884Y845325D01*
X731039Y846500D01*
X730884Y847675D01*
X730431Y848769D01*
X729709Y849709D01*
X728769Y850431D01*
X727675Y850884D01*
X726500Y851039D01*
D02*
G37*
G36*
X635827Y857736D02*
X634538Y857566D01*
X633337Y857069D01*
X632306Y856277D01*
X631514Y855246D01*
X631017Y854045D01*
X630847Y852756D01*
X631017Y851467D01*
X631514Y850266D01*
X632306Y849235D01*
X633337Y848444D01*
X634538Y847946D01*
X635827Y847776D01*
X637116Y847946D01*
X638317Y848444D01*
X639348Y849235D01*
X640139Y850266D01*
X640637Y851467D01*
X640806Y852756D01*
X640637Y854045D01*
X640139Y855246D01*
X639348Y856277D01*
X638317Y857069D01*
X637116Y857566D01*
X635827Y857736D01*
D02*
G37*
G36*
X972000Y861245D02*
X970642Y861066D01*
X969378Y860542D01*
X968291Y859709D01*
X967458Y858622D01*
X966934Y857358D01*
X966755Y856000D01*
X966934Y854642D01*
X967458Y853378D01*
X968291Y852291D01*
X969378Y851458D01*
X970642Y850934D01*
X972000Y850755D01*
X973357Y850934D01*
X974622Y851458D01*
X975709Y852291D01*
X976542Y853378D01*
X977066Y854642D01*
X977245Y856000D01*
X977066Y857358D01*
X976542Y858622D01*
X975709Y859709D01*
X974622Y860542D01*
X973357Y861066D01*
X972000Y861245D01*
D02*
G37*
G36*
X537402Y857736D02*
X536113Y857566D01*
X534912Y857069D01*
X533881Y856277D01*
X533089Y855246D01*
X532592Y854045D01*
X532422Y852756D01*
X532592Y851467D01*
X533089Y850266D01*
X533881Y849235D01*
X534912Y848444D01*
X536113Y847946D01*
X537402Y847776D01*
X538690Y847946D01*
X539891Y848444D01*
X540923Y849235D01*
X541714Y850266D01*
X542211Y851467D01*
X542381Y852756D01*
X542211Y854045D01*
X541714Y855246D01*
X540923Y856277D01*
X539891Y857069D01*
X538690Y857566D01*
X537402Y857736D01*
D02*
G37*
G36*
X242126D02*
X240837Y857566D01*
X239636Y857069D01*
X238605Y856277D01*
X237813Y855246D01*
X237316Y854045D01*
X237146Y852756D01*
X237316Y851467D01*
X237813Y850266D01*
X238605Y849235D01*
X239636Y848444D01*
X240837Y847946D01*
X242126Y847776D01*
X243415Y847946D01*
X244616Y848444D01*
X245647Y849235D01*
X246439Y850266D01*
X246936Y851467D01*
X247106Y852756D01*
X246936Y854045D01*
X246439Y855246D01*
X245647Y856277D01*
X244616Y857069D01*
X243415Y857566D01*
X242126Y857736D01*
D02*
G37*
G36*
X438976D02*
X437688Y857566D01*
X436487Y857069D01*
X435455Y856277D01*
X434664Y855246D01*
X434166Y854045D01*
X433997Y852756D01*
X434166Y851467D01*
X434664Y850266D01*
X435455Y849235D01*
X436487Y848444D01*
X437688Y847946D01*
X438976Y847776D01*
X440265Y847946D01*
X441466Y848444D01*
X442497Y849235D01*
X443289Y850266D01*
X443786Y851467D01*
X443956Y852756D01*
X443786Y854045D01*
X443289Y855246D01*
X442497Y856277D01*
X441466Y857069D01*
X440265Y857566D01*
X438976Y857736D01*
D02*
G37*
G36*
X210630Y891584D02*
X209649Y891454D01*
X208736Y891076D01*
X207951Y890474D01*
X207349Y889689D01*
X206971Y888776D01*
X206842Y887795D01*
X206971Y886815D01*
X207349Y885901D01*
X207951Y885116D01*
X208736Y884514D01*
X209649Y884136D01*
X210630Y884007D01*
X211611Y884136D01*
X212524Y884514D01*
X213309Y885116D01*
X213911Y885901D01*
X214289Y886815D01*
X214418Y887795D01*
X214289Y888776D01*
X213911Y889689D01*
X213309Y890474D01*
X212524Y891076D01*
X211611Y891454D01*
X210630Y891584D01*
D02*
G37*
G36*
X220866D02*
X219886Y891454D01*
X218972Y891076D01*
X218187Y890474D01*
X217585Y889689D01*
X217207Y888776D01*
X217078Y887795D01*
X217207Y886815D01*
X217585Y885901D01*
X218187Y885116D01*
X218972Y884514D01*
X219886Y884136D01*
X220866Y884007D01*
X221847Y884136D01*
X222760Y884514D01*
X223545Y885116D01*
X224147Y885901D01*
X224525Y886815D01*
X224655Y887795D01*
X224525Y888776D01*
X224147Y889689D01*
X223545Y890474D01*
X222760Y891076D01*
X221847Y891454D01*
X220866Y891584D01*
D02*
G37*
G36*
X786500Y891039D02*
X785325Y890884D01*
X784231Y890431D01*
X783291Y889709D01*
X782569Y888769D01*
X782116Y887675D01*
X781961Y886500D01*
X782116Y885325D01*
X782569Y884231D01*
X783291Y883291D01*
X784231Y882569D01*
X785325Y882116D01*
X786500Y881961D01*
X787675Y882116D01*
X788769Y882569D01*
X789709Y883291D01*
X790431Y884231D01*
X790884Y885325D01*
X791039Y886500D01*
X790884Y887675D01*
X790431Y888769D01*
X789709Y889709D01*
X788769Y890431D01*
X787675Y890884D01*
X786500Y891039D01*
D02*
G37*
G36*
X273916Y884263D02*
X270166D01*
Y881763D01*
X273916D01*
Y884263D01*
D02*
G37*
G36*
X726500Y891039D02*
X725325Y890884D01*
X724231Y890431D01*
X723291Y889709D01*
X722569Y888769D01*
X722116Y887675D01*
X721961Y886500D01*
X722116Y885325D01*
X722569Y884231D01*
X723291Y883291D01*
X724231Y882569D01*
X725325Y882116D01*
X726500Y881961D01*
X727675Y882116D01*
X728769Y882569D01*
X729709Y883291D01*
X730431Y884231D01*
X730884Y885325D01*
X731039Y886500D01*
X730884Y887675D01*
X730431Y888769D01*
X729709Y889709D01*
X728769Y890431D01*
X727675Y890884D01*
X726500Y891039D01*
D02*
G37*
G36*
X417717Y891584D02*
X416736Y891454D01*
X415822Y891076D01*
X415038Y890474D01*
X414436Y889689D01*
X414057Y888776D01*
X413928Y887795D01*
X414057Y886815D01*
X414436Y885901D01*
X415038Y885116D01*
X415822Y884514D01*
X416736Y884136D01*
X417717Y884007D01*
X418697Y884136D01*
X419611Y884514D01*
X420395Y885116D01*
X420997Y885901D01*
X421376Y886815D01*
X421505Y887795D01*
X421376Y888776D01*
X420997Y889689D01*
X420395Y890474D01*
X419611Y891076D01*
X418697Y891454D01*
X417717Y891584D01*
D02*
G37*
G36*
X505906D02*
X504925Y891454D01*
X504011Y891076D01*
X503227Y890474D01*
X502625Y889689D01*
X502246Y888776D01*
X502117Y887795D01*
X502246Y886815D01*
X502625Y885901D01*
X503227Y885116D01*
X504011Y884514D01*
X504925Y884136D01*
X505906Y884007D01*
X506886Y884136D01*
X507800Y884514D01*
X508584Y885116D01*
X509186Y885901D01*
X509565Y886815D01*
X509694Y887795D01*
X509565Y888776D01*
X509186Y889689D01*
X508584Y890474D01*
X507800Y891076D01*
X506886Y891454D01*
X505906Y891584D01*
D02*
G37*
G36*
X407480D02*
X406500Y891454D01*
X405586Y891076D01*
X404802Y890474D01*
X404200Y889689D01*
X403821Y888776D01*
X403692Y887795D01*
X403821Y886815D01*
X404200Y885901D01*
X404802Y885116D01*
X405586Y884514D01*
X406500Y884136D01*
X407480Y884007D01*
X408461Y884136D01*
X409375Y884514D01*
X410159Y885116D01*
X410761Y885901D01*
X411140Y886815D01*
X411269Y887795D01*
X411140Y888776D01*
X410761Y889689D01*
X410159Y890474D01*
X409375Y891076D01*
X408461Y891454D01*
X407480Y891584D01*
D02*
G37*
G36*
X309055D02*
X308075Y891454D01*
X307161Y891076D01*
X306377Y890474D01*
X305774Y889689D01*
X305396Y888776D01*
X305267Y887795D01*
X305396Y886815D01*
X305774Y885901D01*
X306377Y885116D01*
X307161Y884514D01*
X308075Y884136D01*
X309055Y884007D01*
X310036Y884136D01*
X310949Y884514D01*
X311734Y885116D01*
X312336Y885901D01*
X312714Y886815D01*
X312843Y887795D01*
X312714Y888776D01*
X312336Y889689D01*
X311734Y890474D01*
X310949Y891076D01*
X310036Y891454D01*
X309055Y891584D01*
D02*
G37*
G36*
X319291D02*
X318311Y891454D01*
X317397Y891076D01*
X316613Y890474D01*
X316011Y889689D01*
X315632Y888776D01*
X315503Y887795D01*
X315632Y886815D01*
X316011Y885901D01*
X316613Y885116D01*
X317397Y884514D01*
X318311Y884136D01*
X319291Y884007D01*
X320272Y884136D01*
X321186Y884514D01*
X321970Y885116D01*
X322572Y885901D01*
X322951Y886815D01*
X323080Y887795D01*
X322951Y888776D01*
X322572Y889689D01*
X321970Y890474D01*
X321186Y891076D01*
X320272Y891454D01*
X319291Y891584D01*
D02*
G37*
G36*
X1026598Y871622D02*
X1018224D01*
Y867185D01*
X1026598D01*
Y871622D01*
D02*
G37*
G36*
X1035972D02*
X1027598D01*
Y867185D01*
X1035972D01*
Y871622D01*
D02*
G37*
G36*
X786500Y871039D02*
X785325Y870884D01*
X784231Y870431D01*
X783291Y869709D01*
X782569Y868769D01*
X782116Y867675D01*
X781961Y866500D01*
X782116Y865325D01*
X782569Y864231D01*
X783291Y863291D01*
X784231Y862569D01*
X785325Y862116D01*
X786500Y861961D01*
X787675Y862116D01*
X788769Y862569D01*
X789709Y863291D01*
X790431Y864231D01*
X790884Y865325D01*
X791039Y866500D01*
X790884Y867675D01*
X790431Y868769D01*
X789709Y869709D01*
X788769Y870431D01*
X787675Y870884D01*
X786500Y871039D01*
D02*
G37*
G36*
X1035972Y866185D02*
X1027598D01*
Y861748D01*
X1035972D01*
Y866185D01*
D02*
G37*
G36*
X726500Y871039D02*
X725325Y870884D01*
X724231Y870431D01*
X723291Y869709D01*
X722569Y868769D01*
X722116Y867675D01*
X721961Y866500D01*
X722116Y865325D01*
X722569Y864231D01*
X723291Y863291D01*
X724231Y862569D01*
X725325Y862116D01*
X726500Y861961D01*
X727675Y862116D01*
X728769Y862569D01*
X729709Y863291D01*
X730431Y864231D01*
X730884Y865325D01*
X731039Y866500D01*
X730884Y867675D01*
X730431Y868769D01*
X729709Y869709D01*
X728769Y870431D01*
X727675Y870884D01*
X726500Y871039D01*
D02*
G37*
G36*
X270916Y897789D02*
X268416D01*
X267633Y897686D01*
X266903Y897384D01*
X266277Y896903D01*
X265796Y896276D01*
X265493Y895546D01*
X265390Y894763D01*
X265493Y893980D01*
X265796Y893250D01*
X266277Y892624D01*
X266430Y892506D01*
Y892006D01*
X266296Y891903D01*
X265815Y891276D01*
X265513Y890547D01*
X265409Y889763D01*
X265513Y888980D01*
X265815Y888251D01*
X265845Y888212D01*
X265623Y887763D01*
X265416D01*
Y886786D01*
X231200D01*
X230426Y886632D01*
X229769Y886194D01*
X217999Y874423D01*
X179638D01*
X173223Y880838D01*
Y881763D01*
X175491D01*
Y884263D01*
X166991D01*
Y881763D01*
X169177D01*
Y880000D01*
X169331Y879226D01*
X169769Y878569D01*
X177369Y870969D01*
X178026Y870531D01*
X178800Y870377D01*
X218837D01*
X219611Y870531D01*
X220267Y870969D01*
X232038Y882740D01*
X265416D01*
Y881763D01*
X269166D01*
Y884763D01*
X269666D01*
Y885263D01*
X273916D01*
Y887763D01*
X273747D01*
X273526Y888212D01*
X273556Y888251D01*
X273858Y888980D01*
X273961Y889763D01*
X273858Y890547D01*
X273556Y891276D01*
X273075Y891903D01*
X272922Y892021D01*
Y892521D01*
X273056Y892624D01*
X273537Y893250D01*
X273839Y893980D01*
X273942Y894763D01*
X273839Y895546D01*
X273537Y896276D01*
X273056Y896903D01*
X272429Y897384D01*
X271699Y897686D01*
X270916Y897789D01*
D02*
G37*
G36*
X1037074Y881793D02*
X1036030Y881656D01*
X1035056Y881253D01*
X1034405Y880753D01*
X1008246D01*
X1007595Y881253D01*
X1006622Y881656D01*
X1005578Y881793D01*
X1004533Y881656D01*
X1003560Y881253D01*
X1002909Y880753D01*
X976750D01*
X976099Y881253D01*
X975126Y881656D01*
X974082Y881793D01*
X973037Y881656D01*
X972064Y881253D01*
X971413Y880753D01*
X945254D01*
X944603Y881253D01*
X943630Y881656D01*
X942586Y881793D01*
X941541Y881656D01*
X940568Y881253D01*
X939733Y880612D01*
X939092Y879776D01*
X938689Y878803D01*
X938551Y877759D01*
X938689Y876715D01*
X939092Y875741D01*
X939733Y874906D01*
X940568Y874265D01*
X941541Y873862D01*
X942586Y873724D01*
X943630Y873862D01*
X944603Y874265D01*
X945254Y874765D01*
X971413D01*
X972064Y874265D01*
X973037Y873862D01*
X974082Y873724D01*
X975126Y873862D01*
X976099Y874265D01*
X976750Y874765D01*
X1002909D01*
X1003560Y874265D01*
X1004533Y873862D01*
X1005578Y873724D01*
X1006622Y873862D01*
X1007595Y874265D01*
X1008246Y874765D01*
X1034405D01*
X1035056Y874265D01*
X1036030Y873862D01*
X1037074Y873724D01*
X1038118Y873862D01*
X1039091Y874265D01*
X1039927Y874906D01*
X1040568Y875741D01*
X1040971Y876715D01*
X1041108Y877759D01*
X1040971Y878803D01*
X1040568Y879776D01*
X1039927Y880612D01*
X1039091Y881253D01*
X1038118Y881656D01*
X1037074Y881793D01*
D02*
G37*
G36*
X684000Y881384D02*
X682865Y881235D01*
X681808Y880797D01*
X680900Y880100D01*
X680203Y879192D01*
X679765Y878135D01*
X679616Y877000D01*
X679765Y875865D01*
X680203Y874808D01*
X680900Y873900D01*
X681808Y873203D01*
X682865Y872765D01*
X684000Y872616D01*
X685135Y872765D01*
X686192Y873203D01*
X687100Y873900D01*
X687797Y874808D01*
X688235Y875865D01*
X688384Y877000D01*
X688235Y878135D01*
X687797Y879192D01*
X687100Y880100D01*
X686192Y880797D01*
X685135Y881235D01*
X684000Y881384D01*
D02*
G37*
G36*
X726500Y881039D02*
X725325Y880884D01*
X724231Y880431D01*
X723291Y879709D01*
X722569Y878769D01*
X722116Y877675D01*
X721961Y876500D01*
X722116Y875325D01*
X722569Y874231D01*
X723291Y873291D01*
X724231Y872569D01*
X725325Y872116D01*
X726500Y871961D01*
X727675Y872116D01*
X728769Y872569D01*
X729709Y873291D01*
X730431Y874231D01*
X730884Y875325D01*
X731039Y876500D01*
X730884Y877675D01*
X730431Y878769D01*
X729709Y879709D01*
X728769Y880431D01*
X727675Y880884D01*
X726500Y881039D01*
D02*
G37*
G36*
X786500D02*
X785325Y880884D01*
X784231Y880431D01*
X783291Y879709D01*
X782569Y878769D01*
X782116Y877675D01*
X781961Y876500D01*
X782116Y875325D01*
X782569Y874231D01*
X783291Y873291D01*
X784231Y872569D01*
X785325Y872116D01*
X786500Y871961D01*
X787675Y872116D01*
X788769Y872569D01*
X789709Y873291D01*
X790431Y874231D01*
X790884Y875325D01*
X791039Y876500D01*
X790884Y877675D01*
X790431Y878769D01*
X789709Y879709D01*
X788769Y880431D01*
X787675Y880884D01*
X786500Y881039D01*
D02*
G37*
%LPD*%
D10*
X829890Y735000D02*
X857563D01*
X826890Y738000D02*
X829890Y735000D01*
X364000Y902000D02*
X372000D01*
X359500Y897500D02*
X364000Y902000D01*
X359500Y872500D02*
Y897500D01*
X363858Y856299D02*
Y868142D01*
X359500Y872500D02*
X363858Y868142D01*
X386205Y887795D02*
X397244D01*
X372000Y902000D02*
X386205Y887795D01*
X190205D02*
X200394D01*
X178000Y900000D02*
X190205Y887795D01*
X166900Y900000D02*
X178000D01*
X286524Y875500D02*
X298819Y887795D01*
X284634Y875500D02*
X286524D01*
X265433Y856299D02*
X284634Y875500D01*
X353559Y846000D02*
X363858Y856299D01*
X267000Y846000D02*
X353559D01*
X265433Y847567D02*
X267000Y846000D01*
X265433Y847567D02*
Y856299D01*
X162000Y876500D02*
X174500Y864000D01*
Y859000D02*
Y864000D01*
X171799Y856299D02*
X174500Y859000D01*
X161900Y895000D02*
X162000Y894900D01*
Y876500D02*
Y894900D01*
X167008Y856299D02*
X171799D01*
X154201D02*
X167008D01*
X147500Y863000D02*
X154201Y856299D01*
X140500Y863000D02*
X147500D01*
X134500Y857000D02*
X140500Y863000D01*
X125500Y857000D02*
X134500D01*
X123236Y859264D02*
X125500Y857000D01*
X123236Y859264D02*
Y862500D01*
X309500Y929500D02*
X314500Y924500D01*
X298200Y929500D02*
X309500D01*
X283000Y914300D02*
X298200Y929500D01*
X314500Y903476D02*
Y924500D01*
X298819Y887795D02*
X314500Y903476D01*
X470780Y880500D02*
X534300D01*
X466517Y884763D02*
X470780Y880500D01*
X473000D01*
X594095Y867595D02*
Y887795D01*
X582799Y856299D02*
X594095Y867595D01*
X560709Y856299D02*
X582799D01*
X534300Y880500D02*
X538563Y884763D01*
X480668Y874684D02*
X542323D01*
X462283Y856299D02*
X480668Y874684D01*
X542323D02*
X560709Y856299D01*
X904000Y856000D02*
X932000D01*
X872100Y854100D02*
X904000Y856000D01*
X809500Y926500D02*
X811000Y928000D01*
X786500Y926500D02*
X809500D01*
X412600Y778700D02*
Y781484D01*
X412583Y781501D02*
X412600Y781484D01*
X412583Y781501D02*
Y782917D01*
X410000Y785500D02*
X412583Y782917D01*
X258000Y862000D02*
X305433Y909433D01*
X258000Y846000D02*
Y862000D01*
Y846000D02*
X270500Y833500D01*
X305433Y909433D02*
Y921260D01*
X270500Y833500D02*
X298200D01*
X313000Y714500D02*
Y718600D01*
X309100Y710600D02*
X313000Y714500D01*
X412600Y778700D02*
X433071D01*
X608300Y718600D02*
X629921D01*
X512500D02*
X531496D01*
X413000D02*
X433071D01*
X313000D02*
X334646D01*
X702484Y724227D02*
Y726500D01*
X996100Y803000D02*
X1031909D01*
X992000D02*
X996100D01*
X444000Y884763D02*
X466517D01*
X368000Y880000D02*
Y884763D01*
X171200Y880000D02*
Y884763D01*
X678500Y726500D02*
X697900D01*
X693500Y846500D02*
X726500D01*
X684000Y837000D02*
X693500Y846500D01*
X500500Y870200D02*
X544200Y826500D01*
X726500D01*
X433698Y951100D02*
X738000D01*
X403858Y921260D02*
X433698Y951100D01*
X719900Y813100D02*
X726500Y806500D01*
X318600Y813100D02*
X719900D01*
X298200Y833500D02*
X318600Y813100D01*
X199368Y928900D02*
X207008Y921260D01*
X161500Y928900D02*
X199368D01*
X130800Y898200D02*
X161500Y928900D01*
X130800Y888900D02*
Y898200D01*
X118400Y876500D02*
X130800Y888900D01*
X118400Y851900D02*
Y876500D01*
Y851900D02*
X125000Y845300D01*
X210000D01*
X223500Y831800D01*
Y810000D02*
Y831800D01*
Y810000D02*
X237000Y796500D01*
X726500D01*
X618253Y791196D02*
X629921Y779528D01*
X543164Y791196D02*
X618253D01*
X531496Y779528D02*
X543164Y791196D01*
X629921Y779528D02*
X634996Y784603D01*
X690000D01*
X699000Y775603D01*
Y770000D02*
Y775603D01*
Y770000D02*
X702500Y766500D01*
X708500D01*
X216048Y799700D02*
X236220Y779528D01*
X157968Y799700D02*
X216048D01*
X137795Y779528D02*
X157968Y799700D01*
X324173Y790000D02*
X334646Y779528D01*
X246693Y790000D02*
X324173D01*
X236220Y779528D02*
X246693Y790000D01*
X433071Y778700D02*
Y779528D01*
X340618Y785500D02*
X410000D01*
X334646Y779528D02*
X340618Y785500D01*
X538386Y765748D02*
X544338Y771700D01*
X630859D01*
X636811Y765748D01*
X439961D02*
X445912Y771700D01*
X532434D01*
X538386Y765748D01*
X341535D02*
X347487Y771700D01*
X434009D01*
X439961Y765748D01*
X243110D02*
X249062Y771700D01*
X335584D01*
X341535Y765748D01*
X237158Y771700D02*
X243110Y765748D01*
X150637Y771700D02*
X237158D01*
X144685Y765748D02*
X150637Y771700D01*
X538386Y748032D02*
X544354Y754000D01*
X630843D01*
X636811Y748032D01*
X439961D02*
X445929Y754000D01*
X532417D01*
X538386Y748032D01*
X341535D02*
X347504Y754000D01*
X433992D01*
X439961Y748032D01*
X243110D02*
X249079Y754000D01*
X335567D01*
X341535Y748032D01*
X237142Y754000D02*
X243110Y748032D01*
X150653Y754000D02*
X237142D01*
X144685Y748032D02*
X150653Y754000D01*
X237125Y736300D02*
X243110Y730315D01*
X150670Y736300D02*
X237125D01*
X144685Y730315D02*
X150670Y736300D01*
X243110Y730315D02*
X249095Y736300D01*
X335550D01*
X341535Y730315D01*
X538386D02*
X544371Y736300D01*
X630826D01*
X636811Y730315D01*
X433976Y736300D02*
X439961Y730315D01*
X347520Y736300D02*
X433976D01*
X341535Y730315D02*
X347520Y736300D01*
X439961Y730315D02*
X445946Y736300D01*
X532401D01*
X538386Y730315D01*
X531496Y716536D02*
Y718600D01*
X504500Y710600D02*
X512500Y718600D01*
X439006Y710600D02*
X504500D01*
X433071Y716536D02*
X439006Y710600D01*
X137795Y716536D02*
X145731Y708600D01*
X206200D01*
X217500Y719900D01*
X232856D01*
X236220Y716536D01*
X681900Y700500D02*
X695200Y713800D01*
X657900Y700500D02*
X681900D01*
X635900Y722500D02*
X657900Y700500D01*
X604390Y722500D02*
X635900D01*
X598425Y716536D02*
X604390Y722500D01*
X493110Y730315D02*
X499125Y724300D01*
X585520D01*
X591535Y730315D01*
X394685D02*
X400700Y724300D01*
X487095D01*
X493110Y730315D01*
X296260D02*
X302275Y724300D01*
X388670D01*
X394685Y730315D01*
X197835D02*
X203850Y724300D01*
X290245D01*
X296260Y730315D01*
X191820Y724300D02*
X197835Y730315D01*
X105424Y724300D02*
X191820D01*
X99409Y730315D02*
X105424Y724300D01*
X591535Y748032D02*
X599967Y739600D01*
X638300D01*
X665200Y766500D01*
X678500D01*
X493110Y748032D02*
X499042Y742100D01*
X585604D01*
X591535Y748032D01*
X394685D02*
X400617Y742100D01*
X487179D01*
X493110Y748032D01*
X296260D02*
X302191Y742100D01*
X388753D01*
X394685Y748032D01*
X197835D02*
X203766Y742100D01*
X290328D01*
X296260Y748032D01*
X191903Y742100D02*
X197835Y748032D01*
X105341Y742100D02*
X191903D01*
X99409Y748032D02*
X105341Y742100D01*
X688000Y773300D02*
X699900Y761400D01*
X688000Y773300D02*
Y777000D01*
X683366Y781634D02*
X688000Y777000D01*
X671397Y781634D02*
X683366D01*
X671397Y776897D02*
Y781634D01*
X653900Y759400D02*
X671397Y776897D01*
X597884Y759400D02*
X653900D01*
X591535Y765748D02*
X597884Y759400D01*
X493110Y765748D02*
X499058Y759800D01*
X585587D01*
X591535Y765748D01*
X394685D02*
X400633Y759800D01*
X487162D01*
X493110Y765748D01*
X296260D02*
X302208Y759800D01*
X388737D01*
X394685Y765748D01*
X197835D02*
X203783Y759800D01*
X290312D01*
X296260Y765748D01*
X191886Y759800D02*
X197835Y765748D01*
X105358Y759800D02*
X191886D01*
X99409Y765748D02*
X105358Y759800D01*
X484265Y899200D02*
X495669Y887795D01*
X408649Y899200D02*
X484265D01*
X397244Y887795D02*
X408649Y899200D01*
X200394Y887795D02*
X226899Y914300D01*
X283000D01*
X564942Y884763D02*
X578300D01*
X604536Y910999D01*
X691481Y906500D02*
X726500D01*
X686981Y910999D02*
X691481Y906500D01*
X1006000Y751500D02*
X1015000Y742500D01*
X969000Y751500D02*
X1006000D01*
X896500Y768000D02*
X909800D01*
X929600Y787800D01*
X996100D01*
Y803000D01*
X708500Y736500D02*
X753900D01*
X760800Y743400D01*
X821490D01*
X826890Y738000D01*
X538563Y884763D02*
X564942D01*
X702484Y726500D02*
X708500D01*
X700000Y721743D02*
X702484Y724227D01*
X700000Y711284D02*
Y721743D01*
X684416Y695700D02*
X700000Y711284D01*
X631072Y695700D02*
X684416D01*
X614173Y712599D02*
X631072Y695700D01*
X112000Y862500D02*
X113000D01*
X83500Y891000D02*
X112000Y862500D01*
X161900Y895000D02*
X166900Y900000D01*
X368000Y884763D02*
X368091D01*
X368000Y880000D02*
X371200Y876800D01*
X436037D01*
X444000Y884763D01*
X1038909Y810000D02*
Y847000D01*
X1031909Y803000D02*
X1038909Y810000D01*
X890563Y768000D02*
X896500D01*
X857563Y735000D02*
X890563Y768000D01*
X126681Y838583D02*
X150984D01*
X102764Y862500D02*
X126681Y838583D01*
X814657Y833000D02*
X835757Y854100D01*
X872100D01*
X726500Y906500D02*
X746500Y926500D01*
X786500D01*
X208774Y700900D02*
X220472Y712599D01*
X133746Y700900D02*
X208774D01*
X122047Y712599D02*
X133746Y700900D01*
X220472Y712599D02*
X238971Y694100D01*
X300399D01*
X318898Y712599D01*
X171200Y884763D02*
X171241D01*
X171200Y880000D02*
X178800Y872400D01*
X218837D01*
X231200Y884763D01*
X269666D01*
X334646Y716536D02*
Y718600D01*
X242156Y710600D02*
X309100D01*
X236220Y716536D02*
X242156Y710600D01*
X318898Y712599D02*
X337296Y694200D01*
X398924D01*
X417323Y712599D01*
X433071Y716536D02*
Y718600D01*
X405000Y710600D02*
X413000Y718600D01*
X340581Y710600D02*
X405000D01*
X334646Y716536D02*
X340581Y710600D01*
X417323Y712599D02*
X435721Y694200D01*
X497349D01*
X515748Y712599D01*
X433071Y779528D02*
X439043Y785500D01*
X506000D01*
X514800Y776700D01*
X528668D01*
X531496Y779528D01*
X629921Y716536D02*
Y718600D01*
X608300Y714600D02*
Y718600D01*
X604300Y710600D02*
X608300Y714600D01*
X537432Y710600D02*
X604300D01*
X531496Y716536D02*
X537432Y710600D01*
X515748Y712599D02*
X520747Y707600D01*
X609175D01*
X614173Y712599D01*
X604536Y910999D02*
X686981D01*
X655400Y920999D02*
X686981D01*
D11*
X928000Y704500D02*
X943000Y719500D01*
X846610Y704500D02*
X928000D01*
X813110Y738000D02*
X846610Y704500D01*
X882669Y803669D02*
X900000Y821000D01*
X804669Y803669D02*
X882669D01*
X791500Y790500D02*
X804669Y803669D01*
X900000Y821000D02*
X939657D01*
X827200Y860800D02*
X887500D01*
X819000Y869000D02*
X827200Y860800D01*
X819000Y869000D02*
Y884185D01*
X826500Y891685D01*
X935357Y864300D02*
X946000Y853657D01*
Y827343D02*
Y853657D01*
X939657Y821000D02*
X946000Y827343D01*
X959000Y751500D02*
X968000Y742500D01*
X995000D01*
X872100Y880900D02*
Y889022D01*
X899625Y916547D02*
X903500Y920422D01*
X899270Y916547D02*
X899625D01*
X897531Y914809D02*
X899270Y916547D01*
X897531Y914453D02*
Y914809D01*
X872100Y889022D02*
X897531Y914453D01*
X940837Y957759D02*
X942586D01*
X903500Y920422D02*
X940837Y957759D01*
X920000Y752000D02*
X938500Y770500D01*
X920000Y742500D02*
Y752000D01*
Y742500D02*
X927500Y735000D01*
X936500D01*
X943000Y728500D01*
Y719500D02*
Y728500D01*
X826500Y891685D02*
Y899500D01*
X819500Y906500D02*
X826500Y899500D01*
X786500Y906500D02*
X819500D01*
X960600Y810500D02*
X1022000D01*
X896185Y809000D02*
X960600Y810500D01*
X828700Y874200D02*
X887500D01*
X826500Y872000D02*
X828700Y874200D01*
X919300Y793000D02*
X992000D01*
X845500Y793500D02*
X919300Y793000D01*
X938500Y770500D02*
X1022000D01*
X660600Y790500D02*
X791500D01*
X913300Y864300D02*
X935357D01*
X909800Y860800D02*
X913300Y864300D01*
X887500Y860800D02*
X909800D01*
X949000Y751500D02*
X981500Y719000D01*
X992783D01*
X872437Y728000D02*
X896500D01*
X865437Y735000D02*
X872437Y728000D01*
X904500Y720000D02*
X928500D01*
X896500Y728000D02*
X904500Y720000D01*
X1005578Y877759D02*
X1037074D01*
X974082D02*
X1005578D01*
X942586D02*
X974082D01*
X939000Y781500D02*
X949000D01*
X1005578Y957759D02*
X1037074D01*
X974082D02*
X1005578D01*
X942586D02*
X974082D01*
D12*
X1022000Y810500D02*
D03*
Y770500D02*
D03*
D13*
X865437Y735000D02*
D03*
D14*
X857563D02*
D03*
D15*
X1037074Y957759D02*
D03*
Y877759D02*
D03*
X1005578Y957759D02*
D03*
Y877759D02*
D03*
X974082Y957759D02*
D03*
Y877759D02*
D03*
X942586Y957759D02*
D03*
Y877759D02*
D03*
X896500Y728000D02*
D03*
X958500Y720000D02*
D03*
X928500D02*
D03*
X593110Y838583D02*
D03*
X643110D02*
D03*
X494685D02*
D03*
X544685D02*
D03*
X396260D02*
D03*
X446260D02*
D03*
X297835D02*
D03*
X347835D02*
D03*
X249409D02*
D03*
X199409D02*
D03*
X150984D02*
D03*
X100984D02*
D03*
X593110Y818898D02*
D03*
X643110D02*
D03*
X494685D02*
D03*
X544685D02*
D03*
X396260D02*
D03*
X446260D02*
D03*
X297835D02*
D03*
X347835D02*
D03*
X249409D02*
D03*
X199409D02*
D03*
X150984D02*
D03*
X100984D02*
D03*
X939657Y821000D02*
D03*
X959343D02*
D03*
X903500Y920422D02*
D03*
X995000Y742500D02*
D03*
X853500Y691000D02*
D03*
X57087Y956693D02*
D03*
X915354D02*
D03*
X57087Y688976D02*
D03*
X915354D02*
D03*
X813110Y738000D02*
D03*
D16*
X560709Y856299D02*
D03*
X600709D02*
D03*
X462283D02*
D03*
X502283D02*
D03*
X363858D02*
D03*
X403858D02*
D03*
X265433D02*
D03*
X305433D02*
D03*
X167008D02*
D03*
X207008D02*
D03*
X123500Y891000D02*
D03*
X83500D02*
D03*
X684000Y877000D02*
D03*
Y837000D02*
D03*
X560709Y921260D02*
D03*
X600709D02*
D03*
X462283D02*
D03*
X502283D02*
D03*
X363858D02*
D03*
X403858D02*
D03*
X265433D02*
D03*
X305433D02*
D03*
X167008D02*
D03*
X207008D02*
D03*
X835500Y793500D02*
D03*
X845500D02*
D03*
D17*
X122047Y783465D02*
D03*
X113000Y862500D02*
D03*
X102764D02*
D03*
X123236D02*
D03*
X210630Y887795D02*
D03*
X220866D02*
D03*
X200394D02*
D03*
X309055D02*
D03*
X319291D02*
D03*
X298819D02*
D03*
X407480D02*
D03*
X417717D02*
D03*
X397244D02*
D03*
X505906D02*
D03*
X516142D02*
D03*
X495669D02*
D03*
X604331D02*
D03*
X614567D02*
D03*
X594095D02*
D03*
X220472Y783465D02*
D03*
X318898D02*
D03*
X417323D02*
D03*
X515748D02*
D03*
X614173D02*
D03*
D18*
X137795Y779528D02*
D03*
X122047Y712599D02*
D03*
X144685Y765748D02*
D03*
Y748032D02*
D03*
Y730315D02*
D03*
X137795Y716536D02*
D03*
X106299Y779528D02*
D03*
X99409Y765748D02*
D03*
Y748032D02*
D03*
Y730315D02*
D03*
X106299Y716536D02*
D03*
X143701Y852756D02*
D03*
Y926772D02*
D03*
X242126Y852756D02*
D03*
Y926772D02*
D03*
X340551Y852756D02*
D03*
Y926772D02*
D03*
X438976Y852756D02*
D03*
Y926772D02*
D03*
X537402Y852756D02*
D03*
Y926772D02*
D03*
X635827Y852756D02*
D03*
Y926772D02*
D03*
X236220Y779528D02*
D03*
X220472Y712599D02*
D03*
X243110Y765748D02*
D03*
Y748032D02*
D03*
Y730315D02*
D03*
X236220Y716536D02*
D03*
X204724Y779528D02*
D03*
X197835Y765748D02*
D03*
Y748032D02*
D03*
Y730315D02*
D03*
X204724Y716536D02*
D03*
X334646Y779528D02*
D03*
X318898Y712599D02*
D03*
X341535Y765748D02*
D03*
Y748032D02*
D03*
Y730315D02*
D03*
X334646Y716536D02*
D03*
X303150Y779528D02*
D03*
X296260Y765748D02*
D03*
Y748032D02*
D03*
Y730315D02*
D03*
X303150Y716536D02*
D03*
X433071Y779528D02*
D03*
X417323Y712599D02*
D03*
X439961Y765748D02*
D03*
Y748032D02*
D03*
Y730315D02*
D03*
X433071Y716536D02*
D03*
X401575Y779528D02*
D03*
X394685Y765748D02*
D03*
Y748032D02*
D03*
Y730315D02*
D03*
X401575Y716536D02*
D03*
X531496Y779528D02*
D03*
X515748Y712599D02*
D03*
X538386Y765748D02*
D03*
Y748032D02*
D03*
Y730315D02*
D03*
X531496Y716536D02*
D03*
X500000Y779528D02*
D03*
X493110Y765748D02*
D03*
Y748032D02*
D03*
Y730315D02*
D03*
X500000Y716536D02*
D03*
X629921Y779528D02*
D03*
X614173Y712599D02*
D03*
X636811Y765748D02*
D03*
Y748032D02*
D03*
Y730315D02*
D03*
X629921Y716536D02*
D03*
X598425Y779528D02*
D03*
X591535Y765748D02*
D03*
Y748032D02*
D03*
Y730315D02*
D03*
X598425Y716536D02*
D03*
X834343Y833000D02*
D03*
D19*
X896500Y768000D02*
D03*
X903500Y910579D02*
D03*
D20*
X678500Y736500D02*
D03*
Y726500D02*
D03*
Y716500D02*
D03*
Y706500D02*
D03*
Y766500D02*
D03*
Y756500D02*
D03*
Y746500D02*
D03*
X708500Y706500D02*
D03*
Y716500D02*
D03*
Y726500D02*
D03*
Y746500D02*
D03*
Y756500D02*
D03*
Y766500D02*
D03*
Y776500D02*
D03*
D21*
X678500D02*
D03*
D22*
X708500Y736500D02*
D03*
D23*
X786500Y926500D02*
D03*
X726500Y906500D02*
D03*
D24*
X786500Y916500D02*
D03*
Y906500D02*
D03*
Y896500D02*
D03*
Y886500D02*
D03*
Y876500D02*
D03*
Y866500D02*
D03*
Y856500D02*
D03*
Y846500D02*
D03*
Y836500D02*
D03*
Y826500D02*
D03*
Y816500D02*
D03*
Y806500D02*
D03*
Y796500D02*
D03*
X726500D02*
D03*
Y806500D02*
D03*
Y816500D02*
D03*
Y826500D02*
D03*
Y836500D02*
D03*
Y846500D02*
D03*
Y856500D02*
D03*
Y866500D02*
D03*
Y876500D02*
D03*
Y886500D02*
D03*
Y896500D02*
D03*
X786500Y936500D02*
D03*
X726500Y916500D02*
D03*
Y926500D02*
D03*
Y936500D02*
D03*
D25*
X171241Y884763D02*
D03*
X269666D02*
D03*
X368091D02*
D03*
X466517D02*
D03*
X564942D02*
D03*
X686981Y910999D02*
D03*
D26*
X171260Y889763D02*
D03*
X171241Y894763D02*
D03*
X269685Y889763D02*
D03*
X269666Y894763D02*
D03*
X368111Y889763D02*
D03*
X368091Y894763D02*
D03*
X466536Y889763D02*
D03*
X466517Y894763D02*
D03*
X564961Y889763D02*
D03*
X564942Y894763D02*
D03*
X687001Y916000D02*
D03*
X686981Y920999D02*
D03*
D27*
X972000Y856000D02*
D03*
D28*
X932000D02*
D03*
D29*
X992000Y803000D02*
D03*
Y798000D02*
D03*
D30*
Y793000D02*
D03*
D31*
X825500Y793500D02*
D03*
D32*
X992783Y719000D02*
D03*
X1028217D02*
D03*
D33*
X896185Y809000D02*
D03*
X876500D02*
D03*
X826500Y891685D02*
D03*
Y872000D02*
D03*
D34*
X991783Y694000D02*
D03*
X1027216D02*
D03*
D35*
X1015000Y742500D02*
D03*
X813500Y691000D02*
D03*
X826890Y738000D02*
D03*
D36*
X969000Y781500D02*
D03*
X959000D02*
D03*
X949000D02*
D03*
X939000D02*
D03*
X959000Y751500D02*
D03*
X949000D02*
D03*
X939000D02*
D03*
D37*
X969000D02*
D03*
D38*
X814657Y833000D02*
D03*
D39*
X872100Y867500D02*
D03*
Y854100D02*
D03*
D40*
X887500Y860800D02*
D03*
Y874200D02*
D03*
X872100Y880900D02*
D03*
D41*
X811000Y926500D02*
D03*
D42*
X866000D02*
D03*
D43*
X1027098Y866685D02*
D03*
D44*
X1038909Y847000D02*
D03*
D45*
X1014500D02*
D03*
D46*
X697900Y726500D02*
D03*
X500500Y870200D02*
D03*
X738000Y951100D02*
D03*
X695200Y713800D02*
D03*
X699900Y761400D02*
D03*
X660600Y790500D02*
D03*
X655400Y920999D02*
D03*
M02*
