G04 Layer_Color=15132400*
%FSLAX25Y25*%
%MOIN*%
G70*
G01*
G75*
%ADD10C,0.01969*%
%ADD47C,0.01000*%
%ADD48C,0.00787*%
%ADD49C,0.02953*%
%ADD50C,0.00984*%
%ADD51C,0.02362*%
%ADD52C,0.00800*%
%ADD53R,0.02622X0.09291*%
G36*
X763402Y754820D02*
X764058Y754711D01*
X764824Y754547D01*
X765589Y754328D01*
X766464Y754055D01*
X767284Y753617D01*
X767394Y753563D01*
X767667Y753399D01*
X768050Y753125D01*
X768542Y752688D01*
X769089Y752196D01*
X769690Y751594D01*
X770237Y750883D01*
X770784Y750063D01*
X790687Y715615D01*
X790742Y715506D01*
X790906Y715232D01*
X791125Y714740D01*
X791344Y714139D01*
X791562Y713428D01*
X791781Y712607D01*
X791945Y711733D01*
X792000Y710803D01*
Y710694D01*
Y710366D01*
X791945Y709873D01*
X791836Y709272D01*
X791672Y708506D01*
X791453Y707741D01*
X791125Y706866D01*
X790687Y705991D01*
X790633Y705882D01*
X790469Y705608D01*
X790141Y705226D01*
X789758Y704679D01*
X789266Y704132D01*
X788664Y703531D01*
X787953Y702929D01*
X787188Y702437D01*
X787079Y702382D01*
X786805Y702218D01*
X786368Y702054D01*
X785766Y701835D01*
X785055Y701562D01*
X784235Y701398D01*
X783360Y701234D01*
X782376Y701179D01*
X742132D01*
X741639Y701234D01*
X740983Y701343D01*
X740218Y701507D01*
X739452Y701726D01*
X738577Y702000D01*
X737757Y702437D01*
X737648Y702492D01*
X737374Y702656D01*
X736992Y702984D01*
X736500Y703367D01*
X735953Y703859D01*
X735351Y704460D01*
X734804Y705171D01*
X734258Y705991D01*
X734203Y706101D01*
X734039Y706374D01*
X733875Y706866D01*
X733656Y707468D01*
X733383Y708178D01*
X733219Y708999D01*
X733055Y709873D01*
X733000Y710803D01*
Y710858D01*
Y710912D01*
Y711240D01*
X733055Y711733D01*
X733164Y712334D01*
X733328Y713100D01*
X733547Y713920D01*
X733820Y714740D01*
X734258Y715615D01*
X754161Y750063D01*
X754216Y750173D01*
X754380Y750446D01*
X754708Y750883D01*
X755091Y751376D01*
X755583Y751922D01*
X756184Y752524D01*
X756895Y753125D01*
X757661Y753617D01*
X757770Y753672D01*
X758043Y753836D01*
X758481Y754000D01*
X759082Y754274D01*
X759793Y754492D01*
X760613Y754656D01*
X761488Y754820D01*
X762472Y754875D01*
X762910D01*
X763402Y754820D01*
D02*
G37*
G36*
X915500Y911500D02*
X913000Y907500D01*
X909000Y904000D01*
X903500Y903000D01*
X898000Y904000D01*
X893500Y908000D01*
X891500Y912000D01*
X891000Y915500D01*
X903000D01*
X900500Y913500D01*
X899000Y911000D01*
X900000Y908500D01*
X902000Y906500D01*
X905500D01*
X907500Y909000D01*
Y912000D01*
X906000Y914000D01*
X903000Y915500D01*
X916000D01*
X915500Y911500D01*
D02*
G37*
%LPC*%
G36*
X762472Y752086D02*
X762144D01*
X761816Y752032D01*
X761324Y751977D01*
X760832Y751868D01*
X760231Y751704D01*
X759629Y751485D01*
X759028Y751212D01*
X758973Y751157D01*
X758754Y751048D01*
X758481Y750829D01*
X758153Y750555D01*
X757770Y750227D01*
X757333Y749790D01*
X756950Y749298D01*
X756567Y748696D01*
X736609Y714193D01*
X736554Y714139D01*
X736445Y713920D01*
X736336Y713592D01*
X736171Y713154D01*
X735953Y712607D01*
X735843Y712061D01*
X735734Y711405D01*
X735679Y710748D01*
Y710694D01*
Y710420D01*
X735734Y710092D01*
X735789Y709655D01*
X735898Y709108D01*
X736062Y708561D01*
X736281Y707905D01*
X736609Y707303D01*
X736664Y707249D01*
X736773Y707030D01*
X736992Y706757D01*
X737320Y706429D01*
X737648Y705991D01*
X738085Y705608D01*
X738577Y705226D01*
X739124Y704843D01*
X739179Y704788D01*
X739398Y704734D01*
X739726Y704569D01*
X740163Y704405D01*
X740655Y704241D01*
X741257Y704132D01*
X741913Y704023D01*
X742569Y703968D01*
X782704D01*
X783032Y704023D01*
X783524Y704077D01*
X784016Y704187D01*
X784618Y704351D01*
X785165Y704569D01*
X785766Y704843D01*
X785821Y704898D01*
X786040Y705007D01*
X786313Y705226D01*
X786696Y705499D01*
X787079Y705827D01*
X787516Y706265D01*
X787899Y706757D01*
X788281Y707303D01*
X788336Y707358D01*
X788446Y707577D01*
X788610Y707905D01*
X788774Y708342D01*
X788938Y708889D01*
X789102Y709436D01*
X789211Y710092D01*
X789266Y710748D01*
Y710858D01*
Y711076D01*
X789211Y711405D01*
X789156Y711842D01*
X789047Y712389D01*
X788883Y712990D01*
X788664Y713592D01*
X788336Y714193D01*
X768378Y748696D01*
X768323Y748751D01*
X768214Y748970D01*
X767995Y749243D01*
X767722Y749626D01*
X767339Y750009D01*
X766902Y750446D01*
X766409Y750829D01*
X765863Y751212D01*
X765808Y751266D01*
X765589Y751376D01*
X765261Y751485D01*
X764878Y751649D01*
X764386Y751813D01*
X763785Y751977D01*
X763129Y752032D01*
X762472Y752086D01*
D02*
G37*
%LPD*%
G36*
X763019Y750009D02*
X763566Y749954D01*
X764004Y749845D01*
X764441Y749735D01*
X764769Y749571D01*
X765042Y749462D01*
X765206Y749407D01*
X765261Y749352D01*
X765699Y749079D01*
X766136Y748751D01*
X766464Y748423D01*
X766792Y748095D01*
X767011Y747767D01*
X767175Y747548D01*
X767284Y747384D01*
X767339Y747329D01*
X776908Y730652D01*
X777674Y729340D01*
X778384Y728082D01*
X779095Y726879D01*
X779751Y725785D01*
X780353Y724692D01*
X780900Y723707D01*
X781447Y722778D01*
X781993Y721903D01*
X782431Y721083D01*
X782868Y720372D01*
X783634Y719005D01*
X784344Y717857D01*
X784891Y716873D01*
X785329Y716107D01*
X785711Y715451D01*
X785985Y714959D01*
X786204Y714576D01*
X786368Y714302D01*
X786477Y714139D01*
X786532Y714084D01*
Y714029D01*
X786805Y713537D01*
X786969Y713045D01*
X787133Y712553D01*
X787188Y712170D01*
X787243Y711787D01*
X787297Y711514D01*
Y711295D01*
Y711240D01*
X787243Y710694D01*
X787188Y710202D01*
X787079Y709709D01*
X786914Y709272D01*
X786750Y708889D01*
X786641Y708616D01*
X786586Y708452D01*
X786532Y708397D01*
X786204Y707960D01*
X785876Y707522D01*
X785547Y707139D01*
X785219Y706866D01*
X784891Y706647D01*
X784673Y706483D01*
X784509Y706374D01*
X784454Y706319D01*
X783962Y706101D01*
X783470Y705936D01*
X783032Y705772D01*
X782595Y705718D01*
X782212Y705663D01*
X781939Y705608D01*
X743280D01*
X742733Y705663D01*
X742186Y705718D01*
X741694Y705827D01*
X741311Y705991D01*
X740929Y706101D01*
X740655Y706210D01*
X740491Y706265D01*
X740437Y706319D01*
X739616Y706975D01*
X739233Y707303D01*
X738960Y707632D01*
X738741Y707960D01*
X738577Y708178D01*
X738468Y708342D01*
X738413Y708397D01*
X738140Y708889D01*
X737976Y709436D01*
X737812Y709873D01*
X737757Y710311D01*
X737703Y710694D01*
X737648Y710967D01*
Y711186D01*
Y711240D01*
X737703Y711787D01*
X737757Y712279D01*
X737866Y712772D01*
X738031Y713209D01*
X738195Y713537D01*
X738304Y713810D01*
X738359Y713974D01*
X738413Y714029D01*
X757606Y747329D01*
X757934Y747821D01*
X758262Y748204D01*
X758645Y748532D01*
X758973Y748860D01*
X759246Y749079D01*
X759465Y749243D01*
X759629Y749298D01*
X759684Y749352D01*
X760176Y749571D01*
X760668Y749790D01*
X761105Y749899D01*
X761543Y749954D01*
X761926Y750009D01*
X762199Y750063D01*
X762472D01*
X763019Y750009D01*
D02*
G37*
%LPC*%
G36*
X765808Y739073D02*
X760996D01*
X760668Y739018D01*
X760449Y738963D01*
X760067Y738690D01*
X759793Y738416D01*
X759738Y738362D01*
Y738307D01*
X753232Y724637D01*
X753122Y724418D01*
Y724145D01*
Y723762D01*
X753232Y723434D01*
X753286Y723379D01*
Y723325D01*
X753450Y723106D01*
X753669Y722942D01*
X754052Y722723D01*
X754380Y722614D01*
X759028D01*
X755255Y711350D01*
X755200Y710967D01*
Y710639D01*
X755255Y710420D01*
Y710311D01*
X755474Y710038D01*
X755692Y709819D01*
X755856Y709709D01*
X755911Y709655D01*
X756130Y709545D01*
X756348Y709491D01*
X756567D01*
X757059Y709600D01*
X757387Y709819D01*
X757606Y710038D01*
X757661Y710147D01*
X763566Y718677D01*
X764496Y719989D01*
X765261Y721192D01*
X765972Y722231D01*
X766628Y723161D01*
X767175Y723926D01*
X767667Y724637D01*
X768050Y725239D01*
X768378Y725731D01*
X768706Y726168D01*
X768925Y726496D01*
X769089Y726715D01*
X769198Y726934D01*
X769308Y727043D01*
X769362Y727152D01*
X769417Y727207D01*
X769526Y727480D01*
X769636Y727699D01*
Y728137D01*
X769526Y728465D01*
X769472Y728519D01*
Y728574D01*
X769308Y728847D01*
X769143Y729011D01*
X768706Y729230D01*
X768378Y729340D01*
X763347D01*
X766956Y737159D01*
X767011Y737432D01*
X767066Y737651D01*
X766956Y738088D01*
X766847Y738362D01*
X766792Y738471D01*
X766628Y738690D01*
X766464Y738799D01*
X766081Y739018D01*
X765808Y739073D01*
D02*
G37*
%LPD*%
D10*
X66000Y699000D02*
X54193D01*
X58128Y702936D01*
X54193Y706872D01*
X66000D01*
X58128Y712775D02*
Y716711D01*
X60096Y718679D01*
X66000D01*
Y712775D01*
X64032Y710807D01*
X62064Y712775D01*
Y718679D01*
X58128Y730486D02*
Y724582D01*
X60096Y722614D01*
X64032D01*
X66000Y724582D01*
Y730486D01*
Y734422D02*
X54193D01*
X62064D02*
X58128Y740325D01*
X62064Y734422D02*
X66000Y740325D01*
Y746229D02*
Y750165D01*
Y748197D01*
X54193D01*
Y746229D01*
X66000Y756068D02*
Y760004D01*
Y758036D01*
X58128D01*
Y756068D01*
X66000Y765907D02*
X58128D01*
Y771811D01*
X60096Y773779D01*
X66000D01*
X54193Y789522D02*
X66000D01*
X60096D01*
Y797393D01*
X54193D01*
X66000D01*
X58128Y803297D02*
Y807233D01*
X60096Y809201D01*
X66000D01*
Y803297D01*
X64032Y801329D01*
X62064Y803297D01*
Y809201D01*
X66000Y813136D02*
Y817072D01*
Y815104D01*
X54193D01*
Y813136D01*
X66000Y822976D02*
Y826911D01*
Y824944D01*
X54193D01*
Y822976D01*
X60096Y844622D02*
Y852494D01*
X66000Y874140D02*
X54193D01*
X60096Y868237D01*
Y876108D01*
X66000Y880044D02*
X64032D01*
Y882012D01*
X66000D01*
Y880044D01*
Y897755D02*
Y889883D01*
X58128Y897755D01*
X56161D01*
X54193Y895787D01*
Y891851D01*
X56161Y889883D01*
X54193Y901690D02*
Y909562D01*
X56161D01*
X64032Y901690D01*
X66000D01*
Y913498D02*
X64032D01*
Y915465D01*
X66000D01*
Y913498D01*
Y931208D02*
Y923337D01*
X58128Y931208D01*
X56161D01*
X54193Y929240D01*
Y925305D01*
X56161Y923337D01*
Y935144D02*
X54193Y937112D01*
Y941048D01*
X56161Y943015D01*
X64032D01*
X66000Y941048D01*
Y937112D01*
X64032Y935144D01*
X56161D01*
X83780Y951500D02*
X80500D01*
Y961339D01*
X83780D01*
X88700Y951500D02*
Y961339D01*
X91979Y958060D01*
X95259Y961339D01*
Y951500D01*
X98539D02*
X101819D01*
Y961339D01*
X98539D01*
X106738Y958060D02*
Y953140D01*
X108378Y951500D01*
X113298D01*
Y958060D01*
X116578Y951500D02*
X119857D01*
X118218D01*
Y961339D01*
X116578D01*
X126417Y959700D02*
Y958060D01*
X124777D01*
X128057D01*
X126417D01*
Y953140D01*
X128057Y951500D01*
X132976D02*
X136256D01*
X134616D01*
Y958060D01*
X132976D01*
X141176Y948220D02*
Y958060D01*
X146096D01*
X147736Y956420D01*
Y953140D01*
X146096Y951500D01*
X141176D01*
X151015D02*
X154295D01*
X152655D01*
Y961339D01*
X151015D01*
X164134Y951500D02*
X160855D01*
X159215Y953140D01*
Y956420D01*
X160855Y958060D01*
X164134D01*
X165774Y956420D01*
Y954780D01*
X159215D01*
X169054Y958060D02*
X175614Y951500D01*
X172334Y954780D01*
X175614Y958060D01*
X169054Y951500D01*
X183813D02*
X180533D01*
X178893Y953140D01*
Y956420D01*
X180533Y958060D01*
X183813D01*
X185453Y956420D01*
Y954780D01*
X178893D01*
X195292Y961339D02*
Y951500D01*
X190373D01*
X188733Y953140D01*
Y956420D01*
X190373Y958060D01*
X195292D01*
X211691Y951500D02*
X208411D01*
Y961339D01*
X211691D01*
X216611Y951500D02*
Y958060D01*
X219891Y961339D01*
X223170Y958060D01*
Y951500D01*
Y956420D01*
X216611D01*
X226450Y951500D02*
X229730D01*
Y961339D01*
X226450D01*
X234650Y958060D02*
Y951500D01*
Y954780D01*
X236290Y956420D01*
X237929Y958060D01*
X239569D01*
X244489D02*
Y951500D01*
Y954780D01*
X246129Y956420D01*
X247769Y958060D01*
X249409D01*
X255968D02*
X259248D01*
X260888Y956420D01*
Y951500D01*
X255968D01*
X254328Y953140D01*
X255968Y954780D01*
X260888D01*
X264168Y958060D02*
Y953140D01*
X265808Y951500D01*
X270727D01*
Y949860D01*
X269087Y948220D01*
X267447D01*
X270727Y951500D02*
Y958060D01*
X287126Y951500D02*
X283846D01*
Y961339D01*
X287126D01*
X298605Y959700D02*
X296966Y961339D01*
X293686D01*
X292046Y959700D01*
Y958060D01*
X293686Y956420D01*
X296966D01*
X298605Y954780D01*
Y953140D01*
X296966Y951500D01*
X293686D01*
X292046Y953140D01*
X301885Y951500D02*
X305165D01*
Y961339D01*
X301885D01*
X310085D02*
Y951500D01*
Y956420D01*
X311724Y958060D01*
X315004D01*
X316644Y956420D01*
Y951500D01*
X321564D02*
X324844D01*
X326483Y953140D01*
Y956420D01*
X324844Y958060D01*
X321564D01*
X319924Y956420D01*
Y953140D01*
X321564Y951500D01*
X329763Y958060D02*
Y953140D01*
X331403Y951500D01*
X333043Y953140D01*
X334683Y951500D01*
X336323Y953140D01*
Y958060D01*
X339603Y951500D02*
X342882D01*
X341243D01*
Y958060D01*
X339603D01*
X347802Y951500D02*
Y958060D01*
X352722D01*
X354362Y956420D01*
Y951500D01*
X360921Y948220D02*
X362561D01*
X364201Y949860D01*
Y958060D01*
X359281D01*
X357641Y956420D01*
Y953140D01*
X359281Y951500D01*
X364201D01*
X380600D02*
X377320D01*
Y961339D01*
X380600D01*
X390439D02*
X387159D01*
X385520Y959700D01*
Y953140D01*
X387159Y951500D01*
X390439D01*
X392079Y953140D01*
Y959700D01*
X390439Y961339D01*
X395359Y951500D02*
X398639D01*
Y961339D01*
X395359D01*
X405198Y951500D02*
Y959700D01*
Y956420D01*
X403558D01*
X406838D01*
X405198D01*
Y959700D01*
X406838Y961339D01*
X413398Y951500D02*
Y959700D01*
Y956420D01*
X411758D01*
X415038D01*
X413398D01*
Y959700D01*
X415038Y961339D01*
X433076Y951500D02*
X429797D01*
Y961339D01*
X433076D01*
X437996Y951500D02*
Y961339D01*
X444556Y951500D01*
Y961339D01*
X447835Y951500D02*
X451115D01*
Y961339D01*
X447835D01*
X456035Y951500D02*
X459315D01*
X457675D01*
Y958060D01*
X456035D01*
X464234D02*
X470794Y951500D01*
X467514Y954780D01*
X470794Y958060D01*
X464234Y951500D01*
X474074D02*
X477353D01*
X475713D01*
Y958060D01*
X474074D01*
X487193Y951500D02*
X483913D01*
X482273Y953140D01*
Y956420D01*
X483913Y958060D01*
X487193D01*
X488833Y956420D01*
Y954780D01*
X482273D01*
X492112Y951500D02*
X497032D01*
X498672Y953140D01*
X497032Y954780D01*
X493752D01*
X492112Y956420D01*
X493752Y958060D01*
X498672D01*
X511791Y961339D02*
Y954780D01*
X515071Y951500D01*
X518351Y954780D01*
Y961339D01*
X528190Y951500D02*
X521630D01*
X528190Y958060D01*
Y959700D01*
X526550Y961339D01*
X523270D01*
X521630Y959700D01*
X531470Y951500D02*
Y953140D01*
X533110D01*
Y951500D01*
X531470D01*
X539669Y959700D02*
X541309Y961339D01*
X544589D01*
X546229Y959700D01*
Y953140D01*
X544589Y951500D01*
X541309D01*
X539669Y953140D01*
Y959700D01*
D47*
X871500Y735000D02*
G03*
X871500Y735000I-10000J0D01*
G01*
X969500Y821000D02*
G03*
X969500Y821000I-20000J0D01*
G01*
X907698Y910579D02*
G03*
X907698Y910579I-4198J0D01*
G01*
X690500Y778500D02*
G03*
X693500Y775500I3000J0D01*
G01*
D02*
G03*
X696500Y779000I-250J3250D01*
G01*
X176804Y897324D02*
G03*
X176885Y882264I-5544J-7560D01*
G01*
X275229Y897324D02*
G03*
X275310Y882264I-5544J-7560D01*
G01*
X373654Y897324D02*
G03*
X373735Y882264I-5544J-7560D01*
G01*
X472080Y897324D02*
G03*
X472160Y882264I-5544J-7560D01*
G01*
X570505Y897324D02*
G03*
X570586Y882264I-5544J-7560D01*
G01*
X692544Y923560D02*
G03*
X692625Y908500I-5544J-7560D01*
G01*
X835748Y738000D02*
G03*
X835748Y738000I-15748J0D01*
G01*
X1047074Y887759D02*
Y947759D01*
X1027074Y887759D02*
X1047074D01*
X1027074Y945259D02*
Y947759D01*
X1047074D01*
X1027074Y887759D02*
Y947259D01*
X1015578Y887759D02*
Y947759D01*
X995578Y887759D02*
X1015578D01*
X995578Y945259D02*
Y947759D01*
X1015578D01*
X995578Y887759D02*
Y947259D01*
X984082Y887759D02*
Y947759D01*
X964082Y887759D02*
X984082D01*
X964082Y945259D02*
Y947759D01*
X984082D01*
X964082Y887759D02*
Y947259D01*
X952586Y887759D02*
Y947759D01*
X932586Y887759D02*
X952586D01*
X932586Y945259D02*
Y947759D01*
X952586D01*
X932586Y887759D02*
Y947259D01*
X565709Y851799D02*
X595709D01*
X565709D02*
Y861025D01*
X595709D01*
Y851799D02*
Y861025D01*
X467283Y851799D02*
X497283D01*
X467283D02*
Y861025D01*
X497283D01*
Y851799D02*
Y861025D01*
X368858Y851799D02*
X398858D01*
X368858D02*
Y861025D01*
X398858D01*
Y851799D02*
Y861025D01*
X270433Y851799D02*
X300433D01*
X270433D02*
Y861025D01*
X300433D01*
Y851799D02*
Y861025D01*
X172008Y851799D02*
X202008D01*
X172008D02*
Y861025D01*
X202008D01*
Y851799D02*
Y861025D01*
X896500Y758000D02*
Y763000D01*
Y733000D02*
Y738000D01*
X901000D02*
Y758000D01*
X892000Y738000D02*
X901000D01*
X892000Y758000D02*
X901000D01*
X892000Y738000D02*
Y758000D01*
X933500Y724500D02*
X953500D01*
Y715500D02*
Y724500D01*
X933500Y715500D02*
Y724500D01*
Y715500D02*
X953500D01*
X598110Y831083D02*
X638110D01*
X598110D02*
Y846083D01*
X638110D01*
Y831083D02*
Y846083D01*
X499685Y831083D02*
X539685D01*
X499685D02*
Y846083D01*
X539685D01*
Y831083D02*
Y846083D01*
X401260Y831083D02*
X441260D01*
X401260D02*
Y846083D01*
X441260D01*
Y831083D02*
Y846083D01*
X302835Y831083D02*
X342835D01*
X302835D02*
Y846083D01*
X342835D01*
Y831083D02*
Y846083D01*
X204409D02*
X244409D01*
Y831083D02*
Y846083D01*
X204409Y831083D02*
X244409D01*
X204409D02*
Y846083D01*
X105984D02*
X145984D01*
Y831083D02*
Y846083D01*
X105984Y831083D02*
X145984D01*
X105984D02*
Y846083D01*
X598110Y811398D02*
X638110D01*
X598110D02*
Y826398D01*
X638110D01*
Y811398D02*
Y826398D01*
X499685Y811398D02*
X539685D01*
X499685D02*
Y826398D01*
X539685D01*
Y811398D02*
Y826398D01*
X401260Y811398D02*
X441260D01*
X401260D02*
Y826398D01*
X441260D01*
Y811398D02*
Y826398D01*
X302835Y811398D02*
X342835D01*
X302835D02*
Y826398D01*
X342835D01*
Y811398D02*
Y826398D01*
X204409D02*
X244409D01*
Y811398D02*
Y826398D01*
X204409Y811398D02*
X244409D01*
X204409D02*
Y826398D01*
X105984D02*
X145984D01*
Y811398D02*
Y826398D01*
X105984Y811398D02*
X145984D01*
X105984D02*
Y826398D01*
X88500Y895500D02*
X118500D01*
Y886275D02*
Y895500D01*
X88500Y886275D02*
X118500D01*
X88500D02*
Y895500D01*
X679500Y842000D02*
Y872000D01*
X688725D01*
Y842000D02*
Y872000D01*
X679500Y842000D02*
X688725D01*
X565709Y916760D02*
X595709D01*
X565709D02*
Y925985D01*
X595709D01*
Y916760D02*
Y925985D01*
X467283Y916760D02*
X497283D01*
X467283D02*
Y925985D01*
X497283D01*
Y916760D02*
Y925985D01*
X368858Y916760D02*
X398858D01*
X368858D02*
Y925985D01*
X398858D01*
Y916760D02*
Y925985D01*
X270433Y916760D02*
X300433D01*
X270433D02*
Y925985D01*
X300433D01*
Y916760D02*
Y925985D01*
X172008Y916760D02*
X202008D01*
X172008D02*
Y925985D01*
X202008D01*
Y916760D02*
Y925985D01*
X940000Y826000D02*
Y831000D01*
X937500Y828500D02*
X942500D01*
X686000Y704000D02*
Y779000D01*
Y704000D02*
X701000D01*
Y779000D01*
X686000D02*
X701000D01*
X780500Y790500D02*
Y792500D01*
X734500Y790500D02*
X780500D01*
X734500D02*
Y942500D01*
X780500D01*
Y792500D02*
Y942500D01*
X721000Y774500D02*
X792000D01*
X721000D02*
Y951500D01*
X792000D01*
Y774500D02*
Y951500D01*
X176885Y882264D02*
Y897264D01*
X275310Y882264D02*
Y897264D01*
X373735Y882264D02*
Y897264D01*
X472160Y882264D02*
Y897264D01*
X570586Y882264D02*
Y897264D01*
X692625Y908500D02*
Y923500D01*
X143701Y866142D02*
Y868110D01*
Y911417D02*
Y913386D01*
X135827Y868110D02*
X151575D01*
Y911417D01*
X135827D02*
X151575D01*
X135827Y868110D02*
Y911417D01*
X242126Y866142D02*
Y868110D01*
Y911417D02*
Y913386D01*
X234252Y868110D02*
X250000D01*
Y911417D01*
X234252D02*
X250000D01*
X234252Y868110D02*
Y911417D01*
X340551Y866142D02*
Y868110D01*
Y911417D02*
Y913386D01*
X332677Y868110D02*
X348425D01*
Y911417D01*
X332677D02*
X348425D01*
X332677Y868110D02*
Y911417D01*
X438976Y866142D02*
Y868110D01*
Y911417D02*
Y913386D01*
X431102Y868110D02*
X446850D01*
Y911417D01*
X431102D02*
X446850D01*
X431102Y868110D02*
Y911417D01*
X537402Y866142D02*
Y868110D01*
Y911417D02*
Y913386D01*
X529528Y868110D02*
X545276D01*
Y911417D01*
X529528D02*
X545276D01*
X529528Y868110D02*
Y911417D01*
X635827Y866142D02*
Y868110D01*
Y911417D02*
Y913386D01*
X627953Y868110D02*
X643701D01*
Y911417D01*
X627953D02*
X643701D01*
X627953Y868110D02*
Y911417D01*
X863000Y773500D02*
Y801500D01*
X858500Y781500D02*
Y801500D01*
X813000Y781500D02*
Y801000D01*
X808000Y773500D02*
Y801500D01*
X808500Y801000D02*
X813000D01*
X858500Y801500D02*
X863000D01*
X808500Y781500D02*
X863000D01*
X808000Y776000D02*
X863000D01*
Y762000D02*
Y773500D01*
X858000Y762000D02*
Y776000D01*
X850500Y762000D02*
Y775000D01*
X845500Y762000D02*
Y776000D01*
X838500Y762000D02*
Y775000D01*
X833000Y762000D02*
Y775500D01*
X826000Y761500D02*
Y776000D01*
X821000Y761500D02*
Y775500D01*
X813000Y762000D02*
Y776000D01*
X808000Y762500D02*
Y773500D01*
X858000Y762000D02*
X863000D01*
X845500D02*
X850500D01*
X833000D02*
X838500D01*
X821000Y761500D02*
X826000D01*
X808500Y762000D02*
X813000D01*
X1000000Y739000D02*
X1010500D01*
X1000000Y746000D02*
X1010500D01*
X823500Y686500D02*
X843500D01*
X823500D02*
Y695500D01*
X843500Y686500D02*
Y695500D01*
X823500D02*
X843500D01*
Y691000D02*
X848500D01*
X818500D02*
X823500D01*
X867500Y888000D02*
X905500D01*
X867500Y847000D02*
Y888000D01*
Y847000D02*
X905500D01*
Y888000D01*
X818000Y915000D02*
X859000D01*
Y938000D01*
X818000D02*
X859000D01*
X818000Y915000D02*
Y938000D01*
X853000Y915000D02*
Y938000D01*
X797500Y738000D02*
X802500D01*
X800000Y735500D02*
Y740500D01*
X605500Y803500D02*
Y809498D01*
X608499D01*
X609499Y808498D01*
Y806499D01*
X608499Y805499D01*
X605500D01*
X607499D02*
X609499Y803500D01*
X615497D02*
X611498D01*
X615497Y807499D01*
Y808498D01*
X614497Y809498D01*
X612498D01*
X611498Y808498D01*
X620495Y803500D02*
Y809498D01*
X617496Y806499D01*
X621495D01*
X623494D02*
X627493D01*
X629492Y809498D02*
Y803500D01*
X632491D01*
X633491Y804500D01*
Y805499D01*
X632491Y806499D01*
X629492D01*
X632491D01*
X633491Y807499D01*
Y808498D01*
X632491Y809498D01*
X629492D01*
X648500Y836500D02*
Y842498D01*
X651499D01*
X652499Y841498D01*
Y839499D01*
X651499Y838499D01*
X648500D01*
X650499D02*
X652499Y836500D01*
X658497D02*
X654498D01*
X658497Y840499D01*
Y841498D01*
X657497Y842498D01*
X655498D01*
X654498Y841498D01*
X663495Y836500D02*
Y842498D01*
X660496Y839499D01*
X664495D01*
X666494D02*
X670493D01*
X672492Y836500D02*
Y840499D01*
X674492Y842498D01*
X676491Y840499D01*
Y836500D01*
Y839499D01*
X672492D01*
X507500Y803500D02*
Y809498D01*
X510499D01*
X511499Y808498D01*
Y806499D01*
X510499Y805499D01*
X507500D01*
X509499D02*
X511499Y803500D01*
X517497D02*
X513498D01*
X517497Y807499D01*
Y808498D01*
X516497Y809498D01*
X514498D01*
X513498Y808498D01*
X519496Y803500D02*
X521495D01*
X520496D01*
Y809498D01*
X519496Y808498D01*
X524495Y806499D02*
X528493D01*
X530493Y809498D02*
Y803500D01*
X533492D01*
X534491Y804500D01*
Y805499D01*
X533492Y806499D01*
X530493D01*
X533492D01*
X534491Y807499D01*
Y808498D01*
X533492Y809498D01*
X530493D01*
X551000Y837000D02*
Y842998D01*
X553999D01*
X554999Y841998D01*
Y839999D01*
X553999Y838999D01*
X551000D01*
X552999D02*
X554999Y837000D01*
X560997D02*
X556998D01*
X560997Y840999D01*
Y841998D01*
X559997Y842998D01*
X557998D01*
X556998Y841998D01*
X562996Y837000D02*
X564995D01*
X563996D01*
Y842998D01*
X562996Y841998D01*
X567994Y839999D02*
X571993D01*
X573993Y837000D02*
Y840999D01*
X575992Y842998D01*
X577991Y840999D01*
Y837000D01*
Y839999D01*
X573993D01*
X408500Y804000D02*
Y809998D01*
X411499D01*
X412499Y808998D01*
Y806999D01*
X411499Y805999D01*
X408500D01*
X410499D02*
X412499Y804000D01*
X414498D02*
X416497D01*
X415498D01*
Y809998D01*
X414498Y808998D01*
X419496D02*
X420496Y809998D01*
X422496D01*
X423495Y808998D01*
Y807999D01*
X422496Y806999D01*
X423495Y805999D01*
Y805000D01*
X422496Y804000D01*
X420496D01*
X419496Y805000D01*
Y805999D01*
X420496Y806999D01*
X419496Y807999D01*
Y808998D01*
X420496Y806999D02*
X422496D01*
X425494D02*
X429493D01*
X431493Y809998D02*
Y804000D01*
X434492D01*
X435491Y805000D01*
Y805999D01*
X434492Y806999D01*
X431493D01*
X434492D01*
X435491Y807999D01*
Y808998D01*
X434492Y809998D01*
X431493D01*
X452000Y837000D02*
Y842998D01*
X454999D01*
X455999Y841998D01*
Y839999D01*
X454999Y838999D01*
X452000D01*
X453999D02*
X455999Y837000D01*
X457998D02*
X459997D01*
X458998D01*
Y842998D01*
X457998Y841998D01*
X462996D02*
X463996Y842998D01*
X465996D01*
X466995Y841998D01*
Y840999D01*
X465996Y839999D01*
X466995Y838999D01*
Y838000D01*
X465996Y837000D01*
X463996D01*
X462996Y838000D01*
Y838999D01*
X463996Y839999D01*
X462996Y840999D01*
Y841998D01*
X463996Y839999D02*
X465996D01*
X468995D02*
X472993D01*
X474993Y837000D02*
Y840999D01*
X476992Y842998D01*
X478991Y840999D01*
Y837000D01*
Y839999D01*
X474993D01*
X310000Y804000D02*
Y809998D01*
X312999D01*
X313999Y808998D01*
Y806999D01*
X312999Y805999D01*
X310000D01*
X311999D02*
X313999Y804000D01*
X315998D02*
X317997D01*
X316998D01*
Y809998D01*
X315998Y808998D01*
X324995Y809998D02*
X320996D01*
Y806999D01*
X322996Y807999D01*
X323995D01*
X324995Y806999D01*
Y805000D01*
X323995Y804000D01*
X321996D01*
X320996Y805000D01*
X326994Y806999D02*
X330993D01*
X332993Y809998D02*
Y804000D01*
X335992D01*
X336991Y805000D01*
Y805999D01*
X335992Y806999D01*
X332993D01*
X335992D01*
X336991Y807999D01*
Y808998D01*
X335992Y809998D01*
X332993D01*
X353500Y836500D02*
Y842498D01*
X356499D01*
X357499Y841498D01*
Y839499D01*
X356499Y838499D01*
X353500D01*
X355499D02*
X357499Y836500D01*
X359498D02*
X361497D01*
X360498D01*
Y842498D01*
X359498Y841498D01*
X368495Y842498D02*
X364496D01*
Y839499D01*
X366496Y840499D01*
X367495D01*
X368495Y839499D01*
Y837500D01*
X367495Y836500D01*
X365496D01*
X364496Y837500D01*
X370495Y839499D02*
X374493D01*
X376493Y836500D02*
Y840499D01*
X378492Y842498D01*
X380491Y840499D01*
Y836500D01*
Y839499D01*
X376493D01*
X211500Y804000D02*
Y809998D01*
X214499D01*
X215499Y808998D01*
Y806999D01*
X214499Y805999D01*
X211500D01*
X213499D02*
X215499Y804000D01*
X217498D02*
X219497D01*
X218498D01*
Y809998D01*
X217498Y808998D01*
X226495Y804000D02*
X222496D01*
X226495Y807999D01*
Y808998D01*
X225496Y809998D01*
X223496D01*
X222496Y808998D01*
X228495Y806999D02*
X232493D01*
X234493Y809998D02*
Y804000D01*
X237492D01*
X238491Y805000D01*
Y805999D01*
X237492Y806999D01*
X234493D01*
X237492D01*
X238491Y807999D01*
Y808998D01*
X237492Y809998D01*
X234493D01*
X255000Y837000D02*
Y842998D01*
X257999D01*
X258999Y841998D01*
Y839999D01*
X257999Y838999D01*
X255000D01*
X256999D02*
X258999Y837000D01*
X260998D02*
X262997D01*
X261998D01*
Y842998D01*
X260998Y841998D01*
X269995Y837000D02*
X265996D01*
X269995Y840999D01*
Y841998D01*
X268995Y842998D01*
X266996D01*
X265996Y841998D01*
X271994Y839999D02*
X275993D01*
X277993Y837000D02*
Y840999D01*
X279992Y842998D01*
X281991Y840999D01*
Y837000D01*
Y839999D01*
X277993D01*
X115000Y803500D02*
Y809498D01*
X117999D01*
X118999Y808498D01*
Y806499D01*
X117999Y805499D01*
X115000D01*
X116999D02*
X118999Y803500D01*
X120998Y804500D02*
X121998Y803500D01*
X123997D01*
X124997Y804500D01*
Y808498D01*
X123997Y809498D01*
X121998D01*
X120998Y808498D01*
Y807499D01*
X121998Y806499D01*
X124997D01*
X126996D02*
X130995D01*
X132994Y809498D02*
Y803500D01*
X135993D01*
X136993Y804500D01*
Y805499D01*
X135993Y806499D01*
X132994D01*
X135993D01*
X136993Y807499D01*
Y808498D01*
X135993Y809498D01*
X132994D01*
X156500Y837000D02*
Y842998D01*
X159499D01*
X160499Y841998D01*
Y839999D01*
X159499Y838999D01*
X156500D01*
X158499D02*
X160499Y837000D01*
X162498Y838000D02*
X163498Y837000D01*
X165497D01*
X166497Y838000D01*
Y841998D01*
X165497Y842998D01*
X163498D01*
X162498Y841998D01*
Y840999D01*
X163498Y839999D01*
X166497D01*
X168496D02*
X172495D01*
X174494Y837000D02*
Y840999D01*
X176494Y842998D01*
X178493Y840999D01*
Y837000D01*
Y839999D01*
X174494D01*
X891999Y932498D02*
X890999Y933498D01*
X889000D01*
X888000Y932498D01*
Y928500D01*
X889000Y927500D01*
X890999D01*
X891999Y928500D01*
X893998Y932498D02*
X894998Y933498D01*
X896997D01*
X897997Y932498D01*
Y928500D01*
X896997Y927500D01*
X894998D01*
X893998Y928500D01*
Y932498D01*
X921293Y821897D02*
X920293Y822897D01*
X918294D01*
X917294Y821897D01*
Y817898D01*
X918294Y816899D01*
X920293D01*
X921293Y817898D01*
X923292Y816899D02*
X925292D01*
X924292D01*
Y822897D01*
X923292Y821897D01*
X813593Y856897D02*
X812593Y857897D01*
X810594D01*
X809594Y856897D01*
Y852898D01*
X810594Y851899D01*
X812593D01*
X813593Y852898D01*
X815592Y856897D02*
X816592Y857897D01*
X818591D01*
X819591Y856897D01*
Y855897D01*
X818591Y854898D01*
X817592D01*
X818591D01*
X819591Y853898D01*
Y852898D01*
X818591Y851899D01*
X816592D01*
X815592Y852898D01*
X799999Y754498D02*
X798999Y755498D01*
X797000D01*
X796000Y754498D01*
Y750500D01*
X797000Y749500D01*
X798999D01*
X799999Y750500D01*
X804997Y749500D02*
Y755498D01*
X801998Y752499D01*
X805997D01*
X855499Y753498D02*
X854499Y754498D01*
X852500D01*
X851500Y753498D01*
Y749500D01*
X852500Y748500D01*
X854499D01*
X855499Y749500D01*
X861497Y754498D02*
X857498D01*
Y751499D01*
X859497Y752499D01*
X860497D01*
X861497Y751499D01*
Y749500D01*
X860497Y748500D01*
X858498D01*
X857498Y749500D01*
X994788Y755796D02*
X993789Y756796D01*
X991789D01*
X990790Y755796D01*
Y751798D01*
X991789Y750798D01*
X993789D01*
X994788Y751798D01*
X1000786Y750798D02*
X996788D01*
X1000786Y754797D01*
Y755796D01*
X999787Y756796D01*
X997787D01*
X996788Y755796D01*
X990090Y733096D02*
Y727098D01*
X993089D01*
X994088Y728098D01*
Y732096D01*
X993089Y733096D01*
X990090D01*
X996088Y732096D02*
X997087Y733096D01*
X999087D01*
X1000086Y732096D01*
Y728098D01*
X999087Y727098D01*
X997087D01*
X996088Y728098D01*
Y732096D01*
X1021000Y761998D02*
Y756000D01*
X1023999D01*
X1024999Y757000D01*
Y760998D01*
X1023999Y761998D01*
X1021000D01*
X1026998Y756000D02*
X1028997D01*
X1027998D01*
Y761998D01*
X1026998Y760998D01*
X1043499Y826998D02*
X1041499D01*
X1042499D01*
Y822000D01*
X1041499Y821000D01*
X1040500D01*
X1039500Y822000D01*
X1045498Y825998D02*
X1046498Y826998D01*
X1048497D01*
X1049497Y825998D01*
Y822000D01*
X1048497Y821000D01*
X1046498D01*
X1045498Y822000D01*
Y825998D01*
X809000Y909298D02*
Y903300D01*
X812999D01*
X814998Y908298D02*
X815998Y909298D01*
X817997D01*
X818997Y908298D01*
Y904300D01*
X817997Y903300D01*
X815998D01*
X814998Y904300D01*
Y908298D01*
X868800Y836498D02*
Y830500D01*
X872799D01*
X874798D02*
X876797D01*
X875798D01*
Y836498D01*
X874798Y835498D01*
X80500Y811500D02*
Y817498D01*
X84499Y811500D01*
Y817498D01*
X86498Y816498D02*
X87498Y817498D01*
X89497D01*
X90497Y816498D01*
Y812500D01*
X89497Y811500D01*
X87498D01*
X86498Y812500D01*
Y816498D01*
X180100Y812000D02*
Y817998D01*
X184099Y812000D01*
Y817998D01*
X186098Y812000D02*
X188097D01*
X187098D01*
Y817998D01*
X186098Y816998D01*
X278600Y812000D02*
Y817998D01*
X282599Y812000D01*
Y817998D01*
X288597Y812000D02*
X284598D01*
X288597Y815999D01*
Y816998D01*
X287597Y817998D01*
X285598D01*
X284598Y816998D01*
X377000Y812000D02*
Y817998D01*
X380999Y812000D01*
Y817998D01*
X382998Y816998D02*
X383998Y817998D01*
X385997D01*
X386997Y816998D01*
Y815999D01*
X385997Y814999D01*
X384997D01*
X385997D01*
X386997Y813999D01*
Y813000D01*
X385997Y812000D01*
X383998D01*
X382998Y813000D01*
X475400Y812000D02*
Y817998D01*
X479399Y812000D01*
Y817998D01*
X484397Y812000D02*
Y817998D01*
X481398Y814999D01*
X485397D01*
X573800Y812000D02*
Y817998D01*
X577799Y812000D01*
Y817998D01*
X583797D02*
X579798D01*
Y814999D01*
X581797Y815999D01*
X582797D01*
X583797Y814999D01*
Y813000D01*
X582797Y812000D01*
X580798D01*
X579798Y813000D01*
X166399Y903600D02*
Y907598D01*
X165399Y908598D01*
X163400D01*
X162400Y907598D01*
Y903600D01*
X163400Y902600D01*
X165399D01*
X164399Y904599D02*
X166399Y902600D01*
X165399D02*
X166399Y903600D01*
X168398Y907598D02*
X169398Y908598D01*
X171397D01*
X172397Y907598D01*
Y903600D01*
X171397Y902600D01*
X169398D01*
X168398Y903600D01*
Y907598D01*
X104499Y872200D02*
Y876198D01*
X103499Y877198D01*
X101500D01*
X100500Y876198D01*
Y872200D01*
X101500Y871200D01*
X103499D01*
X102499Y873199D02*
X104499Y871200D01*
X103499D02*
X104499Y872200D01*
X106498Y871200D02*
X108497D01*
X107498D01*
Y877198D01*
X106498Y876198D01*
X264799Y903600D02*
Y907598D01*
X263799Y908598D01*
X261800D01*
X260800Y907598D01*
Y903600D01*
X261800Y902600D01*
X263799D01*
X262799Y904599D02*
X264799Y902600D01*
X263799D02*
X264799Y903600D01*
X270797Y902600D02*
X266798D01*
X270797Y906599D01*
Y907598D01*
X269797Y908598D01*
X267798D01*
X266798Y907598D01*
X199499Y901500D02*
Y905498D01*
X198499Y906498D01*
X196500D01*
X195500Y905498D01*
Y901500D01*
X196500Y900500D01*
X198499D01*
X197499Y902499D02*
X199499Y900500D01*
X198499D02*
X199499Y901500D01*
X201498Y905498D02*
X202498Y906498D01*
X204497D01*
X205497Y905498D01*
Y904499D01*
X204497Y903499D01*
X203497D01*
X204497D01*
X205497Y902499D01*
Y901500D01*
X204497Y900500D01*
X202498D01*
X201498Y901500D01*
X363199Y903600D02*
Y907598D01*
X362199Y908598D01*
X360200D01*
X359200Y907598D01*
Y903600D01*
X360200Y902600D01*
X362199D01*
X361199Y904599D02*
X363199Y902600D01*
X362199D02*
X363199Y903600D01*
X368197Y902600D02*
Y908598D01*
X365198Y905599D01*
X369197D01*
X297899Y901500D02*
Y905498D01*
X296899Y906498D01*
X294900D01*
X293900Y905498D01*
Y901500D01*
X294900Y900500D01*
X296899D01*
X295899Y902499D02*
X297899Y900500D01*
X296899D02*
X297899Y901500D01*
X303897Y906498D02*
X299898D01*
Y903499D01*
X301897Y904499D01*
X302897D01*
X303897Y903499D01*
Y901500D01*
X302897Y900500D01*
X300898D01*
X299898Y901500D01*
X461699Y903600D02*
Y907598D01*
X460699Y908598D01*
X458700D01*
X457700Y907598D01*
Y903600D01*
X458700Y902600D01*
X460699D01*
X459699Y904599D02*
X461699Y902600D01*
X460699D02*
X461699Y903600D01*
X467697Y908598D02*
X465697Y907598D01*
X463698Y905599D01*
Y903600D01*
X464698Y902600D01*
X466697D01*
X467697Y903600D01*
Y904599D01*
X466697Y905599D01*
X463698D01*
X396299Y901500D02*
Y905498D01*
X395299Y906498D01*
X393300D01*
X392300Y905498D01*
Y901500D01*
X393300Y900500D01*
X395299D01*
X394299Y902499D02*
X396299Y900500D01*
X395299D02*
X396299Y901500D01*
X398298Y906498D02*
X402297D01*
Y905498D01*
X398298Y901500D01*
Y900500D01*
X560099Y903600D02*
Y907598D01*
X559099Y908598D01*
X557100D01*
X556100Y907598D01*
Y903600D01*
X557100Y902600D01*
X559099D01*
X558099Y904599D02*
X560099Y902600D01*
X559099D02*
X560099Y903600D01*
X562098Y907598D02*
X563098Y908598D01*
X565097D01*
X566097Y907598D01*
Y906599D01*
X565097Y905599D01*
X566097Y904599D01*
Y903600D01*
X565097Y902600D01*
X563098D01*
X562098Y903600D01*
Y904599D01*
X563098Y905599D01*
X562098Y906599D01*
Y907598D01*
X563098Y905599D02*
X565097D01*
X494799Y901500D02*
Y905498D01*
X493799Y906498D01*
X491800D01*
X490800Y905498D01*
Y901500D01*
X491800Y900500D01*
X493799D01*
X492799Y902499D02*
X494799Y900500D01*
X493799D02*
X494799Y901500D01*
X496798D02*
X497798Y900500D01*
X499797D01*
X500797Y901500D01*
Y905498D01*
X499797Y906498D01*
X497798D01*
X496798Y905498D01*
Y904499D01*
X497798Y903499D01*
X500797D01*
X682118Y929850D02*
Y933849D01*
X681118Y934848D01*
X679119D01*
X678119Y933849D01*
Y929850D01*
X679119Y928850D01*
X681118D01*
X680118Y930850D02*
X682118Y928850D01*
X681118D02*
X682118Y929850D01*
X684117Y928850D02*
X686116D01*
X685117D01*
Y934848D01*
X684117Y933849D01*
X689115D02*
X690115Y934848D01*
X692114D01*
X693114Y933849D01*
Y929850D01*
X692114Y928850D01*
X690115D01*
X689115Y929850D01*
Y933849D01*
X593199Y901500D02*
Y905498D01*
X592199Y906498D01*
X590200D01*
X589200Y905498D01*
Y901500D01*
X590200Y900500D01*
X592199D01*
X591199Y902499D02*
X593199Y900500D01*
X592199D02*
X593199Y901500D01*
X595198Y900500D02*
X597197D01*
X596198D01*
Y906498D01*
X595198Y905498D01*
X600196Y900500D02*
X602196D01*
X601196D01*
Y906498D01*
X600196Y905498D01*
X812499Y806000D02*
Y809998D01*
X811499Y810998D01*
X809500D01*
X808500Y809998D01*
Y806000D01*
X809500Y805000D01*
X811499D01*
X810499Y806999D02*
X812499Y805000D01*
X811499D02*
X812499Y806000D01*
X814498Y805000D02*
X816497D01*
X815498D01*
Y810998D01*
X814498Y809998D01*
X823495Y805000D02*
X819496D01*
X823495Y808999D01*
Y809998D01*
X822495Y810998D01*
X820496D01*
X819496Y809998D01*
X987293Y811698D02*
Y815697D01*
X986293Y816697D01*
X984294D01*
X983294Y815697D01*
Y811698D01*
X984294Y810699D01*
X986293D01*
X985294Y812698D02*
X987293Y810699D01*
X986293D02*
X987293Y811698D01*
X989292Y810699D02*
X991292D01*
X990292D01*
Y816697D01*
X989292Y815697D01*
X994291D02*
X995290Y816697D01*
X997290D01*
X998289Y815697D01*
Y814697D01*
X997290Y813698D01*
X996290D01*
X997290D01*
X998289Y812698D01*
Y811698D01*
X997290Y810699D01*
X995290D01*
X994291Y811698D01*
X1020000Y953500D02*
Y959498D01*
X1022999D01*
X1023999Y958498D01*
Y956499D01*
X1022999Y955499D01*
X1020000D01*
X1021999D02*
X1023999Y953500D01*
X1025998Y958498D02*
X1026998Y959498D01*
X1028997D01*
X1029997Y958498D01*
Y954500D01*
X1028997Y953500D01*
X1026998D01*
X1025998Y954500D01*
Y958498D01*
X991500Y954000D02*
Y959998D01*
X994499D01*
X995499Y958998D01*
Y956999D01*
X994499Y955999D01*
X991500D01*
X993499D02*
X995499Y954000D01*
X997498D02*
X999497D01*
X998498D01*
Y959998D01*
X997498Y958998D01*
X956500Y954000D02*
Y959998D01*
X959499D01*
X960499Y958998D01*
Y956999D01*
X959499Y955999D01*
X956500D01*
X958499D02*
X960499Y954000D01*
X966497D02*
X962498D01*
X966497Y957999D01*
Y958998D01*
X965497Y959998D01*
X963498D01*
X962498Y958998D01*
X926000Y954000D02*
Y959998D01*
X928999D01*
X929999Y958998D01*
Y956999D01*
X928999Y955999D01*
X926000D01*
X927999D02*
X929999Y954000D01*
X931998Y958998D02*
X932998Y959998D01*
X934997D01*
X935997Y958998D01*
Y957999D01*
X934997Y956999D01*
X933997D01*
X934997D01*
X935997Y955999D01*
Y955000D01*
X934997Y954000D01*
X932998D01*
X931998Y955000D01*
X928700Y864400D02*
Y870398D01*
X931699D01*
X932699Y869398D01*
Y867399D01*
X931699Y866399D01*
X928700D01*
X930699D02*
X932699Y864400D01*
X937697D02*
Y870398D01*
X934698Y867399D01*
X938697D01*
X905500Y746500D02*
Y752498D01*
X908499D01*
X909499Y751498D01*
Y749499D01*
X908499Y748499D01*
X905500D01*
X907499D02*
X909499Y746500D01*
X915497Y752498D02*
X911498D01*
Y749499D01*
X913497Y750499D01*
X914497D01*
X915497Y749499D01*
Y747500D01*
X914497Y746500D01*
X912498D01*
X911498Y747500D01*
X945000Y727000D02*
Y732998D01*
X947999D01*
X948999Y731998D01*
Y729999D01*
X947999Y728999D01*
X945000D01*
X946999D02*
X948999Y727000D01*
X954997Y732998D02*
X952997Y731998D01*
X950998Y729999D01*
Y728000D01*
X951998Y727000D01*
X953997D01*
X954997Y728000D01*
Y728999D01*
X953997Y729999D01*
X950998D01*
X989590Y702198D02*
Y708196D01*
X992589D01*
X993588Y707197D01*
Y705197D01*
X992589Y704198D01*
X989590D01*
X991589D02*
X993588Y702198D01*
X995588Y708196D02*
X999586D01*
Y707197D01*
X995588Y703198D01*
Y702198D01*
X809994Y699999D02*
Y705997D01*
X812993D01*
X813993Y704997D01*
Y702998D01*
X812993Y701998D01*
X809994D01*
X811994D02*
X813993Y699999D01*
X815992Y704997D02*
X816992Y705997D01*
X818991D01*
X819991Y704997D01*
Y703997D01*
X818991Y702998D01*
X819991Y701998D01*
Y700998D01*
X818991Y699999D01*
X816992D01*
X815992Y700998D01*
Y701998D01*
X816992Y702998D01*
X815992Y703997D01*
Y704997D01*
X816992Y702998D02*
X818991D01*
X79200Y900200D02*
Y906198D01*
X82199D01*
X83199Y905198D01*
Y903199D01*
X82199Y902199D01*
X79200D01*
X81199D02*
X83199Y900200D01*
X85198D02*
X87197D01*
X86198D01*
Y906198D01*
X85198Y905198D01*
X90196D02*
X91196Y906198D01*
X93195D01*
X94195Y905198D01*
Y901200D01*
X93195Y900200D01*
X91196D01*
X90196Y901200D01*
Y905198D01*
X136300Y934100D02*
Y940098D01*
X139299D01*
X140299Y939098D01*
Y937099D01*
X139299Y936099D01*
X136300D01*
X138299D02*
X140299Y934100D01*
X142298D02*
X144297D01*
X143298D01*
Y940098D01*
X142298Y939098D01*
X147296Y934100D02*
X149296D01*
X148296D01*
Y940098D01*
X147296Y939098D01*
X164008Y865299D02*
Y871297D01*
X167007D01*
X168007Y870298D01*
Y868298D01*
X167007Y867299D01*
X164008D01*
X166007D02*
X168007Y865299D01*
X170006D02*
X172005D01*
X171006D01*
Y871297D01*
X170006Y870298D01*
X175004D02*
X176004Y871297D01*
X178003D01*
X179003Y870298D01*
Y869298D01*
X178003Y868298D01*
X177004D01*
X178003D01*
X179003Y867299D01*
Y866299D01*
X178003Y865299D01*
X176004D01*
X175004Y866299D01*
X234800Y934100D02*
Y940098D01*
X237799D01*
X238799Y939098D01*
Y937099D01*
X237799Y936099D01*
X234800D01*
X236799D02*
X238799Y934100D01*
X240798D02*
X242797D01*
X241798D01*
Y940098D01*
X240798Y939098D01*
X248796Y934100D02*
Y940098D01*
X245796Y937099D01*
X249795D01*
X261933Y863299D02*
Y869297D01*
X264932D01*
X265932Y868298D01*
Y866298D01*
X264932Y865299D01*
X261933D01*
X263932D02*
X265932Y863299D01*
X267931D02*
X269931D01*
X268931D01*
Y869297D01*
X267931Y868298D01*
X276928Y869297D02*
X274929Y868298D01*
X272930Y866298D01*
Y864299D01*
X273929Y863299D01*
X275928D01*
X276928Y864299D01*
Y865299D01*
X275928Y866298D01*
X272930D01*
X333200Y934100D02*
Y940098D01*
X336199D01*
X337199Y939098D01*
Y937099D01*
X336199Y936099D01*
X333200D01*
X335199D02*
X337199Y934100D01*
X339198D02*
X341197D01*
X340198D01*
Y940098D01*
X339198Y939098D01*
X344196Y940098D02*
X348195D01*
Y939098D01*
X344196Y935100D01*
Y934100D01*
X360858Y863799D02*
Y869797D01*
X363857D01*
X364857Y868798D01*
Y866798D01*
X363857Y865799D01*
X360858D01*
X362858D02*
X364857Y863799D01*
X366856D02*
X368856D01*
X367856D01*
Y869797D01*
X366856Y868798D01*
X371855Y864799D02*
X372854Y863799D01*
X374854D01*
X375853Y864799D01*
Y868798D01*
X374854Y869797D01*
X372854D01*
X371855Y868798D01*
Y867798D01*
X372854Y866798D01*
X375853D01*
X431600Y934100D02*
Y940098D01*
X434599D01*
X435599Y939098D01*
Y937099D01*
X434599Y936099D01*
X431600D01*
X433599D02*
X435599Y934100D01*
X441597D02*
X437598D01*
X441597Y938099D01*
Y939098D01*
X440597Y940098D01*
X438598D01*
X437598Y939098D01*
X443596D02*
X444596Y940098D01*
X446595D01*
X447595Y939098D01*
Y935100D01*
X446595Y934100D01*
X444596D01*
X443596Y935100D01*
Y939098D01*
X459571Y864831D02*
Y870829D01*
X462570D01*
X463570Y869829D01*
Y867830D01*
X462570Y866830D01*
X459571D01*
X461570D02*
X463570Y864831D01*
X469568D02*
X465569D01*
X469568Y868829D01*
Y869829D01*
X468568Y870829D01*
X466569D01*
X465569Y869829D01*
X475566Y864831D02*
X471567D01*
X475566Y868829D01*
Y869829D01*
X474566Y870829D01*
X472567D01*
X471567Y869829D01*
X530000Y934100D02*
Y940098D01*
X532999D01*
X533999Y939098D01*
Y937099D01*
X532999Y936099D01*
X530000D01*
X531999D02*
X533999Y934100D01*
X539997D02*
X535998D01*
X539997Y938099D01*
Y939098D01*
X538997Y940098D01*
X536998D01*
X535998Y939098D01*
X541996D02*
X542996Y940098D01*
X544995D01*
X545995Y939098D01*
Y938099D01*
X544995Y937099D01*
X543996D01*
X544995D01*
X545995Y936099D01*
Y935100D01*
X544995Y934100D01*
X542996D01*
X541996Y935100D01*
X555142Y863831D02*
Y869829D01*
X558141D01*
X559140Y868829D01*
Y866830D01*
X558141Y865830D01*
X555142D01*
X557141D02*
X559140Y863831D01*
X565138D02*
X561140D01*
X565138Y867829D01*
Y868829D01*
X564139Y869829D01*
X562140D01*
X561140Y868829D01*
X571137Y869829D02*
X567138D01*
Y866830D01*
X569137Y867829D01*
X570137D01*
X571137Y866830D01*
Y864830D01*
X570137Y863831D01*
X568138D01*
X567138Y864830D01*
X628500Y934100D02*
Y940098D01*
X631499D01*
X632499Y939098D01*
Y937099D01*
X631499Y936099D01*
X628500D01*
X630499D02*
X632499Y934100D01*
X638497D02*
X634498D01*
X638497Y938099D01*
Y939098D01*
X637497Y940098D01*
X635498D01*
X634498Y939098D01*
X644495Y940098D02*
X642495Y939098D01*
X640496Y937099D01*
Y935100D01*
X641496Y934100D01*
X643495D01*
X644495Y935100D01*
Y936099D01*
X643495Y937099D01*
X640496D01*
X162800Y930500D02*
Y936498D01*
X165799D01*
X166799Y935498D01*
Y933499D01*
X165799Y932499D01*
X162800D01*
X164799D02*
X166799Y930500D01*
X172797D02*
X168798D01*
X172797Y934499D01*
Y935498D01*
X171797Y936498D01*
X169798D01*
X168798Y935498D01*
X174796Y936498D02*
X178795D01*
Y935498D01*
X174796Y931500D01*
Y930500D01*
X261200D02*
Y936498D01*
X264199D01*
X265199Y935498D01*
Y933499D01*
X264199Y932499D01*
X261200D01*
X263199D02*
X265199Y930500D01*
X271197D02*
X267198D01*
X271197Y934499D01*
Y935498D01*
X270197Y936498D01*
X268198D01*
X267198Y935498D01*
X273196D02*
X274196Y936498D01*
X276195D01*
X277195Y935498D01*
Y934499D01*
X276195Y933499D01*
X277195Y932499D01*
Y931500D01*
X276195Y930500D01*
X274196D01*
X273196Y931500D01*
Y932499D01*
X274196Y933499D01*
X273196Y934499D01*
Y935498D01*
X274196Y933499D02*
X276195D01*
X359600Y930500D02*
Y936498D01*
X362599D01*
X363599Y935498D01*
Y933499D01*
X362599Y932499D01*
X359600D01*
X361599D02*
X363599Y930500D01*
X369597D02*
X365598D01*
X369597Y934499D01*
Y935498D01*
X368597Y936498D01*
X366598D01*
X365598Y935498D01*
X371596Y931500D02*
X372596Y930500D01*
X374595D01*
X375595Y931500D01*
Y935498D01*
X374595Y936498D01*
X372596D01*
X371596Y935498D01*
Y934499D01*
X372596Y933499D01*
X375595D01*
X458000Y930500D02*
Y936498D01*
X460999D01*
X461999Y935498D01*
Y933499D01*
X460999Y932499D01*
X458000D01*
X459999D02*
X461999Y930500D01*
X463998Y935498D02*
X464998Y936498D01*
X466997D01*
X467997Y935498D01*
Y934499D01*
X466997Y933499D01*
X465997D01*
X466997D01*
X467997Y932499D01*
Y931500D01*
X466997Y930500D01*
X464998D01*
X463998Y931500D01*
X469996Y935498D02*
X470996Y936498D01*
X472995D01*
X473995Y935498D01*
Y931500D01*
X472995Y930500D01*
X470996D01*
X469996Y931500D01*
Y935498D01*
X556500Y930500D02*
Y936498D01*
X559499D01*
X560499Y935498D01*
Y933499D01*
X559499Y932499D01*
X556500D01*
X558499D02*
X560499Y930500D01*
X562498Y935498D02*
X563498Y936498D01*
X565497D01*
X566497Y935498D01*
Y934499D01*
X565497Y933499D01*
X564497D01*
X565497D01*
X566497Y932499D01*
Y931500D01*
X565497Y930500D01*
X563498D01*
X562498Y931500D01*
X568496Y930500D02*
X570496D01*
X569496D01*
Y936498D01*
X568496Y935498D01*
X678800Y885200D02*
Y891198D01*
X681799D01*
X682799Y890198D01*
Y888199D01*
X681799Y887199D01*
X678800D01*
X680799D02*
X682799Y885200D01*
X684798Y890198D02*
X685798Y891198D01*
X687797D01*
X688797Y890198D01*
Y889199D01*
X687797Y888199D01*
X686797D01*
X687797D01*
X688797Y887199D01*
Y886200D01*
X687797Y885200D01*
X685798D01*
X684798Y886200D01*
X694795Y885200D02*
X690796D01*
X694795Y889199D01*
Y890198D01*
X693795Y891198D01*
X691796D01*
X690796Y890198D01*
X867794Y897797D02*
Y892798D01*
X868794Y891799D01*
X870793D01*
X871793Y892798D01*
Y897797D01*
X873792Y896797D02*
X874792Y897797D01*
X876791D01*
X877791Y896797D01*
Y892798D01*
X876791Y891799D01*
X874792D01*
X873792Y892798D01*
Y896797D01*
X932294Y794697D02*
Y789698D01*
X933294Y788699D01*
X935293D01*
X936293Y789698D01*
Y794697D01*
X938292Y788699D02*
X940292D01*
X939292D01*
Y794697D01*
X938292Y793697D01*
X721500Y960998D02*
Y956000D01*
X722500Y955000D01*
X724499D01*
X725499Y956000D01*
Y960998D01*
X731497Y955000D02*
X727498D01*
X731497Y958999D01*
Y959998D01*
X730497Y960998D01*
X728498D01*
X727498Y959998D01*
X668000Y791998D02*
Y787000D01*
X669000Y786000D01*
X670999D01*
X671999Y787000D01*
Y791998D01*
X673998Y790998D02*
X674998Y791998D01*
X676997D01*
X677997Y790998D01*
Y789999D01*
X676997Y788999D01*
X675997D01*
X676997D01*
X677997Y787999D01*
Y787000D01*
X676997Y786000D01*
X674998D01*
X673998Y787000D01*
X806794Y948297D02*
Y942299D01*
X809793D01*
X810793Y943298D01*
Y947297D01*
X809793Y948297D01*
X806794D01*
X816791Y942299D02*
X812792D01*
X816791Y946297D01*
Y947297D01*
X815791Y948297D01*
X813792D01*
X812792Y947297D01*
X869500Y724999D02*
X873499D01*
X871499Y726998D02*
Y723000D01*
X746500Y794501D02*
Y798500D01*
X744501D01*
X743834Y797834D01*
Y795168D01*
X744501Y794501D01*
X746500D01*
X742501Y798500D02*
X741168D01*
X741835D01*
Y794501D01*
X742501Y795168D01*
X736503Y798500D02*
X739169D01*
X736503Y795834D01*
Y795168D01*
X737170Y794501D01*
X738503D01*
X739169Y795168D01*
X746500Y804501D02*
Y808500D01*
X744501D01*
X743834Y807834D01*
Y805168D01*
X744501Y804501D01*
X746500D01*
X742501Y808500D02*
X741168D01*
X741835D01*
Y804501D01*
X742501Y805168D01*
X739169Y808500D02*
X737836D01*
X738503D01*
Y804501D01*
X739169Y805168D01*
X746500Y814501D02*
Y818500D01*
X744501D01*
X743834Y817834D01*
Y815168D01*
X744501Y814501D01*
X746500D01*
X742501Y818500D02*
X741168D01*
X741835D01*
Y814501D01*
X742501Y815168D01*
X739169D02*
X738503Y814501D01*
X737170D01*
X736503Y815168D01*
Y817834D01*
X737170Y818500D01*
X738503D01*
X739169Y817834D01*
Y815168D01*
X746500Y844501D02*
Y848500D01*
X744501D01*
X743834Y847834D01*
Y845168D01*
X744501Y844501D01*
X746500D01*
X742501D02*
X739836D01*
Y845168D01*
X742501Y847834D01*
Y848500D01*
X746500Y834501D02*
Y838500D01*
X744501D01*
X743834Y837833D01*
Y835168D01*
X744501Y834501D01*
X746500D01*
X742501Y835168D02*
X741835Y834501D01*
X740502D01*
X739836Y835168D01*
Y835834D01*
X740502Y836501D01*
X739836Y837167D01*
Y837833D01*
X740502Y838500D01*
X741835D01*
X742501Y837833D01*
Y837167D01*
X741835Y836501D01*
X742501Y835834D01*
Y835168D01*
X741835Y836501D02*
X740502D01*
X746500Y824501D02*
Y828500D01*
X744501D01*
X743834Y827833D01*
Y825168D01*
X744501Y824501D01*
X746500D01*
X742501Y827833D02*
X741835Y828500D01*
X740502D01*
X739836Y827833D01*
Y825168D01*
X740502Y824501D01*
X741835D01*
X742501Y825168D01*
Y825834D01*
X741835Y826501D01*
X739836D01*
X746500Y874501D02*
Y878500D01*
X744501D01*
X743834Y877833D01*
Y875168D01*
X744501Y874501D01*
X746500D01*
X740502Y878500D02*
Y874501D01*
X742501Y876501D01*
X739836D01*
X746500Y864501D02*
Y868500D01*
X744501D01*
X743834Y867834D01*
Y865168D01*
X744501Y864501D01*
X746500D01*
X739836D02*
X742501D01*
Y866501D01*
X741168Y865834D01*
X740502D01*
X739836Y866501D01*
Y867834D01*
X740502Y868500D01*
X741835D01*
X742501Y867834D01*
X746500Y854501D02*
Y858500D01*
X744501D01*
X743834Y857833D01*
Y855168D01*
X744501Y854501D01*
X746500D01*
X739836D02*
X741168Y855168D01*
X742501Y856501D01*
Y857833D01*
X741835Y858500D01*
X740502D01*
X739836Y857833D01*
Y857167D01*
X740502Y856501D01*
X742501D01*
X743834Y905168D02*
X744501Y904501D01*
X745834D01*
X746500Y905168D01*
Y907833D01*
X745834Y908500D01*
X744501D01*
X743834Y907833D01*
Y906501D01*
X745167D01*
X742501Y908500D02*
Y904501D01*
X739836Y908500D01*
Y904501D01*
X738503D02*
Y908500D01*
X736503D01*
X735837Y907833D01*
Y905168D01*
X736503Y904501D01*
X738503D01*
X746500Y894501D02*
Y898500D01*
X744501D01*
X743834Y897834D01*
Y895168D01*
X744501Y894501D01*
X746500D01*
X739836Y898500D02*
X742501D01*
X739836Y895834D01*
Y895168D01*
X740502Y894501D01*
X741835D01*
X742501Y895168D01*
X746500Y884501D02*
Y888500D01*
X744501D01*
X743834Y887833D01*
Y885168D01*
X744501Y884501D01*
X746500D01*
X742501Y885168D02*
X741835Y884501D01*
X740502D01*
X739836Y885168D01*
Y885834D01*
X740502Y886501D01*
X741168D01*
X740502D01*
X739836Y887167D01*
Y887833D01*
X740502Y888500D01*
X741835D01*
X742501Y887833D01*
X746500Y934501D02*
X743834D01*
X745167D01*
Y938500D01*
X742501Y934501D02*
X739836Y938500D01*
Y934501D02*
X742501Y938500D01*
X738503D02*
X737170D01*
X737836D01*
Y934501D01*
X738503Y935168D01*
X746500Y928500D02*
Y924501D01*
X744501D01*
X743834Y925168D01*
Y926501D01*
X744501Y927167D01*
X746500D01*
X745167D02*
X743834Y928500D01*
X742501Y924501D02*
X739836Y928500D01*
Y924501D02*
X742501Y928500D01*
X738503D02*
X737170D01*
X737836D01*
Y924501D01*
X738503Y925168D01*
X746500Y918500D02*
Y914501D01*
X744501D01*
X743834Y915168D01*
Y916501D01*
X744501Y917167D01*
X746500D01*
X745167D02*
X743834Y918500D01*
X739836Y915168D02*
X740502Y914501D01*
X741835D01*
X742501Y915168D01*
Y915834D01*
X741835Y916501D01*
X740502D01*
X739836Y917167D01*
Y917834D01*
X740502Y918500D01*
X741835D01*
X742501Y917834D01*
X738503Y914501D02*
X735837D01*
X737170D01*
Y918500D01*
X777000D02*
Y914501D01*
X775001D01*
X774334Y915168D01*
Y916501D01*
X775001Y917167D01*
X777000D01*
X775667D02*
X774334Y918500D01*
X770335Y915168D02*
X771002Y914501D01*
X772335D01*
X773001Y915168D01*
Y915834D01*
X772335Y916501D01*
X771002D01*
X770335Y917167D01*
Y917834D01*
X771002Y918500D01*
X772335D01*
X773001Y917834D01*
X769003Y914501D02*
X766337D01*
X767670D01*
Y918500D01*
X774334Y925168D02*
X775001Y924501D01*
X776334D01*
X777000Y925168D01*
Y927833D01*
X776334Y928500D01*
X775001D01*
X774334Y927833D01*
Y926501D01*
X775667D01*
X773001Y928500D02*
Y924501D01*
X770335Y928500D01*
Y924501D01*
X769003D02*
Y928500D01*
X767003D01*
X766337Y927833D01*
Y925168D01*
X767003Y924501D01*
X769003D01*
X777000Y934501D02*
Y937167D01*
X775667Y938500D01*
X774334Y937167D01*
Y934501D01*
X773001D02*
X771668D01*
X772335D01*
Y938500D01*
X773001D01*
X771668D01*
X769669D02*
Y934501D01*
X767003Y938500D01*
Y934501D01*
X777000Y888500D02*
Y885834D01*
X775667Y884501D01*
X774334Y885834D01*
Y888500D01*
Y886501D01*
X777000D01*
X770335Y884501D02*
X771668Y885168D01*
X773001Y886501D01*
Y887833D01*
X772335Y888500D01*
X771002D01*
X770335Y887833D01*
Y887167D01*
X771002Y886501D01*
X773001D01*
X777000Y898500D02*
Y895834D01*
X775667Y894501D01*
X774334Y895834D01*
Y898500D01*
Y896501D01*
X777000D01*
X773001Y894501D02*
X770335D01*
Y895168D01*
X773001Y897834D01*
Y898500D01*
X774334Y904501D02*
X777000D01*
Y906501D01*
X775667Y905834D01*
X775001D01*
X774334Y906501D01*
Y907833D01*
X775001Y908500D01*
X776334D01*
X777000Y907833D01*
X773001Y904501D02*
Y907167D01*
X771668Y908500D01*
X770335Y907167D01*
Y904501D01*
X777000Y858500D02*
Y855834D01*
X775667Y854501D01*
X774334Y855834D01*
Y858500D01*
Y856501D01*
X777000D01*
X773001Y855168D02*
X772335Y854501D01*
X771002D01*
X770335Y855168D01*
Y855834D01*
X771002Y856501D01*
X771668D01*
X771002D01*
X770335Y857167D01*
Y857833D01*
X771002Y858500D01*
X772335D01*
X773001Y857833D01*
X777000Y868500D02*
Y865834D01*
X775667Y864501D01*
X774334Y865834D01*
Y868500D01*
Y866501D01*
X777000D01*
X771002Y868500D02*
Y864501D01*
X773001Y866501D01*
X770335D01*
X777000Y878500D02*
Y875834D01*
X775667Y874501D01*
X774334Y875834D01*
Y878500D01*
Y876501D01*
X777000D01*
X770335Y874501D02*
X773001D01*
Y876501D01*
X771668Y875834D01*
X771002D01*
X770335Y876501D01*
Y877833D01*
X771002Y878500D01*
X772335D01*
X773001Y877833D01*
X777000Y828500D02*
Y825834D01*
X775667Y824501D01*
X774334Y825834D01*
Y828500D01*
Y826501D01*
X777000D01*
X773001Y825168D02*
X772335Y824501D01*
X771002D01*
X770335Y825168D01*
Y827833D01*
X771002Y828500D01*
X772335D01*
X773001Y827833D01*
Y825168D01*
X777000Y838500D02*
Y835834D01*
X775667Y834501D01*
X774334Y835834D01*
Y838500D01*
Y836501D01*
X777000D01*
X773001Y838500D02*
X771668D01*
X772335D01*
Y834501D01*
X773001Y835168D01*
X777000Y848500D02*
Y845834D01*
X775667Y844501D01*
X774334Y845834D01*
Y848500D01*
Y846501D01*
X777000D01*
X770335Y848500D02*
X773001D01*
X770335Y845834D01*
Y845168D01*
X771002Y844501D01*
X772335D01*
X773001Y845168D01*
X777000Y814501D02*
Y817167D01*
X775667Y818500D01*
X774334Y817167D01*
Y814501D01*
X773001Y818500D02*
Y814501D01*
X771002D01*
X770335Y815168D01*
Y816501D01*
X771002Y817167D01*
X773001D01*
X771668D02*
X770335Y818500D01*
X766337Y814501D02*
X769003D01*
Y818500D01*
X766337D01*
X769003Y816501D02*
X767670D01*
X762338Y814501D02*
X765004D01*
Y816501D01*
X763671D01*
X765004D01*
Y818500D01*
X777000Y805168D02*
X776334Y804501D01*
X775001D01*
X774334Y805168D01*
Y805834D01*
X775001Y806501D01*
X775667D01*
X775001D01*
X774334Y807167D01*
Y807834D01*
X775001Y808500D01*
X776334D01*
X777000Y807834D01*
X773001Y804501D02*
Y807167D01*
X771668Y808500D01*
X770335Y807167D01*
Y804501D01*
X769003Y805168D02*
X768336Y804501D01*
X767003D01*
X766337Y805168D01*
Y805834D01*
X767003Y806501D01*
X767670D01*
X767003D01*
X766337Y807167D01*
Y807834D01*
X767003Y808500D01*
X768336D01*
X769003Y807834D01*
X777000Y794501D02*
Y798500D01*
X775001D01*
X774334Y797834D01*
Y795168D01*
X775001Y794501D01*
X777000D01*
X773001Y798500D02*
X771668D01*
X772335D01*
Y794501D01*
X773001Y795168D01*
X769669D02*
X769003Y794501D01*
X767670D01*
X767003Y795168D01*
Y795834D01*
X767670Y796501D01*
X768336D01*
X767670D01*
X767003Y797167D01*
Y797834D01*
X767670Y798500D01*
X769003D01*
X769669Y797834D01*
X145669Y884842D02*
Y886842D01*
Y885842D01*
X139671D01*
X140671Y884842D01*
X145669Y889841D02*
X139671D01*
X141671Y891840D01*
X139671Y893840D01*
X145669D01*
X244094Y884842D02*
Y886842D01*
Y885842D01*
X238096D01*
X239096Y884842D01*
X244094Y889841D02*
X238096D01*
X240096Y891840D01*
X238096Y893840D01*
X244094D01*
X342520Y884842D02*
Y886842D01*
Y885842D01*
X336522D01*
X337521Y884842D01*
X342520Y889841D02*
X336522D01*
X338521Y891840D01*
X336522Y893840D01*
X342520D01*
X440945Y884842D02*
Y886842D01*
Y885842D01*
X434947D01*
X435947Y884842D01*
X440945Y889841D02*
X434947D01*
X436946Y891840D01*
X434947Y893840D01*
X440945D01*
X539370Y884842D02*
Y886842D01*
Y885842D01*
X533372D01*
X534372Y884842D01*
X539370Y889841D02*
X533372D01*
X535371Y891840D01*
X533372Y893840D01*
X539370D01*
X637795Y884842D02*
Y886842D01*
Y885842D01*
X631797D01*
X632797Y884842D01*
X637795Y889841D02*
X631797D01*
X633797Y891840D01*
X631797Y893840D01*
X637795D01*
D48*
X916000Y915500D02*
G03*
X916000Y915500I-12500J0D01*
G01*
X104617Y858586D02*
G03*
X121176Y858169I8383J3914D01*
G01*
X105386Y867756D02*
G03*
X104616Y866413I7614J-5256D01*
G01*
X121177Y866829D02*
G03*
X120614Y867756I-8177J-4329D01*
G01*
X219013Y891710D02*
G03*
X202454Y892126I-8383J-3914D01*
G01*
X218244Y882539D02*
G03*
X219014Y883882I-7614J5256D01*
G01*
X202453Y883466D02*
G03*
X203016Y882539I8177J4329D01*
G01*
X317438Y891710D02*
G03*
X300879Y892126I-8383J-3914D01*
G01*
X316669Y882539D02*
G03*
X317439Y883882I-7614J5256D01*
G01*
X300879Y883466D02*
G03*
X301441Y882539I8177J4329D01*
G01*
X415863Y891710D02*
G03*
X399305Y892126I-8383J-3914D01*
G01*
X415094Y882539D02*
G03*
X415864Y883882I-7614J5256D01*
G01*
X399304Y883466D02*
G03*
X399866Y882539I8177J4329D01*
G01*
X514289Y891710D02*
G03*
X497730Y892126I-8383J-3914D01*
G01*
X513520Y882539D02*
G03*
X514289Y883882I-7614J5256D01*
G01*
X497729Y883466D02*
G03*
X498291Y882539I8177J4329D01*
G01*
X612714Y891710D02*
G03*
X596155Y892126I-8383J-3914D01*
G01*
X611945Y882539D02*
G03*
X612714Y883882I-7614J5256D01*
G01*
X596154Y883466D02*
G03*
X596717Y882539I8177J4329D01*
G01*
X997256Y805614D02*
G03*
X997258Y790387I-5257J-7614D01*
G01*
X904453Y809000D02*
G03*
X904453Y809000I-18110J0D01*
G01*
X932347Y764000D02*
G03*
X932347Y769000I0J2500D01*
G01*
X844610Y881843D02*
G03*
X844610Y881843I-18110J0D01*
G01*
X1026626Y781346D02*
Y799654D01*
X1017374D02*
X1026626D01*
X1017374Y781346D02*
Y799654D01*
Y781346D02*
X1026626D01*
X1022000Y776346D02*
Y781346D01*
Y799654D02*
Y804654D01*
X1017374Y794654D02*
X1026626D01*
X903500Y929500D02*
Y931500D01*
X902500Y930500D02*
X904500D01*
X891000Y915500D02*
X916000D01*
X105386Y867756D02*
X120614D01*
X203016Y882539D02*
X218244D01*
X301441D02*
X316669D01*
X399866D02*
X415095D01*
X498291D02*
X513520D01*
X596717D02*
X611945D01*
X997256Y790387D02*
Y805613D01*
X815028Y784248D02*
X855972D01*
Y782279D02*
Y800390D01*
X815028D02*
X855972D01*
X815028Y782279D02*
Y800390D01*
Y782279D02*
X855972D01*
X1001376Y723646D02*
X1019624D01*
Y714354D02*
Y723646D01*
X1001376Y714354D02*
X1019624D01*
X1001376D02*
Y723646D01*
X1021901Y689276D02*
Y698724D01*
X997098Y689276D02*
X1021901D01*
X997098Y698724D02*
X1021901D01*
X997098Y689276D02*
Y698724D01*
X975654Y756067D02*
Y776933D01*
X932346Y769000D02*
Y776933D01*
Y756067D02*
Y764000D01*
Y776933D02*
X975654D01*
X932346Y756067D02*
X975654D01*
X1014500Y858483D02*
Y864717D01*
X1035760D02*
X1068437D01*
X1014500D02*
X1018437D01*
X1068437Y829283D02*
Y864717D01*
X1014500Y829283D02*
X1068437D01*
X1014500D02*
Y835517D01*
D49*
X670500Y776500D02*
G03*
X670500Y776500I-1000J0D01*
G01*
D50*
X128650Y862500D02*
G03*
X128650Y862500I-492J0D01*
G01*
X195965Y887795D02*
G03*
X195965Y887795I-492J0D01*
G01*
X294390D02*
G03*
X294390Y887795I-492J0D01*
G01*
X392815D02*
G03*
X392815Y887795I-492J0D01*
G01*
X491240D02*
G03*
X491240Y887795I-492J0D01*
G01*
X589665D02*
G03*
X589665Y887795I-492J0D01*
G01*
X992492Y786386D02*
G03*
X992492Y786386I-492J0D01*
G01*
X853905Y797831D02*
G03*
X853905Y797831I-492J0D01*
G01*
X934374Y751500D02*
G03*
X934374Y751500I-492J0D01*
G01*
D51*
X937465Y760004D02*
G03*
X937465Y760004I-1181J0D01*
G01*
D52*
X938500Y851000D02*
Y856000D01*
Y851000D02*
X965000D01*
Y861000D01*
X938500D02*
X965000D01*
X938500Y856000D02*
Y861000D01*
X965000Y856000D02*
X967000D01*
X937000D02*
X938500D01*
D53*
X1018311Y719000D02*
D03*
M02*
