G04 Layer_Physical_Order=1*
G04 Layer_Color=25308*
%FSLAX25Y25*%
%MOIN*%
G70*
G01*
G75*
%ADD10C,0.01969*%
%ADD11C,0.03937*%
%ADD12C,0.08000*%
%ADD13C,0.04921*%
%ADD14R,0.04921X0.04921*%
%ADD15C,0.06000*%
%ADD16C,0.06693*%
%ADD17C,0.05512*%
%ADD18C,0.07874*%
%ADD19R,0.06000X0.06000*%
G04:AMPARAMS|DCode=20|XSize=102.36mil|YSize=62.99mil|CornerRadius=31.5mil|HoleSize=0mil|Usage=FLASHONLY|Rotation=0.000|XOffset=0mil|YOffset=0mil|HoleType=Round|Shape=RoundedRectangle|*
%AMROUNDEDRECTD20*
21,1,0.10236,0.00000,0,0,0.0*
21,1,0.03937,0.06299,0,0,0.0*
1,1,0.06299,0.01969,0.00000*
1,1,0.06299,-0.01969,0.00000*
1,1,0.06299,-0.01969,0.00000*
1,1,0.06299,0.01969,0.00000*
%
%ADD20ROUNDEDRECTD20*%
%ADD21O,0.10236X0.06299*%
%ADD22R,0.10236X0.06299*%
%ADD23R,0.07000X0.07000*%
%ADD24C,0.07000*%
%ADD25R,0.06500X0.04000*%
%ADD26O,0.06500X0.04000*%
%ADD27C,0.08400*%
%ADD28R,0.08400X0.08400*%
%ADD29C,0.04134*%
%ADD30R,0.04134X0.04134*%
%ADD31R,0.06693X0.06693*%
%ADD32C,0.06496*%
%ADD33C,0.04724*%
%ADD34C,0.05315*%
%ADD35R,0.06000X0.06000*%
%ADD36C,0.05906*%
%ADD37R,0.05906X0.05906*%
%ADD38R,0.07874X0.07874*%
%ADD39R,0.09843X0.05906*%
%ADD40O,0.09843X0.05906*%
%ADD41R,0.09000X0.09000*%
%ADD42C,0.09000*%
%ADD43R,0.15748X0.07874*%
%ADD44R,0.07874X0.15748*%
%ADD45O,0.07874X0.17716*%
%ADD46C,0.05000*%
G36*
X1055000Y680000D02*
X47500D01*
Y967500D01*
X1055000D01*
Y680000D01*
D02*
G37*
%LPC*%
G36*
X137795Y784507D02*
X136506Y784338D01*
X135305Y783840D01*
X134274Y783049D01*
X133483Y782017D01*
X132985Y780816D01*
X132816Y779528D01*
X132985Y778239D01*
X133483Y777038D01*
X134274Y776007D01*
X135305Y775215D01*
X136506Y774718D01*
X137795Y774548D01*
X139084Y774718D01*
X140285Y775215D01*
X141316Y776007D01*
X142108Y777038D01*
X142605Y778239D01*
X142775Y779528D01*
X142605Y780816D01*
X142108Y782017D01*
X141316Y783049D01*
X140285Y783840D01*
X139084Y784338D01*
X137795Y784507D01*
D02*
G37*
G36*
X199409Y842617D02*
X198365Y842480D01*
X197392Y842077D01*
X196557Y841435D01*
X195915Y840600D01*
X195512Y839627D01*
X195375Y838583D01*
X195512Y837538D01*
X195915Y836565D01*
X196557Y835730D01*
X197386Y835093D01*
Y822387D01*
X196557Y821750D01*
X195915Y820915D01*
X195512Y819942D01*
X195375Y818898D01*
X195512Y817853D01*
X195915Y816880D01*
X196557Y816045D01*
X197386Y815408D01*
Y784843D01*
X197540Y784068D01*
X197979Y783412D01*
X200108Y781283D01*
X199915Y780816D01*
X199745Y779528D01*
X199915Y778239D01*
X200412Y777038D01*
X201203Y776007D01*
X202235Y775215D01*
X203436Y774718D01*
X204724Y774548D01*
X206013Y774718D01*
X207214Y775215D01*
X208245Y776007D01*
X209037Y777038D01*
X209534Y778239D01*
X209704Y779528D01*
X209534Y780816D01*
X209037Y782017D01*
X208245Y783049D01*
X207214Y783840D01*
X206013Y784338D01*
X204724Y784507D01*
X203436Y784338D01*
X202969Y784144D01*
X201432Y785681D01*
Y815408D01*
X202262Y816045D01*
X202903Y816880D01*
X203306Y817853D01*
X203444Y818898D01*
X203306Y819942D01*
X202903Y820915D01*
X202262Y821750D01*
X201432Y822387D01*
Y835093D01*
X202262Y835730D01*
X202903Y836565D01*
X203306Y837538D01*
X203444Y838583D01*
X203306Y839627D01*
X202903Y840600D01*
X202262Y841435D01*
X201427Y842077D01*
X200454Y842480D01*
X199409Y842617D01*
D02*
G37*
G36*
X236220Y784507D02*
X234932Y784338D01*
X233731Y783840D01*
X232699Y783049D01*
X231908Y782017D01*
X231411Y780816D01*
X231241Y779528D01*
X231411Y778239D01*
X231908Y777038D01*
X232699Y776007D01*
X233731Y775215D01*
X234932Y774718D01*
X236220Y774548D01*
X237509Y774718D01*
X238710Y775215D01*
X239741Y776007D01*
X240533Y777038D01*
X241030Y778239D01*
X241200Y779528D01*
X241030Y780816D01*
X240533Y782017D01*
X239741Y783049D01*
X238710Y783840D01*
X237509Y784338D01*
X236220Y784507D01*
D02*
G37*
G36*
X896000Y772000D02*
X892500D01*
Y768500D01*
X896000D01*
Y772000D01*
D02*
G37*
G36*
X900500D02*
X897000D01*
Y768500D01*
X900500D01*
Y772000D01*
D02*
G37*
G36*
X100984Y842617D02*
X99940Y842480D01*
X98967Y842077D01*
X98131Y841435D01*
X97490Y840600D01*
X97087Y839627D01*
X96950Y838583D01*
X97087Y837538D01*
X97490Y836565D01*
X98131Y835730D01*
X98961Y835093D01*
Y822387D01*
X98131Y821750D01*
X97490Y820915D01*
X97087Y819942D01*
X96950Y818898D01*
X97087Y817853D01*
X97490Y816880D01*
X98131Y816045D01*
X98961Y815408D01*
Y784843D01*
X99115Y784068D01*
X99554Y783412D01*
X101683Y781283D01*
X101489Y780816D01*
X101320Y779528D01*
X101489Y778239D01*
X101987Y777038D01*
X102778Y776007D01*
X103809Y775215D01*
X105010Y774718D01*
X106299Y774548D01*
X107588Y774718D01*
X108789Y775215D01*
X109820Y776007D01*
X110612Y777038D01*
X111109Y778239D01*
X111279Y779528D01*
X111109Y780816D01*
X110612Y782017D01*
X109820Y783049D01*
X108789Y783840D01*
X107588Y784338D01*
X106299Y784507D01*
X105010Y784338D01*
X104544Y784144D01*
X103007Y785681D01*
Y815408D01*
X103837Y816045D01*
X104478Y816880D01*
X104881Y817853D01*
X105019Y818898D01*
X104881Y819942D01*
X104478Y820915D01*
X103837Y821750D01*
X103007Y822387D01*
Y835093D01*
X103837Y835730D01*
X104478Y836565D01*
X104881Y837538D01*
X105019Y838583D01*
X104881Y839627D01*
X104478Y840600D01*
X103837Y841435D01*
X103001Y842077D01*
X102028Y842480D01*
X100984Y842617D01*
D02*
G37*
G36*
X629921Y784507D02*
X628632Y784338D01*
X627431Y783840D01*
X626400Y783049D01*
X625609Y782017D01*
X625111Y780816D01*
X624942Y779528D01*
X625111Y778239D01*
X625609Y777038D01*
X626400Y776007D01*
X627431Y775215D01*
X628632Y774718D01*
X629921Y774548D01*
X631210Y774718D01*
X632411Y775215D01*
X633442Y776007D01*
X634234Y777038D01*
X634731Y778239D01*
X634901Y779528D01*
X634731Y780816D01*
X634234Y782017D01*
X633442Y783049D01*
X632411Y783840D01*
X631210Y784338D01*
X629921Y784507D01*
D02*
G37*
G36*
X122047Y787253D02*
X121067Y787124D01*
X120153Y786745D01*
X119369Y786143D01*
X118766Y785359D01*
X118388Y784445D01*
X118259Y783465D01*
X118388Y782484D01*
X118766Y781570D01*
X119369Y780786D01*
X120153Y780184D01*
X121067Y779805D01*
X122047Y779676D01*
X123028Y779805D01*
X123941Y780184D01*
X124726Y780786D01*
X125328Y781570D01*
X125706Y782484D01*
X125836Y783465D01*
X125706Y784445D01*
X125328Y785359D01*
X124726Y786143D01*
X123941Y786745D01*
X123028Y787124D01*
X122047Y787253D01*
D02*
G37*
G36*
X220472D02*
X219492Y787124D01*
X218578Y786745D01*
X217794Y786143D01*
X217192Y785359D01*
X216813Y784445D01*
X216684Y783465D01*
X216813Y782484D01*
X217192Y781570D01*
X217794Y780786D01*
X218578Y780184D01*
X219492Y779805D01*
X220472Y779676D01*
X221453Y779805D01*
X222367Y780184D01*
X223151Y780786D01*
X223753Y781570D01*
X224132Y782484D01*
X224261Y783465D01*
X224132Y784445D01*
X223753Y785359D01*
X223151Y786143D01*
X222367Y786745D01*
X221453Y787124D01*
X220472Y787253D01*
D02*
G37*
G36*
X334646Y784507D02*
X333357Y784338D01*
X332156Y783840D01*
X331124Y783049D01*
X330333Y782017D01*
X329836Y780816D01*
X329666Y779528D01*
X329836Y778239D01*
X330333Y777038D01*
X331124Y776007D01*
X332156Y775215D01*
X333357Y774718D01*
X334646Y774548D01*
X335934Y774718D01*
X337135Y775215D01*
X338167Y776007D01*
X338958Y777038D01*
X339456Y778239D01*
X339625Y779528D01*
X339456Y780816D01*
X338958Y782017D01*
X338167Y783049D01*
X337135Y783840D01*
X335934Y784338D01*
X334646Y784507D01*
D02*
G37*
G36*
X433071D02*
X431782Y784338D01*
X430581Y783840D01*
X429550Y783049D01*
X428758Y782017D01*
X428261Y780816D01*
X428091Y779528D01*
X428261Y778239D01*
X428758Y777038D01*
X429550Y776007D01*
X430581Y775215D01*
X431782Y774718D01*
X433071Y774548D01*
X434360Y774718D01*
X435561Y775215D01*
X436592Y776007D01*
X437383Y777038D01*
X437881Y778239D01*
X438050Y779528D01*
X437881Y780816D01*
X437383Y782017D01*
X436592Y783049D01*
X435561Y783840D01*
X434360Y784338D01*
X433071Y784507D01*
D02*
G37*
G36*
X531496D02*
X530207Y784338D01*
X529006Y783840D01*
X527975Y783049D01*
X527183Y782017D01*
X526686Y780816D01*
X526516Y779528D01*
X526686Y778239D01*
X527183Y777038D01*
X527975Y776007D01*
X529006Y775215D01*
X530207Y774718D01*
X531496Y774548D01*
X532785Y774718D01*
X533986Y775215D01*
X535017Y776007D01*
X535809Y777038D01*
X536306Y778239D01*
X536476Y779528D01*
X536306Y780816D01*
X535809Y782017D01*
X535017Y783049D01*
X533986Y783840D01*
X532785Y784338D01*
X531496Y784507D01*
D02*
G37*
G36*
X296260Y770728D02*
X294971Y770558D01*
X293770Y770061D01*
X292739Y769269D01*
X291947Y768238D01*
X291450Y767037D01*
X291280Y765748D01*
X291450Y764459D01*
X291947Y763258D01*
X292739Y762227D01*
X293770Y761436D01*
X294971Y760938D01*
X296260Y760769D01*
X297549Y760938D01*
X298750Y761436D01*
X299781Y762227D01*
X300572Y763258D01*
X301070Y764459D01*
X301239Y765748D01*
X301070Y767037D01*
X300572Y768238D01*
X299781Y769269D01*
X298750Y770061D01*
X297549Y770558D01*
X296260Y770728D01*
D02*
G37*
G36*
X341535D02*
X340247Y770558D01*
X339046Y770061D01*
X338014Y769269D01*
X337223Y768238D01*
X336725Y767037D01*
X336556Y765748D01*
X336725Y764459D01*
X337223Y763258D01*
X338014Y762227D01*
X339046Y761436D01*
X340247Y760938D01*
X341535Y760769D01*
X342824Y760938D01*
X344025Y761436D01*
X345057Y762227D01*
X345848Y763258D01*
X346345Y764459D01*
X346515Y765748D01*
X346345Y767037D01*
X345848Y768238D01*
X345057Y769269D01*
X344025Y770061D01*
X342824Y770558D01*
X341535Y770728D01*
D02*
G37*
G36*
X394685D02*
X393396Y770558D01*
X392195Y770061D01*
X391164Y769269D01*
X390372Y768238D01*
X389875Y767037D01*
X389705Y765748D01*
X389875Y764459D01*
X390372Y763258D01*
X391164Y762227D01*
X392195Y761436D01*
X393396Y760938D01*
X394685Y760769D01*
X395974Y760938D01*
X397175Y761436D01*
X398206Y762227D01*
X398997Y763258D01*
X399495Y764459D01*
X399665Y765748D01*
X399495Y767037D01*
X398997Y768238D01*
X398206Y769269D01*
X397175Y770061D01*
X395974Y770558D01*
X394685Y770728D01*
D02*
G37*
G36*
X144685D02*
X143396Y770558D01*
X142195Y770061D01*
X141164Y769269D01*
X140373Y768238D01*
X139875Y767037D01*
X139705Y765748D01*
X139875Y764459D01*
X140373Y763258D01*
X141164Y762227D01*
X142195Y761436D01*
X143396Y760938D01*
X144685Y760769D01*
X145974Y760938D01*
X147175Y761436D01*
X148206Y762227D01*
X148997Y763258D01*
X149495Y764459D01*
X149665Y765748D01*
X149495Y767037D01*
X148997Y768238D01*
X148206Y769269D01*
X147175Y770061D01*
X145974Y770558D01*
X144685Y770728D01*
D02*
G37*
G36*
X197835D02*
X196546Y770558D01*
X195345Y770061D01*
X194314Y769269D01*
X193522Y768238D01*
X193025Y767037D01*
X192855Y765748D01*
X193025Y764459D01*
X193522Y763258D01*
X194314Y762227D01*
X195345Y761436D01*
X196546Y760938D01*
X197835Y760769D01*
X199123Y760938D01*
X200324Y761436D01*
X201356Y762227D01*
X202147Y763258D01*
X202644Y764459D01*
X202814Y765748D01*
X202644Y767037D01*
X202147Y768238D01*
X201356Y769269D01*
X200324Y770061D01*
X199123Y770558D01*
X197835Y770728D01*
D02*
G37*
G36*
X243110D02*
X241821Y770558D01*
X240620Y770061D01*
X239589Y769269D01*
X238798Y768238D01*
X238300Y767037D01*
X238131Y765748D01*
X238300Y764459D01*
X238798Y763258D01*
X239589Y762227D01*
X240620Y761436D01*
X241821Y760938D01*
X243110Y760769D01*
X244399Y760938D01*
X245600Y761436D01*
X246631Y762227D01*
X247423Y763258D01*
X247920Y764459D01*
X248090Y765748D01*
X247920Y767037D01*
X247423Y768238D01*
X246631Y769269D01*
X245600Y770061D01*
X244399Y770558D01*
X243110Y770728D01*
D02*
G37*
G36*
X591535D02*
X590247Y770558D01*
X589046Y770061D01*
X588014Y769269D01*
X587223Y768238D01*
X586726Y767037D01*
X586556Y765748D01*
X586726Y764459D01*
X587223Y763258D01*
X588014Y762227D01*
X589046Y761436D01*
X590247Y760938D01*
X591535Y760769D01*
X592824Y760938D01*
X594025Y761436D01*
X595056Y762227D01*
X595848Y763258D01*
X596345Y764459D01*
X596515Y765748D01*
X596345Y767037D01*
X595848Y768238D01*
X595056Y769269D01*
X594025Y770061D01*
X592824Y770558D01*
X591535Y770728D01*
D02*
G37*
G36*
X896000Y767500D02*
X892500D01*
Y764000D01*
X896000D01*
Y767500D01*
D02*
G37*
G36*
X900500D02*
X897000D01*
Y764000D01*
X900500D01*
Y767500D01*
D02*
G37*
G36*
X439961Y770728D02*
X438672Y770558D01*
X437471Y770061D01*
X436440Y769269D01*
X435648Y768238D01*
X435151Y767037D01*
X434981Y765748D01*
X435151Y764459D01*
X435648Y763258D01*
X436440Y762227D01*
X437471Y761436D01*
X438672Y760938D01*
X439961Y760769D01*
X441249Y760938D01*
X442450Y761436D01*
X443482Y762227D01*
X444273Y763258D01*
X444770Y764459D01*
X444940Y765748D01*
X444770Y767037D01*
X444273Y768238D01*
X443482Y769269D01*
X442450Y770061D01*
X441249Y770558D01*
X439961Y770728D01*
D02*
G37*
G36*
X493110D02*
X491821Y770558D01*
X490620Y770061D01*
X489589Y769269D01*
X488798Y768238D01*
X488300Y767037D01*
X488131Y765748D01*
X488300Y764459D01*
X488798Y763258D01*
X489589Y762227D01*
X490620Y761436D01*
X491821Y760938D01*
X493110Y760769D01*
X494399Y760938D01*
X495600Y761436D01*
X496631Y762227D01*
X497423Y763258D01*
X497920Y764459D01*
X498090Y765748D01*
X497920Y767037D01*
X497423Y768238D01*
X496631Y769269D01*
X495600Y770061D01*
X494399Y770558D01*
X493110Y770728D01*
D02*
G37*
G36*
X538386D02*
X537097Y770558D01*
X535896Y770061D01*
X534865Y769269D01*
X534073Y768238D01*
X533576Y767037D01*
X533406Y765748D01*
X533576Y764459D01*
X534073Y763258D01*
X534865Y762227D01*
X535896Y761436D01*
X537097Y760938D01*
X538386Y760769D01*
X539675Y760938D01*
X540876Y761436D01*
X541907Y762227D01*
X542698Y763258D01*
X543196Y764459D01*
X543365Y765748D01*
X543196Y767037D01*
X542698Y768238D01*
X541907Y769269D01*
X540876Y770061D01*
X539675Y770558D01*
X538386Y770728D01*
D02*
G37*
G36*
X446260Y842617D02*
X445216Y842480D01*
X444242Y842077D01*
X443407Y841435D01*
X442766Y840600D01*
X442363Y839627D01*
X442225Y838583D01*
X442363Y837538D01*
X442766Y836565D01*
X443407Y835730D01*
X444237Y835093D01*
Y822387D01*
X443407Y821750D01*
X442766Y820915D01*
X442363Y819942D01*
X442225Y818898D01*
X442362Y817861D01*
X414729Y790228D01*
X408705D01*
X407931Y790074D01*
X407274Y789635D01*
X402080Y784441D01*
X401575Y784507D01*
X400286Y784338D01*
X399085Y783840D01*
X398054Y783049D01*
X397262Y782017D01*
X396765Y780816D01*
X396595Y779528D01*
X396765Y778239D01*
X397262Y777038D01*
X398054Y776007D01*
X399085Y775215D01*
X400286Y774718D01*
X401575Y774548D01*
X402864Y774718D01*
X404065Y775215D01*
X405096Y776007D01*
X405887Y777038D01*
X406385Y778239D01*
X406554Y779528D01*
X406385Y780816D01*
X405887Y782017D01*
X405666Y782305D01*
X409543Y786182D01*
X414043D01*
X414290Y785682D01*
X414042Y785359D01*
X413664Y784445D01*
X413534Y783465D01*
X413664Y782484D01*
X414042Y781570D01*
X414644Y780786D01*
X415429Y780184D01*
X416342Y779805D01*
X417323Y779676D01*
X418303Y779805D01*
X419217Y780184D01*
X420002Y780786D01*
X420604Y781570D01*
X420982Y782484D01*
X421111Y783465D01*
X420982Y784445D01*
X420604Y785359D01*
X420002Y786143D01*
X419217Y786745D01*
X418303Y787124D01*
X418019Y787161D01*
X417858Y787635D01*
X445223Y815000D01*
X446260Y814863D01*
X447304Y815001D01*
X448277Y815404D01*
X449113Y816045D01*
X449754Y816880D01*
X450157Y817853D01*
X450294Y818898D01*
X450157Y819942D01*
X449754Y820915D01*
X449113Y821750D01*
X448283Y822387D01*
Y835093D01*
X449113Y835730D01*
X449754Y836565D01*
X450157Y837538D01*
X450294Y838583D01*
X450157Y839627D01*
X449754Y840600D01*
X449113Y841435D01*
X448277Y842077D01*
X447304Y842480D01*
X446260Y842617D01*
D02*
G37*
G36*
X544685D02*
X543641Y842480D01*
X542668Y842077D01*
X541832Y841435D01*
X541191Y840600D01*
X540788Y839627D01*
X540651Y838583D01*
X540788Y837538D01*
X541191Y836565D01*
X541832Y835730D01*
X542662Y835093D01*
Y822387D01*
X541832Y821750D01*
X541191Y820915D01*
X540788Y819942D01*
X540651Y818898D01*
X540787Y817861D01*
X519977Y797051D01*
X515500D01*
X514726Y796897D01*
X514069Y796458D01*
X501756Y784144D01*
X501289Y784338D01*
X500000Y784507D01*
X498711Y784338D01*
X497510Y783840D01*
X496479Y783049D01*
X495687Y782017D01*
X495190Y780816D01*
X495020Y779528D01*
X495190Y778239D01*
X495687Y777038D01*
X496479Y776007D01*
X497510Y775215D01*
X498711Y774718D01*
X500000Y774548D01*
X501289Y774718D01*
X502490Y775215D01*
X503521Y776007D01*
X504313Y777038D01*
X504810Y778239D01*
X504980Y779528D01*
X504810Y780816D01*
X504617Y781283D01*
X516338Y793005D01*
X520815D01*
X521589Y793158D01*
X522246Y793597D01*
X543648Y815000D01*
X544685Y814863D01*
X545729Y815001D01*
X546702Y815404D01*
X547538Y816045D01*
X548179Y816880D01*
X548582Y817853D01*
X548720Y818898D01*
X548582Y819942D01*
X548179Y820915D01*
X547538Y821750D01*
X546708Y822387D01*
Y835093D01*
X547538Y835730D01*
X548179Y836565D01*
X548582Y837538D01*
X548720Y838583D01*
X548582Y839627D01*
X548179Y840600D01*
X547538Y841435D01*
X546702Y842077D01*
X545729Y842480D01*
X544685Y842617D01*
D02*
G37*
G36*
X593110Y822932D02*
X592066Y822795D01*
X591093Y822392D01*
X590257Y821750D01*
X589616Y820915D01*
X589213Y819942D01*
X589076Y818898D01*
X589213Y817853D01*
X589616Y816880D01*
X590257Y816045D01*
X591093Y815404D01*
X592066Y815001D01*
X593110Y814863D01*
X594154Y815001D01*
X595127Y815404D01*
X595963Y816045D01*
X596604Y816880D01*
X597007Y817853D01*
X597145Y818898D01*
X597007Y819942D01*
X596604Y820915D01*
X595963Y821750D01*
X595127Y822392D01*
X594154Y822795D01*
X593110Y822932D01*
D02*
G37*
G36*
X150984Y842617D02*
X149940Y842480D01*
X148967Y842077D01*
X148131Y841435D01*
X147490Y840600D01*
X147087Y839627D01*
X146950Y838583D01*
X147087Y837538D01*
X147490Y836565D01*
X148131Y835730D01*
X148961Y835093D01*
Y822387D01*
X148131Y821750D01*
X147490Y820915D01*
X147087Y819942D01*
X146950Y818898D01*
X147087Y817853D01*
X147490Y816880D01*
X148131Y816045D01*
X148967Y815404D01*
X149940Y815001D01*
X150984Y814863D01*
X152028Y815001D01*
X153001Y815404D01*
X153837Y816045D01*
X154478Y816880D01*
X154881Y817853D01*
X155019Y818898D01*
X154881Y819942D01*
X154478Y820915D01*
X153837Y821750D01*
X153007Y822387D01*
Y835093D01*
X153837Y835730D01*
X154478Y836565D01*
X154881Y837538D01*
X155019Y838583D01*
X154881Y839627D01*
X154478Y840600D01*
X153837Y841435D01*
X153001Y842077D01*
X152028Y842480D01*
X150984Y842617D01*
D02*
G37*
G36*
X220866Y891584D02*
X219886Y891454D01*
X218972Y891076D01*
X218187Y890474D01*
X217585Y889689D01*
X217207Y888776D01*
X217078Y887795D01*
X217207Y886815D01*
X217585Y885901D01*
X218187Y885116D01*
X218843Y884613D01*
Y850000D01*
X218997Y849226D01*
X219436Y848569D01*
X230853Y837152D01*
X231509Y836714D01*
X232284Y836559D01*
X245920D01*
X246557Y835730D01*
X247386Y835093D01*
Y822387D01*
X246557Y821750D01*
X245915Y820915D01*
X245512Y819942D01*
X245375Y818898D01*
X245512Y817853D01*
X245915Y816880D01*
X246557Y816045D01*
X247392Y815404D01*
X248365Y815001D01*
X249409Y814863D01*
X250454Y815001D01*
X251427Y815404D01*
X252262Y816045D01*
X252903Y816880D01*
X253306Y817853D01*
X253444Y818898D01*
X253306Y819942D01*
X252903Y820915D01*
X252262Y821750D01*
X251432Y822387D01*
Y835093D01*
X252262Y835730D01*
X252903Y836565D01*
X253306Y837538D01*
X253444Y838583D01*
X253306Y839627D01*
X252903Y840600D01*
X252262Y841435D01*
X251427Y842077D01*
X250454Y842480D01*
X249409Y842617D01*
X248365Y842480D01*
X247392Y842077D01*
X246557Y841435D01*
X245920Y840606D01*
X233122D01*
X222889Y850838D01*
Y884613D01*
X223545Y885116D01*
X224147Y885901D01*
X224525Y886815D01*
X224655Y887795D01*
X224525Y888776D01*
X224147Y889689D01*
X223545Y890474D01*
X222760Y891076D01*
X221847Y891454D01*
X220866Y891584D01*
D02*
G37*
G36*
X347835Y842617D02*
X346790Y842480D01*
X345817Y842077D01*
X344982Y841435D01*
X344341Y840600D01*
X343938Y839627D01*
X343800Y838583D01*
X343938Y837538D01*
X344341Y836565D01*
X344982Y835730D01*
X345812Y835093D01*
Y822387D01*
X344982Y821750D01*
X344341Y820915D01*
X343938Y819942D01*
X343800Y818898D01*
X343937Y817861D01*
X319977Y793901D01*
X315500D01*
X314726Y793747D01*
X314069Y793309D01*
X304905Y784144D01*
X304438Y784338D01*
X303150Y784507D01*
X301861Y784338D01*
X300660Y783840D01*
X299628Y783049D01*
X298837Y782017D01*
X298340Y780816D01*
X298170Y779528D01*
X298340Y778239D01*
X298837Y777038D01*
X299628Y776007D01*
X300660Y775215D01*
X301861Y774718D01*
X303150Y774548D01*
X304438Y774718D01*
X305639Y775215D01*
X306671Y776007D01*
X307462Y777038D01*
X307960Y778239D01*
X308129Y779528D01*
X307960Y780816D01*
X307766Y781283D01*
X316338Y789855D01*
X320815D01*
X321589Y790009D01*
X322246Y790447D01*
X346798Y815000D01*
X347835Y814863D01*
X348879Y815001D01*
X349852Y815404D01*
X350687Y816045D01*
X351329Y816880D01*
X351732Y817853D01*
X351869Y818898D01*
X351732Y819942D01*
X351329Y820915D01*
X350687Y821750D01*
X349858Y822387D01*
Y835093D01*
X350687Y835730D01*
X351329Y836565D01*
X351732Y837538D01*
X351869Y838583D01*
X351732Y839627D01*
X351329Y840600D01*
X350687Y841435D01*
X349852Y842077D01*
X348879Y842480D01*
X347835Y842617D01*
D02*
G37*
G36*
X958843Y824969D02*
X958298Y824897D01*
X957325Y824494D01*
X956490Y823853D01*
X955849Y823017D01*
X955446Y822044D01*
X955374Y821500D01*
X958843D01*
Y824969D01*
D02*
G37*
G36*
X959843D02*
Y821500D01*
X963311D01*
X963240Y822044D01*
X962837Y823017D01*
X962195Y823853D01*
X961360Y824494D01*
X960387Y824897D01*
X959843Y824969D01*
D02*
G37*
G36*
X726500Y831039D02*
X725325Y830884D01*
X724231Y830431D01*
X723291Y829709D01*
X722569Y828769D01*
X722116Y827675D01*
X721961Y826500D01*
X722116Y825325D01*
X722569Y824231D01*
X723291Y823291D01*
X724231Y822569D01*
X725325Y822116D01*
X726500Y821961D01*
X727675Y822116D01*
X728769Y822569D01*
X729709Y823291D01*
X730431Y824231D01*
X730884Y825325D01*
X731039Y826500D01*
X730884Y827675D01*
X730431Y828769D01*
X729709Y829709D01*
X728769Y830431D01*
X727675Y830884D01*
X726500Y831039D01*
D02*
G37*
G36*
X643110Y822932D02*
X642066Y822795D01*
X641093Y822392D01*
X640257Y821750D01*
X639616Y820915D01*
X639213Y819942D01*
X639076Y818898D01*
X639213Y817853D01*
X639616Y816880D01*
X640257Y816045D01*
X641093Y815404D01*
X642066Y815001D01*
X643110Y814863D01*
X644154Y815001D01*
X645127Y815404D01*
X645963Y816045D01*
X646604Y816880D01*
X647007Y817853D01*
X647145Y818898D01*
X647007Y819942D01*
X646604Y820915D01*
X645963Y821750D01*
X645127Y822392D01*
X644154Y822795D01*
X643110Y822932D01*
D02*
G37*
G36*
X939657Y825035D02*
X938613Y824897D01*
X937640Y824494D01*
X936805Y823853D01*
X936163Y823017D01*
X935760Y822044D01*
X935623Y821000D01*
X935760Y819956D01*
X936163Y818983D01*
X936805Y818147D01*
X937640Y817506D01*
X938613Y817103D01*
X939657Y816965D01*
X940702Y817103D01*
X941675Y817506D01*
X942510Y818147D01*
X943151Y818983D01*
X943554Y819956D01*
X943692Y821000D01*
X943554Y822044D01*
X943151Y823017D01*
X942510Y823853D01*
X941675Y824494D01*
X940702Y824897D01*
X939657Y825035D01*
D02*
G37*
G36*
X958843Y820500D02*
X955374D01*
X955446Y819956D01*
X955849Y818983D01*
X956490Y818147D01*
X957325Y817506D01*
X958298Y817103D01*
X958843Y817031D01*
Y820500D01*
D02*
G37*
G36*
X896185Y812391D02*
X895307Y812276D01*
X894489Y811937D01*
X893787Y811398D01*
X893248Y810696D01*
X892967Y810016D01*
X867945Y784994D01*
X848240D01*
X844490Y788745D01*
X844723Y789218D01*
X845500Y789116D01*
X846635Y789265D01*
X847692Y789703D01*
X848600Y790400D01*
X849297Y791308D01*
X849735Y792365D01*
X849884Y793500D01*
X849735Y794635D01*
X849297Y795692D01*
X848600Y796600D01*
X847692Y797297D01*
X846635Y797735D01*
X845500Y797884D01*
X844365Y797735D01*
X843308Y797297D01*
X842400Y796600D01*
X841703Y795692D01*
X841265Y794635D01*
X841116Y793500D01*
X841218Y792723D01*
X840745Y792490D01*
X839867Y793368D01*
X839884Y793500D01*
X839735Y794635D01*
X839297Y795692D01*
X838600Y796600D01*
X837692Y797297D01*
X836635Y797735D01*
X835500Y797884D01*
X834365Y797735D01*
X833308Y797297D01*
X832400Y796600D01*
X831703Y795692D01*
X831265Y794635D01*
X831116Y793500D01*
X831265Y792365D01*
X831703Y791308D01*
X832400Y790400D01*
X833308Y789703D01*
X834365Y789265D01*
X835500Y789116D01*
X835632Y789133D01*
X844883Y779883D01*
X845503Y779407D01*
X846014Y779195D01*
X846225Y779108D01*
X847000Y779006D01*
X869343D01*
X870117Y779108D01*
X870840Y779407D01*
X871460Y779883D01*
X871935Y780503D01*
X871945Y780525D01*
X897201Y805782D01*
X897881Y806063D01*
X898583Y806602D01*
X899122Y807304D01*
X899461Y808122D01*
X899576Y809000D01*
X899461Y809878D01*
X899122Y810696D01*
X898583Y811398D01*
X897881Y811937D01*
X897063Y812276D01*
X896185Y812391D01*
D02*
G37*
G36*
X726500Y801039D02*
X725325Y800884D01*
X724231Y800431D01*
X723291Y799709D01*
X722569Y798769D01*
X722116Y797675D01*
X721961Y796500D01*
X722116Y795325D01*
X722569Y794231D01*
X723291Y793291D01*
X724231Y792569D01*
X725325Y792116D01*
X726500Y791961D01*
X727675Y792116D01*
X728769Y792569D01*
X729709Y793291D01*
X730431Y794231D01*
X730884Y795325D01*
X731039Y796500D01*
X730884Y797675D01*
X730431Y798769D01*
X729709Y799709D01*
X728769Y800431D01*
X727675Y800884D01*
X726500Y801039D01*
D02*
G37*
G36*
X786500D02*
X785325Y800884D01*
X784231Y800431D01*
X783291Y799709D01*
X782569Y798769D01*
X782116Y797675D01*
X781961Y796500D01*
X782116Y795325D01*
X782569Y794231D01*
X783291Y793291D01*
X784231Y792569D01*
X785325Y792116D01*
X786500Y791961D01*
X787675Y792116D01*
X788769Y792569D01*
X789709Y793291D01*
X790431Y794231D01*
X790884Y795325D01*
X791039Y796500D01*
X790884Y797675D01*
X790431Y798769D01*
X789709Y799709D01*
X788769Y800431D01*
X787675Y800884D01*
X786500Y801039D01*
D02*
G37*
G36*
X318898Y787253D02*
X317917Y787124D01*
X317003Y786745D01*
X316219Y786143D01*
X315617Y785359D01*
X315238Y784445D01*
X315109Y783465D01*
X315238Y782484D01*
X315617Y781570D01*
X316219Y780786D01*
X317003Y780184D01*
X317917Y779805D01*
X318898Y779676D01*
X319878Y779805D01*
X320792Y780184D01*
X321576Y780786D01*
X322178Y781570D01*
X322557Y782484D01*
X322686Y783465D01*
X322557Y784445D01*
X322178Y785359D01*
X321576Y786143D01*
X320792Y786745D01*
X319878Y787124D01*
X318898Y787253D01*
D02*
G37*
G36*
X515748D02*
X514768Y787124D01*
X513854Y786745D01*
X513069Y786143D01*
X512467Y785359D01*
X512089Y784445D01*
X511960Y783465D01*
X512089Y782484D01*
X512467Y781570D01*
X513069Y780786D01*
X513854Y780184D01*
X514768Y779805D01*
X515748Y779676D01*
X516728Y779805D01*
X517642Y780184D01*
X518427Y780786D01*
X519029Y781570D01*
X519407Y782484D01*
X519536Y783465D01*
X519407Y784445D01*
X519029Y785359D01*
X518427Y786143D01*
X517642Y786745D01*
X516728Y787124D01*
X515748Y787253D01*
D02*
G37*
G36*
X614173D02*
X613193Y787124D01*
X612279Y786745D01*
X611494Y786143D01*
X610892Y785359D01*
X610514Y784445D01*
X610385Y783465D01*
X610514Y782484D01*
X610892Y781570D01*
X611494Y780786D01*
X612279Y780184D01*
X613193Y779805D01*
X614173Y779676D01*
X615154Y779805D01*
X616067Y780184D01*
X616852Y780786D01*
X617454Y781570D01*
X617832Y782484D01*
X617962Y783465D01*
X617832Y784445D01*
X617454Y785359D01*
X616852Y786143D01*
X616067Y786745D01*
X615154Y787124D01*
X614173Y787253D01*
D02*
G37*
G36*
X992500Y806028D02*
Y803500D01*
X995028D01*
X994988Y803801D01*
X994679Y804547D01*
X994187Y805187D01*
X993547Y805679D01*
X992801Y805988D01*
X992500Y806028D01*
D02*
G37*
G36*
X1022000Y815543D02*
X1020695Y815371D01*
X1019478Y814867D01*
X1018434Y814066D01*
X1017632Y813022D01*
X1017129Y811805D01*
X1016957Y810500D01*
X1017129Y809195D01*
X1017632Y807978D01*
X1018434Y806934D01*
X1019478Y806133D01*
X1020695Y805629D01*
X1022000Y805457D01*
X1023305Y805629D01*
X1024522Y806133D01*
X1025566Y806934D01*
X1026367Y807978D01*
X1026871Y809195D01*
X1027043Y810500D01*
X1026871Y811805D01*
X1026367Y813022D01*
X1025566Y814066D01*
X1024522Y814867D01*
X1023305Y815371D01*
X1022000Y815543D01*
D02*
G37*
G36*
X786500Y821039D02*
X785325Y820884D01*
X784231Y820431D01*
X783291Y819709D01*
X782569Y818769D01*
X782116Y817675D01*
X781961Y816500D01*
X782116Y815325D01*
X782569Y814231D01*
X783291Y813291D01*
X784231Y812569D01*
X785325Y812116D01*
X786500Y811961D01*
X787675Y812116D01*
X788769Y812569D01*
X789709Y813291D01*
X790431Y814231D01*
X790884Y815325D01*
X791039Y816500D01*
X790884Y817675D01*
X790431Y818769D01*
X789709Y819709D01*
X788769Y820431D01*
X787675Y820884D01*
X786500Y821039D01*
D02*
G37*
G36*
X819594Y832500D02*
X815157D01*
Y828063D01*
X816733D01*
X823477Y821319D01*
Y797847D01*
X821154D01*
Y794000D01*
X829846D01*
Y797847D01*
X827523D01*
Y822157D01*
X827369Y822932D01*
X826931Y823588D01*
X819594Y830924D01*
Y832500D01*
D02*
G37*
G36*
X726500Y811039D02*
X725325Y810884D01*
X724231Y810431D01*
X723291Y809709D01*
X722569Y808769D01*
X722116Y807675D01*
X721961Y806500D01*
X722116Y805325D01*
X722569Y804231D01*
X723291Y803291D01*
X724231Y802569D01*
X725325Y802116D01*
X726500Y801961D01*
X727675Y802116D01*
X728769Y802569D01*
X729709Y803291D01*
X730431Y804231D01*
X730884Y805325D01*
X731039Y806500D01*
X730884Y807675D01*
X730431Y808769D01*
X729709Y809709D01*
X728769Y810431D01*
X727675Y810884D01*
X726500Y811039D01*
D02*
G37*
G36*
X786500D02*
X785325Y810884D01*
X784231Y810431D01*
X783291Y809709D01*
X782569Y808769D01*
X782116Y807675D01*
X781961Y806500D01*
X782116Y805325D01*
X782569Y804231D01*
X783291Y803291D01*
X784231Y802569D01*
X785325Y802116D01*
X786500Y801961D01*
X787675Y802116D01*
X788769Y802569D01*
X789709Y803291D01*
X790431Y804231D01*
X790884Y805325D01*
X791039Y806500D01*
X790884Y807675D01*
X790431Y808769D01*
X789709Y809709D01*
X788769Y810431D01*
X787675Y810884D01*
X786500Y811039D01*
D02*
G37*
G36*
X896500Y732034D02*
X895456Y731897D01*
X894483Y731494D01*
X893647Y730853D01*
X893006Y730017D01*
X892603Y729044D01*
X892465Y728000D01*
X892603Y726956D01*
X893006Y725983D01*
X893647Y725147D01*
X894483Y724506D01*
X895456Y724103D01*
X896500Y723966D01*
X897544Y724103D01*
X898517Y724506D01*
X899353Y725147D01*
X899994Y725983D01*
X900397Y726956D01*
X900535Y728000D01*
X900397Y729044D01*
X899994Y730017D01*
X899353Y730853D01*
X898517Y731494D01*
X897544Y731897D01*
X896500Y732034D01*
D02*
G37*
G36*
X99409Y735295D02*
X98121Y735125D01*
X96920Y734627D01*
X95888Y733836D01*
X95097Y732805D01*
X94599Y731604D01*
X94430Y730315D01*
X94599Y729026D01*
X95097Y727825D01*
X95888Y726794D01*
X96920Y726003D01*
X98121Y725505D01*
X99409Y725335D01*
X100698Y725505D01*
X101899Y726003D01*
X102930Y726794D01*
X103722Y727825D01*
X104219Y729026D01*
X104389Y730315D01*
X104219Y731604D01*
X103722Y732805D01*
X102930Y733836D01*
X101899Y734627D01*
X100698Y735125D01*
X99409Y735295D01*
D02*
G37*
G36*
X243110D02*
X241821Y735125D01*
X240620Y734627D01*
X239589Y733836D01*
X238798Y732805D01*
X238300Y731604D01*
X238131Y730315D01*
X238300Y729026D01*
X238798Y727825D01*
X239589Y726794D01*
X240620Y726003D01*
X241821Y725505D01*
X243110Y725335D01*
X244399Y725505D01*
X245600Y726003D01*
X246631Y726794D01*
X247423Y727825D01*
X247920Y729026D01*
X248090Y730315D01*
X247920Y731604D01*
X247423Y732805D01*
X246631Y733836D01*
X245600Y734627D01*
X244399Y735125D01*
X243110Y735295D01*
D02*
G37*
G36*
X515748Y717578D02*
X514459Y717409D01*
X513258Y716911D01*
X512227Y716120D01*
X511436Y715088D01*
X510938Y713887D01*
X510768Y712599D01*
X510938Y711310D01*
X511436Y710109D01*
X512227Y709078D01*
X513258Y708286D01*
X514459Y707789D01*
X515748Y707619D01*
X517037Y707789D01*
X518238Y708286D01*
X519269Y709078D01*
X520060Y710109D01*
X520558Y711310D01*
X520728Y712599D01*
X520558Y713887D01*
X520060Y715088D01*
X519269Y716120D01*
X518238Y716911D01*
X517037Y717409D01*
X515748Y717578D01*
D02*
G37*
G36*
X236220Y721515D02*
X234932Y721346D01*
X233731Y720848D01*
X232699Y720057D01*
X231908Y719025D01*
X231411Y717824D01*
X231241Y716536D01*
X231411Y715247D01*
X231908Y714046D01*
X232699Y713015D01*
X233731Y712223D01*
X234932Y711726D01*
X236220Y711556D01*
X237509Y711726D01*
X238710Y712223D01*
X239741Y713015D01*
X240533Y714046D01*
X241030Y715247D01*
X241200Y716536D01*
X241030Y717824D01*
X240533Y719025D01*
X239741Y720057D01*
X238710Y720848D01*
X237509Y721346D01*
X236220Y721515D01*
D02*
G37*
G36*
X433071D02*
X431782Y721346D01*
X430581Y720848D01*
X429550Y720057D01*
X428758Y719025D01*
X428261Y717824D01*
X428091Y716536D01*
X428261Y715247D01*
X428758Y714046D01*
X429550Y713015D01*
X430581Y712223D01*
X431782Y711726D01*
X433071Y711556D01*
X434360Y711726D01*
X435561Y712223D01*
X436592Y713015D01*
X437383Y714046D01*
X437881Y715247D01*
X438050Y716536D01*
X437881Y717824D01*
X437383Y719025D01*
X436592Y720057D01*
X435561Y720848D01*
X434360Y721346D01*
X433071Y721515D01*
D02*
G37*
G36*
X865437Y738490D02*
X864534Y738372D01*
X863692Y738023D01*
X862969Y737468D01*
X862414Y736745D01*
X862066Y735903D01*
X861946Y735000D01*
X862066Y734097D01*
X862414Y733255D01*
X862969Y732532D01*
X863692Y731977D01*
X864534Y731628D01*
X865437Y731509D01*
X866340Y731628D01*
X867182Y731977D01*
X867905Y732532D01*
X868460Y733255D01*
X868808Y734097D01*
X868927Y735000D01*
X868808Y735903D01*
X868460Y736745D01*
X867905Y737468D01*
X867182Y738023D01*
X866340Y738372D01*
X865437Y738490D01*
D02*
G37*
G36*
X857063Y734500D02*
X854102D01*
Y731539D01*
X857063D01*
Y734500D01*
D02*
G37*
G36*
X861024D02*
X858063D01*
Y731539D01*
X861024D01*
Y734500D01*
D02*
G37*
G36*
X296260Y735295D02*
X294971Y735125D01*
X293770Y734627D01*
X292739Y733836D01*
X291947Y732805D01*
X291450Y731604D01*
X291280Y730315D01*
X291450Y729026D01*
X291947Y727825D01*
X292739Y726794D01*
X293770Y726003D01*
X294971Y725505D01*
X296260Y725335D01*
X297549Y725505D01*
X298750Y726003D01*
X299781Y726794D01*
X300572Y727825D01*
X301070Y729026D01*
X301239Y730315D01*
X301070Y731604D01*
X300572Y732805D01*
X299781Y733836D01*
X298750Y734627D01*
X297549Y735125D01*
X296260Y735295D01*
D02*
G37*
G36*
X439961D02*
X438672Y735125D01*
X437471Y734627D01*
X436440Y733836D01*
X435648Y732805D01*
X435151Y731604D01*
X434981Y730315D01*
X435151Y729026D01*
X435648Y727825D01*
X436440Y726794D01*
X437471Y726003D01*
X438672Y725505D01*
X439961Y725335D01*
X441249Y725505D01*
X442450Y726003D01*
X443482Y726794D01*
X444273Y727825D01*
X444770Y729026D01*
X444940Y730315D01*
X444770Y731604D01*
X444273Y732805D01*
X443482Y733836D01*
X442450Y734627D01*
X441249Y735125D01*
X439961Y735295D01*
D02*
G37*
G36*
X493110D02*
X491821Y735125D01*
X490620Y734627D01*
X489589Y733836D01*
X488798Y732805D01*
X488300Y731604D01*
X488131Y730315D01*
X488300Y729026D01*
X488798Y727825D01*
X489589Y726794D01*
X490620Y726003D01*
X491821Y725505D01*
X493110Y725335D01*
X494399Y725505D01*
X495600Y726003D01*
X496631Y726794D01*
X497423Y727825D01*
X497920Y729026D01*
X498090Y730315D01*
X497920Y731604D01*
X497423Y732805D01*
X496631Y733836D01*
X495600Y734627D01*
X494399Y735125D01*
X493110Y735295D01*
D02*
G37*
G36*
X817500Y690500D02*
X814000D01*
Y687000D01*
X817500D01*
Y690500D01*
D02*
G37*
G36*
X1022000Y775543D02*
X1020695Y775371D01*
X1019478Y774867D01*
X1018434Y774066D01*
X1017632Y773022D01*
X1017129Y771805D01*
X1016957Y770500D01*
X1017129Y769195D01*
X1017632Y767978D01*
X1018434Y766934D01*
X1019478Y766132D01*
X1020695Y765629D01*
X1022000Y765457D01*
X1022715Y765551D01*
X1035506Y752760D01*
Y706524D01*
X1026589Y697606D01*
X1026262Y697563D01*
X1025372Y697195D01*
X1024608Y696609D01*
X1024022Y695845D01*
X1023653Y694955D01*
X1023527Y694000D01*
X1023653Y693045D01*
X1024022Y692156D01*
X1024608Y691391D01*
X1025372Y690805D01*
X1026262Y690437D01*
X1027216Y690311D01*
X1028171Y690437D01*
X1029061Y690805D01*
X1029825Y691391D01*
X1030411Y692156D01*
X1030780Y693045D01*
X1030823Y693372D01*
X1040617Y703166D01*
X1041093Y703787D01*
X1041217Y704086D01*
X1041392Y704509D01*
X1041494Y705284D01*
Y754000D01*
X1041392Y754775D01*
X1041243Y755136D01*
X1041093Y755497D01*
X1040617Y756117D01*
X1026949Y769785D01*
X1027043Y770500D01*
X1026871Y771805D01*
X1026367Y773022D01*
X1025566Y774066D01*
X1024522Y774867D01*
X1023305Y775371D01*
X1022000Y775543D01*
D02*
G37*
G36*
X813000Y695000D02*
X809500D01*
Y691500D01*
X813000D01*
Y695000D01*
D02*
G37*
G36*
X57087Y696311D02*
X55656Y696170D01*
X54280Y695753D01*
X53012Y695075D01*
X51900Y694163D01*
X50988Y693051D01*
X50310Y691783D01*
X49893Y690407D01*
X49752Y688976D01*
X49893Y687545D01*
X50310Y686170D01*
X50988Y684902D01*
X51900Y683790D01*
X53012Y682878D01*
X54280Y682200D01*
X55656Y681783D01*
X57087Y681642D01*
X58517Y681783D01*
X59893Y682200D01*
X61162Y682878D01*
X62273Y683790D01*
X63185Y684902D01*
X63863Y686170D01*
X64280Y687545D01*
X64421Y688976D01*
X64280Y690407D01*
X63863Y691783D01*
X63185Y693051D01*
X62273Y694163D01*
X61162Y695075D01*
X59893Y695753D01*
X58517Y696170D01*
X57087Y696311D01*
D02*
G37*
G36*
X915354D02*
X913923Y696170D01*
X912547Y695753D01*
X911279Y695075D01*
X910168Y694163D01*
X909256Y693051D01*
X908578Y691783D01*
X908161Y690407D01*
X908020Y688976D01*
X908161Y687545D01*
X908578Y686170D01*
X909256Y684902D01*
X910168Y683790D01*
X911279Y682878D01*
X912547Y682200D01*
X913923Y681783D01*
X915354Y681642D01*
X916785Y681783D01*
X918161Y682200D01*
X919429Y682878D01*
X920541Y683790D01*
X921453Y684902D01*
X922131Y686170D01*
X922548Y687545D01*
X922689Y688976D01*
X922548Y690407D01*
X922131Y691783D01*
X921453Y693051D01*
X920541Y694163D01*
X919429Y695075D01*
X918161Y695753D01*
X916785Y696170D01*
X915354Y696311D01*
D02*
G37*
G36*
X813000Y690500D02*
X809500D01*
Y687000D01*
X813000D01*
Y690500D01*
D02*
G37*
G36*
X220472Y717578D02*
X219184Y717409D01*
X217983Y716911D01*
X216951Y716120D01*
X216160Y715088D01*
X215663Y713887D01*
X215493Y712599D01*
X215663Y711310D01*
X216160Y710109D01*
X216951Y709078D01*
X217983Y708286D01*
X219184Y707789D01*
X220472Y707619D01*
X221761Y707789D01*
X222962Y708286D01*
X223993Y709078D01*
X224785Y710109D01*
X225282Y711310D01*
X225452Y712599D01*
X225282Y713887D01*
X224785Y715088D01*
X223993Y716120D01*
X222962Y716911D01*
X221761Y717409D01*
X220472Y717578D01*
D02*
G37*
G36*
X318898D02*
X317609Y717409D01*
X316408Y716911D01*
X315376Y716120D01*
X314585Y715088D01*
X314088Y713887D01*
X313918Y712599D01*
X314088Y711310D01*
X314585Y710109D01*
X315376Y709078D01*
X316408Y708286D01*
X317609Y707789D01*
X318898Y707619D01*
X320186Y707789D01*
X321387Y708286D01*
X322419Y709078D01*
X323210Y710109D01*
X323708Y711310D01*
X323877Y712599D01*
X323708Y713887D01*
X323210Y715088D01*
X322419Y716120D01*
X321387Y716911D01*
X320186Y717409D01*
X318898Y717578D01*
D02*
G37*
G36*
X417323D02*
X416034Y717409D01*
X414833Y716911D01*
X413802Y716120D01*
X413010Y715088D01*
X412513Y713887D01*
X412343Y712599D01*
X412513Y711310D01*
X413010Y710109D01*
X413802Y709078D01*
X414833Y708286D01*
X416034Y707789D01*
X417323Y707619D01*
X418612Y707789D01*
X419813Y708286D01*
X420844Y709078D01*
X421635Y710109D01*
X422133Y711310D01*
X422302Y712599D01*
X422133Y713887D01*
X421635Y715088D01*
X420844Y716120D01*
X419813Y716911D01*
X418612Y717409D01*
X417323Y717578D01*
D02*
G37*
G36*
X830890Y737500D02*
X822890D01*
Y734000D01*
X824867D01*
Y705228D01*
X814639Y695000D01*
X814000D01*
Y691500D01*
X817500D01*
Y692139D01*
X828320Y702959D01*
X828759Y703616D01*
X828913Y704390D01*
Y734000D01*
X830890D01*
Y737500D01*
D02*
G37*
G36*
X958500Y724035D02*
X957456Y723897D01*
X956483Y723494D01*
X955647Y722853D01*
X955006Y722017D01*
X954603Y721044D01*
X954496Y720230D01*
X941260Y706994D01*
X907000D01*
X906225Y706892D01*
X906014Y706805D01*
X905503Y706593D01*
X904883Y706117D01*
X892760Y693994D01*
X856169D01*
X855517Y694494D01*
X854544Y694897D01*
X853500Y695035D01*
X852456Y694897D01*
X851483Y694494D01*
X850647Y693853D01*
X850006Y693017D01*
X849603Y692044D01*
X849465Y691000D01*
X849603Y689956D01*
X850006Y688983D01*
X850647Y688147D01*
X851483Y687506D01*
X852456Y687103D01*
X853500Y686966D01*
X854544Y687103D01*
X855517Y687506D01*
X856169Y688006D01*
X894000D01*
X894775Y688108D01*
X894986Y688196D01*
X895497Y688407D01*
X896117Y688883D01*
X908240Y701006D01*
X942500D01*
X943275Y701108D01*
X943486Y701195D01*
X943997Y701407D01*
X944617Y701883D01*
X958730Y715996D01*
X959544Y716103D01*
X960517Y716506D01*
X961353Y717147D01*
X961994Y717983D01*
X962397Y718956D01*
X962535Y720000D01*
X962397Y721044D01*
X961994Y722017D01*
X961353Y722853D01*
X960517Y723494D01*
X959544Y723897D01*
X958500Y724035D01*
D02*
G37*
G36*
X122047Y717578D02*
X120758Y717409D01*
X119557Y716911D01*
X118526Y716120D01*
X117735Y715088D01*
X117237Y713887D01*
X117068Y712599D01*
X117237Y711310D01*
X117735Y710109D01*
X118526Y709078D01*
X119557Y708286D01*
X120758Y707789D01*
X122047Y707619D01*
X123336Y707789D01*
X124537Y708286D01*
X125568Y709078D01*
X126360Y710109D01*
X126857Y711310D01*
X127027Y712599D01*
X126857Y713887D01*
X126360Y715088D01*
X125568Y716120D01*
X124537Y716911D01*
X123336Y717409D01*
X122047Y717578D01*
D02*
G37*
G36*
X394685Y753011D02*
X393396Y752842D01*
X392195Y752344D01*
X391164Y751553D01*
X390372Y750521D01*
X389875Y749320D01*
X389705Y748032D01*
X389875Y746743D01*
X390372Y745542D01*
X391164Y744511D01*
X392195Y743719D01*
X393396Y743222D01*
X394685Y743052D01*
X395974Y743222D01*
X397175Y743719D01*
X398206Y744511D01*
X398997Y745542D01*
X399495Y746743D01*
X399665Y748032D01*
X399495Y749320D01*
X398997Y750521D01*
X398206Y751553D01*
X397175Y752344D01*
X395974Y752842D01*
X394685Y753011D01*
D02*
G37*
G36*
X439961D02*
X438672Y752842D01*
X437471Y752344D01*
X436440Y751553D01*
X435648Y750521D01*
X435151Y749320D01*
X434981Y748032D01*
X435151Y746743D01*
X435648Y745542D01*
X436440Y744511D01*
X437471Y743719D01*
X438672Y743222D01*
X439961Y743052D01*
X441249Y743222D01*
X442450Y743719D01*
X443482Y744511D01*
X444273Y745542D01*
X444770Y746743D01*
X444940Y748032D01*
X444770Y749320D01*
X444273Y750521D01*
X443482Y751553D01*
X442450Y752344D01*
X441249Y752842D01*
X439961Y753011D01*
D02*
G37*
G36*
X493110D02*
X491821Y752842D01*
X490620Y752344D01*
X489589Y751553D01*
X488798Y750521D01*
X488300Y749320D01*
X488131Y748032D01*
X488300Y746743D01*
X488798Y745542D01*
X489589Y744511D01*
X490620Y743719D01*
X491821Y743222D01*
X493110Y743052D01*
X494399Y743222D01*
X495600Y743719D01*
X496631Y744511D01*
X497423Y745542D01*
X497920Y746743D01*
X498090Y748032D01*
X497920Y749320D01*
X497423Y750521D01*
X496631Y751553D01*
X495600Y752344D01*
X494399Y752842D01*
X493110Y753011D01*
D02*
G37*
G36*
X243110D02*
X241821Y752842D01*
X240620Y752344D01*
X239589Y751553D01*
X238798Y750521D01*
X238300Y749320D01*
X238131Y748032D01*
X238300Y746743D01*
X238798Y745542D01*
X239589Y744511D01*
X240620Y743719D01*
X241821Y743222D01*
X243110Y743052D01*
X244399Y743222D01*
X245600Y743719D01*
X246631Y744511D01*
X247423Y745542D01*
X247920Y746743D01*
X248090Y748032D01*
X247920Y749320D01*
X247423Y750521D01*
X246631Y751553D01*
X245600Y752344D01*
X244399Y752842D01*
X243110Y753011D01*
D02*
G37*
G36*
X296260D02*
X294971Y752842D01*
X293770Y752344D01*
X292739Y751553D01*
X291947Y750521D01*
X291450Y749320D01*
X291280Y748032D01*
X291450Y746743D01*
X291947Y745542D01*
X292739Y744511D01*
X293770Y743719D01*
X294971Y743222D01*
X296260Y743052D01*
X297549Y743222D01*
X298750Y743719D01*
X299781Y744511D01*
X300572Y745542D01*
X301070Y746743D01*
X301239Y748032D01*
X301070Y749320D01*
X300572Y750521D01*
X299781Y751553D01*
X298750Y752344D01*
X297549Y752842D01*
X296260Y753011D01*
D02*
G37*
G36*
X341535D02*
X340247Y752842D01*
X339046Y752344D01*
X338014Y751553D01*
X337223Y750521D01*
X336725Y749320D01*
X336556Y748032D01*
X336725Y746743D01*
X337223Y745542D01*
X338014Y744511D01*
X339046Y743719D01*
X340247Y743222D01*
X341535Y743052D01*
X342824Y743222D01*
X344025Y743719D01*
X345057Y744511D01*
X345848Y745542D01*
X346345Y746743D01*
X346515Y748032D01*
X346345Y749320D01*
X345848Y750521D01*
X345057Y751553D01*
X344025Y752344D01*
X342824Y752842D01*
X341535Y753011D01*
D02*
G37*
G36*
X959000Y755487D02*
X957968Y755351D01*
X957007Y754953D01*
X956181Y754319D01*
X955547Y753493D01*
X955149Y752532D01*
X955013Y751500D01*
X955149Y750468D01*
X955547Y749507D01*
X956181Y748681D01*
X957007Y748047D01*
X957968Y747649D01*
X959000Y747513D01*
X960032Y747649D01*
X960993Y748047D01*
X961819Y748681D01*
X962453Y749507D01*
X962851Y750468D01*
X962987Y751500D01*
X962851Y752532D01*
X962453Y753493D01*
X961819Y754319D01*
X960993Y754953D01*
X960032Y755351D01*
X959000Y755487D01*
D02*
G37*
G36*
X968500Y751000D02*
X965047D01*
Y747547D01*
X968500D01*
Y751000D01*
D02*
G37*
G36*
X99409Y770728D02*
X98121Y770558D01*
X96920Y770061D01*
X95888Y769269D01*
X95097Y768238D01*
X94599Y767037D01*
X94430Y765748D01*
X94599Y764459D01*
X95097Y763258D01*
X95888Y762227D01*
X96920Y761436D01*
X98121Y760938D01*
X99409Y760769D01*
X100698Y760938D01*
X101899Y761436D01*
X102930Y762227D01*
X103722Y763258D01*
X104219Y764459D01*
X104389Y765748D01*
X104219Y767037D01*
X103722Y768238D01*
X102930Y769269D01*
X101899Y770061D01*
X100698Y770558D01*
X99409Y770728D01*
D02*
G37*
G36*
X538386Y753011D02*
X537097Y752842D01*
X535896Y752344D01*
X534865Y751553D01*
X534073Y750521D01*
X533576Y749320D01*
X533406Y748032D01*
X533576Y746743D01*
X534073Y745542D01*
X534865Y744511D01*
X535896Y743719D01*
X537097Y743222D01*
X538386Y743052D01*
X539675Y743222D01*
X540876Y743719D01*
X541907Y744511D01*
X542698Y745542D01*
X543196Y746743D01*
X543365Y748032D01*
X543196Y749320D01*
X542698Y750521D01*
X541907Y751553D01*
X540876Y752344D01*
X539675Y752842D01*
X538386Y753011D01*
D02*
G37*
G36*
X591535D02*
X590247Y752842D01*
X589046Y752344D01*
X588014Y751553D01*
X587223Y750521D01*
X586726Y749320D01*
X586556Y748032D01*
X586726Y746743D01*
X587223Y745542D01*
X588014Y744511D01*
X589046Y743719D01*
X590247Y743222D01*
X591535Y743052D01*
X592824Y743222D01*
X594025Y743719D01*
X595056Y744511D01*
X595848Y745542D01*
X596345Y746743D01*
X596515Y748032D01*
X596345Y749320D01*
X595848Y750521D01*
X595056Y751553D01*
X594025Y752344D01*
X592824Y752842D01*
X591535Y753011D01*
D02*
G37*
G36*
X949000Y755487D02*
X947968Y755351D01*
X947007Y754953D01*
X946181Y754319D01*
X945547Y753493D01*
X945149Y752532D01*
X945013Y751500D01*
X945149Y750468D01*
X945547Y749507D01*
X946181Y748681D01*
X947007Y748047D01*
X947968Y747649D01*
X949000Y747513D01*
X950032Y747649D01*
X950993Y748047D01*
X951819Y748681D01*
X952453Y749507D01*
X952851Y750468D01*
X952987Y751500D01*
X952851Y752532D01*
X952453Y753493D01*
X951819Y754319D01*
X950993Y754953D01*
X950032Y755351D01*
X949000Y755487D01*
D02*
G37*
G36*
X861024Y738461D02*
X858063D01*
Y735500D01*
X861024D01*
Y738461D01*
D02*
G37*
G36*
X708000Y740650D02*
X702382D01*
Y737000D01*
X708000D01*
Y740650D01*
D02*
G37*
G36*
X829846Y793000D02*
X821154D01*
Y789153D01*
X823477D01*
Y767190D01*
X823486Y767142D01*
X823479Y767094D01*
X824657Y742362D01*
X824312Y742000D01*
X822890D01*
Y738500D01*
X830890D01*
Y742000D01*
X828725D01*
X827523Y767238D01*
Y789153D01*
X829846D01*
Y793000D01*
D02*
G37*
G36*
X708000Y736000D02*
X702382D01*
Y732350D01*
X708000D01*
Y736000D01*
D02*
G37*
G36*
X775900Y960123D02*
X612195D01*
X611420Y959969D01*
X610764Y959531D01*
X592664Y941431D01*
X592226Y940774D01*
X592071Y940000D01*
Y890977D01*
X591416Y890474D01*
X590814Y889689D01*
X590435Y888776D01*
X590306Y887795D01*
X590435Y886815D01*
X590814Y885901D01*
X591416Y885116D01*
X592200Y884514D01*
X593114Y884136D01*
X594095Y884007D01*
X595075Y884136D01*
X595989Y884514D01*
X596773Y885116D01*
X597375Y885901D01*
X597754Y886815D01*
X597883Y887795D01*
X597754Y888776D01*
X597375Y889689D01*
X596773Y890474D01*
X596118Y890977D01*
Y919679D01*
X596618Y919778D01*
X596912Y919068D01*
X597609Y918160D01*
X598517Y917463D01*
X599574Y917025D01*
X600709Y916876D01*
X601843Y917025D01*
X602901Y917463D01*
X603808Y918160D01*
X604505Y919068D01*
X604943Y920125D01*
X605093Y921260D01*
X604943Y922394D01*
X604873Y922563D01*
X628987Y946677D01*
X688415D01*
X688465Y946177D01*
X688426Y946169D01*
X687769Y945731D01*
X673469Y931431D01*
X673031Y930774D01*
X672877Y930000D01*
Y810300D01*
X673031Y809526D01*
X673469Y808869D01*
X683677Y798662D01*
Y779899D01*
X683177Y779652D01*
X682561Y780125D01*
X681552Y780543D01*
X680469Y780685D01*
X680387D01*
X680369Y780774D01*
X679931Y781431D01*
X664731Y796631D01*
X664074Y797069D01*
X663300Y797223D01*
X656420D01*
X655646Y797069D01*
X654990Y796631D01*
X593291Y734932D01*
X592824Y735125D01*
X591535Y735295D01*
X590247Y735125D01*
X589046Y734627D01*
X588014Y733836D01*
X587223Y732805D01*
X586726Y731604D01*
X586556Y730315D01*
X586726Y729026D01*
X587223Y727825D01*
X588014Y726794D01*
X589046Y726003D01*
X589237Y725923D01*
X589138Y725423D01*
X540783D01*
X540684Y725923D01*
X540876Y726003D01*
X541907Y726794D01*
X542698Y727825D01*
X543196Y729026D01*
X543365Y730315D01*
X543196Y731604D01*
X542698Y732805D01*
X541907Y733836D01*
X540876Y734627D01*
X539675Y735125D01*
X538386Y735295D01*
X537097Y735125D01*
X535896Y734627D01*
X534865Y733836D01*
X534073Y732805D01*
X533576Y731604D01*
X533406Y730315D01*
X533576Y729026D01*
X534073Y727825D01*
X534865Y726794D01*
X535896Y726003D01*
X536088Y725923D01*
X535988Y725423D01*
X506864D01*
X506090Y725269D01*
X505434Y724831D01*
X501756Y721152D01*
X501289Y721346D01*
X500000Y721515D01*
X498711Y721346D01*
X497510Y720848D01*
X496479Y720057D01*
X495687Y719025D01*
X495190Y717824D01*
X495020Y716536D01*
X495190Y715247D01*
X495540Y714401D01*
X483162Y702023D01*
X418948D01*
X406191Y714780D01*
X406385Y715247D01*
X406554Y716536D01*
X406385Y717824D01*
X405887Y719025D01*
X405096Y720057D01*
X404065Y720848D01*
X402864Y721346D01*
X401575Y721515D01*
X400286Y721346D01*
X399819Y721152D01*
X396041Y724931D01*
X395942Y724997D01*
X395961Y725302D01*
X396040Y725532D01*
X397175Y726003D01*
X398206Y726794D01*
X398997Y727825D01*
X399495Y729026D01*
X399665Y730315D01*
X399495Y731604D01*
X398997Y732805D01*
X398206Y733836D01*
X397175Y734627D01*
X395974Y735125D01*
X394685Y735295D01*
X393396Y735125D01*
X392195Y734627D01*
X391164Y733836D01*
X390372Y732805D01*
X389875Y731604D01*
X389705Y730315D01*
X389875Y729026D01*
X390372Y727825D01*
X391164Y726794D01*
X392168Y726023D01*
X392170Y725994D01*
X391865Y725523D01*
X344356D01*
X344050Y725994D01*
X344052Y726023D01*
X345057Y726794D01*
X345848Y727825D01*
X346345Y729026D01*
X346515Y730315D01*
X346345Y731604D01*
X345848Y732805D01*
X345057Y733836D01*
X344025Y734627D01*
X342824Y735125D01*
X341535Y735295D01*
X340247Y735125D01*
X339046Y734627D01*
X338014Y733836D01*
X337223Y732805D01*
X336725Y731604D01*
X336556Y730315D01*
X336725Y729026D01*
X337223Y727825D01*
X338014Y726794D01*
X339019Y726023D01*
X339021Y725994D01*
X338715Y725523D01*
X310114D01*
X309340Y725369D01*
X308683Y724931D01*
X304905Y721152D01*
X304438Y721346D01*
X303150Y721515D01*
X301861Y721346D01*
X300660Y720848D01*
X299628Y720057D01*
X298837Y719025D01*
X298340Y717824D01*
X298170Y716536D01*
X298340Y715247D01*
X298533Y714780D01*
X287776Y704023D01*
X220098D01*
X209341Y714780D01*
X209534Y715247D01*
X209704Y716536D01*
X209534Y717824D01*
X209037Y719025D01*
X208245Y720057D01*
X207214Y720848D01*
X206013Y721346D01*
X204724Y721515D01*
X203436Y721346D01*
X202969Y721152D01*
X199291Y724831D01*
X199050Y724991D01*
X199106Y725385D01*
X199159Y725520D01*
X200324Y726003D01*
X201356Y726794D01*
X202147Y727825D01*
X202644Y729026D01*
X202814Y730315D01*
X202644Y731604D01*
X202147Y732805D01*
X201356Y733836D01*
X200324Y734627D01*
X199123Y735125D01*
X197835Y735295D01*
X196546Y735125D01*
X195345Y734627D01*
X194314Y733836D01*
X193522Y732805D01*
X193025Y731604D01*
X192855Y730315D01*
X193025Y729026D01*
X193522Y727825D01*
X194314Y726794D01*
X195345Y726003D01*
X195536Y725923D01*
X195437Y725423D01*
X147082D01*
X146983Y725923D01*
X147175Y726003D01*
X148206Y726794D01*
X148997Y727825D01*
X149495Y729026D01*
X149665Y730315D01*
X149495Y731604D01*
X148997Y732805D01*
X148206Y733836D01*
X147175Y734627D01*
X145974Y735125D01*
X144685Y735295D01*
X143396Y735125D01*
X142195Y734627D01*
X141164Y733836D01*
X140373Y732805D01*
X139875Y731604D01*
X139705Y730315D01*
X139875Y729026D01*
X140373Y727825D01*
X141164Y726794D01*
X142195Y726003D01*
X142387Y725923D01*
X142287Y725423D01*
X113164D01*
X112389Y725269D01*
X111733Y724831D01*
X108055Y721152D01*
X107588Y721346D01*
X106299Y721515D01*
X105010Y721346D01*
X103809Y720848D01*
X102778Y720057D01*
X101987Y719025D01*
X101489Y717824D01*
X101320Y716536D01*
X101489Y715247D01*
X101987Y714046D01*
X102778Y713015D01*
X103809Y712223D01*
X105010Y711726D01*
X106299Y711556D01*
X107588Y711726D01*
X108789Y712223D01*
X109820Y713015D01*
X110612Y714046D01*
X111109Y715247D01*
X111279Y716536D01*
X111109Y717824D01*
X110916Y718291D01*
X114002Y721377D01*
X135275D01*
X135375Y720877D01*
X135305Y720848D01*
X134274Y720057D01*
X133483Y719025D01*
X132985Y717824D01*
X132816Y716536D01*
X132985Y715247D01*
X133483Y714046D01*
X134274Y713015D01*
X135305Y712223D01*
X136506Y711726D01*
X137795Y711556D01*
X139084Y711726D01*
X140285Y712223D01*
X141316Y713015D01*
X142108Y714046D01*
X142605Y715247D01*
X142775Y716536D01*
X142605Y717824D01*
X142108Y719025D01*
X141316Y720057D01*
X140285Y720848D01*
X140216Y720877D01*
X140315Y721377D01*
X197022D01*
X200108Y718291D01*
X199915Y717824D01*
X199745Y716536D01*
X199915Y715247D01*
X200412Y714046D01*
X201203Y713015D01*
X202235Y712223D01*
X203436Y711726D01*
X204724Y711556D01*
X206013Y711726D01*
X206480Y711919D01*
X217829Y700569D01*
X218486Y700131D01*
X219260Y699977D01*
X288614D01*
X289388Y700131D01*
X290045Y700569D01*
X301394Y711919D01*
X301861Y711726D01*
X303150Y711556D01*
X304438Y711726D01*
X305639Y712223D01*
X306671Y713015D01*
X307462Y714046D01*
X307960Y715247D01*
X308129Y716536D01*
X307960Y717824D01*
X307766Y718291D01*
X310952Y721477D01*
X332367D01*
X332467Y720977D01*
X332156Y720848D01*
X331124Y720057D01*
X330333Y719025D01*
X329836Y717824D01*
X329666Y716536D01*
X329836Y715247D01*
X330333Y714046D01*
X331124Y713015D01*
X332156Y712223D01*
X333357Y711726D01*
X334646Y711556D01*
X335934Y711726D01*
X337135Y712223D01*
X338167Y713015D01*
X338958Y714046D01*
X339456Y715247D01*
X339625Y716536D01*
X339456Y717824D01*
X338958Y719025D01*
X338167Y720057D01*
X337135Y720848D01*
X336824Y720977D01*
X336924Y721477D01*
X393772D01*
X396958Y718291D01*
X396765Y717824D01*
X396595Y716536D01*
X396765Y715247D01*
X397262Y714046D01*
X398054Y713015D01*
X399085Y712223D01*
X400286Y711726D01*
X401575Y711556D01*
X402864Y711726D01*
X403330Y711919D01*
X416680Y698569D01*
X417336Y698131D01*
X418110Y697977D01*
X484000D01*
X484774Y698131D01*
X485431Y698569D01*
X498623Y711762D01*
X498711Y711726D01*
X500000Y711556D01*
X501289Y711726D01*
X502490Y712223D01*
X503521Y713015D01*
X504313Y714046D01*
X504810Y715247D01*
X504980Y716536D01*
X504810Y717824D01*
X504617Y718291D01*
X507702Y721377D01*
X528976D01*
X529076Y720877D01*
X529006Y720848D01*
X527975Y720057D01*
X527183Y719025D01*
X526686Y717824D01*
X526516Y716536D01*
X526686Y715247D01*
X527183Y714046D01*
X527975Y713015D01*
X529006Y712223D01*
X530207Y711726D01*
X531496Y711556D01*
X532785Y711726D01*
X533251Y711919D01*
X559301Y685869D01*
X559957Y685431D01*
X560732Y685277D01*
X706000D01*
X706774Y685431D01*
X707431Y685869D01*
X720131Y698569D01*
X720569Y699226D01*
X720723Y700000D01*
Y752800D01*
X720569Y753574D01*
X720131Y754231D01*
X716431Y757931D01*
X715774Y758369D01*
X715000Y758523D01*
X714122D01*
X714093Y758593D01*
X713428Y759459D01*
X712561Y760125D01*
X711552Y760543D01*
X710468Y760685D01*
X706531D01*
X705448Y760543D01*
X704439Y760125D01*
X703572Y759459D01*
X702907Y758593D01*
X702489Y757583D01*
X702346Y756500D01*
X702489Y755417D01*
X702907Y754407D01*
X703572Y753541D01*
X704439Y752875D01*
X705448Y752457D01*
X706531Y752315D01*
X710468D01*
X711552Y752457D01*
X712561Y752875D01*
X713428Y753541D01*
X713846Y754085D01*
X714500Y754139D01*
X716677Y751962D01*
Y748789D01*
X716177Y748428D01*
X715700Y748523D01*
X714122D01*
X714093Y748593D01*
X713428Y749460D01*
X712561Y750125D01*
X711552Y750543D01*
X710468Y750685D01*
X706531D01*
X705448Y750543D01*
X704439Y750125D01*
X703572Y749460D01*
X702907Y748593D01*
X702489Y747583D01*
X702346Y746500D01*
X702489Y745417D01*
X702907Y744407D01*
X703572Y743540D01*
X704439Y742875D01*
X705448Y742457D01*
X706531Y742315D01*
X710468D01*
X711552Y742457D01*
X712561Y742875D01*
X713177Y743348D01*
X713677Y743101D01*
Y740650D01*
X709000D01*
Y736500D01*
Y732350D01*
X713677D01*
Y729899D01*
X713177Y729652D01*
X712561Y730125D01*
X711552Y730543D01*
X710468Y730685D01*
X706531D01*
X705448Y730543D01*
X704439Y730125D01*
X703572Y729459D01*
X702907Y728593D01*
X702489Y727583D01*
X702346Y726500D01*
X702489Y725417D01*
X702907Y724407D01*
X703572Y723540D01*
X704439Y722875D01*
X705448Y722457D01*
X706531Y722315D01*
X710468D01*
X711552Y722457D01*
X712561Y722875D01*
X713177Y723348D01*
X713677Y723101D01*
Y719899D01*
X713177Y719652D01*
X712561Y720125D01*
X711552Y720543D01*
X710468Y720685D01*
X706531D01*
X705448Y720543D01*
X704439Y720125D01*
X703572Y719459D01*
X702907Y718593D01*
X702878Y718523D01*
X697900D01*
X697126Y718369D01*
X696469Y717931D01*
X695791Y717252D01*
X695200Y717330D01*
X694612Y717253D01*
X694298Y717683D01*
X694452Y718458D01*
Y724423D01*
X694952Y724593D01*
X695404Y724004D01*
X696135Y723443D01*
X696986Y723090D01*
X697900Y722970D01*
X698814Y723090D01*
X699665Y723443D01*
X700396Y724004D01*
X700957Y724735D01*
X701310Y725586D01*
X701430Y726500D01*
X701310Y727414D01*
X700957Y728265D01*
X700396Y728996D01*
X699665Y729557D01*
X698814Y729910D01*
X697900Y730030D01*
X697796Y730017D01*
X697421Y730346D01*
Y758326D01*
X697869Y758547D01*
X698135Y758343D01*
X698986Y757990D01*
X699900Y757870D01*
X700814Y757990D01*
X701665Y758343D01*
X702396Y758904D01*
X702957Y759635D01*
X703310Y760486D01*
X703430Y761400D01*
X703310Y762314D01*
X702957Y763165D01*
X702396Y763896D01*
X701923Y764259D01*
Y765882D01*
X702423Y765915D01*
X702489Y765417D01*
X702907Y764407D01*
X703572Y763541D01*
X704439Y762875D01*
X705448Y762457D01*
X706531Y762315D01*
X710468D01*
X711552Y762457D01*
X712561Y762875D01*
X713428Y763541D01*
X714093Y764407D01*
X714511Y765417D01*
X714654Y766500D01*
X714511Y767583D01*
X714093Y768593D01*
X713428Y769459D01*
X712561Y770125D01*
X711552Y770543D01*
X710468Y770685D01*
X706531D01*
X705448Y770543D01*
X704439Y770125D01*
X703572Y769459D01*
X702907Y768593D01*
X702489Y767583D01*
X702423Y767085D01*
X701923Y767118D01*
Y773062D01*
X702796Y773935D01*
X703295Y773902D01*
X703572Y773540D01*
X704439Y772875D01*
X705448Y772457D01*
X706531Y772315D01*
X710468D01*
X711552Y772457D01*
X712561Y772875D01*
X713428Y773540D01*
X714093Y774407D01*
X714511Y775417D01*
X714654Y776500D01*
X714511Y777583D01*
X714093Y778593D01*
X713428Y779459D01*
X712561Y780125D01*
X711552Y780543D01*
X710468Y780685D01*
X706531D01*
X705448Y780543D01*
X704439Y780125D01*
X703572Y779459D01*
X702907Y778593D01*
X702878Y778523D01*
X702500D01*
X701726Y778369D01*
X701069Y777931D01*
X698469Y775331D01*
X698031Y774674D01*
X697921Y774119D01*
X697421Y774169D01*
Y844559D01*
X725079Y872218D01*
X725325Y872116D01*
X726500Y871961D01*
X727675Y872116D01*
X728769Y872569D01*
X729709Y873291D01*
X730431Y874231D01*
X730884Y875325D01*
X731039Y876500D01*
X730884Y877675D01*
X730431Y878769D01*
X729709Y879709D01*
X728769Y880431D01*
X727675Y880884D01*
X726500Y881039D01*
X725325Y880884D01*
X724231Y880431D01*
X723291Y879709D01*
X722569Y878769D01*
X722116Y877675D01*
X721961Y876500D01*
X722116Y875325D01*
X722218Y875079D01*
X694914Y847775D01*
X694452Y847966D01*
Y851591D01*
X725079Y882218D01*
X725325Y882116D01*
X726500Y881961D01*
X727675Y882116D01*
X728769Y882569D01*
X729709Y883291D01*
X730431Y884231D01*
X730884Y885325D01*
X731039Y886500D01*
X730884Y887675D01*
X730431Y888769D01*
X729709Y889709D01*
X728769Y890431D01*
X727675Y890884D01*
X726500Y891039D01*
X725325Y890884D01*
X724231Y890431D01*
X723291Y889709D01*
X722569Y888769D01*
X722116Y887675D01*
X721961Y886500D01*
X722116Y885325D01*
X722218Y885079D01*
X691885Y854746D01*
X691423Y854937D01*
Y858562D01*
X725079Y892218D01*
X725325Y892116D01*
X726500Y891961D01*
X727675Y892116D01*
X728769Y892569D01*
X729709Y893291D01*
X730431Y894231D01*
X730884Y895325D01*
X731039Y896500D01*
X730884Y897675D01*
X730431Y898769D01*
X729709Y899709D01*
X728769Y900431D01*
X727675Y900884D01*
X726500Y901039D01*
X725325Y900884D01*
X724231Y900431D01*
X723291Y899709D01*
X722569Y898769D01*
X722116Y897675D01*
X721961Y896500D01*
X722116Y895325D01*
X722218Y895079D01*
X687969Y860831D01*
X687531Y860174D01*
X687377Y859400D01*
Y840518D01*
X686877Y840271D01*
X686192Y840797D01*
X685135Y841235D01*
X684000Y841384D01*
X682865Y841235D01*
X681808Y840797D01*
X680900Y840100D01*
X680203Y839192D01*
X679765Y838135D01*
X679616Y837000D01*
X679765Y835865D01*
X680203Y834808D01*
X680900Y833900D01*
X681808Y833203D01*
X682865Y832765D01*
X684000Y832616D01*
X685135Y832765D01*
X686192Y833203D01*
X686877Y833729D01*
X687377Y833482D01*
Y801391D01*
X686877Y801184D01*
X676923Y811138D01*
Y880562D01*
X677385Y880754D01*
X679835Y878304D01*
X679765Y878135D01*
X679616Y877000D01*
X679765Y875865D01*
X680203Y874808D01*
X680900Y873900D01*
X681808Y873203D01*
X682865Y872765D01*
X684000Y872616D01*
X685135Y872765D01*
X686192Y873203D01*
X687100Y873900D01*
X687797Y874808D01*
X688235Y875865D01*
X688384Y877000D01*
X688235Y878135D01*
X687797Y879192D01*
X687100Y880100D01*
X686192Y880797D01*
X685135Y881235D01*
X684000Y881384D01*
X682865Y881235D01*
X682696Y881165D01*
X679923Y883938D01*
Y911662D01*
X682231Y913970D01*
X682731Y913962D01*
Y911499D01*
X691231D01*
Y913999D01*
X691062D01*
X690841Y914448D01*
X690871Y914487D01*
X691173Y915216D01*
X691277Y916000D01*
X691173Y916783D01*
X690871Y917513D01*
X690390Y918139D01*
X690237Y918257D01*
Y918757D01*
X690371Y918860D01*
X690852Y919487D01*
X691154Y920216D01*
X691257Y920999D01*
X691154Y921783D01*
X690852Y922512D01*
X690371Y923139D01*
X689744Y923620D01*
X689015Y923922D01*
X688231Y924025D01*
X685731D01*
X684948Y923922D01*
X684219Y923620D01*
X683592Y923139D01*
X683111Y922512D01*
X682809Y921783D01*
X682705Y920999D01*
X682809Y920216D01*
X683111Y919487D01*
X683592Y918860D01*
X683613Y918299D01*
X683336Y918023D01*
X681400D01*
X680625Y917869D01*
X679969Y917430D01*
X677385Y914846D01*
X676923Y915038D01*
Y929162D01*
X690038Y942277D01*
X729362D01*
X734977Y936662D01*
Y877838D01*
X727921Y870782D01*
X727675Y870884D01*
X726500Y871039D01*
X725325Y870884D01*
X724231Y870431D01*
X723291Y869709D01*
X722569Y868769D01*
X722116Y867675D01*
X721961Y866500D01*
X722116Y865325D01*
X722569Y864231D01*
X723291Y863291D01*
X724231Y862569D01*
X725325Y862116D01*
X726500Y861961D01*
X727675Y862116D01*
X728769Y862569D01*
X729709Y863291D01*
X730431Y864231D01*
X730884Y865325D01*
X731039Y866500D01*
X730884Y867675D01*
X730782Y867921D01*
X738431Y875569D01*
X738869Y876226D01*
X739023Y877000D01*
Y937500D01*
X738869Y938274D01*
X738431Y938931D01*
X731631Y945731D01*
X730974Y946169D01*
X730935Y946177D01*
X730984Y946677D01*
X731960D01*
X743477Y935160D01*
Y856338D01*
X727921Y840782D01*
X727675Y840884D01*
X726500Y841039D01*
X725325Y840884D01*
X724231Y840431D01*
X723291Y839709D01*
X722569Y838769D01*
X722116Y837675D01*
X721961Y836500D01*
X722116Y835325D01*
X722569Y834231D01*
X723291Y833291D01*
X724231Y832569D01*
X725325Y832116D01*
X726500Y831961D01*
X727675Y832116D01*
X728769Y832569D01*
X729709Y833291D01*
X730431Y834231D01*
X730884Y835325D01*
X731039Y836500D01*
X730884Y837675D01*
X730782Y837921D01*
X746931Y854069D01*
X747369Y854726D01*
X747523Y855500D01*
Y935998D01*
X747369Y936772D01*
X746931Y937429D01*
X737187Y947173D01*
X737420Y947646D01*
X738000Y947570D01*
X738591Y947648D01*
X754477Y931762D01*
Y847338D01*
X727921Y820782D01*
X727675Y820884D01*
X726500Y821039D01*
X725325Y820884D01*
X724231Y820431D01*
X723291Y819709D01*
X722569Y818769D01*
X722116Y817675D01*
X721961Y816500D01*
X722116Y815325D01*
X722569Y814231D01*
X723291Y813291D01*
X724231Y812569D01*
X725325Y812116D01*
X726500Y811961D01*
X727675Y812116D01*
X728769Y812569D01*
X729709Y813291D01*
X730431Y814231D01*
X730884Y815325D01*
X731039Y816500D01*
X730884Y817675D01*
X730782Y817921D01*
X757931Y845069D01*
X758369Y845726D01*
X758523Y846500D01*
Y932600D01*
X758369Y933374D01*
X757931Y934031D01*
X741452Y950509D01*
X741530Y951100D01*
X741410Y952014D01*
X741057Y952865D01*
X740496Y953596D01*
X739765Y954157D01*
X738914Y954510D01*
X738000Y954630D01*
X737086Y954510D01*
X736235Y954157D01*
X735504Y953596D01*
X734943Y952865D01*
X734590Y952014D01*
X734470Y951100D01*
X734549Y950498D01*
X734516Y950460D01*
X734080Y950230D01*
X733572Y950569D01*
X732798Y950723D01*
X628149D01*
X627375Y950569D01*
X626718Y950131D01*
X602012Y925424D01*
X601843Y925494D01*
X600709Y925644D01*
X599574Y925494D01*
X598517Y925056D01*
X597609Y924360D01*
X596912Y923452D01*
X596618Y922741D01*
X596118Y922841D01*
Y939162D01*
X613033Y956077D01*
X775062D01*
X797477Y933662D01*
Y751610D01*
X797631Y750836D01*
X798069Y750180D01*
X809212Y739037D01*
X809076Y738000D01*
X809213Y736956D01*
X809616Y735983D01*
X810257Y735147D01*
X811093Y734506D01*
X812066Y734103D01*
X813110Y733965D01*
X814154Y734103D01*
X815127Y734506D01*
X815963Y735147D01*
X816604Y735983D01*
X817007Y736956D01*
X817145Y738000D01*
X817007Y739044D01*
X816604Y740017D01*
X815963Y740853D01*
X815127Y741494D01*
X814154Y741897D01*
X813110Y742034D01*
X812073Y741898D01*
X801523Y752448D01*
Y934500D01*
X801369Y935274D01*
X800931Y935931D01*
X777331Y959531D01*
X776674Y959969D01*
X775900Y960123D01*
D02*
G37*
G36*
X857063Y738461D02*
X854102D01*
Y735500D01*
X857063D01*
Y738461D01*
D02*
G37*
G36*
X99409Y753011D02*
X98121Y752842D01*
X96920Y752344D01*
X95888Y751553D01*
X95097Y750521D01*
X94599Y749320D01*
X94430Y748032D01*
X94599Y746743D01*
X95097Y745542D01*
X95888Y744511D01*
X96920Y743719D01*
X98121Y743222D01*
X99409Y743052D01*
X100698Y743222D01*
X101899Y743719D01*
X102930Y744511D01*
X103722Y745542D01*
X104219Y746743D01*
X104389Y748032D01*
X104219Y749320D01*
X103722Y750521D01*
X102930Y751553D01*
X101899Y752344D01*
X100698Y752842D01*
X99409Y753011D01*
D02*
G37*
G36*
X144685D02*
X143396Y752842D01*
X142195Y752344D01*
X141164Y751553D01*
X140373Y750521D01*
X139875Y749320D01*
X139705Y748032D01*
X139875Y746743D01*
X140373Y745542D01*
X141164Y744511D01*
X142195Y743719D01*
X143396Y743222D01*
X144685Y743052D01*
X145974Y743222D01*
X147175Y743719D01*
X148206Y744511D01*
X148997Y745542D01*
X149495Y746743D01*
X149665Y748032D01*
X149495Y749320D01*
X148997Y750521D01*
X148206Y751553D01*
X147175Y752344D01*
X145974Y752842D01*
X144685Y753011D01*
D02*
G37*
G36*
X197835D02*
X196546Y752842D01*
X195345Y752344D01*
X194314Y751553D01*
X193522Y750521D01*
X193025Y749320D01*
X192855Y748032D01*
X193025Y746743D01*
X193522Y745542D01*
X194314Y744511D01*
X195345Y743719D01*
X196546Y743222D01*
X197835Y743052D01*
X199123Y743222D01*
X200324Y743719D01*
X201356Y744511D01*
X202147Y745542D01*
X202644Y746743D01*
X202814Y748032D01*
X202644Y749320D01*
X202147Y750521D01*
X201356Y751553D01*
X200324Y752344D01*
X199123Y752842D01*
X197835Y753011D01*
D02*
G37*
G36*
X1019000Y742000D02*
X1015500D01*
Y738500D01*
X1019000D01*
Y742000D01*
D02*
G37*
G36*
X1014500Y746500D02*
X1011000D01*
Y743000D01*
X1014500D01*
Y746500D01*
D02*
G37*
G36*
X1019000D02*
X1015500D01*
Y743000D01*
X1019000D01*
Y746500D01*
D02*
G37*
G36*
X726000Y906000D02*
X722000D01*
Y902000D01*
X726000D01*
Y906000D01*
D02*
G37*
G36*
X731000D02*
X727000D01*
Y902000D01*
X731000D01*
Y906000D01*
D02*
G37*
G36*
X726000Y911000D02*
X722000D01*
Y907000D01*
X726000D01*
Y911000D01*
D02*
G37*
G36*
X635827Y931751D02*
X634538Y931581D01*
X633337Y931084D01*
X632306Y930293D01*
X631514Y929261D01*
X631017Y928060D01*
X630847Y926772D01*
X631017Y925483D01*
X631514Y924282D01*
X632306Y923250D01*
X633337Y922459D01*
X633804Y922266D01*
Y920129D01*
X605150Y891476D01*
X604331Y891584D01*
X603350Y891454D01*
X602437Y891076D01*
X601652Y890474D01*
X601050Y889689D01*
X600672Y888776D01*
X600542Y887795D01*
X600672Y886815D01*
X601050Y885901D01*
X601652Y885116D01*
X602308Y884613D01*
Y860822D01*
X601913Y860505D01*
X601843Y860534D01*
X600709Y860683D01*
X599574Y860534D01*
X598517Y860096D01*
X597609Y859399D01*
X596912Y858491D01*
X596474Y857434D01*
X596325Y856299D01*
X596474Y855165D01*
X596912Y854107D01*
X597609Y853199D01*
X598517Y852503D01*
X599574Y852065D01*
X600709Y851915D01*
X601843Y852065D01*
X602901Y852503D01*
X603808Y853199D01*
X604505Y854107D01*
X604943Y855165D01*
X605093Y856299D01*
X604943Y857434D01*
X604873Y857603D01*
X605761Y858491D01*
X606200Y859147D01*
X606354Y859921D01*
Y884613D01*
X607010Y885116D01*
X607612Y885901D01*
X607990Y886815D01*
X608119Y887795D01*
X608011Y888614D01*
X637257Y917861D01*
X637696Y918517D01*
X637850Y919291D01*
Y922266D01*
X638317Y922459D01*
X639348Y923250D01*
X640139Y924282D01*
X640637Y925483D01*
X640806Y926772D01*
X640637Y928060D01*
X640139Y929261D01*
X639348Y930293D01*
X638317Y931084D01*
X637116Y931581D01*
X635827Y931751D01*
D02*
G37*
G36*
X786500Y901039D02*
X785325Y900884D01*
X784231Y900431D01*
X783291Y899709D01*
X782569Y898769D01*
X782116Y897675D01*
X781961Y896500D01*
X782116Y895325D01*
X782569Y894231D01*
X783291Y893291D01*
X784231Y892569D01*
X785325Y892116D01*
X786500Y891961D01*
X787675Y892116D01*
X788769Y892569D01*
X789709Y893291D01*
X790431Y894231D01*
X790884Y895325D01*
X791039Y896500D01*
X790884Y897675D01*
X790431Y898769D01*
X789709Y899709D01*
X788769Y900431D01*
X787675Y900884D01*
X786500Y901039D01*
D02*
G37*
G36*
Y911039D02*
X785325Y910884D01*
X784231Y910431D01*
X783291Y909709D01*
X782569Y908769D01*
X782116Y907675D01*
X781961Y906500D01*
X782116Y905325D01*
X782569Y904231D01*
X783291Y903291D01*
X784231Y902569D01*
X785325Y902116D01*
X786500Y901961D01*
X787675Y902116D01*
X788769Y902569D01*
X789709Y903291D01*
X790431Y904231D01*
X790884Y905325D01*
X791039Y906500D01*
X790884Y907675D01*
X790431Y908769D01*
X789709Y909709D01*
X788769Y910431D01*
X787675Y910884D01*
X786500Y911039D01*
D02*
G37*
G36*
X903000Y914579D02*
X899500D01*
Y911079D01*
X903000D01*
Y914579D01*
D02*
G37*
G36*
X907500D02*
X904000D01*
Y911079D01*
X907500D01*
Y914579D01*
D02*
G37*
G36*
X726500Y921039D02*
X725325Y920884D01*
X724231Y920431D01*
X723291Y919709D01*
X722569Y918769D01*
X722116Y917675D01*
X721961Y916500D01*
X722116Y915325D01*
X722569Y914231D01*
X723291Y913291D01*
X724231Y912569D01*
X725325Y912116D01*
X726500Y911961D01*
X727675Y912116D01*
X728769Y912569D01*
X729709Y913291D01*
X730431Y914231D01*
X730884Y915325D01*
X731039Y916500D01*
X730884Y917675D01*
X730431Y918769D01*
X729709Y919709D01*
X728769Y920431D01*
X727675Y920884D01*
X726500Y921039D01*
D02*
G37*
G36*
X731000Y911000D02*
X727000D01*
Y907000D01*
X731000D01*
Y911000D01*
D02*
G37*
G36*
X686481Y910499D02*
X682731D01*
Y907999D01*
X686481D01*
Y910499D01*
D02*
G37*
G36*
X691231D02*
X687481D01*
Y907999D01*
X691231D01*
Y910499D01*
D02*
G37*
G36*
X786500Y891039D02*
X785325Y890884D01*
X784231Y890431D01*
X783291Y889709D01*
X782569Y888769D01*
X782116Y887675D01*
X781961Y886500D01*
X782116Y885325D01*
X782569Y884231D01*
X783291Y883291D01*
X784231Y882569D01*
X785325Y882116D01*
X786500Y881961D01*
X787675Y882116D01*
X788769Y882569D01*
X789709Y883291D01*
X790431Y884231D01*
X790884Y885325D01*
X791039Y886500D01*
X790884Y887675D01*
X790431Y888769D01*
X789709Y889709D01*
X788769Y890431D01*
X787675Y890884D01*
X786500Y891039D01*
D02*
G37*
G36*
X200394Y891584D02*
X199413Y891454D01*
X198500Y891076D01*
X197715Y890474D01*
X197113Y889689D01*
X196735Y888776D01*
X196606Y887795D01*
X196735Y886815D01*
X197113Y885901D01*
X197715Y885116D01*
X198500Y884514D01*
X199413Y884136D01*
X200394Y884007D01*
X201374Y884136D01*
X202288Y884514D01*
X203073Y885116D01*
X203675Y885901D01*
X204053Y886815D01*
X204182Y887795D01*
X204053Y888776D01*
X203675Y889689D01*
X203073Y890474D01*
X202288Y891076D01*
X201374Y891454D01*
X200394Y891584D01*
D02*
G37*
G36*
X298819D02*
X297838Y891454D01*
X296925Y891076D01*
X296140Y890474D01*
X295538Y889689D01*
X295160Y888776D01*
X295031Y887795D01*
X295160Y886815D01*
X295538Y885901D01*
X296140Y885116D01*
X296925Y884514D01*
X297838Y884136D01*
X298819Y884007D01*
X299799Y884136D01*
X300713Y884514D01*
X301498Y885116D01*
X302100Y885901D01*
X302478Y886815D01*
X302607Y887795D01*
X302478Y888776D01*
X302100Y889689D01*
X301498Y890474D01*
X300713Y891076D01*
X299799Y891454D01*
X298819Y891584D01*
D02*
G37*
G36*
X470767Y884263D02*
X467017D01*
Y881763D01*
X470767D01*
Y884263D01*
D02*
G37*
G36*
X564442D02*
X560692D01*
Y881763D01*
X564442D01*
Y884263D01*
D02*
G37*
G36*
X569192D02*
X565442D01*
Y881763D01*
X569192D01*
Y884263D01*
D02*
G37*
G36*
X537402Y931751D02*
X536113Y931581D01*
X534912Y931084D01*
X533881Y930293D01*
X533089Y929261D01*
X532592Y928060D01*
X532422Y926772D01*
X532592Y925483D01*
X532785Y925016D01*
X504475Y896706D01*
X504037Y896050D01*
X503883Y895276D01*
Y890977D01*
X503227Y890474D01*
X503023Y890208D01*
X502523Y890378D01*
Y916907D01*
X503418Y917025D01*
X504475Y917463D01*
X505383Y918160D01*
X506080Y919068D01*
X506518Y920125D01*
X506667Y921260D01*
X506518Y922394D01*
X506080Y923452D01*
X505383Y924360D01*
X504475Y925056D01*
X503418Y925494D01*
X502283Y925644D01*
X501149Y925494D01*
X500091Y925056D01*
X499184Y924360D01*
X498487Y923452D01*
X498049Y922394D01*
X497899Y921260D01*
X498049Y920125D01*
X498477Y919092D01*
Y891005D01*
X497977Y890759D01*
X497564Y891076D01*
X496650Y891454D01*
X495669Y891584D01*
X494689Y891454D01*
X493775Y891076D01*
X492991Y890474D01*
X492389Y889689D01*
X492010Y888776D01*
X491881Y887795D01*
X492010Y886815D01*
X492389Y885901D01*
X492991Y885116D01*
X493646Y884613D01*
Y862007D01*
X469162Y837523D01*
X457838D01*
X456023Y839338D01*
Y847178D01*
X460980Y852135D01*
X461149Y852065D01*
X462283Y851915D01*
X463418Y852065D01*
X464475Y852503D01*
X465383Y853199D01*
X466080Y854107D01*
X466518Y855165D01*
X466667Y856299D01*
X466518Y857434D01*
X466080Y858491D01*
X465383Y859399D01*
X464475Y860096D01*
X463418Y860534D01*
X462283Y860683D01*
X461149Y860534D01*
X460091Y860096D01*
X459184Y859399D01*
X458487Y858491D01*
X458049Y857434D01*
X457899Y856299D01*
X458049Y855165D01*
X458119Y854996D01*
X452569Y849446D01*
X452131Y848790D01*
X451977Y848016D01*
Y838500D01*
X452131Y837726D01*
X452569Y837069D01*
X455569Y834069D01*
X456226Y833631D01*
X457000Y833477D01*
X470000D01*
X470774Y833631D01*
X471431Y834069D01*
X497100Y859739D01*
X497539Y860395D01*
X497692Y861169D01*
Y867319D01*
X498193Y867559D01*
X498735Y867143D01*
X499586Y866790D01*
X500500Y866670D01*
X501414Y866790D01*
X502265Y867143D01*
X502996Y867704D01*
X503557Y868435D01*
X503910Y869286D01*
X504030Y870200D01*
X503910Y871114D01*
X503557Y871965D01*
X502996Y872696D01*
X502523Y873059D01*
Y885212D01*
X503023Y885382D01*
X503227Y885116D01*
X504011Y884514D01*
X504925Y884136D01*
X505906Y884007D01*
X506725Y884115D01*
X507961Y882878D01*
Y864838D01*
X503587Y860464D01*
X503418Y860534D01*
X502283Y860683D01*
X501149Y860534D01*
X500091Y860096D01*
X499184Y859399D01*
X498487Y858491D01*
X498049Y857434D01*
X497899Y856299D01*
X498049Y855165D01*
X498487Y854107D01*
X499184Y853199D01*
X500091Y852503D01*
X501149Y852065D01*
X502283Y851915D01*
X503418Y852065D01*
X504475Y852503D01*
X505383Y853199D01*
X506080Y854107D01*
X506518Y855165D01*
X506667Y856299D01*
X506518Y857434D01*
X506448Y857603D01*
X510468Y861623D01*
X510930Y861431D01*
Y857689D01*
X495722Y842481D01*
X494685Y842617D01*
X493641Y842480D01*
X492668Y842077D01*
X491832Y841435D01*
X491191Y840600D01*
X490788Y839627D01*
X490651Y838583D01*
X490788Y837538D01*
X491191Y836565D01*
X491832Y835730D01*
X492662Y835093D01*
Y822387D01*
X491832Y821750D01*
X491191Y820915D01*
X490788Y819942D01*
X490651Y818898D01*
X490788Y817853D01*
X491191Y816880D01*
X491832Y816045D01*
X492668Y815404D01*
X493641Y815001D01*
X494685Y814863D01*
X495729Y815001D01*
X496702Y815404D01*
X497538Y816045D01*
X498179Y816880D01*
X498582Y817853D01*
X498720Y818898D01*
X498582Y819942D01*
X498179Y820915D01*
X497538Y821750D01*
X496708Y822387D01*
Y835093D01*
X497538Y835730D01*
X498179Y836565D01*
X498582Y837538D01*
X498720Y838583D01*
X498583Y839620D01*
X514384Y855420D01*
X514822Y856076D01*
X514976Y856851D01*
Y883768D01*
X515322Y884115D01*
X516142Y884007D01*
X517122Y884136D01*
X518036Y884514D01*
X518820Y885116D01*
X519423Y885901D01*
X519801Y886815D01*
X519930Y887795D01*
X519801Y888776D01*
X519423Y889689D01*
X518820Y890474D01*
X518036Y891076D01*
X517122Y891454D01*
X516142Y891584D01*
X515161Y891454D01*
X514248Y891076D01*
X513463Y890474D01*
X512861Y889689D01*
X512483Y888776D01*
X512354Y887795D01*
X512461Y886976D01*
X511522Y886037D01*
X511342Y885767D01*
X510844Y885718D01*
X509586Y886976D01*
X509694Y887795D01*
X509565Y888776D01*
X509186Y889689D01*
X508584Y890474D01*
X507929Y890977D01*
Y894438D01*
X535646Y922155D01*
X536113Y921962D01*
X537402Y921792D01*
X538690Y921962D01*
X539891Y922459D01*
X540923Y923250D01*
X541714Y924282D01*
X542211Y925483D01*
X542381Y926772D01*
X542211Y928060D01*
X541714Y929261D01*
X540923Y930293D01*
X539891Y931084D01*
X538690Y931581D01*
X537402Y931751D01*
D02*
G37*
G36*
X242126D02*
X240837Y931581D01*
X239636Y931084D01*
X238605Y930293D01*
X237813Y929261D01*
X237316Y928060D01*
X237146Y926772D01*
X237316Y925483D01*
X237813Y924282D01*
X238605Y923250D01*
X239636Y922459D01*
X240103Y922266D01*
Y920129D01*
X211449Y891476D01*
X210630Y891584D01*
X209649Y891454D01*
X208736Y891076D01*
X207951Y890474D01*
X207349Y889689D01*
X206971Y888776D01*
X206842Y887795D01*
X206971Y886815D01*
X207349Y885901D01*
X207951Y885116D01*
X208607Y884613D01*
Y860822D01*
X208212Y860505D01*
X208142Y860534D01*
X207008Y860683D01*
X205873Y860534D01*
X204816Y860096D01*
X203908Y859399D01*
X203211Y858491D01*
X202773Y857434D01*
X202624Y856299D01*
X202773Y855165D01*
X203211Y854107D01*
X203908Y853199D01*
X204816Y852503D01*
X205873Y852065D01*
X207008Y851915D01*
X208142Y852065D01*
X209200Y852503D01*
X210108Y853199D01*
X210804Y854107D01*
X211242Y855165D01*
X211392Y856299D01*
X211242Y857434D01*
X211172Y857603D01*
X212061Y858491D01*
X212499Y859147D01*
X212653Y859921D01*
Y884613D01*
X213309Y885116D01*
X213911Y885901D01*
X214289Y886815D01*
X214418Y887795D01*
X214310Y888614D01*
X243557Y917861D01*
X243995Y918517D01*
X244149Y919291D01*
Y922266D01*
X244616Y922459D01*
X245647Y923250D01*
X246439Y924282D01*
X246936Y925483D01*
X247106Y926772D01*
X246936Y928060D01*
X246439Y929261D01*
X245647Y930293D01*
X244616Y931084D01*
X243415Y931581D01*
X242126Y931751D01*
D02*
G37*
G36*
X438976D02*
X437688Y931581D01*
X436487Y931084D01*
X435455Y930293D01*
X434664Y929261D01*
X434166Y928060D01*
X433997Y926772D01*
X434166Y925483D01*
X434664Y924282D01*
X435455Y923250D01*
X436487Y922459D01*
X436953Y922266D01*
Y920129D01*
X408300Y891476D01*
X407480Y891584D01*
X406500Y891454D01*
X405586Y891076D01*
X404802Y890474D01*
X404200Y889689D01*
X403821Y888776D01*
X403692Y887795D01*
X403821Y886815D01*
X404200Y885901D01*
X404802Y885116D01*
X405457Y884613D01*
Y860822D01*
X405063Y860505D01*
X404993Y860534D01*
X403858Y860683D01*
X402724Y860534D01*
X401666Y860096D01*
X400758Y859399D01*
X400062Y858491D01*
X399624Y857434D01*
X399474Y856299D01*
X399624Y855165D01*
X400062Y854107D01*
X400758Y853199D01*
X401666Y852503D01*
X402724Y852065D01*
X403858Y851915D01*
X404993Y852065D01*
X406050Y852503D01*
X406958Y853199D01*
X407655Y854107D01*
X408093Y855165D01*
X408242Y856299D01*
X408093Y857434D01*
X408023Y857603D01*
X408911Y858491D01*
X409349Y859147D01*
X409504Y859921D01*
Y884613D01*
X410159Y885116D01*
X410761Y885901D01*
X411140Y886815D01*
X411269Y887795D01*
X411161Y888614D01*
X440407Y917861D01*
X440845Y918517D01*
X441000Y919291D01*
Y922266D01*
X441466Y922459D01*
X442497Y923250D01*
X443289Y924282D01*
X443786Y925483D01*
X443956Y926772D01*
X443786Y928060D01*
X443289Y929261D01*
X442497Y930293D01*
X441466Y931084D01*
X440265Y931581D01*
X438976Y931751D01*
D02*
G37*
G36*
X397244Y891584D02*
X396264Y891454D01*
X395350Y891076D01*
X394566Y890474D01*
X393963Y889689D01*
X393585Y888776D01*
X393456Y887795D01*
X393585Y886815D01*
X393963Y885901D01*
X394566Y885116D01*
X395350Y884514D01*
X396264Y884136D01*
X397244Y884007D01*
X398225Y884136D01*
X399138Y884514D01*
X399923Y885116D01*
X400525Y885901D01*
X400903Y886815D01*
X401032Y887795D01*
X400903Y888776D01*
X400525Y889689D01*
X399923Y890474D01*
X399138Y891076D01*
X398225Y891454D01*
X397244Y891584D01*
D02*
G37*
G36*
X83500Y895384D02*
X82365Y895235D01*
X81308Y894797D01*
X80400Y894100D01*
X79703Y893192D01*
X79265Y892135D01*
X79116Y891000D01*
X79265Y889865D01*
X79703Y888808D01*
X80400Y887900D01*
X81308Y887203D01*
X82365Y886765D01*
X83500Y886616D01*
X84635Y886765D01*
X85692Y887203D01*
X86600Y887900D01*
X87297Y888808D01*
X87735Y889865D01*
X87884Y891000D01*
X87735Y892135D01*
X87297Y893192D01*
X86600Y894100D01*
X85692Y894797D01*
X84635Y895235D01*
X83500Y895384D01*
D02*
G37*
G36*
X826500Y895076D02*
X825622Y894961D01*
X824804Y894622D01*
X824102Y894083D01*
X823563Y893381D01*
X823224Y892563D01*
X823109Y891685D01*
X823224Y890807D01*
X823563Y889989D01*
X824102Y889287D01*
X824804Y888748D01*
X825622Y888409D01*
X826500Y888294D01*
X827378Y888409D01*
X828196Y888748D01*
X828898Y889287D01*
X829437Y889989D01*
X829776Y890807D01*
X829891Y891685D01*
X829776Y892563D01*
X829437Y893381D01*
X828898Y894083D01*
X828196Y894622D01*
X827378Y894961D01*
X826500Y895076D01*
D02*
G37*
G36*
X810500Y932000D02*
X805500D01*
Y927000D01*
X810500D01*
Y932000D01*
D02*
G37*
G36*
X816500D02*
X811500D01*
Y927000D01*
X816500D01*
Y932000D01*
D02*
G37*
G36*
X726500Y941039D02*
X725325Y940884D01*
X724231Y940431D01*
X723291Y939709D01*
X722569Y938769D01*
X722116Y937675D01*
X721961Y936500D01*
X722116Y935325D01*
X722569Y934231D01*
X723291Y933291D01*
X724231Y932569D01*
X725325Y932116D01*
X726500Y931961D01*
X727675Y932116D01*
X728769Y932569D01*
X729709Y933291D01*
X730431Y934231D01*
X730884Y935325D01*
X731039Y936500D01*
X730884Y937675D01*
X730431Y938769D01*
X729709Y939709D01*
X728769Y940431D01*
X727675Y940884D01*
X726500Y941039D01*
D02*
G37*
G36*
X561300Y931823D02*
X560526Y931669D01*
X560397Y931583D01*
X554940D01*
X554166Y931429D01*
X553509Y930991D01*
X535971Y913453D01*
X535533Y912796D01*
X535379Y912022D01*
Y857262D01*
X534912Y857069D01*
X533881Y856277D01*
X533089Y855246D01*
X532592Y854045D01*
X532422Y852756D01*
X532592Y851467D01*
X533089Y850266D01*
X533881Y849235D01*
X534912Y848444D01*
X536113Y847946D01*
X537402Y847776D01*
X538690Y847946D01*
X539891Y848444D01*
X540923Y849235D01*
X541714Y850266D01*
X542211Y851467D01*
X542381Y852756D01*
X542211Y854045D01*
X541714Y855246D01*
X540923Y856277D01*
X539891Y857069D01*
X539425Y857262D01*
Y911184D01*
X555778Y927537D01*
X560702D01*
X562458Y925781D01*
X562175Y925357D01*
X561843Y925494D01*
X560709Y925644D01*
X559574Y925494D01*
X558517Y925056D01*
X557609Y924360D01*
X556912Y923452D01*
X556474Y922394D01*
X556325Y921260D01*
X556474Y920125D01*
X556544Y919956D01*
X554569Y917982D01*
X554131Y917325D01*
X553977Y916551D01*
Y893763D01*
X554131Y892989D01*
X554569Y892333D01*
X558569Y888333D01*
X559226Y887894D01*
X560000Y887740D01*
X560692D01*
Y885263D01*
X569192D01*
Y887763D01*
X569023D01*
X568802Y888212D01*
X568831Y888251D01*
X569134Y888980D01*
X569237Y889763D01*
X569134Y890547D01*
X568831Y891276D01*
X568351Y891903D01*
X568197Y892021D01*
Y892521D01*
X568331Y892624D01*
X568812Y893250D01*
X569115Y893980D01*
X569218Y894763D01*
X569115Y895546D01*
X568812Y896276D01*
X568331Y896903D01*
X568123Y897063D01*
Y925000D01*
X567969Y925774D01*
X567531Y926431D01*
X562731Y931231D01*
X562074Y931669D01*
X561300Y931823D01*
D02*
G37*
G36*
X786000Y931000D02*
X782000D01*
Y927000D01*
X786000D01*
Y931000D01*
D02*
G37*
G36*
X791000D02*
X787000D01*
Y927000D01*
X791000D01*
Y931000D01*
D02*
G37*
G36*
X942586Y961793D02*
X941541Y961656D01*
X940568Y961253D01*
X939733Y960612D01*
X939092Y959776D01*
X938689Y958803D01*
X938551Y957759D01*
X938689Y956715D01*
X939092Y955742D01*
X939733Y954906D01*
X940568Y954265D01*
X941541Y953862D01*
X942586Y953724D01*
X943630Y953862D01*
X944603Y954265D01*
X945438Y954906D01*
X946080Y955742D01*
X946483Y956715D01*
X946620Y957759D01*
X946483Y958803D01*
X946080Y959776D01*
X945438Y960612D01*
X944603Y961253D01*
X943630Y961656D01*
X942586Y961793D01*
D02*
G37*
G36*
X974082D02*
X973037Y961656D01*
X972064Y961253D01*
X971229Y960612D01*
X970588Y959776D01*
X970185Y958803D01*
X970047Y957759D01*
X970185Y956715D01*
X970588Y955742D01*
X971229Y954906D01*
X972064Y954265D01*
X973037Y953862D01*
X974082Y953724D01*
X975126Y953862D01*
X976099Y954265D01*
X976934Y954906D01*
X977576Y955742D01*
X977979Y956715D01*
X978116Y957759D01*
X977979Y958803D01*
X977576Y959776D01*
X976934Y960612D01*
X976099Y961253D01*
X975126Y961656D01*
X974082Y961793D01*
D02*
G37*
G36*
X1037074D02*
X1036030Y961656D01*
X1035056Y961253D01*
X1034221Y960612D01*
X1033580Y959776D01*
X1033177Y958803D01*
X1033039Y957759D01*
X1033177Y956715D01*
X1033580Y955742D01*
X1034221Y954906D01*
X1035056Y954265D01*
X1036030Y953862D01*
X1037074Y953724D01*
X1038118Y953862D01*
X1039091Y954265D01*
X1039927Y954906D01*
X1040568Y955742D01*
X1040971Y956715D01*
X1041108Y957759D01*
X1040971Y958803D01*
X1040568Y959776D01*
X1039927Y960612D01*
X1039091Y961253D01*
X1038118Y961656D01*
X1037074Y961793D01*
D02*
G37*
G36*
X786500Y941039D02*
X785325Y940884D01*
X784231Y940431D01*
X783291Y939709D01*
X782569Y938769D01*
X782116Y937675D01*
X781961Y936500D01*
X782116Y935325D01*
X782569Y934231D01*
X783291Y933291D01*
X784231Y932569D01*
X785325Y932116D01*
X786500Y931961D01*
X787675Y932116D01*
X788769Y932569D01*
X789709Y933291D01*
X790431Y934231D01*
X790884Y935325D01*
X791039Y936500D01*
X790884Y937675D01*
X790431Y938769D01*
X789709Y939709D01*
X788769Y940431D01*
X787675Y940884D01*
X786500Y941039D01*
D02*
G37*
G36*
X57087Y964027D02*
X55656Y963887D01*
X54280Y963469D01*
X53012Y962791D01*
X51900Y961879D01*
X50988Y960768D01*
X50310Y959500D01*
X49893Y958124D01*
X49752Y956693D01*
X49893Y955262D01*
X50310Y953886D01*
X50988Y952618D01*
X51900Y951507D01*
X53012Y950595D01*
X54280Y949917D01*
X55656Y949499D01*
X57087Y949358D01*
X58517Y949499D01*
X59893Y949917D01*
X61162Y950595D01*
X62273Y951507D01*
X63185Y952618D01*
X63863Y953886D01*
X64280Y955262D01*
X64421Y956693D01*
X64280Y958124D01*
X63863Y959500D01*
X63185Y960768D01*
X62273Y961879D01*
X61162Y962791D01*
X59893Y963469D01*
X58517Y963887D01*
X57087Y964027D01*
D02*
G37*
G36*
X915354D02*
X913923Y963887D01*
X912547Y963469D01*
X911279Y962791D01*
X910168Y961879D01*
X909256Y960768D01*
X908578Y959500D01*
X908161Y958124D01*
X908020Y956693D01*
X908161Y955262D01*
X908578Y953886D01*
X909256Y952618D01*
X910168Y951507D01*
X911279Y950595D01*
X912547Y949917D01*
X913923Y949499D01*
X915354Y949358D01*
X916785Y949499D01*
X918161Y949917D01*
X919429Y950595D01*
X920541Y951507D01*
X921453Y952618D01*
X922131Y953886D01*
X922548Y955262D01*
X922689Y956693D01*
X922548Y958124D01*
X922131Y959500D01*
X921453Y960768D01*
X920541Y961879D01*
X919429Y962791D01*
X918161Y963469D01*
X916785Y963887D01*
X915354Y964027D01*
D02*
G37*
G36*
X207008Y925644D02*
X205873Y925494D01*
X204816Y925056D01*
X203908Y924360D01*
X203211Y923452D01*
X202773Y922394D01*
X202624Y921260D01*
X202773Y920125D01*
X203211Y919068D01*
X203908Y918160D01*
X204816Y917463D01*
X205873Y917025D01*
X207008Y916876D01*
X208142Y917025D01*
X209200Y917463D01*
X210108Y918160D01*
X210804Y919068D01*
X211242Y920125D01*
X211392Y921260D01*
X211242Y922394D01*
X210804Y923452D01*
X210108Y924360D01*
X209200Y925056D01*
X208142Y925494D01*
X207008Y925644D01*
D02*
G37*
G36*
X305433D02*
X304298Y925494D01*
X303241Y925056D01*
X302333Y924360D01*
X301636Y923452D01*
X301198Y922394D01*
X301049Y921260D01*
X301198Y920125D01*
X301636Y919068D01*
X302333Y918160D01*
X303241Y917463D01*
X304298Y917025D01*
X305433Y916876D01*
X306568Y917025D01*
X307625Y917463D01*
X308533Y918160D01*
X309230Y919068D01*
X309668Y920125D01*
X309817Y921260D01*
X309668Y922394D01*
X309230Y923452D01*
X308533Y924360D01*
X307625Y925056D01*
X306568Y925494D01*
X305433Y925644D01*
D02*
G37*
G36*
X346900Y935523D02*
X266400D01*
X265626Y935369D01*
X264969Y934931D01*
X251469Y921431D01*
X251031Y920774D01*
X250877Y920000D01*
Y896100D01*
X251031Y895326D01*
X251469Y894669D01*
X262806Y883333D01*
X263463Y882894D01*
X264237Y882740D01*
X265416D01*
Y881763D01*
X269166D01*
Y884763D01*
X269666D01*
Y885263D01*
X273916D01*
Y887763D01*
X273747D01*
X273526Y888212D01*
X273556Y888251D01*
X273858Y888980D01*
X273961Y889763D01*
X273858Y890547D01*
X273556Y891276D01*
X273075Y891903D01*
X273210Y892422D01*
X273395Y892584D01*
X273576Y892563D01*
X278477Y887662D01*
Y882338D01*
X275569Y879431D01*
X274662Y878523D01*
X265870D01*
X265096Y878369D01*
X264439Y877931D01*
X243882Y857373D01*
X243415Y857566D01*
X242126Y857736D01*
X240837Y857566D01*
X239636Y857069D01*
X238605Y856277D01*
X237813Y855246D01*
X237316Y854045D01*
X237146Y852756D01*
X237316Y851467D01*
X237813Y850266D01*
X238605Y849235D01*
X239636Y848444D01*
X240837Y847946D01*
X242126Y847776D01*
X243415Y847946D01*
X244616Y848444D01*
X245647Y849235D01*
X246439Y850266D01*
X246936Y851467D01*
X247106Y852756D01*
X246936Y854045D01*
X246743Y854512D01*
X266708Y874477D01*
X275500D01*
X276274Y874631D01*
X276931Y875069D01*
X281931Y880069D01*
X282369Y880726D01*
X282523Y881500D01*
Y888500D01*
X282369Y889274D01*
X281931Y889931D01*
X275667Y896194D01*
X275011Y896632D01*
X274237Y896786D01*
X273145D01*
X273056Y896903D01*
X272429Y897384D01*
X271699Y897686D01*
X270916Y897789D01*
X268416D01*
X267633Y897686D01*
X266903Y897384D01*
X266277Y896903D01*
X265796Y896276D01*
X265493Y895546D01*
X265390Y894763D01*
X265493Y893980D01*
X265497Y893971D01*
X265073Y893688D01*
X257923Y900838D01*
Y910889D01*
X264129Y917095D01*
X264298Y917025D01*
X265433Y916876D01*
X266568Y917025D01*
X267625Y917463D01*
X268533Y918160D01*
X269230Y919068D01*
X269668Y920125D01*
X269817Y921260D01*
X269668Y922394D01*
X269230Y923452D01*
X268533Y924360D01*
X267625Y925056D01*
X266568Y925494D01*
X265433Y925644D01*
X264298Y925494D01*
X263241Y925056D01*
X262333Y924360D01*
X261636Y923452D01*
X261198Y922394D01*
X261049Y921260D01*
X261198Y920125D01*
X261268Y919956D01*
X255385Y914073D01*
X254923Y914264D01*
Y919162D01*
X267238Y931477D01*
X337752D01*
X337922Y930977D01*
X337030Y930293D01*
X336239Y929261D01*
X335741Y928060D01*
X335572Y926772D01*
X335741Y925483D01*
X335935Y925016D01*
X307625Y896706D01*
X307186Y896050D01*
X307032Y895276D01*
Y890977D01*
X306377Y890474D01*
X305774Y889689D01*
X305396Y888776D01*
X305267Y887795D01*
X305396Y886815D01*
X305774Y885901D01*
X306377Y885116D01*
X307032Y884613D01*
Y860822D01*
X306638Y860505D01*
X306568Y860534D01*
X305433Y860683D01*
X304298Y860534D01*
X303241Y860096D01*
X302333Y859399D01*
X301636Y858491D01*
X301198Y857434D01*
X301049Y856299D01*
X301198Y855165D01*
X301636Y854107D01*
X302333Y853199D01*
X303241Y852503D01*
X304298Y852065D01*
X305433Y851915D01*
X306568Y852065D01*
X307625Y852503D01*
X308533Y853199D01*
X309230Y854107D01*
X309668Y855165D01*
X309817Y856299D01*
X309668Y857434D01*
X309598Y857603D01*
X310486Y858491D01*
X310924Y859147D01*
X311078Y859921D01*
Y884613D01*
X311734Y885116D01*
X312336Y885901D01*
X312714Y886815D01*
X312843Y887795D01*
X312714Y888776D01*
X312336Y889689D01*
X311734Y890474D01*
X311078Y890977D01*
Y894438D01*
X338796Y922155D01*
X339262Y921962D01*
X340551Y921792D01*
X341840Y921962D01*
X343041Y922459D01*
X344072Y923250D01*
X344864Y924282D01*
X345361Y925483D01*
X345531Y926772D01*
X345361Y928060D01*
X344864Y929261D01*
X344072Y930293D01*
X343181Y930977D01*
X343350Y931477D01*
X346062D01*
X351177Y926362D01*
Y890000D01*
X351331Y889226D01*
X351769Y888569D01*
X357006Y883333D01*
X357663Y882894D01*
X358437Y882740D01*
X363841D01*
Y881763D01*
X367591D01*
Y884763D01*
X368091D01*
Y885263D01*
X372341D01*
Y887763D01*
X372172D01*
X371951Y888212D01*
X371981Y888251D01*
X372283Y888980D01*
X372387Y889763D01*
X372283Y890547D01*
X371981Y891276D01*
X371500Y891903D01*
X371479Y892464D01*
X371756Y892740D01*
X375399D01*
X377477Y890662D01*
Y883138D01*
X375162Y880823D01*
X366595D01*
X365821Y880669D01*
X365165Y880231D01*
X342307Y857373D01*
X341840Y857566D01*
X340551Y857736D01*
X339262Y857566D01*
X338061Y857069D01*
X337030Y856277D01*
X336239Y855246D01*
X335741Y854045D01*
X335572Y852756D01*
X335741Y851467D01*
X336239Y850266D01*
X337030Y849235D01*
X338061Y848444D01*
X339262Y847946D01*
X340551Y847776D01*
X341840Y847946D01*
X343041Y848444D01*
X344072Y849235D01*
X344864Y850266D01*
X345361Y851467D01*
X345531Y852756D01*
X345361Y854045D01*
X345168Y854512D01*
X367433Y876777D01*
X376000D01*
X376774Y876931D01*
X377431Y877369D01*
X380931Y880869D01*
X381369Y881526D01*
X381523Y882300D01*
Y891500D01*
X381369Y892274D01*
X380931Y892931D01*
X377667Y896194D01*
X377011Y896632D01*
X376237Y896786D01*
X371570D01*
X371481Y896903D01*
X370854Y897384D01*
X370125Y897686D01*
X369341Y897789D01*
X366841D01*
X366058Y897686D01*
X365329Y897384D01*
X364702Y896903D01*
X364221Y896276D01*
X363937Y895590D01*
X363585Y895424D01*
X363444Y895376D01*
X362581Y896238D01*
Y916574D01*
X363081Y916978D01*
X363858Y916876D01*
X364993Y917025D01*
X366050Y917463D01*
X366958Y918160D01*
X367655Y919068D01*
X368093Y920125D01*
X368242Y921260D01*
X368093Y922394D01*
X367655Y923452D01*
X366958Y924360D01*
X366050Y925056D01*
X364993Y925494D01*
X363858Y925644D01*
X362723Y925494D01*
X361666Y925056D01*
X360758Y924360D01*
X360062Y923452D01*
X359624Y922394D01*
X359474Y921260D01*
X359624Y920125D01*
X359694Y919956D01*
X359128Y919390D01*
X358689Y918734D01*
X358535Y917960D01*
Y895400D01*
X358689Y894626D01*
X359128Y893969D01*
X363911Y889186D01*
X363938Y888980D01*
X364240Y888251D01*
X364270Y888212D01*
X364049Y887763D01*
X363841D01*
Y886786D01*
X359275D01*
X355223Y890838D01*
Y927200D01*
X355069Y927974D01*
X354631Y928631D01*
X348331Y934931D01*
X347674Y935369D01*
X346900Y935523D01*
D02*
G37*
G36*
X786500Y921039D02*
X785325Y920884D01*
X784231Y920431D01*
X783291Y919709D01*
X782569Y918769D01*
X782116Y917675D01*
X781961Y916500D01*
X782116Y915325D01*
X782569Y914231D01*
X783291Y913291D01*
X784231Y912569D01*
X785325Y912116D01*
X786500Y911961D01*
X787675Y912116D01*
X788769Y912569D01*
X789709Y913291D01*
X790431Y914231D01*
X790884Y915325D01*
X791039Y916500D01*
X790884Y917675D01*
X790431Y918769D01*
X789709Y919709D01*
X788769Y920431D01*
X787675Y920884D01*
X786500Y921039D01*
D02*
G37*
G36*
X903500Y924456D02*
X902455Y924319D01*
X901482Y923916D01*
X900647Y923274D01*
X900006Y922439D01*
X899603Y921466D01*
X899465Y920422D01*
X899603Y919377D01*
X900006Y918404D01*
X900647Y917569D01*
X901482Y916928D01*
X902455Y916525D01*
X903500Y916387D01*
X904544Y916525D01*
X905517Y916928D01*
X906352Y917569D01*
X906994Y918404D01*
X907397Y919377D01*
X907534Y920422D01*
X907397Y921466D01*
X906994Y922439D01*
X906352Y923274D01*
X905517Y923916D01*
X904544Y924319D01*
X903500Y924456D01*
D02*
G37*
G36*
X167008Y925644D02*
X165873Y925494D01*
X164816Y925056D01*
X163908Y924360D01*
X163211Y923452D01*
X162773Y922394D01*
X162624Y921260D01*
X162773Y920125D01*
X162843Y919956D01*
X160069Y917183D01*
X159631Y916526D01*
X159477Y915752D01*
Y894263D01*
X159631Y893489D01*
X160069Y892833D01*
X164569Y888333D01*
X165226Y887894D01*
X166000Y887740D01*
X166991D01*
Y885263D01*
X175491D01*
Y887763D01*
X175322D01*
X175101Y888212D01*
X175131Y888251D01*
X175433Y888980D01*
X175536Y889763D01*
X175433Y890547D01*
X175131Y891276D01*
X174650Y891903D01*
X174628Y892464D01*
X174906Y892740D01*
X180399D01*
X182977Y890162D01*
Y879338D01*
X180662Y877023D01*
X165945D01*
X165171Y876869D01*
X164514Y876431D01*
X145456Y857373D01*
X144990Y857566D01*
X143701Y857736D01*
X142412Y857566D01*
X141211Y857069D01*
X140180Y856277D01*
X139388Y855246D01*
X138891Y854045D01*
X138721Y852756D01*
X138891Y851467D01*
X139388Y850266D01*
X140180Y849235D01*
X141211Y848444D01*
X142412Y847946D01*
X143701Y847776D01*
X144990Y847946D01*
X146191Y848444D01*
X147222Y849235D01*
X148013Y850266D01*
X148511Y851467D01*
X148680Y852756D01*
X148511Y854045D01*
X148317Y854512D01*
X166783Y872977D01*
X181500D01*
X182274Y873131D01*
X182931Y873569D01*
X186431Y877069D01*
X186869Y877726D01*
X187023Y878500D01*
Y891000D01*
X186869Y891774D01*
X186431Y892431D01*
X183380Y895481D01*
X183369Y895537D01*
X182931Y896194D01*
X182274Y896632D01*
X181500Y896786D01*
X174720D01*
X174631Y896903D01*
X174004Y897384D01*
X173274Y897686D01*
X172491Y897789D01*
X169991D01*
X169208Y897686D01*
X168478Y897384D01*
X167851Y896903D01*
X167370Y896276D01*
X167068Y895546D01*
X166965Y894763D01*
X167068Y893980D01*
X167370Y893250D01*
X167851Y892624D01*
X167873Y892063D01*
X167596Y891786D01*
X166838D01*
X163523Y895101D01*
Y914914D01*
X165704Y917095D01*
X165873Y917025D01*
X167008Y916876D01*
X168142Y917025D01*
X169200Y917463D01*
X170108Y918160D01*
X170804Y919068D01*
X171242Y920125D01*
X171392Y921260D01*
X171242Y922394D01*
X170804Y923452D01*
X170108Y924360D01*
X169200Y925056D01*
X168142Y925494D01*
X167008Y925644D01*
D02*
G37*
G36*
X726500Y931039D02*
X725325Y930884D01*
X724231Y930431D01*
X723291Y929709D01*
X722569Y928769D01*
X722116Y927675D01*
X721961Y926500D01*
X722116Y925325D01*
X722569Y924231D01*
X723291Y923291D01*
X724231Y922569D01*
X725325Y922116D01*
X726500Y921961D01*
X727675Y922116D01*
X728769Y922569D01*
X729709Y923291D01*
X730431Y924231D01*
X730884Y925325D01*
X731039Y926500D01*
X730884Y927675D01*
X730431Y928769D01*
X729709Y929709D01*
X728769Y930431D01*
X727675Y930884D01*
X726500Y931039D01*
D02*
G37*
G36*
X786000Y926000D02*
X782000D01*
Y922000D01*
X786000D01*
Y926000D01*
D02*
G37*
G36*
X791000D02*
X787000D01*
Y922000D01*
X791000D01*
Y926000D01*
D02*
G37*
G36*
X403858Y925644D02*
X402724Y925494D01*
X401666Y925056D01*
X400758Y924360D01*
X400062Y923452D01*
X399624Y922394D01*
X399474Y921260D01*
X399624Y920125D01*
X400062Y919068D01*
X400758Y918160D01*
X401666Y917463D01*
X402724Y917025D01*
X403858Y916876D01*
X404993Y917025D01*
X406050Y917463D01*
X406958Y918160D01*
X407655Y919068D01*
X408093Y920125D01*
X408242Y921260D01*
X408093Y922394D01*
X407655Y923452D01*
X406958Y924360D01*
X406050Y925056D01*
X404993Y925494D01*
X403858Y925644D01*
D02*
G37*
G36*
X655400Y924530D02*
X654486Y924409D01*
X653635Y924057D01*
X652904Y923496D01*
X652343Y922764D01*
X651990Y921913D01*
X651870Y920999D01*
X651948Y920408D01*
X634069Y902530D01*
X633631Y901874D01*
X633477Y901099D01*
Y857126D01*
X633337Y857069D01*
X632306Y856277D01*
X631514Y855246D01*
X631017Y854045D01*
X630847Y852756D01*
X631017Y851467D01*
X631514Y850266D01*
X632306Y849235D01*
X633337Y848444D01*
X634538Y847946D01*
X635827Y847776D01*
X637116Y847946D01*
X638317Y848444D01*
X639348Y849235D01*
X640139Y850266D01*
X640637Y851467D01*
X640806Y852756D01*
X640637Y854045D01*
X640139Y855246D01*
X639348Y856277D01*
X638317Y857069D01*
X637523Y857397D01*
Y900261D01*
X654809Y917547D01*
X655400Y917469D01*
X656314Y917589D01*
X657165Y917942D01*
X657896Y918503D01*
X658457Y919234D01*
X658810Y920086D01*
X658930Y920999D01*
X658810Y921913D01*
X658457Y922764D01*
X657896Y923496D01*
X657165Y924057D01*
X656314Y924409D01*
X655400Y924530D01*
D02*
G37*
G36*
X143701Y931751D02*
X142412Y931581D01*
X141211Y931084D01*
X140180Y930293D01*
X139388Y929261D01*
X138891Y928060D01*
X138721Y926772D01*
X138891Y925483D01*
X139084Y925016D01*
X111570Y897502D01*
X111131Y896845D01*
X110977Y896071D01*
Y865682D01*
X110321Y865179D01*
X109719Y864394D01*
X109341Y863480D01*
X109212Y862500D01*
X109341Y861520D01*
X109719Y860606D01*
X110321Y859821D01*
X111106Y859219D01*
X112020Y858841D01*
X113000Y858712D01*
X113981Y858841D01*
X114894Y859219D01*
X115679Y859821D01*
X116281Y860606D01*
X116659Y861520D01*
X116788Y862500D01*
X116659Y863480D01*
X116281Y864394D01*
X115679Y865179D01*
X115023Y865682D01*
Y895233D01*
X141945Y922155D01*
X142412Y921962D01*
X143701Y921792D01*
X144990Y921962D01*
X146191Y922459D01*
X147222Y923250D01*
X148013Y924282D01*
X148511Y925483D01*
X148680Y926772D01*
X148511Y928060D01*
X148013Y929261D01*
X147222Y930293D01*
X146191Y931084D01*
X144990Y931581D01*
X143701Y931751D01*
D02*
G37*
G36*
X466017Y884263D02*
X462267D01*
Y881763D01*
X466017D01*
Y884263D01*
D02*
G37*
G36*
X1043846Y855874D02*
X1039409D01*
Y847500D01*
X1043846D01*
Y855874D01*
D02*
G37*
G36*
X871600Y853600D02*
X866179D01*
Y850147D01*
X871600D01*
Y853600D01*
D02*
G37*
G36*
X878021D02*
X872600D01*
Y850147D01*
X878021D01*
Y853600D01*
D02*
G37*
G36*
X417717Y891584D02*
X416736Y891454D01*
X415822Y891076D01*
X415038Y890474D01*
X414436Y889689D01*
X414057Y888776D01*
X413928Y887795D01*
X414057Y886815D01*
X414436Y885901D01*
X415038Y885116D01*
X415694Y884613D01*
Y860877D01*
X397297Y842481D01*
X396260Y842617D01*
X395216Y842480D01*
X394243Y842077D01*
X393407Y841435D01*
X392766Y840600D01*
X392363Y839627D01*
X392225Y838583D01*
X392363Y837538D01*
X392766Y836565D01*
X393407Y835730D01*
X394237Y835093D01*
Y822387D01*
X393407Y821750D01*
X392766Y820915D01*
X392363Y819942D01*
X392225Y818898D01*
X392363Y817853D01*
X392766Y816880D01*
X393407Y816045D01*
X394243Y815404D01*
X395216Y815001D01*
X396260Y814863D01*
X397304Y815001D01*
X398277Y815404D01*
X399113Y816045D01*
X399754Y816880D01*
X400157Y817853D01*
X400294Y818898D01*
X400157Y819942D01*
X399754Y820915D01*
X399113Y821750D01*
X398283Y822387D01*
Y835093D01*
X399113Y835730D01*
X399754Y836565D01*
X400157Y837538D01*
X400294Y838583D01*
X400158Y839620D01*
X419147Y858609D01*
X419586Y859265D01*
X419740Y860039D01*
Y884613D01*
X420395Y885116D01*
X420997Y885901D01*
X421376Y886815D01*
X421505Y887795D01*
X421376Y888776D01*
X420997Y889689D01*
X420395Y890474D01*
X419611Y891076D01*
X418697Y891454D01*
X417717Y891584D01*
D02*
G37*
G36*
X614567D02*
X613587Y891454D01*
X612673Y891076D01*
X611888Y890474D01*
X611286Y889689D01*
X610908Y888776D01*
X610779Y887795D01*
X610908Y886815D01*
X611286Y885901D01*
X611888Y885116D01*
X612544Y884613D01*
Y860877D01*
X594147Y842481D01*
X593110Y842617D01*
X592066Y842480D01*
X591093Y842077D01*
X590257Y841435D01*
X589616Y840600D01*
X589213Y839627D01*
X589076Y838583D01*
X589213Y837538D01*
X589616Y836565D01*
X590257Y835730D01*
X591093Y835089D01*
X592066Y834686D01*
X593110Y834548D01*
X594154Y834686D01*
X595127Y835089D01*
X595963Y835730D01*
X596604Y836565D01*
X597007Y837538D01*
X597145Y838583D01*
X597008Y839620D01*
X615998Y858609D01*
X616436Y859265D01*
X616590Y860039D01*
Y884613D01*
X617246Y885116D01*
X617848Y885901D01*
X618226Y886815D01*
X618355Y887795D01*
X618226Y888776D01*
X617848Y889689D01*
X617246Y890474D01*
X616461Y891076D01*
X615548Y891454D01*
X614567Y891584D01*
D02*
G37*
G36*
X1035972Y866185D02*
X1018224D01*
Y861748D01*
X1025355D01*
X1025668Y861280D01*
X1033972Y852976D01*
Y847500D01*
X1038409D01*
Y855874D01*
X1036796D01*
X1031384Y861286D01*
X1031576Y861748D01*
X1035972D01*
Y866185D01*
D02*
G37*
G36*
X265433Y860683D02*
X264298Y860534D01*
X263241Y860096D01*
X262333Y859399D01*
X261636Y858491D01*
X261198Y857434D01*
X261049Y856299D01*
X261198Y855165D01*
X261636Y854107D01*
X262333Y853199D01*
X263241Y852503D01*
X264298Y852065D01*
X265433Y851915D01*
X266568Y852065D01*
X267625Y852503D01*
X268533Y853199D01*
X269230Y854107D01*
X269668Y855165D01*
X269817Y856299D01*
X269668Y857434D01*
X269230Y858491D01*
X268533Y859399D01*
X267625Y860096D01*
X266568Y860534D01*
X265433Y860683D01*
D02*
G37*
G36*
X363858D02*
X362723Y860534D01*
X361666Y860096D01*
X360758Y859399D01*
X360062Y858491D01*
X359624Y857434D01*
X359474Y856299D01*
X359624Y855165D01*
X360062Y854107D01*
X360758Y853199D01*
X361666Y852503D01*
X362723Y852065D01*
X363858Y851915D01*
X364993Y852065D01*
X366050Y852503D01*
X366958Y853199D01*
X367655Y854107D01*
X368093Y855165D01*
X368242Y856299D01*
X368093Y857434D01*
X367655Y858491D01*
X366958Y859399D01*
X366050Y860096D01*
X364993Y860534D01*
X363858Y860683D01*
D02*
G37*
G36*
X560709D02*
X559574Y860534D01*
X558517Y860096D01*
X557609Y859399D01*
X556912Y858491D01*
X556474Y857434D01*
X556325Y856299D01*
X556474Y855165D01*
X556912Y854107D01*
X557609Y853199D01*
X558517Y852503D01*
X559574Y852065D01*
X560709Y851915D01*
X561843Y852065D01*
X562901Y852503D01*
X563808Y853199D01*
X564505Y854107D01*
X564943Y855165D01*
X565093Y856299D01*
X564943Y857434D01*
X564505Y858491D01*
X563808Y859399D01*
X562901Y860096D01*
X561843Y860534D01*
X560709Y860683D01*
D02*
G37*
G36*
X931500Y855500D02*
X926800D01*
Y850800D01*
X931500D01*
Y855500D01*
D02*
G37*
G36*
X937200D02*
X932500D01*
Y850800D01*
X937200D01*
Y855500D01*
D02*
G37*
G36*
X167008Y860683D02*
X165873Y860534D01*
X164816Y860096D01*
X163908Y859399D01*
X163211Y858491D01*
X162773Y857434D01*
X162624Y856299D01*
X162773Y855165D01*
X163211Y854107D01*
X163908Y853199D01*
X164816Y852503D01*
X165873Y852065D01*
X167008Y851915D01*
X168142Y852065D01*
X169200Y852503D01*
X170108Y853199D01*
X170804Y854107D01*
X171242Y855165D01*
X171392Y856299D01*
X171242Y857434D01*
X170804Y858491D01*
X170108Y859399D01*
X169200Y860096D01*
X168142Y860534D01*
X167008Y860683D01*
D02*
G37*
G36*
X816500Y926000D02*
X805500D01*
Y921000D01*
X808477D01*
Y837157D01*
X808631Y836383D01*
X809069Y835727D01*
X809720Y835076D01*
Y833500D01*
X814157D01*
Y837937D01*
X812582D01*
X812523Y837995D01*
Y921000D01*
X816500D01*
Y926000D01*
D02*
G37*
G36*
X819594Y837937D02*
X815157D01*
Y833500D01*
X819594D01*
Y837937D01*
D02*
G37*
G36*
X643110Y842617D02*
X642066Y842480D01*
X641093Y842077D01*
X640257Y841435D01*
X639616Y840600D01*
X639213Y839627D01*
X639076Y838583D01*
X639212Y837546D01*
X596995Y795328D01*
X596556Y794672D01*
X596402Y793898D01*
Y784033D01*
X595935Y783840D01*
X594904Y783049D01*
X594113Y782017D01*
X593615Y780816D01*
X593446Y779528D01*
X593615Y778239D01*
X594113Y777038D01*
X594904Y776007D01*
X595935Y775215D01*
X597136Y774718D01*
X598425Y774548D01*
X599714Y774718D01*
X600915Y775215D01*
X601946Y776007D01*
X602738Y777038D01*
X603235Y778239D01*
X603405Y779528D01*
X603235Y780816D01*
X602738Y782017D01*
X601946Y783049D01*
X600915Y783840D01*
X600448Y784033D01*
Y793060D01*
X642073Y834685D01*
X643110Y834548D01*
X644154Y834686D01*
X645127Y835089D01*
X645963Y835730D01*
X646604Y836565D01*
X647007Y837538D01*
X647145Y838583D01*
X647007Y839627D01*
X646604Y840600D01*
X645963Y841435D01*
X645127Y842077D01*
X644154Y842480D01*
X643110Y842617D01*
D02*
G37*
G36*
X786500Y831039D02*
X785325Y830884D01*
X784231Y830431D01*
X783291Y829709D01*
X782569Y828769D01*
X782116Y827675D01*
X781961Y826500D01*
X782116Y825325D01*
X782569Y824231D01*
X783291Y823291D01*
X784231Y822569D01*
X785325Y822116D01*
X786500Y821961D01*
X787675Y822116D01*
X788769Y822569D01*
X789709Y823291D01*
X790431Y824231D01*
X790884Y825325D01*
X791039Y826500D01*
X790884Y827675D01*
X790431Y828769D01*
X789709Y829709D01*
X788769Y830431D01*
X787675Y830884D01*
X786500Y831039D01*
D02*
G37*
G36*
X814157Y832500D02*
X809720D01*
Y828063D01*
X814157D01*
Y832500D01*
D02*
G37*
G36*
X786500Y841039D02*
X785325Y840884D01*
X784231Y840431D01*
X783291Y839709D01*
X782569Y838769D01*
X782116Y837675D01*
X781961Y836500D01*
X782116Y835325D01*
X782569Y834231D01*
X783291Y833291D01*
X784231Y832569D01*
X785325Y832116D01*
X786500Y831961D01*
X787675Y832116D01*
X788769Y832569D01*
X789709Y833291D01*
X790431Y834231D01*
X790884Y835325D01*
X791039Y836500D01*
X790884Y837675D01*
X790431Y838769D01*
X789709Y839709D01*
X788769Y840431D01*
X787675Y840884D01*
X786500Y841039D01*
D02*
G37*
G36*
X726500Y851039D02*
X725325Y850884D01*
X724231Y850431D01*
X723291Y849709D01*
X722569Y848769D01*
X722116Y847675D01*
X721961Y846500D01*
X722116Y845325D01*
X722569Y844231D01*
X723291Y843291D01*
X724231Y842569D01*
X725325Y842116D01*
X726500Y841961D01*
X727675Y842116D01*
X728769Y842569D01*
X729709Y843291D01*
X730431Y844231D01*
X730884Y845325D01*
X731039Y846500D01*
X730884Y847675D01*
X730431Y848769D01*
X729709Y849709D01*
X728769Y850431D01*
X727675Y850884D01*
X726500Y851039D01*
D02*
G37*
G36*
X786500D02*
X785325Y850884D01*
X784231Y850431D01*
X783291Y849709D01*
X782569Y848769D01*
X782116Y847675D01*
X781961Y846500D01*
X782116Y845325D01*
X782569Y844231D01*
X783291Y843291D01*
X784231Y842569D01*
X785325Y842116D01*
X786500Y841961D01*
X787675Y842116D01*
X788769Y842569D01*
X789709Y843291D01*
X790431Y844231D01*
X790884Y845325D01*
X791039Y846500D01*
X790884Y847675D01*
X790431Y848769D01*
X789709Y849709D01*
X788769Y850431D01*
X787675Y850884D01*
X786500Y851039D01*
D02*
G37*
G36*
X319291Y891584D02*
X318311Y891454D01*
X317397Y891076D01*
X316613Y890474D01*
X316011Y889689D01*
X315632Y888776D01*
X315503Y887795D01*
X315632Y886815D01*
X316011Y885901D01*
X316613Y885116D01*
X317268Y884613D01*
Y860877D01*
X298871Y842481D01*
X297835Y842617D01*
X296790Y842480D01*
X295817Y842077D01*
X294982Y841435D01*
X294341Y840600D01*
X293938Y839627D01*
X293800Y838583D01*
X293938Y837538D01*
X294341Y836565D01*
X294982Y835730D01*
X295812Y835093D01*
Y822387D01*
X294982Y821750D01*
X294341Y820915D01*
X293938Y819942D01*
X293800Y818898D01*
X293938Y817853D01*
X294341Y816880D01*
X294982Y816045D01*
X295817Y815404D01*
X296790Y815001D01*
X297835Y814863D01*
X298879Y815001D01*
X299852Y815404D01*
X300687Y816045D01*
X301329Y816880D01*
X301732Y817853D01*
X301869Y818898D01*
X301732Y819942D01*
X301329Y820915D01*
X300687Y821750D01*
X299858Y822387D01*
Y835093D01*
X300687Y835730D01*
X301329Y836565D01*
X301732Y837538D01*
X301869Y838583D01*
X301733Y839620D01*
X320722Y858609D01*
X321161Y859265D01*
X321315Y860039D01*
Y884613D01*
X321970Y885116D01*
X322572Y885901D01*
X322951Y886815D01*
X323080Y887795D01*
X322951Y888776D01*
X322572Y889689D01*
X321970Y890474D01*
X321186Y891076D01*
X320272Y891454D01*
X319291Y891584D01*
D02*
G37*
G36*
X1005578Y961793D02*
X1004533Y961656D01*
X1003560Y961253D01*
X1002909Y960753D01*
X989759D01*
X988984Y960651D01*
X988772Y960563D01*
X988262Y960352D01*
X987642Y959876D01*
X948383Y920617D01*
X947907Y919997D01*
X947696Y919486D01*
X947608Y919275D01*
X947506Y918500D01*
Y790000D01*
X947608Y789225D01*
X947696Y789014D01*
X947907Y788503D01*
X948383Y787883D01*
X950615Y785651D01*
X950332Y785227D01*
X950032Y785351D01*
X949000Y785487D01*
X947968Y785351D01*
X947007Y784953D01*
X946181Y784319D01*
X945547Y783493D01*
X945149Y782532D01*
X945013Y781500D01*
X945149Y780468D01*
X945547Y779507D01*
X946181Y778681D01*
X947007Y778047D01*
X947968Y777649D01*
X949000Y777513D01*
X950032Y777649D01*
X950993Y778047D01*
X951819Y778681D01*
X952453Y779507D01*
X952851Y780468D01*
X952987Y781500D01*
X952851Y782532D01*
X952727Y782832D01*
X953151Y783115D01*
X955051Y781215D01*
X955149Y780468D01*
X955547Y779507D01*
X956181Y778681D01*
X957007Y778047D01*
X957968Y777649D01*
X959000Y777513D01*
X960032Y777649D01*
X960993Y778047D01*
X961477Y778418D01*
X961977Y778172D01*
Y756500D01*
X962131Y755726D01*
X962569Y755069D01*
X965047Y752592D01*
Y752000D01*
X968500D01*
Y755453D01*
X967908D01*
X966023Y757338D01*
Y778172D01*
X966523Y778418D01*
X967007Y778047D01*
X967968Y777649D01*
X968715Y777551D01*
X973006Y773260D01*
Y755931D01*
X972953Y755453D01*
X969500D01*
Y751500D01*
Y747547D01*
X972953D01*
X973006Y747069D01*
Y745994D01*
X951500D01*
X950725Y745892D01*
X950302Y745717D01*
X950003Y745593D01*
X949383Y745117D01*
X928270Y724004D01*
X927456Y723897D01*
X926483Y723494D01*
X925647Y722853D01*
X925006Y722017D01*
X924603Y721044D01*
X924465Y720000D01*
X924603Y718956D01*
X925006Y717983D01*
X925647Y717147D01*
X926483Y716506D01*
X927456Y716103D01*
X928500Y715966D01*
X929544Y716103D01*
X930517Y716506D01*
X931353Y717147D01*
X931994Y717983D01*
X932397Y718956D01*
X932504Y719770D01*
X952740Y740006D01*
X973006D01*
Y709783D01*
X973108Y709009D01*
X973195Y708797D01*
X973407Y708286D01*
X973883Y707666D01*
X988177Y693372D01*
X988220Y693045D01*
X988589Y692156D01*
X989175Y691391D01*
X989939Y690805D01*
X990829Y690437D01*
X991783Y690311D01*
X992738Y690437D01*
X993628Y690805D01*
X994392Y691391D01*
X994978Y692156D01*
X995347Y693045D01*
X995472Y694000D01*
X995347Y694955D01*
X994978Y695845D01*
X994392Y696609D01*
X993628Y697195D01*
X992738Y697563D01*
X992411Y697606D01*
X978994Y711024D01*
Y727902D01*
X979456Y728093D01*
X988505Y719044D01*
X988499Y719000D01*
X988645Y717891D01*
X989073Y716858D01*
X989754Y715970D01*
X990641Y715289D01*
X991674Y714861D01*
X992783Y714715D01*
X993892Y714861D01*
X994926Y715289D01*
X995813Y715970D01*
X996494Y716858D01*
X996922Y717891D01*
X997068Y719000D01*
X996922Y720109D01*
X996494Y721142D01*
X995813Y722030D01*
X994926Y722711D01*
X993892Y723139D01*
X992783Y723285D01*
X992739Y723279D01*
X983994Y732024D01*
Y790260D01*
X988433Y794699D01*
X988933Y794492D01*
Y789933D01*
X989006D01*
Y755217D01*
X989108Y754442D01*
X989196Y754230D01*
X989407Y753720D01*
X989883Y753099D01*
X996087Y746896D01*
X995853Y746422D01*
X995000Y746534D01*
X993956Y746397D01*
X992983Y745994D01*
X992147Y745353D01*
X991506Y744517D01*
X991103Y743544D01*
X990965Y742500D01*
X991103Y741456D01*
X991506Y740483D01*
X992147Y739647D01*
X992983Y739006D01*
X993956Y738603D01*
X995000Y738465D01*
X996044Y738603D01*
X997017Y739006D01*
X997853Y739647D01*
X998494Y740483D01*
X998897Y741456D01*
X999035Y742500D01*
X998922Y743353D01*
X999396Y743586D01*
X1023938Y719044D01*
X1023932Y719000D01*
X1024078Y717891D01*
X1024506Y716858D01*
X1025187Y715970D01*
X1026074Y715289D01*
X1027108Y714861D01*
X1028217Y714715D01*
X1029326Y714861D01*
X1030359Y715289D01*
X1031246Y715970D01*
X1031927Y716858D01*
X1032355Y717891D01*
X1032501Y719000D01*
X1032355Y720109D01*
X1031927Y721142D01*
X1031246Y722030D01*
X1030359Y722711D01*
X1029326Y723139D01*
X1028217Y723285D01*
X1028172Y723279D01*
X1013413Y738038D01*
X1013604Y738500D01*
X1014500D01*
Y742000D01*
X1011000D01*
Y741104D01*
X1010538Y740913D01*
X994994Y756457D01*
Y789933D01*
X995067D01*
Y795006D01*
X996000D01*
X996775Y795108D01*
X996986Y795195D01*
X997497Y795407D01*
X998117Y795883D01*
X1004117Y801883D01*
X1004593Y802503D01*
X1004717Y802802D01*
X1004892Y803225D01*
X1004994Y804000D01*
Y826000D01*
X1004892Y826775D01*
X1004805Y826986D01*
X1004593Y827497D01*
X1004117Y828117D01*
X977127Y855107D01*
X977245Y856000D01*
X977066Y857358D01*
X976542Y858622D01*
X975709Y859709D01*
X974622Y860542D01*
X973357Y861066D01*
X972000Y861245D01*
X970642Y861066D01*
X969378Y860542D01*
X968291Y859709D01*
X967458Y858622D01*
X966934Y857358D01*
X966755Y856000D01*
X966934Y854642D01*
X967458Y853378D01*
X968291Y852291D01*
X969378Y851458D01*
X970642Y850934D01*
X972000Y850755D01*
X972893Y850873D01*
X999006Y824760D01*
Y805240D01*
X995221Y801455D01*
X994797Y801738D01*
X994988Y802199D01*
X995028Y802500D01*
X992000D01*
Y803000D01*
X991500D01*
Y806028D01*
X991199Y805988D01*
X990453Y805679D01*
X989813Y805187D01*
X989687Y805023D01*
X978181D01*
X963241Y819963D01*
X963311Y820500D01*
X959843D01*
Y817031D01*
X960380Y817102D01*
X974310Y803171D01*
X962569Y791431D01*
X962131Y790774D01*
X961977Y790000D01*
Y784828D01*
X961477Y784582D01*
X960993Y784953D01*
X960032Y785351D01*
X959285Y785449D01*
X953494Y791240D01*
Y917260D01*
X990999Y954765D01*
X1002909D01*
X1003560Y954265D01*
X1004533Y953862D01*
X1005348Y953755D01*
X1011506Y947596D01*
Y855847D01*
X1010979Y855442D01*
X1010188Y854411D01*
X1009690Y853210D01*
X1009520Y851921D01*
Y842079D01*
X1009690Y840790D01*
X1010188Y839589D01*
X1010979Y838558D01*
X1012010Y837766D01*
X1013211Y837269D01*
X1014500Y837099D01*
X1015789Y837269D01*
X1016990Y837766D01*
X1018021Y838558D01*
X1018812Y839589D01*
X1019310Y840790D01*
X1019480Y842079D01*
Y851921D01*
X1019310Y853210D01*
X1018812Y854411D01*
X1018021Y855442D01*
X1017494Y855847D01*
Y948836D01*
X1017392Y949611D01*
X1017305Y949823D01*
X1017093Y950333D01*
X1016617Y950954D01*
X1009582Y957989D01*
X1009475Y958803D01*
X1009072Y959776D01*
X1008430Y960612D01*
X1007595Y961253D01*
X1006622Y961656D01*
X1005578Y961793D01*
D02*
G37*
G36*
X1038409Y846500D02*
X1033972D01*
Y838126D01*
X1038409D01*
Y846500D01*
D02*
G37*
G36*
X1043846D02*
X1039409D01*
Y838126D01*
X1043846D01*
Y846500D01*
D02*
G37*
G36*
X942586Y881793D02*
X941541Y881656D01*
X940568Y881253D01*
X939917Y880753D01*
X919759D01*
X918984Y880651D01*
X918772Y880563D01*
X918262Y880352D01*
X917642Y879876D01*
X903383Y865617D01*
X885260Y847494D01*
X845843D01*
X845068Y847392D01*
X844856Y847305D01*
X844345Y847093D01*
X843725Y846617D01*
X835001Y837893D01*
X834343Y837980D01*
X833054Y837810D01*
X831853Y837313D01*
X830822Y836521D01*
X830030Y835490D01*
X829533Y834289D01*
X829363Y833000D01*
X829533Y831711D01*
X830030Y830510D01*
X830822Y829479D01*
X831349Y829074D01*
Y825657D01*
X831450Y824883D01*
X831538Y824671D01*
X831750Y824160D01*
X832225Y823540D01*
X848883Y806883D01*
X849503Y806407D01*
X849802Y806283D01*
X850225Y806108D01*
X851000Y806006D01*
X874943D01*
X875622Y805724D01*
X876500Y805609D01*
X877378Y805724D01*
X878057Y806006D01*
X884000D01*
X884775Y806108D01*
X884986Y806196D01*
X885497Y806407D01*
X886117Y806883D01*
X893240Y814006D01*
X902260D01*
X935051Y781215D01*
X935149Y780468D01*
X935547Y779507D01*
X936006Y778909D01*
Y754091D01*
X935547Y753493D01*
X935149Y752532D01*
X935013Y751500D01*
X935149Y750468D01*
X935547Y749507D01*
X936181Y748681D01*
X937007Y748047D01*
X937968Y747649D01*
X939000Y747513D01*
X940032Y747649D01*
X940993Y748047D01*
X941819Y748681D01*
X942453Y749507D01*
X942851Y750468D01*
X942987Y751500D01*
X942851Y752532D01*
X942453Y753493D01*
X941994Y754091D01*
Y778909D01*
X942453Y779507D01*
X942851Y780468D01*
X942987Y781500D01*
X942851Y782532D01*
X942453Y783493D01*
X941819Y784319D01*
X940993Y784953D01*
X940032Y785351D01*
X939285Y785449D01*
X905617Y819117D01*
X904997Y819593D01*
X904486Y819804D01*
X904275Y819892D01*
X903500Y819994D01*
X892000D01*
X891225Y819892D01*
X891014Y819804D01*
X890503Y819593D01*
X889883Y819117D01*
X882760Y811994D01*
X878057D01*
X877378Y812276D01*
X876500Y812391D01*
X875622Y812276D01*
X874943Y811994D01*
X852240D01*
X837337Y826898D01*
Y829074D01*
X837864Y829479D01*
X838655Y830510D01*
X839153Y831711D01*
X839322Y833000D01*
X839235Y833659D01*
X847083Y841506D01*
X886500D01*
X887275Y841608D01*
X887486Y841695D01*
X887997Y841907D01*
X888617Y842383D01*
X907617Y861383D01*
X920999Y874765D01*
X939917D01*
X940568Y874265D01*
X941541Y873862D01*
X942586Y873724D01*
X943630Y873862D01*
X944603Y874265D01*
X945438Y874906D01*
X946080Y875741D01*
X946483Y876715D01*
X946620Y877759D01*
X946483Y878803D01*
X946080Y879776D01*
X945438Y880612D01*
X944603Y881253D01*
X943630Y881656D01*
X942586Y881793D01*
D02*
G37*
G36*
X974082D02*
X973037Y881656D01*
X972064Y881253D01*
X971229Y880612D01*
X970588Y879776D01*
X970185Y878803D01*
X970047Y877759D01*
X970185Y876715D01*
X970588Y875741D01*
X971229Y874906D01*
X972064Y874265D01*
X973037Y873862D01*
X974082Y873724D01*
X975126Y873862D01*
X976099Y874265D01*
X976934Y874906D01*
X977576Y875741D01*
X977979Y876715D01*
X978116Y877759D01*
X977979Y878803D01*
X977576Y879776D01*
X976934Y880612D01*
X976099Y881253D01*
X975126Y881656D01*
X974082Y881793D01*
D02*
G37*
G36*
X1005578D02*
X1004533Y881656D01*
X1003560Y881253D01*
X1002725Y880612D01*
X1002084Y879776D01*
X1001681Y878803D01*
X1001543Y877759D01*
X1001681Y876715D01*
X1002084Y875741D01*
X1002725Y874906D01*
X1003560Y874265D01*
X1004533Y873862D01*
X1005578Y873724D01*
X1006622Y873862D01*
X1007595Y874265D01*
X1008430Y874906D01*
X1009072Y875741D01*
X1009475Y876715D01*
X1009612Y877759D01*
X1009475Y878803D01*
X1009072Y879776D01*
X1008430Y880612D01*
X1007595Y881253D01*
X1006622Y881656D01*
X1005578Y881793D01*
D02*
G37*
G36*
X826500Y875391D02*
X825622Y875276D01*
X824804Y874937D01*
X824102Y874398D01*
X823563Y873696D01*
X823224Y872878D01*
X823109Y872000D01*
X823224Y871122D01*
X823563Y870304D01*
X824102Y869602D01*
X824804Y869063D01*
X825622Y868724D01*
X826500Y868609D01*
X827378Y868724D01*
X828196Y869063D01*
X828898Y869602D01*
X829437Y870304D01*
X829776Y871122D01*
X829891Y872000D01*
X829776Y872878D01*
X829437Y873696D01*
X828898Y874398D01*
X828196Y874937D01*
X827378Y875276D01*
X826500Y875391D01*
D02*
G37*
G36*
X866000Y932047D02*
X864564Y931858D01*
X863226Y931304D01*
X862077Y930423D01*
X861196Y929274D01*
X860642Y927936D01*
X860452Y926500D01*
X860642Y925064D01*
X861196Y923726D01*
X862077Y922577D01*
X863226Y921696D01*
X864564Y921142D01*
X866000Y920953D01*
X867436Y921142D01*
X868774Y921696D01*
X869923Y922577D01*
X870635Y923506D01*
X875260D01*
X883606Y915160D01*
Y877681D01*
X883538Y877653D01*
X882712Y877019D01*
X882079Y876193D01*
X881680Y875232D01*
X881545Y874200D01*
X881680Y873168D01*
X882079Y872207D01*
X882712Y871381D01*
X883538Y870747D01*
X884500Y870349D01*
X885532Y870213D01*
X889468D01*
X890239Y870315D01*
X890444Y869896D01*
X890144Y869523D01*
X878021D01*
Y871453D01*
X872600D01*
Y867500D01*
X872100D01*
Y867000D01*
X866179D01*
Y863547D01*
X870077D01*
Y858053D01*
X866179D01*
Y854600D01*
X878021D01*
Y858053D01*
X874123D01*
Y863547D01*
X878021D01*
Y865477D01*
X891000D01*
X891774Y865631D01*
X892430Y866069D01*
X904930Y878569D01*
X905369Y879226D01*
X905523Y880000D01*
Y906579D01*
X907500D01*
Y910079D01*
X899500D01*
Y906579D01*
X901476D01*
Y880838D01*
X893826Y873188D01*
X893353Y873421D01*
X893455Y874200D01*
X893320Y875232D01*
X892921Y876193D01*
X892288Y877019D01*
X891462Y877653D01*
X890500Y878051D01*
X889594Y878170D01*
Y916400D01*
X889492Y917175D01*
X889404Y917386D01*
X889193Y917897D01*
X888717Y918517D01*
X878617Y928617D01*
X877997Y929093D01*
X877486Y929305D01*
X877275Y929392D01*
X876500Y929494D01*
X870635D01*
X869923Y930423D01*
X868774Y931304D01*
X867436Y931858D01*
X866000Y932047D01*
D02*
G37*
G36*
X786500Y881039D02*
X785325Y880884D01*
X784231Y880431D01*
X783291Y879709D01*
X782569Y878769D01*
X782116Y877675D01*
X781961Y876500D01*
X782116Y875325D01*
X782569Y874231D01*
X783291Y873291D01*
X784231Y872569D01*
X785325Y872116D01*
X786500Y871961D01*
X787675Y872116D01*
X788769Y872569D01*
X789709Y873291D01*
X790431Y874231D01*
X790884Y875325D01*
X791039Y876500D01*
X790884Y877675D01*
X790431Y878769D01*
X789709Y879709D01*
X788769Y880431D01*
X787675Y880884D01*
X786500Y881039D01*
D02*
G37*
G36*
X175491Y884263D02*
X171741D01*
Y881763D01*
X175491D01*
Y884263D01*
D02*
G37*
G36*
X273916D02*
X270166D01*
Y881763D01*
X273916D01*
Y884263D01*
D02*
G37*
G36*
X372341D02*
X368591D01*
Y881763D01*
X372341D01*
Y884263D01*
D02*
G37*
G36*
X1037074Y881793D02*
X1036030Y881656D01*
X1035056Y881253D01*
X1034221Y880612D01*
X1033580Y879776D01*
X1033177Y878803D01*
X1033039Y877759D01*
X1033177Y876715D01*
X1033580Y875741D01*
X1034221Y874906D01*
X1035056Y874265D01*
X1036030Y873862D01*
X1037074Y873724D01*
X1038118Y873862D01*
X1039091Y874265D01*
X1039927Y874906D01*
X1040568Y875741D01*
X1040971Y876715D01*
X1041108Y877759D01*
X1040971Y878803D01*
X1040568Y879776D01*
X1039927Y880612D01*
X1039091Y881253D01*
X1038118Y881656D01*
X1037074Y881793D01*
D02*
G37*
G36*
X874069Y884887D02*
X870131D01*
X869100Y884751D01*
X868138Y884353D01*
X867312Y883719D01*
X866679Y882893D01*
X866280Y881932D01*
X866145Y880900D01*
X866280Y879868D01*
X866679Y878907D01*
X867312Y878081D01*
X868138Y877447D01*
X869100Y877049D01*
X870131Y876913D01*
X874069D01*
X875100Y877049D01*
X876062Y877447D01*
X876888Y878081D01*
X877521Y878907D01*
X877919Y879868D01*
X878055Y880900D01*
X877919Y881932D01*
X877521Y882893D01*
X876888Y883719D01*
X876062Y884353D01*
X875100Y884751D01*
X874069Y884887D01*
D02*
G37*
G36*
X170741Y884263D02*
X166991D01*
Y881763D01*
X170741D01*
Y884263D01*
D02*
G37*
G36*
X931500Y861200D02*
X926800D01*
Y856500D01*
X931500D01*
Y861200D01*
D02*
G37*
G36*
X937200D02*
X932500D01*
Y856500D01*
X937200D01*
Y861200D01*
D02*
G37*
G36*
X889468Y864787D02*
X885532D01*
X884500Y864651D01*
X883538Y864253D01*
X882712Y863619D01*
X882079Y862793D01*
X881680Y861832D01*
X881545Y860800D01*
X881680Y859768D01*
X882079Y858807D01*
X882712Y857981D01*
X883538Y857347D01*
X884500Y856949D01*
X885532Y856813D01*
X889468D01*
X890500Y856949D01*
X891462Y857347D01*
X892288Y857981D01*
X892921Y858807D01*
X893320Y859768D01*
X893455Y860800D01*
X893320Y861832D01*
X892921Y862793D01*
X892288Y863619D01*
X891462Y864253D01*
X890500Y864651D01*
X889468Y864787D01*
D02*
G37*
G36*
X726500Y861039D02*
X725325Y860884D01*
X724231Y860431D01*
X723291Y859709D01*
X722569Y858769D01*
X722116Y857675D01*
X721961Y856500D01*
X722116Y855325D01*
X722569Y854231D01*
X723291Y853291D01*
X724231Y852569D01*
X725325Y852116D01*
X726500Y851961D01*
X727675Y852116D01*
X728769Y852569D01*
X729709Y853291D01*
X730431Y854231D01*
X730884Y855325D01*
X731039Y856500D01*
X730884Y857675D01*
X730431Y858769D01*
X729709Y859709D01*
X728769Y860431D01*
X727675Y860884D01*
X726500Y861039D01*
D02*
G37*
G36*
X786500D02*
X785325Y860884D01*
X784231Y860431D01*
X783291Y859709D01*
X782569Y858769D01*
X782116Y857675D01*
X781961Y856500D01*
X782116Y855325D01*
X782569Y854231D01*
X783291Y853291D01*
X784231Y852569D01*
X785325Y852116D01*
X786500Y851961D01*
X787675Y852116D01*
X788769Y852569D01*
X789709Y853291D01*
X790431Y854231D01*
X790884Y855325D01*
X791039Y856500D01*
X790884Y857675D01*
X790431Y858769D01*
X789709Y859709D01*
X788769Y860431D01*
X787675Y860884D01*
X786500Y861039D01*
D02*
G37*
G36*
X462283Y925644D02*
X461149Y925494D01*
X460091Y925056D01*
X459184Y924360D01*
X458487Y923452D01*
X458049Y922394D01*
X457899Y921260D01*
X458049Y920125D01*
X458487Y919068D01*
X459184Y918160D01*
X460091Y917463D01*
X460260Y917393D01*
Y899538D01*
X458929Y898207D01*
X458491Y897550D01*
X458336Y896776D01*
Y892500D01*
X458491Y891726D01*
X458929Y891069D01*
X461666Y888333D01*
X461960Y888136D01*
X462267Y887763D01*
Y885263D01*
X470767D01*
Y887763D01*
X470598D01*
X470376Y888212D01*
X470406Y888251D01*
X470709Y888980D01*
X470812Y889763D01*
X470709Y890547D01*
X470406Y891276D01*
X469925Y891903D01*
X469904Y892464D01*
X470181Y892740D01*
X472899D01*
X474477Y891162D01*
Y881638D01*
X447618Y854779D01*
X443482D01*
X443289Y855246D01*
X442497Y856277D01*
X441466Y857069D01*
X440265Y857566D01*
X438976Y857736D01*
X437688Y857566D01*
X436487Y857069D01*
X435455Y856277D01*
X434664Y855246D01*
X434166Y854045D01*
X433997Y852756D01*
X434166Y851467D01*
X434664Y850266D01*
X435455Y849235D01*
X436487Y848444D01*
X437688Y847946D01*
X438976Y847776D01*
X440265Y847946D01*
X441466Y848444D01*
X442497Y849235D01*
X443289Y850266D01*
X443482Y850733D01*
X448456D01*
X449230Y850887D01*
X449887Y851325D01*
X477931Y879369D01*
X478369Y880026D01*
X478523Y880800D01*
Y892000D01*
X478369Y892774D01*
X478224Y892992D01*
X477931Y893431D01*
X475167Y896194D01*
X474511Y896632D01*
X473737Y896786D01*
X469996D01*
X469906Y896903D01*
X469279Y897384D01*
X468550Y897686D01*
X467767Y897789D01*
X465267D01*
X464578Y897698D01*
X464512Y897734D01*
X464337Y897894D01*
X464188Y898105D01*
X464306Y898700D01*
Y917393D01*
X464475Y917463D01*
X465383Y918160D01*
X466080Y919068D01*
X466518Y920125D01*
X466667Y921260D01*
X466518Y922394D01*
X466080Y923452D01*
X465383Y924360D01*
X464475Y925056D01*
X463418Y925494D01*
X462283Y925644D01*
D02*
G37*
G36*
X1026598Y871622D02*
X1018224D01*
Y867185D01*
X1026598D01*
Y871622D01*
D02*
G37*
G36*
X1035972D02*
X1027598D01*
Y867185D01*
X1035972D01*
Y871622D01*
D02*
G37*
G36*
X871600Y871453D02*
X866179D01*
Y868000D01*
X871600D01*
Y871453D01*
D02*
G37*
G36*
X102764Y866288D02*
X101784Y866159D01*
X100870Y865781D01*
X100085Y865179D01*
X99483Y864394D01*
X99105Y863480D01*
X98976Y862500D01*
X99105Y861520D01*
X99483Y860606D01*
X100085Y859821D01*
X100870Y859219D01*
X101784Y858841D01*
X102764Y858712D01*
X103744Y858841D01*
X104658Y859219D01*
X105443Y859821D01*
X106045Y860606D01*
X106423Y861520D01*
X106552Y862500D01*
X106423Y863480D01*
X106045Y864394D01*
X105443Y865179D01*
X104658Y865781D01*
X103744Y866159D01*
X102764Y866288D01*
D02*
G37*
G36*
X123500Y895384D02*
X122365Y895235D01*
X121308Y894797D01*
X120400Y894100D01*
X119703Y893192D01*
X119265Y892135D01*
X119116Y891000D01*
X119265Y889865D01*
X119703Y888808D01*
X120400Y887900D01*
X121308Y887203D01*
X121477Y887133D01*
Y877538D01*
X121367Y877374D01*
X121213Y876600D01*
Y865682D01*
X120558Y865179D01*
X119956Y864394D01*
X119577Y863480D01*
X119448Y862500D01*
X119577Y861520D01*
X119956Y860606D01*
X120558Y859821D01*
X121342Y859219D01*
X122256Y858841D01*
X123236Y858712D01*
X124217Y858841D01*
X125131Y859219D01*
X125915Y859821D01*
X126517Y860606D01*
X126896Y861520D01*
X127025Y862500D01*
X126896Y863480D01*
X126517Y864394D01*
X125915Y865179D01*
X125259Y865682D01*
Y875925D01*
X125369Y876089D01*
X125523Y876864D01*
Y887133D01*
X125692Y887203D01*
X126600Y887900D01*
X127297Y888808D01*
X127735Y889865D01*
X127884Y891000D01*
X127735Y892135D01*
X127297Y893192D01*
X126600Y894100D01*
X125692Y894797D01*
X124635Y895235D01*
X123500Y895384D01*
D02*
G37*
G36*
X786500Y871039D02*
X785325Y870884D01*
X784231Y870431D01*
X783291Y869709D01*
X782569Y868769D01*
X782116Y867675D01*
X781961Y866500D01*
X782116Y865325D01*
X782569Y864231D01*
X783291Y863291D01*
X784231Y862569D01*
X785325Y862116D01*
X786500Y861961D01*
X787675Y862116D01*
X788769Y862569D01*
X789709Y863291D01*
X790431Y864231D01*
X790884Y865325D01*
X791039Y866500D01*
X790884Y867675D01*
X790431Y868769D01*
X789709Y869709D01*
X788769Y870431D01*
X787675Y870884D01*
X786500Y871039D01*
D02*
G37*
%LPD*%
D10*
X656800Y700200D02*
X687200D01*
X630800Y726200D02*
X656800Y700200D01*
X630800Y726200D02*
Y742021D01*
X274237Y894763D02*
X280500Y888500D01*
Y881500D02*
Y888500D01*
X275500Y876500D02*
X280500Y881500D01*
X730200Y944300D02*
X737000Y937500D01*
Y877000D02*
Y937500D01*
X726500Y866500D02*
X737000Y877000D01*
X689200Y944300D02*
X730200D01*
X745500Y855500D02*
Y935998D01*
X628149Y948700D02*
X732798D01*
X745500Y935998D01*
X726500Y836500D02*
X745500Y855500D01*
X454000Y848016D02*
X462283Y856299D01*
X454000Y838500D02*
Y848016D01*
Y838500D02*
X457000Y835500D01*
X495669Y861169D02*
Y887795D01*
X470000Y835500D02*
X495669Y861169D01*
X457000Y835500D02*
X470000D01*
X775900Y958100D02*
X799500Y934500D01*
Y751610D02*
Y934500D01*
Y751610D02*
X813110Y738000D01*
X560000Y889763D02*
X564961D01*
X556000Y893763D02*
Y916551D01*
Y893763D02*
X560000Y889763D01*
X556000Y916551D02*
X560709Y921260D01*
X561060Y929560D02*
X561300Y929800D01*
X566100Y925000D01*
X554940Y929560D02*
X561060D01*
X537402Y912022D02*
X554940Y929560D01*
X537402Y852756D02*
Y912022D01*
X738000Y951100D02*
X756500Y932600D01*
Y846500D02*
Y932600D01*
X726500Y816500D02*
X756500Y846500D01*
X865500Y927000D02*
Y928000D01*
Y927000D02*
X866000Y926500D01*
X813500Y691000D02*
X826890Y704390D01*
Y738000D01*
X520815Y795028D02*
X544685Y818898D01*
X515500Y795028D02*
X520815D01*
X500000Y779528D02*
X515500Y795028D01*
X320815Y791878D02*
X347835Y818898D01*
X315500Y791878D02*
X320815D01*
X303150Y779528D02*
X315500Y791878D01*
X401575Y781075D02*
X408705Y788205D01*
X415567D02*
X446260Y818898D01*
X408705Y788205D02*
X415567D01*
X401575Y779528D02*
Y781075D01*
X473737Y894763D02*
X476500Y892000D01*
Y880800D02*
Y892000D01*
X448456Y852756D02*
X476500Y880800D01*
X466517Y894763D02*
X473737D01*
X376237D02*
X379500Y891500D01*
Y882300D02*
Y891500D01*
X376000Y878800D02*
X379500Y882300D01*
X366595Y878800D02*
X376000D01*
X368091Y894763D02*
X376237D01*
X360558Y917960D02*
X363858Y921260D01*
X360558Y895400D02*
Y917960D01*
X181500Y894500D02*
X185000Y891000D01*
Y878500D02*
Y891000D01*
X181500Y875000D02*
X185000Y878500D01*
X171241Y894763D02*
X181500D01*
Y894500D02*
Y894763D01*
X165945Y875000D02*
X181500D01*
X143701Y852756D02*
X165945Y875000D01*
X275500Y876500D02*
X277000Y878000D01*
X265870Y876500D02*
X275500D01*
X269666Y894763D02*
X274237D01*
X242126Y852756D02*
X265870Y876500D01*
X264237Y884763D02*
X269666D01*
X252900Y896100D02*
X264237Y884763D01*
X252900Y896100D02*
Y920000D01*
X484000Y700000D02*
X500000Y716000D01*
X288614Y702000D02*
X303150Y716536D01*
X219260Y702000D02*
X288614D01*
X204724Y716536D02*
X219260Y702000D01*
X394610Y723500D02*
X401575Y716536D01*
X310114Y723500D02*
X394610D01*
X303150Y716536D02*
X310114Y723500D01*
X418110Y700000D02*
X484000D01*
X401575Y716536D02*
X418110Y700000D01*
X462283Y856299D02*
Y857183D01*
X500500Y870200D02*
Y921260D01*
X566100Y894763D02*
Y925000D01*
X977000Y803000D02*
X977343D01*
X695397Y845397D02*
X726500Y876500D01*
X695397Y729003D02*
Y845397D01*
Y729003D02*
X697900Y726500D01*
X678500Y716500D02*
X690471D01*
X692429Y718458D01*
Y852429D01*
X726500Y886500D01*
X689400Y859400D02*
X726500Y896500D01*
X689400Y750000D02*
Y859400D01*
X685900Y746500D02*
X689400Y750000D01*
X678500Y746500D02*
X685900D01*
X500500Y921260D02*
X502283D01*
X604331Y859921D02*
Y887795D01*
X600709Y856299D02*
X604331Y859921D01*
X681400Y916000D02*
X687001D01*
X677900Y912500D02*
X681400Y916000D01*
X677900Y883100D02*
Y912500D01*
Y883100D02*
X684000Y877000D01*
X494685Y838583D02*
X512953Y856851D01*
Y884606D01*
X516142Y887795D01*
X505906Y895276D02*
X537402Y926772D01*
X505906Y887795D02*
Y895276D01*
X564942Y894763D02*
X566100D01*
X407480Y859921D02*
Y887795D01*
X403858Y856299D02*
X407480Y859921D01*
X438976Y852756D02*
X448456D01*
X309055Y887795D02*
Y895276D01*
X340551Y926772D01*
X309055Y859921D02*
Y887795D01*
X305433Y856299D02*
X309055Y859921D01*
X210630D02*
Y887795D01*
X207008Y856299D02*
X210630Y859921D01*
X113000Y896071D02*
X143701Y926772D01*
X113000Y862500D02*
Y896071D01*
X598425Y779528D02*
Y793898D01*
X643110Y838583D01*
X199409Y784843D02*
Y818898D01*
Y784843D02*
X204724Y779528D01*
X669500Y706500D02*
X678500D01*
X656000Y720000D02*
X669500Y706500D01*
X656000Y720000D02*
Y746559D01*
X636811Y765748D02*
X656000Y746559D01*
X693500Y706500D02*
X708500D01*
X687200Y700200D02*
X693500Y706500D01*
X630800Y742021D02*
X636811Y748032D01*
X708500Y746500D02*
X715700D01*
Y702300D02*
Y746500D01*
X710000Y696600D02*
X715700Y702300D01*
X633600Y696600D02*
X710000D01*
X623900Y706300D02*
X633600Y696600D01*
X623900Y706300D02*
Y747900D01*
X630000Y754000D01*
X640000D01*
X642800Y751200D01*
Y736304D02*
Y751200D01*
X636811Y730315D02*
X642800Y736304D01*
X697900Y716500D02*
X708500D01*
X695200Y713800D02*
X697900Y716500D01*
X591561Y723400D02*
X598425Y716536D01*
X506864Y723400D02*
X591561D01*
X500000Y716536D02*
X506864Y723400D01*
X702500Y776500D02*
X708500D01*
X699900Y773900D02*
X702500Y776500D01*
X699900Y761400D02*
Y773900D01*
X100984Y784843D02*
Y818898D01*
Y784843D02*
X106299Y779528D01*
X594095Y887795D02*
Y940000D01*
X612195Y958100D01*
X775900D01*
X810500Y837157D02*
Y926500D01*
Y837157D02*
X814657Y833000D01*
X825500Y793500D02*
Y822157D01*
X814657Y833000D02*
X825500Y822157D01*
Y767190D02*
Y793500D01*
Y767190D02*
X826890Y738000D01*
X977343Y803000D02*
X992000D01*
X959343Y821000D02*
X977343Y803000D01*
X252900Y920000D02*
X266400Y933500D01*
X346900D01*
X353200Y927200D01*
Y890000D02*
Y927200D01*
Y890000D02*
X358437Y884763D01*
X368091D01*
X678500Y776500D02*
Y780000D01*
X663300Y795200D02*
X678500Y780000D01*
X656420Y795200D02*
X663300D01*
X591535Y730315D02*
X656420Y795200D01*
X502283Y856299D02*
X509984Y864000D01*
Y883716D01*
X505906Y887795D02*
X509984Y883716D01*
X600709Y921260D02*
X628149Y948700D01*
X197860Y723400D02*
X204724Y716536D01*
X113164Y723400D02*
X197860D01*
X106299Y716536D02*
X113164Y723400D01*
X708500Y756500D02*
X715000D01*
X718700Y752800D01*
Y700000D02*
Y752800D01*
X706000Y687300D02*
X718700Y700000D01*
X560732Y687300D02*
X706000D01*
X531496Y716536D02*
X560732Y687300D01*
X340551Y852756D02*
X366595Y878800D01*
X678500Y756500D02*
X685700D01*
Y799500D01*
X674900Y810300D02*
X685700Y799500D01*
X674900Y810300D02*
Y930000D01*
X689200Y944300D01*
X242126Y919291D02*
Y926772D01*
X210630Y887795D02*
X242126Y919291D01*
X438976D02*
Y926772D01*
X407480Y887795D02*
X438976Y919291D01*
X635827D02*
Y926772D01*
X604331Y887795D02*
X635827Y919291D01*
X903500Y880000D02*
Y910579D01*
X891000Y867500D02*
X903500Y880000D01*
X872100Y867500D02*
X891000D01*
X964000Y756500D02*
X969000Y751500D01*
X964000Y756500D02*
Y790000D01*
X977000Y803000D01*
X220866Y850000D02*
Y887795D01*
Y850000D02*
X232284Y838583D01*
X249409D01*
X297835D02*
X319291Y860039D01*
Y887795D01*
X396260Y838583D02*
X417717Y860039D01*
Y887795D01*
X593110Y838583D02*
X614567Y860039D01*
Y887795D01*
X886600Y874200D02*
X887500D01*
X166000Y889763D02*
X171260D01*
X266137D02*
X269685D01*
X255900Y900000D02*
X266137Y889763D01*
X255900Y900000D02*
Y911727D01*
X265433Y921260D01*
X366195Y889763D02*
X368111D01*
X360558Y895400D02*
X366195Y889763D01*
X463096D02*
X466536D01*
X460360Y892500D02*
X463096Y889763D01*
X460360Y892500D02*
Y896776D01*
X494685Y818898D02*
Y838583D01*
X396260Y818898D02*
Y838583D01*
X297835Y818898D02*
Y838583D01*
X249409Y818898D02*
Y838583D01*
X150984Y818898D02*
Y838583D01*
X544685Y818898D02*
Y838583D01*
X446260Y818898D02*
Y838583D01*
X347835Y818898D02*
Y838583D01*
X199409Y818898D02*
Y838583D01*
X100984Y818898D02*
Y838583D01*
X123500Y876864D02*
Y891000D01*
X123236Y876600D02*
X123500Y876864D01*
X123236Y862500D02*
Y876600D01*
X1027098Y862711D02*
Y866685D01*
Y862711D02*
X1038909Y850900D01*
Y847000D02*
Y850900D01*
X872100Y854100D02*
Y867500D01*
X460360Y896776D02*
X462283Y898700D01*
Y921260D01*
X161500Y915752D02*
X167008Y921260D01*
X161500Y894263D02*
Y915752D01*
Y894263D02*
X166000Y889763D01*
X635500Y901099D02*
X655400Y920999D01*
X635500Y853083D02*
Y901099D01*
Y853083D02*
X635827Y852756D01*
D11*
X886500Y844500D02*
X905500Y863500D01*
X845843Y844500D02*
X886500D01*
X834343Y833000D02*
X845843Y844500D01*
X892000Y817000D02*
X903500D01*
X939000Y781500D01*
X876500Y809000D02*
X884000D01*
X851000D02*
X876500D01*
X884000D02*
X892000Y817000D01*
X834343Y825657D02*
X851000Y809000D01*
X834343Y825657D02*
Y833000D01*
X869343Y782158D02*
X896185Y809000D01*
X835500Y793500D02*
X847000Y782000D01*
X869343D01*
X675500Y736500D02*
X678500D01*
X919759Y877759D02*
X942586D01*
X905500Y863500D02*
X919759Y877759D01*
X976000Y709783D02*
X991783Y694000D01*
X969000Y781500D02*
X976000Y774500D01*
Y709783D02*
Y774500D01*
X951500Y743000D02*
X976000D01*
X928500Y720000D02*
X951500Y743000D01*
X989759Y957759D02*
X1005578D01*
X950500Y918500D02*
X989759Y957759D01*
X950500Y790000D02*
Y918500D01*
X886600Y874200D02*
Y916400D01*
X876500Y926500D02*
X886600Y916400D01*
X866000Y926500D02*
X876500D01*
X996000Y798000D02*
X1002000Y804000D01*
X992000Y798000D02*
X996000D01*
X1002000Y804000D02*
Y826000D01*
X1022000Y770500D02*
X1038500Y754000D01*
Y705284D02*
Y754000D01*
X1027216Y694000D02*
X1038500Y705284D01*
X981000Y791500D02*
X987500Y798000D01*
X981000Y730783D02*
Y791500D01*
X987500Y798000D02*
X992000D01*
X981000Y730783D02*
X992783Y719000D01*
X972000Y856000D02*
X1002000Y826000D01*
X942500Y704000D02*
X958500Y720000D01*
X907000Y704000D02*
X942500D01*
X894000Y691000D02*
X907000Y704000D01*
X853500Y691000D02*
X894000D01*
X950500Y790000D02*
X959000Y781500D01*
X992000Y755217D02*
X1028217Y719000D01*
X992000Y755217D02*
Y793000D01*
X1014500Y847000D02*
Y948836D01*
X1005578Y957759D02*
X1014500Y948836D01*
X939000Y751500D02*
Y781500D01*
X653500Y758500D02*
X675500Y736500D01*
X653500Y758500D02*
Y783400D01*
X660600Y790500D01*
D12*
X1022000Y810500D02*
D03*
Y770500D02*
D03*
D13*
X865437Y735000D02*
D03*
D14*
X857563D02*
D03*
D15*
X1037074Y957759D02*
D03*
Y877759D02*
D03*
X1005578Y957759D02*
D03*
Y877759D02*
D03*
X974082Y957759D02*
D03*
Y877759D02*
D03*
X942586Y957759D02*
D03*
Y877759D02*
D03*
X896500Y728000D02*
D03*
X958500Y720000D02*
D03*
X928500D02*
D03*
X593110Y838583D02*
D03*
X643110D02*
D03*
X494685D02*
D03*
X544685D02*
D03*
X396260D02*
D03*
X446260D02*
D03*
X297835D02*
D03*
X347835D02*
D03*
X249409D02*
D03*
X199409D02*
D03*
X150984D02*
D03*
X100984D02*
D03*
X593110Y818898D02*
D03*
X643110D02*
D03*
X494685D02*
D03*
X544685D02*
D03*
X396260D02*
D03*
X446260D02*
D03*
X297835D02*
D03*
X347835D02*
D03*
X249409D02*
D03*
X199409D02*
D03*
X150984D02*
D03*
X100984D02*
D03*
X939657Y821000D02*
D03*
X959343D02*
D03*
X903500Y920422D02*
D03*
X995000Y742500D02*
D03*
X853500Y691000D02*
D03*
X57087Y956693D02*
D03*
X915354D02*
D03*
X57087Y688976D02*
D03*
X915354D02*
D03*
X813110Y738000D02*
D03*
D16*
X560709Y856299D02*
D03*
X600709D02*
D03*
X462283D02*
D03*
X502283D02*
D03*
X363858D02*
D03*
X403858D02*
D03*
X265433D02*
D03*
X305433D02*
D03*
X167008D02*
D03*
X207008D02*
D03*
X123500Y891000D02*
D03*
X83500D02*
D03*
X684000Y877000D02*
D03*
Y837000D02*
D03*
X560709Y921260D02*
D03*
X600709D02*
D03*
X462283D02*
D03*
X502283D02*
D03*
X363858D02*
D03*
X403858D02*
D03*
X265433D02*
D03*
X305433D02*
D03*
X167008D02*
D03*
X207008D02*
D03*
X835500Y793500D02*
D03*
X845500D02*
D03*
D17*
X122047Y783465D02*
D03*
X113000Y862500D02*
D03*
X102764D02*
D03*
X123236D02*
D03*
X210630Y887795D02*
D03*
X220866D02*
D03*
X200394D02*
D03*
X309055D02*
D03*
X319291D02*
D03*
X298819D02*
D03*
X407480D02*
D03*
X417717D02*
D03*
X397244D02*
D03*
X505906D02*
D03*
X516142D02*
D03*
X495669D02*
D03*
X604331D02*
D03*
X614567D02*
D03*
X594095D02*
D03*
X220472Y783465D02*
D03*
X318898D02*
D03*
X417323D02*
D03*
X515748D02*
D03*
X614173D02*
D03*
D18*
X137795Y779528D02*
D03*
X122047Y712599D02*
D03*
X144685Y765748D02*
D03*
Y748032D02*
D03*
Y730315D02*
D03*
X137795Y716536D02*
D03*
X106299Y779528D02*
D03*
X99409Y765748D02*
D03*
Y748032D02*
D03*
Y730315D02*
D03*
X106299Y716536D02*
D03*
X143701Y852756D02*
D03*
Y926772D02*
D03*
X242126Y852756D02*
D03*
Y926772D02*
D03*
X340551Y852756D02*
D03*
Y926772D02*
D03*
X438976Y852756D02*
D03*
Y926772D02*
D03*
X537402Y852756D02*
D03*
Y926772D02*
D03*
X635827Y852756D02*
D03*
Y926772D02*
D03*
X236220Y779528D02*
D03*
X220472Y712599D02*
D03*
X243110Y765748D02*
D03*
Y748032D02*
D03*
Y730315D02*
D03*
X236220Y716536D02*
D03*
X204724Y779528D02*
D03*
X197835Y765748D02*
D03*
Y748032D02*
D03*
Y730315D02*
D03*
X204724Y716536D02*
D03*
X334646Y779528D02*
D03*
X318898Y712599D02*
D03*
X341535Y765748D02*
D03*
Y748032D02*
D03*
Y730315D02*
D03*
X334646Y716536D02*
D03*
X303150Y779528D02*
D03*
X296260Y765748D02*
D03*
Y748032D02*
D03*
Y730315D02*
D03*
X303150Y716536D02*
D03*
X433071Y779528D02*
D03*
X417323Y712599D02*
D03*
X439961Y765748D02*
D03*
Y748032D02*
D03*
Y730315D02*
D03*
X433071Y716536D02*
D03*
X401575Y779528D02*
D03*
X394685Y765748D02*
D03*
Y748032D02*
D03*
Y730315D02*
D03*
X401575Y716536D02*
D03*
X531496Y779528D02*
D03*
X515748Y712599D02*
D03*
X538386Y765748D02*
D03*
Y748032D02*
D03*
Y730315D02*
D03*
X531496Y716536D02*
D03*
X500000Y779528D02*
D03*
X493110Y765748D02*
D03*
Y748032D02*
D03*
Y730315D02*
D03*
X500000Y716536D02*
D03*
X629921Y779528D02*
D03*
X614173Y712599D02*
D03*
X636811Y765748D02*
D03*
Y748032D02*
D03*
Y730315D02*
D03*
X629921Y716536D02*
D03*
X598425Y779528D02*
D03*
X591535Y765748D02*
D03*
Y748032D02*
D03*
Y730315D02*
D03*
X598425Y716536D02*
D03*
X834343Y833000D02*
D03*
D19*
X896500Y768000D02*
D03*
X903500Y910579D02*
D03*
D20*
X678500Y736500D02*
D03*
Y726500D02*
D03*
Y716500D02*
D03*
Y706500D02*
D03*
Y766500D02*
D03*
Y756500D02*
D03*
Y746500D02*
D03*
X708500Y706500D02*
D03*
Y716500D02*
D03*
Y726500D02*
D03*
Y746500D02*
D03*
Y756500D02*
D03*
Y766500D02*
D03*
Y776500D02*
D03*
D21*
X678500D02*
D03*
D22*
X708500Y736500D02*
D03*
D23*
X786500Y926500D02*
D03*
X726500Y906500D02*
D03*
D24*
X786500Y916500D02*
D03*
Y906500D02*
D03*
Y896500D02*
D03*
Y886500D02*
D03*
Y876500D02*
D03*
Y866500D02*
D03*
Y856500D02*
D03*
Y846500D02*
D03*
Y836500D02*
D03*
Y826500D02*
D03*
Y816500D02*
D03*
Y806500D02*
D03*
Y796500D02*
D03*
X726500D02*
D03*
Y806500D02*
D03*
Y816500D02*
D03*
Y826500D02*
D03*
Y836500D02*
D03*
Y846500D02*
D03*
Y856500D02*
D03*
Y866500D02*
D03*
Y876500D02*
D03*
Y886500D02*
D03*
Y896500D02*
D03*
X786500Y936500D02*
D03*
X726500Y916500D02*
D03*
Y926500D02*
D03*
Y936500D02*
D03*
D25*
X171241Y884763D02*
D03*
X269666D02*
D03*
X368091D02*
D03*
X466517D02*
D03*
X564942D02*
D03*
X686981Y910999D02*
D03*
D26*
X171260Y889763D02*
D03*
X171241Y894763D02*
D03*
X269685Y889763D02*
D03*
X269666Y894763D02*
D03*
X368111Y889763D02*
D03*
X368091Y894763D02*
D03*
X466536Y889763D02*
D03*
X466517Y894763D02*
D03*
X564961Y889763D02*
D03*
X564942Y894763D02*
D03*
X687001Y916000D02*
D03*
X686981Y920999D02*
D03*
D27*
X972000Y856000D02*
D03*
D28*
X932000D02*
D03*
D29*
X992000Y803000D02*
D03*
Y798000D02*
D03*
D30*
Y793000D02*
D03*
D31*
X825500Y793500D02*
D03*
D32*
X992783Y719000D02*
D03*
X1028217D02*
D03*
D33*
X896185Y809000D02*
D03*
X876500D02*
D03*
X826500Y891685D02*
D03*
Y872000D02*
D03*
D34*
X991783Y694000D02*
D03*
X1027216D02*
D03*
D35*
X1015000Y742500D02*
D03*
X813500Y691000D02*
D03*
X826890Y738000D02*
D03*
D36*
X969000Y781500D02*
D03*
X959000D02*
D03*
X949000D02*
D03*
X939000D02*
D03*
X959000Y751500D02*
D03*
X949000D02*
D03*
X939000D02*
D03*
D37*
X969000D02*
D03*
D38*
X814657Y833000D02*
D03*
D39*
X872100Y867500D02*
D03*
Y854100D02*
D03*
D40*
X887500Y860800D02*
D03*
Y874200D02*
D03*
X872100Y880900D02*
D03*
D41*
X811000Y926500D02*
D03*
D42*
X866000D02*
D03*
D43*
X1027098Y866685D02*
D03*
D44*
X1038909Y847000D02*
D03*
D45*
X1014500D02*
D03*
D46*
X697900Y726500D02*
D03*
X500500Y870200D02*
D03*
X738000Y951100D02*
D03*
X695200Y713800D02*
D03*
X699900Y761400D02*
D03*
X660600Y790500D02*
D03*
X655400Y920999D02*
D03*
M02*
